<svg width="200" height="200" viewBox="0 0 200 200" fill="none" xmlns="http://www.w3.org/2000/svg">
<path d="M97.0886 173.582C149.789 173.582 192.511 166.193 192.511 157.079C192.511 147.964 149.789 140.575 97.0886 140.575C44.3885 140.575 1.66663 147.964 1.66663 157.079C1.66663 166.193 44.3885 173.582 97.0886 173.582Z" fill="#EDEDEE"/>
<path d="M179.13 165.731H15.046C12.6034 165.731 10.624 163.751 10.624 161.309V158.916C63.5267 152.6 121.847 153.503 183.553 158.916V161.309C183.552 163.751 181.573 165.731 179.13 165.731Z" fill="#595B5F"/>
<path d="M183.554 158.917H10.6233L29.8093 141.951C78.064 135.079 123.571 133.742 164.367 141.951L183.554 158.917Z" fill="#B6B8B8"/>
<path d="M164.365 141.952H29.8113V51.7267C29.8113 51.268 30.1833 50.896 30.6419 50.896H163.535C163.993 50.896 164.365 51.268 164.365 51.7267V141.952H164.365Z" fill="#595B5F"/>
<path d="M160.547 138.134V54.7146L33.6297 54.7146V138.134H160.547Z" fill="white"/>
<path d="M162.697 151.594H31.4786L38.4386 143.837H155.738L162.697 151.594Z" fill="#787878"/>
<path d="M123.259 157.975H70.9166L73.6933 152.462H120.483L123.259 157.975Z" fill="#8C8C8C"/>
<path d="M111.206 158.917V159.496C111.206 160.718 110.219 161.711 108.998 161.711H85.1793C83.9573 161.711 82.9713 160.718 82.9713 159.496V158.917H111.206Z" fill="#CCCCCC"/>
<path d="M55.63 29.094L54.576 28.3487L56.4294 26.4954L57.5181 28.4434L55.6947 30.0274L55.63 29.094Z" fill="#E0E0E0"/>
<path d="M136.367 124.091L137.748 124.693L139.601 122.84L138.581 122.007L135.673 121.617L136.367 124.091Z" fill="#E0E0E0"/>
<path d="M137.748 39.6601V124.693H54.576V28.3488H126.436L137.748 39.6601Z" fill="#E0E0E0"/>
<path d="M139.601 37.8074V122.84H56.4294V26.4954H128.289L139.601 37.8074Z" fill="#F1F2F2"/>
<path d="M128.212 37.7294L128.367 26.4187L139.523 37.884L128.212 37.7294Z" fill="#E0E0E0"/>
<path d="M110.931 49.1307H85.0994C78.1401 49.1307 72.4788 54.7914 72.4788 61.7501V87.5834C72.4788 94.5414 78.1401 100.204 85.0994 100.204H110.931C117.889 100.204 123.552 94.5414 123.552 87.5834V61.7501C123.552 54.7921 117.889 49.1307 110.931 49.1307ZM119.3 87.5834C119.3 92.1974 115.545 95.9521 110.931 95.9521H85.0994C80.4841 95.9521 76.7308 92.1967 76.7308 87.5834V61.7501C76.7308 57.1361 80.4841 53.3827 85.0994 53.3827H110.931C115.545 53.3827 119.3 57.1361 119.3 61.7501V87.5834Z" fill="#7A8FC8"/>
<path d="M119.3 61.75V87.5834C119.3 92.1974 115.545 95.952 110.931 95.952H85.0994C80.484 95.952 76.7307 92.1967 76.7307 87.5834V61.75C76.7307 57.136 80.484 53.3827 85.0994 53.3827H110.931C115.545 53.3827 119.3 57.136 119.3 61.75Z" fill="white"/>
<path d="M91.8955 87.0001C90.9521 86.9888 90.0581 86.5848 89.4375 85.8908L81.2628 76.7908C80.6661 76.1275 80.3641 75.2708 80.4128 74.3795C80.4595 73.4908 80.8508 72.6715 81.5155 72.0735C82.1288 71.5221 82.9215 71.2181 83.7475 71.2181C84.6948 71.2181 85.6008 71.6221 86.2335 72.3255L91.9775 78.7215L104.425 65.4728L104.457 65.4408L109.849 59.6995C110.487 59.0208 111.352 58.6475 112.284 58.6475C113.139 58.6475 113.95 58.9695 114.57 59.5535C115.912 60.8141 115.979 62.9328 114.717 64.2755L94.3575 85.9455C93.7295 86.6148 92.8421 86.9995 91.9215 86.9995H91.8955V87.0001Z" fill="#6DC497"/>
<path d="M169.633 150.283H166.327V153.674H169.633V150.283Z" fill="#F7B0C0"/>
<path d="M159.021 155.953C159.021 155.953 158.588 158.275 163.356 157.816C163.823 157.771 164.285 157.681 164.737 157.554C165.385 157.371 166.449 157.144 167.201 157.077L167.233 157.856L170.08 157.698C170.383 157.669 170.61 157.407 170.597 157.103L170.453 155.362C170.453 155.362 165.671 155.505 165.591 155.541C165.511 155.578 161.45 156.457 161.45 156.457L159.021 155.953Z" fill="#353A68"/>
<path d="M161.35 157.488L161.506 157.497C161.992 157.52 162.573 157.503 163.265 157.436C163.731 157.393 164.194 157.303 164.645 157.175C165.293 156.993 166.361 156.715 167.113 156.651C167.113 156.651 167.681 156.64 168.349 156.605C168.398 156.603 168.444 156.599 168.493 156.597C168.606 156.591 168.722 156.585 168.838 156.577C168.887 156.574 168.936 156.571 168.985 156.568C169.075 156.562 169.162 156.557 169.249 156.548C169.298 156.542 169.347 156.539 169.396 156.533C170.007 156.479 170.501 156.397 170.495 156.281C170.539 155.824 170.553 155.367 170.53 154.913C170.507 154.369 170.435 153.828 170.31 153.287C170.229 152.928 169.893 152.685 169.526 152.728L166.934 153.029C166.734 153.052 166.541 152.983 166.399 152.847C166.384 152.829 166.37 152.815 166.355 152.797L166.347 152.789L166.309 152.742L166.307 152.736L166.301 152.73L166.208 152.62L166.205 152.617L166.113 152.507L166.107 152.499C165.988 152.357 165.771 152.357 165.653 152.496C165.149 153.075 164.611 153.601 164.035 154.07C163.297 154.675 162.418 155.083 161.487 155.247C161.435 155.256 161.379 155.265 161.325 155.273C161.122 155.302 160.917 155.323 160.709 155.328C158.996 155.383 159.022 155.95 159.022 155.95C159.022 155.95 158.653 157.32 161.35 157.488Z" fill="#484C82"/>
<path d="M166.481 153.071C166.487 153.156 166.424 153.23 166.339 153.237C166.253 153.243 166.179 153.18 166.173 153.095C166.166 153.009 166.229 152.935 166.315 152.929C166.399 152.922 166.474 152.986 166.481 153.071Z" fill="#E0E1E0"/>
<path d="M166.332 153.158C166.311 153.159 166.29 153.153 166.274 153.137L165.65 152.523C165.62 152.495 165.619 152.447 165.648 152.417C165.677 152.387 165.725 152.386 165.755 152.415L166.379 153.029C166.409 153.057 166.409 153.105 166.381 153.135C166.367 153.149 166.35 153.157 166.332 153.158Z" fill="#353A68"/>
<path d="M166.109 153.414C166.121 153.329 166.061 153.251 165.976 153.24C165.892 153.229 165.814 153.289 165.803 153.373C165.792 153.458 165.851 153.536 165.936 153.547C166.02 153.558 166.098 153.499 166.109 153.414Z" fill="#E0E1E0"/>
<path d="M165.96 153.453C165.939 153.455 165.918 153.448 165.902 153.433L165.323 152.854C165.293 152.825 165.293 152.777 165.321 152.747C165.35 152.717 165.398 152.717 165.428 152.745L166.007 153.324C166.037 153.353 166.037 153.401 166.009 153.431C165.995 153.444 165.978 153.452 165.96 153.453Z" fill="#353A68"/>
<path d="M165.737 153.681C165.743 153.767 165.68 153.841 165.595 153.847C165.509 153.854 165.435 153.791 165.429 153.705C165.422 153.62 165.485 153.546 165.571 153.539C165.655 153.533 165.73 153.597 165.737 153.681Z" fill="#E0E1E0"/>
<path d="M165.589 153.769C165.568 153.77 165.547 153.763 165.531 153.748L164.977 153.188C164.947 153.159 164.947 153.111 164.975 153.081C165.004 153.051 165.052 153.051 165.082 153.079L165.635 153.639C165.665 153.668 165.666 153.716 165.637 153.746C165.623 153.759 165.606 153.767 165.589 153.769Z" fill="#353A68"/>
<path d="M165.39 154.002C165.393 154.087 165.326 154.159 165.241 154.161C165.155 154.164 165.084 154.097 165.081 154.012C165.079 153.927 165.145 153.855 165.231 153.852C165.316 153.849 165.387 153.917 165.39 154.002Z" fill="#E0E1E0"/>
<path d="M165.238 154.083C165.217 154.083 165.196 154.075 165.181 154.059L164.663 153.501C164.634 153.471 164.635 153.423 164.665 153.394C164.695 153.365 164.743 153.367 164.772 153.397L165.29 153.955C165.319 153.985 165.317 154.033 165.287 154.062C165.273 154.075 165.256 154.082 165.238 154.083Z" fill="#353A68"/>
<path d="M165.005 154.281C165.008 154.366 164.941 154.437 164.856 154.44C164.771 154.443 164.699 154.376 164.697 154.291C164.694 154.205 164.761 154.134 164.846 154.131C164.931 154.129 165.002 154.195 165.005 154.281Z" fill="#E0E1E0"/>
<path d="M164.853 154.361C164.833 154.362 164.811 154.354 164.796 154.338L164.295 153.801C164.267 153.771 164.268 153.723 164.298 153.694C164.328 153.665 164.376 153.667 164.405 153.697L164.905 154.234C164.934 154.264 164.933 154.312 164.903 154.341C164.889 154.354 164.871 154.361 164.853 154.361Z" fill="#353A68"/>
<path d="M164.62 154.58C164.623 154.665 164.556 154.737 164.471 154.74C164.385 154.743 164.314 154.676 164.311 154.591C164.309 154.505 164.375 154.434 164.461 154.431C164.546 154.428 164.617 154.495 164.62 154.58Z" fill="#E0E1E0"/>
<path d="M164.469 154.661C164.448 154.661 164.427 154.653 164.411 154.637L163.929 154.135C163.901 154.105 163.902 154.057 163.932 154.029C163.962 154 164.01 154.001 164.039 154.031L164.521 154.533C164.549 154.563 164.548 154.611 164.518 154.64C164.503 154.653 164.486 154.66 164.469 154.661Z" fill="#353A68"/>
<path d="M163.821 154.957C163.818 155.22 163.931 155.472 164.13 155.642C164.339 155.821 164.613 155.894 164.882 155.839L167.396 155.335C167.601 155.295 167.813 155.341 167.981 155.465C168.149 155.587 168.259 155.778 168.281 155.983L168.348 156.605C168.397 156.603 168.443 156.599 168.493 156.597L168.426 155.969C168.397 155.723 168.267 155.494 168.067 155.347C167.868 155.202 167.613 155.144 167.367 155.193L164.853 155.697C164.628 155.743 164.399 155.682 164.223 155.532C164.055 155.39 163.962 155.179 163.965 154.959C163.968 154.737 164.069 154.531 164.243 154.392L166.3 152.731L166.207 152.621L164.151 154.279C163.945 154.445 163.823 154.693 163.821 154.957Z" fill="#353A68"/>
<path d="M181.939 150.283H178.633V153.674H181.939V150.283Z" fill="#F7B0C0"/>
<path d="M171.327 155.953C171.327 155.953 170.895 158.275 175.663 157.816C176.13 157.771 176.591 157.681 177.043 157.554C177.691 157.371 178.755 157.144 179.508 157.077L179.54 157.856L182.387 157.698C182.69 157.669 182.917 157.407 182.903 157.103L182.76 155.362C182.76 155.362 177.978 155.505 177.898 155.541C177.818 155.578 173.757 156.457 173.757 156.457L171.327 155.953Z" fill="#353A68"/>
<path d="M173.657 157.488L173.813 157.497C174.299 157.52 174.88 157.503 175.572 157.436C176.038 157.393 176.501 157.303 176.952 157.175C177.6 156.993 178.668 156.715 179.42 156.651C179.42 156.651 179.987 156.64 180.655 156.605C180.705 156.603 180.751 156.599 180.8 156.597C180.913 156.591 181.029 156.585 181.145 156.577C181.194 156.574 181.243 156.571 181.292 156.568C181.382 156.562 181.469 156.557 181.555 156.548C181.605 156.542 181.653 156.539 181.703 156.533C182.313 156.479 182.808 156.397 182.802 156.281C182.845 155.824 182.86 155.367 182.837 154.913C182.813 154.369 182.741 153.828 182.617 153.287C182.535 152.928 182.2 152.685 181.833 152.728L179.241 153.029C179.041 153.052 178.847 152.983 178.705 152.847C178.691 152.829 178.677 152.815 178.662 152.797L178.653 152.789L178.616 152.742L178.613 152.736L178.607 152.73L178.515 152.62L178.512 152.617L178.419 152.507L178.413 152.499C178.295 152.357 178.078 152.357 177.959 152.496C177.456 153.075 176.918 153.601 176.342 154.07C175.604 154.675 174.725 155.083 173.793 155.247C173.741 155.256 173.686 155.265 173.631 155.273C173.429 155.302 173.223 155.323 173.015 155.328C171.303 155.383 171.329 155.95 171.329 155.95C171.329 155.95 170.96 157.32 173.657 157.488Z" fill="#484C82"/>
<path d="M178.787 153.071C178.793 153.156 178.73 153.23 178.645 153.237C178.559 153.243 178.485 153.18 178.479 153.095C178.472 153.009 178.535 152.935 178.621 152.929C178.706 152.922 178.78 152.986 178.787 153.071Z" fill="#E0E1E0"/>
<path d="M178.639 153.158C178.618 153.159 178.597 153.153 178.581 153.137L177.957 152.523C177.927 152.495 177.926 152.447 177.955 152.417C177.983 152.387 178.031 152.386 178.061 152.415L178.685 153.029C178.715 153.057 178.716 153.105 178.687 153.135C178.674 153.149 178.657 153.157 178.639 153.158Z" fill="#353A68"/>
<path d="M178.415 153.366C178.421 153.451 178.358 153.525 178.273 153.532C178.187 153.539 178.113 153.475 178.107 153.39C178.1 153.305 178.163 153.231 178.249 153.224C178.333 153.217 178.408 153.281 178.415 153.366Z" fill="#E0E1E0"/>
<path d="M178.267 153.453C178.246 153.455 178.225 153.448 178.209 153.433L177.63 152.854C177.6 152.825 177.599 152.777 177.628 152.747C177.657 152.717 177.705 152.717 177.735 152.745L178.313 153.324C178.343 153.353 178.344 153.401 178.315 153.431C178.301 153.444 178.284 153.452 178.267 153.453Z" fill="#353A68"/>
<path d="M178.043 153.681C178.05 153.767 177.987 153.841 177.901 153.847C177.816 153.854 177.742 153.791 177.735 153.705C177.729 153.62 177.792 153.546 177.877 153.539C177.962 153.533 178.037 153.597 178.043 153.681Z" fill="#E0E1E0"/>
<path d="M177.895 153.769C177.874 153.77 177.853 153.763 177.837 153.748L177.283 153.188C177.253 153.159 177.253 153.111 177.281 153.081C177.31 153.051 177.358 153.051 177.388 153.079L177.941 153.639C177.971 153.668 177.972 153.716 177.943 153.746C177.93 153.759 177.913 153.767 177.895 153.769Z" fill="#353A68"/>
<path d="M177.697 154.002C177.699 154.087 177.633 154.159 177.547 154.161C177.462 154.164 177.391 154.097 177.387 154.012C177.385 153.927 177.451 153.855 177.537 153.852C177.622 153.85 177.693 153.917 177.697 154.002Z" fill="#E0E1E0"/>
<path d="M177.545 154.083C177.524 154.083 177.503 154.075 177.487 154.059L176.969 153.501C176.941 153.471 176.942 153.423 176.972 153.394C177.002 153.365 177.05 153.367 177.079 153.397L177.597 153.955C177.625 153.985 177.624 154.033 177.594 154.062C177.58 154.075 177.563 154.082 177.545 154.083Z" fill="#353A68"/>
<path d="M177.312 154.281C177.315 154.366 177.248 154.437 177.163 154.44C177.077 154.443 177.006 154.376 177.003 154.291C177 154.205 177.067 154.134 177.152 154.131C177.237 154.129 177.309 154.195 177.312 154.281Z" fill="#E0E1E0"/>
<path d="M177.16 154.361C177.139 154.362 177.118 154.354 177.103 154.338L176.602 153.801C176.573 153.771 176.575 153.723 176.605 153.694C176.635 153.665 176.683 153.667 176.711 153.697L177.212 154.234C177.241 154.264 177.239 154.312 177.209 154.341C177.195 154.354 177.177 154.361 177.16 154.361Z" fill="#353A68"/>
<path d="M176.927 154.58C176.929 154.665 176.863 154.737 176.777 154.74C176.692 154.743 176.621 154.676 176.617 154.591C176.615 154.505 176.681 154.434 176.767 154.431C176.852 154.428 176.924 154.495 176.927 154.58Z" fill="#E0E1E0"/>
<path d="M176.775 154.661C176.754 154.661 176.733 154.653 176.717 154.637L176.235 154.135C176.207 154.105 176.208 154.057 176.238 154.029C176.268 154 176.316 154.001 176.345 154.031L176.827 154.533C176.855 154.563 176.854 154.611 176.824 154.64C176.81 154.653 176.793 154.66 176.775 154.661Z" fill="#353A68"/>
<path d="M176.127 154.957C176.125 155.22 176.237 155.472 176.437 155.642C176.645 155.821 176.92 155.894 177.189 155.839L179.703 155.335C179.908 155.295 180.119 155.341 180.287 155.465C180.455 155.587 180.565 155.778 180.588 155.983L180.655 156.605C180.704 156.603 180.75 156.599 180.799 156.597L180.733 155.969C180.704 155.723 180.573 155.494 180.374 155.347C180.175 155.202 179.92 155.144 179.674 155.193L177.16 155.697C176.935 155.743 176.706 155.682 176.529 155.532C176.361 155.39 176.269 155.179 176.272 154.959C176.275 154.737 176.376 154.531 176.55 154.392L178.607 152.731L178.514 152.621L176.457 154.279C176.251 154.445 176.13 154.693 176.127 154.957Z" fill="#353A68"/>
<path d="M182.237 107.387C183.335 113.963 182.205 120.415 181.636 129.417L182.743 151.511H177.78L175.06 130.561L174.015 121.939L171.975 129.417L170.319 151.511H165.406L165.288 128.567C166.118 121.078 167.231 113.927 168.802 107.325L182.237 107.387Z" fill="#7B90C9"/>
<path d="M152.561 100.041L149.74 100.594C149.433 100.654 149.133 100.742 148.84 100.849C147.947 101.175 145.595 101.735 144.393 99.174C144.209 98.782 144.533 98.338 144.96 98.4147C145.72 98.5514 147.034 98.6987 147.461 98.2767L146.543 97.4374C146.371 97.28 146.367 97.0107 146.535 96.8487C146.665 96.7227 146.863 96.698 147.02 96.7894L148.301 97.5354C148.614 97.718 148.977 97.796 149.337 97.7594L151.984 97.4887" fill="#F7B0C0"/>
<path d="M173.256 96.1L164.563 99.3313C164.161 99.482 163.743 99.5873 163.317 99.6453L149.697 100.973L149.073 97.4587L162.221 95.0667C162.813 94.9287 163.375 94.686 163.881 94.3487L171.477 88.6907L172.443 89.2867L174.527 93.6447L173.256 96.1Z" fill="#54619C"/>
<path d="M177.813 83.386H174.123V89.976H177.813V83.386Z" fill="#F7B0C0"/>
<path d="M171.45 82.374C171.028 85.1493 172.995 86.864 174.919 86.864C176.843 86.864 178.418 84.896 178.418 82.374C178.418 79.8526 176.858 77.808 174.934 77.808C173.01 77.808 171.829 79.8806 171.45 82.374Z" fill="#F7B0C0"/>
<path d="M177.813 85.618L177.571 84.7693C177.445 84.332 177.467 83.8633 177.647 83.448C177.997 82.648 178.083 81.668 177.253 81.534C176.531 81.418 176.143 82.5047 176.001 83.0273C175.96 83.178 175.806 83.2666 175.655 83.2293C175.527 83.196 175.439 83.082 175.439 82.952C175.439 82.9366 175.439 82.9233 175.442 82.908L175.765 80.8C174.737 81.1106 172.703 80.732 172.261 80.5726C172.261 80.5726 170.377 79.9927 170.697 78.002C170.697 78.002 170.942 78.504 171.965 78.54C171.965 78.54 171.121 78.3473 171.225 77.1413C171.225 77.1413 172.342 78.302 173.254 77.568C174.806 76.3186 176.135 77.4473 176.135 77.4473C176.256 77.414 176.372 77.3886 176.482 77.372C176.615 77.3526 176.74 77.3433 176.859 77.3466C178.498 77.368 178.785 79.3313 178.785 79.3313C181.4 79.26 177.813 85.618 177.813 85.618Z" fill="#484C82"/>
<path d="M171.028 99.646C171.028 99.766 171.028 112.943 171.028 112.943C175.098 114.889 178.819 113.443 178.811 113.474L178.615 91.0733L177.81 87.244L174.923 89.1707L173.109 87.6534L171.945 88.6774L171.705 93.906C171.705 93.906 171.028 99.526 171.028 99.646Z" fill="#EDEDEE"/>
<path d="M183.601 114.401C183.717 114.898 183.609 115.407 183.115 115.537C183.115 115.537 173.667 116.661 174.765 105.154L175.292 93.4907C175.292 91.3387 175.971 89.0974 177.549 87.634L177.811 87.244L179.767 88.0653C181.919 89.1107 183.233 91.3427 183.102 93.7313L183.079 98.2C182.901 101.879 183.347 113.306 183.601 114.401Z" fill="#54619C"/>
<path d="M174.123 87.382L173.109 87.6533C171.539 88.112 170.287 89.3593 170.287 90.9613V93.7046C170.287 95.3673 170.178 97.0286 169.962 98.6773L167.236 111.664C167.16 112.241 167.429 112.472 168.099 112.869L172.105 114.545C172.531 114.648 172.877 114.199 172.671 113.813C171.915 112.401 171.594 109.359 171.749 107.763L172.651 98.4806C172.731 97.6573 172.781 96.8313 172.799 96.004L174.123 87.382Z" fill="#54619C"/>
<path d="M174.123 87.382L173.746 89.84L175.939 90.036L177.81 87.244L174.923 89.1707L174.123 87.382Z" fill="#E0E1E0"/>
<path d="M174.923 89.1707L175.382 89.7287L175.213 90.4213L175.383 91.8306C175.859 95.762 178.118 99.2547 181.509 101.299L182.127 101.672C183.995 102.799 185.536 104.394 186.597 106.3L187.913 108.664L186.934 110.46L184.94 109.645L183.346 106.774C182.627 105.479 181.662 104.339 180.505 103.415L179.299 102.454C176.247 100.02 174.467 96.3313 174.458 92.428L174.454 90.4806L174.383 89.6833L174.923 89.1707Z" fill="#F0596A"/>
<path d="M161.379 102.782H150.59L151.641 103.864H161.379" fill="#B3B3B3"/>
<path d="M146.169 92.3099L151.641 103.864H137.607L131.977 92.4453L146.169 92.3099Z" fill="#E2E2E2"/>
<path d="M140.934 98.5152C141.209 99.0759 141.822 99.3379 142.305 99.1019C142.789 98.8653 142.957 98.2192 142.683 97.6592C142.409 97.0986 141.795 96.8366 141.312 97.0726C140.829 97.3092 140.66 97.9552 140.934 98.5152Z" fill="#B3B3B3"/>
<path d="M159.433 104.861L156.661 105.622C156.359 105.705 156.067 105.815 155.782 105.943C154.916 106.335 152.612 107.067 151.223 104.601C151.01 104.223 151.301 103.757 151.732 103.802C152.5 103.883 153.821 103.932 154.216 103.48L153.239 102.711C153.056 102.567 153.033 102.298 153.187 102.124C153.308 101.989 153.504 101.949 153.667 102.029L154.999 102.679C155.325 102.837 155.693 102.889 156.049 102.825L158.669 102.36" fill="#F7B0C0"/>
<path d="M156.913 105.923C156.913 105.923 171.441 102.55 171.893 102.299C176.993 99.472 181.148 95.526 181.148 95.526L178.622 91.7093L175.867 91.2513L169.395 98.0147C169.169 98.314 155.488 102.329 155.488 102.329L156.913 105.923Z" fill="#54619C"/>
<path d="M173.913 85.5693L173.796 85.2126C174.943 84.8366 175.638 84.21 175.922 83.2966L176.281 83.408C175.963 84.4313 175.166 85.1586 173.913 85.5693Z" fill="#595B5F"/>
<path d="M173.181 85.8912L173.961 85.7526L173.826 84.9939L173.046 85.1326C172.837 85.1699 172.697 85.3699 172.734 85.5792C172.771 85.7886 172.971 85.9279 173.181 85.8912Z" fill="#595B5F"/>
<path d="M176.845 79.9866L176.471 79.952C176.552 78.9679 176.577 78.1213 176.481 77.3719C176.614 77.3526 176.739 77.3433 176.858 77.3466C176.951 78.1179 176.927 78.9846 176.845 79.9866Z" fill="#ADD0E1"/>
<path d="M175.345 81.956C175.403 83.0833 176.084 83.9633 176.865 83.9227C177.645 83.882 178.23 82.9353 178.171 81.808C178.112 80.6807 177.432 79.8007 176.651 79.8413C175.871 79.882 175.285 80.8287 175.345 81.956Z" fill="#595B5F"/>
<path d="M176.032 82.038C176.082 82.988 176.655 83.73 177.313 83.696C177.971 83.6613 178.465 82.8633 178.415 81.9133C178.365 80.9633 177.791 80.2206 177.133 80.2553C176.475 80.29 175.982 81.088 176.032 82.038Z" fill="#CCCCCC"/>
<path d="M167.695 45.278L167.665 58.68C167.663 59.4887 168.316 60.1467 169.125 60.1487L196.834 60.2127C197.643 60.2147 198.301 59.56 198.303 58.7507L198.333 45.3487C198.335 44.54 197.681 43.882 196.871 43.88L169.163 43.816C168.354 43.8147 167.697 44.4694 167.695 45.278Z" fill="#F0576A"/>
<path d="M179.09 59.012L174.36 65.6127L174.827 57.7887L179.09 59.012Z" fill="#F0576A"/>
<path d="M190.226 49.9887C190.102 49.9887 189.977 49.946 189.876 49.8594C184.986 45.6707 181.128 45.648 176.114 49.78C175.885 49.9694 175.545 49.9367 175.356 49.7067C175.167 49.4774 175.199 49.138 175.429 48.9487C178.107 46.7414 180.449 45.6887 182.796 45.636C185.29 45.58 187.835 46.6934 190.576 49.0414C190.802 49.2347 190.828 49.5747 190.635 49.8C190.529 49.9254 190.378 49.9887 190.226 49.9887Z" fill="white"/>
<path d="M178.049 51.7933C177.895 51.7933 177.743 51.728 177.636 51.6007C177.445 51.3727 177.475 51.0333 177.703 50.8427C179.471 49.3627 181.251 48.6007 182.994 48.5773C184.799 48.5533 186.587 49.3193 188.307 50.8533C188.529 51.0513 188.548 51.3913 188.35 51.6133C188.152 51.8353 187.812 51.8547 187.59 51.6567C184.599 48.988 181.591 48.992 178.395 51.668C178.294 51.7527 178.171 51.7933 178.049 51.7933Z" fill="white"/>
<path d="M185.601 53.9134C185.483 53.9134 185.365 53.8754 185.266 53.7967C183.667 52.5274 182.231 52.5241 180.745 53.7854C180.519 53.9781 180.179 53.9501 179.987 53.7234C179.794 53.4967 179.822 53.1574 180.049 52.9647C181.914 51.3807 183.95 51.3767 185.935 52.9534C186.168 53.1381 186.207 53.4767 186.022 53.7094C185.916 53.8441 185.759 53.9134 185.601 53.9134Z" fill="white"/>
<path d="M181.536 56.9321C181.536 57.7401 182.191 58.3954 182.999 58.3954C183.807 58.3954 184.462 57.7401 184.462 56.9321C184.462 56.1241 183.807 55.4688 182.999 55.4688C182.191 55.4694 181.536 56.1241 181.536 56.9321Z" fill="white"/>
</svg>
