<svg width="220" height="220" viewBox="0 0 220 220" fill="none" xmlns="http://www.w3.org/2000/svg">
<path d="M190.584 54.9036H110.095C110.025 54.9008 109.958 54.8707 109.909 54.8199C109.86 54.769 109.833 54.7011 109.833 54.6306C109.833 54.56 109.86 54.4922 109.909 54.4413C109.958 54.3904 110.025 54.3604 110.095 54.3575H190.584C190.655 54.3604 190.721 54.3904 190.77 54.4413C190.819 54.4922 190.847 54.56 190.847 54.6306C190.847 54.7011 190.819 54.769 190.77 54.8199C190.721 54.8707 190.655 54.9008 190.584 54.9036Z" fill="black"/>
<path d="M153.88 54.6304H179.691L188.013 15.6732H162.196L153.88 54.6304Z" fill="#11B3E8"/>
<path d="M179.691 54.9037H153.879C153.839 54.9036 153.799 54.8945 153.762 54.877C153.725 54.8595 153.693 54.8339 153.667 54.8023C153.642 54.7707 153.624 54.7337 153.614 54.6942C153.605 54.6546 153.604 54.6134 153.613 54.5737L161.929 15.6161C161.942 15.5549 161.975 15.5001 162.024 15.4608C162.073 15.4215 162.133 15.4 162.196 15.4H188.012C188.053 15.4 188.093 15.409 188.13 15.4265C188.166 15.444 188.199 15.4696 188.224 15.5012C188.25 15.5328 188.268 15.5698 188.278 15.6094C188.287 15.649 188.288 15.6902 188.279 15.73L179.96 54.6876C179.947 54.749 179.913 54.804 179.864 54.8433C179.815 54.8827 179.754 54.904 179.691 54.9037ZM154.215 54.3576H179.468L187.674 15.9456H162.417L154.215 54.3576Z" fill="black"/>
<path d="M179.691 54.6304H187.337L195.659 15.6732H188.013L179.691 54.6304Z" fill="#39459B"/>
<path d="M187.337 54.9037H179.691C179.65 54.9037 179.61 54.8947 179.573 54.8771C179.537 54.8596 179.504 54.8341 179.479 54.8025C179.453 54.7708 179.435 54.7339 179.425 54.6943C179.416 54.6547 179.415 54.6135 179.424 54.5737L187.748 15.6161C187.761 15.5555 187.794 15.5011 187.842 15.4619C187.89 15.4226 187.95 15.4008 188.012 15.4H195.658C195.699 15.4001 195.739 15.4092 195.775 15.4267C195.812 15.4442 195.844 15.4697 195.87 15.5014C195.896 15.533 195.914 15.5699 195.923 15.6095C195.933 15.649 195.933 15.6902 195.925 15.73L187.603 54.6876C187.59 54.7486 187.556 54.8033 187.508 54.8426C187.459 54.8819 187.399 54.9034 187.337 54.9037ZM180.029 54.3576H187.116L195.321 15.9456H188.232L180.029 54.3576Z" fill="black"/>
<path d="M184.553 39.4579L188.68 20.1375H193.084L188.957 39.4579H184.553Z" fill="#11B3E8"/>
<path d="M188.957 39.732H184.553C184.512 39.732 184.472 39.7229 184.435 39.7053C184.399 39.6877 184.366 39.6622 184.341 39.6305C184.315 39.5988 184.297 39.5618 184.288 39.5222C184.278 39.4826 184.278 39.4414 184.286 39.4016L188.413 20.0812C188.426 20.02 188.46 19.9652 188.509 19.9259C188.557 19.8866 188.618 19.8651 188.68 19.8651H193.084C193.125 19.8651 193.165 19.8742 193.202 19.8918C193.238 19.9094 193.271 19.9349 193.296 19.9666C193.322 19.9983 193.34 20.0353 193.35 20.0749C193.359 20.1145 193.359 20.1557 193.351 20.1956L189.224 39.516C189.211 39.577 189.177 39.6318 189.129 39.6711C189.08 39.7104 189.02 39.7319 188.957 39.732ZM184.89 39.1855H188.736L192.746 20.4116H188.901L184.89 39.1855Z" fill="black"/>
<path d="M161.524 28.1318H180.729L182.518 21.5168H163.313L161.524 28.1318Z" fill="#398AC9"/>
<path d="M180.729 28.4051H161.524C161.482 28.4052 161.44 28.3956 161.403 28.3771C161.365 28.3586 161.332 28.3316 161.307 28.2982C161.281 28.2649 161.264 28.2261 161.255 28.1849C161.247 28.1436 161.249 28.1011 161.26 28.0606L163.049 21.4456C163.065 21.3876 163.099 21.3364 163.147 21.2999C163.194 21.2634 163.253 21.2436 163.313 21.2437H182.519C182.561 21.2436 182.602 21.2533 182.64 21.2718C182.677 21.2904 182.71 21.3174 182.736 21.3507C182.761 21.384 182.779 21.4228 182.787 21.464C182.795 21.5051 182.794 21.5476 182.783 21.5882L180.992 28.204C180.976 28.2618 180.942 28.3128 180.894 28.3491C180.847 28.3855 180.789 28.4051 180.729 28.4051ZM161.88 27.8591H180.52L182.16 21.7897H163.522L161.88 27.8591Z" fill="black"/>
<path d="M174.43 47.5129H159.354C159.281 47.5129 159.212 47.4841 159.161 47.4329C159.109 47.3816 159.081 47.3121 159.081 47.2397C159.081 47.1672 159.109 47.0977 159.161 47.0465C159.212 46.9952 159.281 46.9664 159.354 46.9664H174.43C174.502 46.9664 174.572 46.9952 174.623 47.0465C174.674 47.0977 174.703 47.1672 174.703 47.2397C174.703 47.3121 174.674 47.3816 174.623 47.4329C174.572 47.4841 174.502 47.5129 174.43 47.5129Z" fill="black"/>
<path d="M170.786 50.3361H161.802C161.765 50.3375 161.729 50.3316 161.694 50.3185C161.66 50.3055 161.628 50.2856 161.602 50.2601C161.575 50.2346 161.554 50.204 161.54 50.1701C161.525 50.1363 161.518 50.0998 161.518 50.063C161.518 50.0262 161.525 49.9898 161.54 49.9559C161.554 49.9221 161.575 49.8915 161.602 49.866C161.628 49.8405 161.66 49.8206 161.694 49.8076C161.729 49.7945 161.765 49.7885 161.802 49.79H170.786C170.857 49.7928 170.924 49.8228 170.972 49.8737C171.021 49.9246 171.049 49.9925 171.049 50.063C171.049 50.1336 171.021 50.2014 170.972 50.2523C170.924 50.3032 170.857 50.3332 170.786 50.3361Z" fill="black"/>
<path d="M134.01 54.6304H159.821L168.143 15.6732H142.327L134.01 54.6304Z" fill="#FFD367"/>
<path d="M159.822 54.9037H134.01C133.969 54.9036 133.929 54.8945 133.892 54.877C133.856 54.8595 133.823 54.8339 133.798 54.8023C133.772 54.7707 133.754 54.7338 133.744 54.6942C133.735 54.6546 133.734 54.6135 133.743 54.5737L142.059 15.6161C142.072 15.5549 142.106 15.5001 142.154 15.4608C142.203 15.4215 142.263 15.4 142.326 15.4H168.142C168.183 15.4001 168.223 15.4092 168.26 15.4267C168.297 15.4442 168.329 15.4697 168.355 15.5014C168.38 15.533 168.398 15.5699 168.408 15.6095C168.417 15.649 168.418 15.6902 168.409 15.73L160.087 54.6876C160.074 54.7486 160.041 54.8032 159.993 54.8425C159.944 54.8819 159.884 54.9034 159.822 54.9037ZM134.346 54.3576H159.599L167.804 15.9456H142.548L134.346 54.3576Z" fill="black"/>
<path d="M159.821 54.6304H167.467L175.789 15.6732H168.143L159.821 54.6304Z" fill="#F79955"/>
<path d="M167.467 54.9037H159.822C159.781 54.9037 159.741 54.8947 159.704 54.8771C159.667 54.8596 159.635 54.8341 159.609 54.8025C159.584 54.7708 159.565 54.7339 159.556 54.6943C159.546 54.6547 159.546 54.6135 159.555 54.5737L167.876 15.6161C167.889 15.555 167.923 15.5002 167.972 15.4609C168.02 15.4216 168.081 15.4001 168.143 15.4H175.789C175.83 15.4 175.87 15.4091 175.907 15.4267C175.943 15.4442 175.976 15.4697 176.001 15.5014C176.027 15.533 176.045 15.57 176.054 15.6095C176.064 15.6491 176.064 15.6903 176.056 15.73L167.734 54.6876C167.721 54.7488 167.687 54.8035 167.639 54.8429C167.59 54.8822 167.53 54.9036 167.467 54.9037ZM160.16 54.3576H167.247L175.453 15.9456H168.364L160.16 54.3576Z" fill="black"/>
<path d="M164.683 39.4579L168.81 20.1375H173.214L169.087 39.4579H164.683Z" fill="#FFD367"/>
<path d="M169.087 39.732H164.683C164.643 39.7319 164.602 39.7227 164.566 39.7052C164.529 39.6876 164.497 39.662 164.471 39.6303C164.446 39.5987 164.427 39.5617 164.418 39.5221C164.409 39.4825 164.408 39.4413 164.417 39.4016L168.543 20.0812C168.556 20.0201 168.59 19.9653 168.639 19.926C168.687 19.8867 168.748 19.8652 168.81 19.8651H173.214C173.255 19.8651 173.295 19.8742 173.332 19.8918C173.369 19.9094 173.401 19.9349 173.427 19.9666C173.452 19.9983 173.471 20.0353 173.48 20.0749C173.489 20.1145 173.49 20.1557 173.481 20.1956L169.356 39.5151C169.343 39.5766 169.309 39.6318 169.26 39.6713C169.211 39.7108 169.15 39.7322 169.087 39.732ZM165.021 39.1855H168.866L172.876 20.4107H169.03L165.021 39.1855Z" fill="black"/>
<path d="M142.412 28.1433H161.617L162.767 21.5055H143.562L142.412 28.1433Z" fill="#F79955"/>
<path d="M161.617 28.4161H142.412C142.372 28.4162 142.333 28.4075 142.297 28.3908C142.261 28.374 142.229 28.3496 142.203 28.3191C142.177 28.2887 142.159 28.253 142.148 28.2146C142.138 28.1761 142.136 28.1359 142.143 28.0967L143.293 21.4588C143.304 21.3955 143.337 21.338 143.387 21.2967C143.436 21.2553 143.498 21.2326 143.562 21.2327H162.767C162.807 21.2327 162.847 21.2413 162.883 21.2581C162.919 21.2749 162.951 21.2994 162.976 21.3298C163.002 21.3602 163.021 21.3959 163.031 21.4343C163.041 21.4727 163.043 21.5129 163.036 21.5521L161.886 28.1899C161.875 28.2533 161.842 28.3108 161.793 28.3522C161.744 28.3936 161.681 28.4162 161.617 28.4161ZM142.736 27.8701H161.387L162.443 21.7787H143.792L142.736 27.8701Z" fill="black"/>
<path d="M154.56 47.5129H139.484C139.411 47.5129 139.342 47.4841 139.291 47.4329C139.239 47.3816 139.211 47.3121 139.211 47.2397C139.211 47.1672 139.239 47.0977 139.291 47.0465C139.342 46.9952 139.411 46.9664 139.484 46.9664H154.56C154.632 46.9664 154.702 46.9952 154.753 47.0465C154.804 47.0977 154.833 47.1672 154.833 47.2397C154.833 47.3121 154.804 47.3816 154.753 47.4329C154.702 47.4841 154.632 47.5129 154.56 47.5129Z" fill="black"/>
<path d="M150.917 50.3361H141.933C141.896 50.3375 141.859 50.3316 141.825 50.3185C141.79 50.3055 141.759 50.2856 141.732 50.2601C141.706 50.2346 141.685 50.204 141.67 50.1701C141.656 50.1363 141.648 50.0998 141.648 50.063C141.648 50.0262 141.656 49.9898 141.67 49.9559C141.685 49.9221 141.706 49.8915 141.732 49.866C141.759 49.8405 141.79 49.8206 141.825 49.8076C141.859 49.7945 141.896 49.7885 141.933 49.79H150.917C150.987 49.7928 151.054 49.8228 151.103 49.8737C151.152 49.9246 151.179 49.9925 151.179 50.063C151.179 50.1336 151.152 50.2014 151.103 50.2523C151.054 50.3032 150.987 50.3332 150.917 50.3361Z" fill="black"/>
<path d="M60.3337 33.92C60.3337 33.92 54.5358 36.5094 51.2442 43.7395C47.9525 50.9696 49.72 60.6395 49.72 60.6395L59.6103 58.9675C59.6103 58.9675 53.6272 45.012 61.4746 36.5913L60.3337 33.92Z" fill="#11B3E8"/>
<path d="M49.7173 60.9127C49.6535 60.9126 49.5917 60.8902 49.5426 60.8493C49.4936 60.8084 49.4604 60.7516 49.4489 60.6888C49.4313 60.5911 47.7061 50.8508 50.9955 43.626C54.292 36.3858 60.1634 33.697 60.2223 33.6706C60.2554 33.6558 60.2911 33.6478 60.3274 33.6469C60.3636 33.6461 60.3996 33.6525 60.4334 33.6657C60.4671 33.6789 60.4979 33.6987 60.5239 33.724C60.5499 33.7492 60.5706 33.7793 60.5849 33.8127L61.7254 36.4839C61.7462 36.5325 61.7525 36.5861 61.7434 36.6382C61.7344 36.6903 61.7104 36.7387 61.6743 36.7774C54.0403 44.9676 59.7999 58.7202 59.8593 58.8584C59.8755 58.8963 59.8829 58.9375 59.881 58.9787C59.879 59.02 59.8677 59.0602 59.8479 59.0965C59.8281 59.1327 59.8004 59.164 59.7668 59.188C59.7332 59.212 59.6946 59.2281 59.6539 59.235L49.7631 60.907C49.748 60.9102 49.7327 60.9121 49.7173 60.9127ZM60.1964 34.2927C59.0607 34.8845 54.3158 37.6526 51.4923 43.8526C48.5747 50.2612 49.6949 58.7246 49.943 60.3244L59.227 58.7528C58.4029 56.613 54.1059 44.2851 61.152 36.5358L60.1964 34.2927Z" fill="black"/>
<path d="M60.7952 35.0011C60.7952 35.0011 56.9575 40.9495 57.2792 45.9527C57.6008 50.9559 61.233 56.613 61.233 56.613L68.0125 53.2127C68.0125 53.2127 60.5268 43.0905 62.5565 37.2847L60.7952 35.0011Z" fill="#11B3E8"/>
<path d="M61.2331 56.8858C61.1874 56.8859 61.1423 56.8744 61.1022 56.8525C61.0621 56.8306 61.0281 56.7989 61.0034 56.7604C60.8534 56.5272 57.3298 50.9863 57.0069 45.9703C56.683 40.9349 60.4072 35.0992 60.566 34.8528C60.5898 34.8161 60.622 34.7857 60.6599 34.764C60.6979 34.7423 60.7405 34.7301 60.7841 34.7283C60.8278 34.7265 60.8712 34.7351 60.9109 34.7536C60.9505 34.7721 60.9851 34.7997 61.0118 34.8343L62.7718 37.1193C62.7996 37.1552 62.8179 37.1974 62.8251 37.2423C62.8324 37.2871 62.8282 37.333 62.8131 37.3758C60.8551 42.9774 68.1578 52.9518 68.2322 53.0508C68.2558 53.0828 68.2721 53.1196 68.2801 53.1586C68.288 53.1976 68.2872 53.2379 68.2779 53.2766C68.2686 53.3153 68.251 53.3515 68.2262 53.3826C68.2014 53.4138 68.1701 53.4391 68.1345 53.4569L61.355 56.8572C61.3171 56.876 61.2754 56.8858 61.2331 56.8858ZM60.8212 35.482C60.038 36.795 57.2823 41.745 57.5516 45.9351C57.8314 50.2761 60.6879 55.1949 61.3356 56.2571L67.6047 53.1128C66.4273 51.4593 60.5097 42.7653 62.2526 37.3371L60.8212 35.482Z" fill="black"/>
<path d="M63.0053 39.16C64.1678 38.7777 62.9309 35.3382 62.7633 34.2932C62.5957 33.2482 60.8955 32.5649 59.8069 34.0217C58.7184 35.4786 59.0444 40.4642 63.0053 39.16Z" fill="#11B3E8"/>
<path d="M61.7808 39.6511C60.7248 39.6511 60.0802 39.1205 59.7018 38.5951C58.7369 37.254 58.8328 34.8701 59.5883 33.8594C60.1515 33.1057 60.9624 32.773 61.757 32.9688C62.4236 33.1325 62.9367 33.6482 63.033 34.2505C63.0678 34.4705 63.1554 34.8098 63.257 35.2058C63.6715 36.8245 64.2395 39.0421 63.0907 39.4205C62.5961 39.5825 62.1614 39.6511 61.7808 39.6511ZM61.3034 33.4585C60.8317 33.4585 60.3794 33.7124 60.0274 34.185C59.4616 34.9422 59.2583 37.0397 60.1471 38.277C60.7411 39.1024 61.6743 39.3123 62.9217 38.9022C63.5857 38.6822 63.0071 36.4263 62.7294 35.3417C62.6247 34.933 62.5345 34.5801 62.4958 34.3377C62.4329 33.9487 62.0844 33.6117 61.6286 33.5017C61.5223 33.4743 61.4131 33.4598 61.3034 33.4585Z" fill="black"/>
<path d="M59.4022 129.009L99.5672 150.636L89.8797 153.432L70.1651 149.409L59.4022 129.009Z" fill="#39459B"/>
<path d="M54.9401 111.301C52.8017 116.753 47.7963 120.512 41.9434 120.717C37.8848 120.858 33.755 121.256 31.1797 122.184C24.6492 124.535 45.1277 156.688 75.544 158.905C105.96 161.122 118.68 151.265 128.99 147.369C139.3 143.473 144.401 117.013 143.078 116.226C136.447 112.285 121.396 123.212 111.046 124.039C107.592 124.315 104.499 122.816 103.425 118.735C102.831 116.48 98.9282 109.877 98.7839 109.663C97.3196 107.497 66.0752 106.373 55.8707 110.135C55.4791 110.278 55.1759 110.701 54.9401 111.301Z" fill="#11B3E8"/>
<path d="M84.084 159.5C81.3943 159.5 78.5479 159.399 75.5251 159.178C64.3544 158.364 52.9434 153.241 43.3959 144.752C35.2 137.465 30.3279 129.408 29.7528 125.214C29.4496 123.004 30.3116 122.207 31.0882 121.928C33.341 121.116 36.9908 120.617 41.9346 120.445C47.5556 120.249 52.5611 116.62 54.6872 111.202C54.971 110.477 55.3274 110.044 55.7762 109.879C65.9138 106.142 97.4134 107.151 99.0097 109.512C99.1857 109.776 103.091 116.393 103.689 118.666C104.62 122.207 107.293 124.066 111.024 123.77C115.301 123.428 120.435 121.327 125.4 119.294C132.516 116.38 139.238 113.628 143.22 115.994C143.372 116.084 143.687 116.271 143.504 118.354C142.888 125.368 137.696 144.375 129.09 147.627C127.121 148.371 125.022 149.353 122.798 150.393C114.419 154.308 103.325 159.5 84.084 159.5ZM78.804 107.957C70.1087 107.957 60.7922 108.611 55.9636 110.39C55.6736 110.497 55.4149 110.837 55.194 111.402C52.9888 117.024 47.7915 120.788 41.9527 120.991C37.0652 121.162 33.4717 121.651 31.2717 122.443C30.2086 122.826 30.1523 124.122 30.2927 125.141C30.8546 129.236 35.6607 137.147 43.7567 144.346C53.2167 152.755 64.511 157.83 75.563 158.635C100.071 160.421 113.07 154.34 122.563 149.899C124.796 148.854 126.905 147.868 128.893 147.117C135.399 144.658 139.441 133.061 140.877 128.19C142.772 121.759 143.271 116.929 142.912 116.442C139.191 114.235 132.592 116.937 125.605 119.797C120.601 121.846 115.427 123.964 111.065 124.313C107.052 124.634 104.164 122.627 103.158 118.806C102.577 116.595 98.7382 110.091 98.5552 109.818C97.8776 108.812 88.748 107.957 78.804 107.957Z" fill="black"/>
<path d="M96.2452 163.297L96.0217 163.431L86.0394 169.417L82.7905 171.364L74.8225 160.954L81.0736 157.082L81.4097 156.875L88.2276 152.655L95.9979 162.967L95.9997 162.969L96.2452 163.297Z" fill="#F5C8B2"/>
<path d="M96.0217 163.431L86.0394 169.415C83.4935 165.379 81.4396 158.363 81.0735 157.081C81.0388 156.949 81.0172 156.875 81.0172 156.875L81.4097 156.873L86.6285 156.843L95.9979 162.965V162.967L96.0217 163.431Z" fill="#F09080"/>
<path d="M82.79 171.638C82.748 171.638 82.7065 171.628 82.6689 171.61C82.6313 171.591 82.5985 171.564 82.573 171.531L74.6046 161.119C74.5815 161.089 74.565 161.054 74.5561 161.017C74.5472 160.98 74.5462 160.941 74.5531 160.904C74.56 160.866 74.5747 160.831 74.5963 160.799C74.6178 160.768 74.6457 160.741 74.6781 160.721L88.0845 152.423C88.1424 152.387 88.2115 152.374 88.2784 152.387C88.3453 152.399 88.4051 152.436 88.4462 152.49L96.4638 163.131C96.4869 163.162 96.5033 163.197 96.5119 163.234C96.5206 163.272 96.5212 163.31 96.5139 163.348C96.5065 163.386 96.4913 163.421 96.4693 163.453C96.4473 163.484 96.4189 163.51 96.386 163.53L82.9303 171.6C82.8878 171.625 82.8393 171.638 82.79 171.638ZM75.222 161.026L82.859 171.005L95.8456 163.217L88.1602 153.018L75.222 161.026Z" fill="black"/>
<path d="M84.1311 170.749L73.5887 178.156C73.3411 178.33 73.0377 178.407 72.7371 178.371C72.4365 178.334 72.1599 178.188 71.9607 177.96L55.5927 159.255C55.3786 159.01 55.2705 158.691 55.2921 158.366C55.3138 158.042 55.4633 157.739 55.708 157.525L56.6003 156.745C57.1767 156.24 57.8876 155.915 58.6461 155.808C59.4046 155.701 60.1777 155.818 60.8709 156.144L69.7959 160.336L75.4323 160.056C77.6508 164.281 80.421 167.97 84.1311 170.749Z" fill="#EE3E2F"/>
<path d="M72.8838 178.651C72.6702 178.651 72.4591 178.605 72.2647 178.517C72.0702 178.428 71.897 178.299 71.7565 178.138L55.3885 159.433C55.1272 159.134 54.9952 158.743 55.0215 158.347C55.0478 157.95 55.2303 157.58 55.5289 157.318L56.4208 156.538C57.0373 155.998 57.7976 155.65 58.6087 155.536C59.4198 155.422 60.2466 155.546 60.988 155.895L69.8522 160.061L75.4213 159.784C75.4734 159.781 75.5252 159.793 75.5704 159.819C75.6157 159.845 75.6525 159.884 75.6765 159.93C78.0903 164.527 80.9099 167.994 84.2965 170.53C84.3311 170.556 84.359 170.589 84.378 170.628C84.397 170.667 84.4066 170.71 84.406 170.753C84.4053 170.796 84.3945 170.838 84.3743 170.876C84.3541 170.915 84.3252 170.947 84.2899 170.972L73.744 178.376C73.4925 178.554 73.192 178.65 72.8838 178.651ZM59.1945 156.041C58.3058 156.041 57.4472 156.363 56.7785 156.948L55.8866 157.729C55.697 157.896 55.5813 158.131 55.5648 158.383C55.5483 158.635 55.6324 158.883 55.7986 159.073L72.1688 177.779C72.3234 177.956 72.5382 178.07 72.7717 178.098C73.0052 178.126 73.2408 178.066 73.4329 177.931L83.6695 170.74C80.3871 168.205 77.6367 164.797 75.2735 160.338L69.8104 160.61C69.7649 160.612 69.7195 160.604 69.6784 160.584L60.7526 156.389C60.2651 156.16 59.7332 156.041 59.1945 156.041Z" fill="black"/>
<path d="M56.9826 156.454C56.8488 156.542 56.7206 156.639 56.5989 156.743L55.7066 157.524C55.4621 157.738 55.3126 158.04 55.291 158.365C55.2695 158.689 55.3777 159.009 55.5918 159.253L71.9598 177.958C72.159 178.186 72.4356 178.333 72.7362 178.369C73.0368 178.405 73.3402 178.328 73.5878 178.154L75.0649 177.117L56.9826 156.454Z" fill="white"/>
<path d="M72.8838 178.651C72.6701 178.651 72.4589 178.605 72.2644 178.517C72.0698 178.428 71.8965 178.299 71.7561 178.138L55.3881 159.433C55.1267 159.134 54.9947 158.743 55.021 158.347C55.0473 157.95 55.2298 157.58 55.5284 157.318L56.4203 156.537C56.5507 156.427 56.6877 156.324 56.8304 156.229C56.8853 156.192 56.9521 156.175 57.0182 156.184C57.0843 156.192 57.1452 156.224 57.1894 156.273L75.2734 176.937C75.2986 176.966 75.3175 176.999 75.3288 177.036C75.34 177.073 75.3435 177.111 75.3389 177.149C75.3343 177.187 75.3217 177.224 75.302 177.257C75.2823 177.289 75.2559 177.318 75.2246 177.34L73.744 178.376C73.4924 178.554 73.192 178.65 72.8838 178.651ZM56.9391 156.819C56.8845 156.86 56.8304 156.903 56.7785 156.948L55.8866 157.729C55.6969 157.896 55.5811 158.131 55.5646 158.383C55.5481 158.635 55.6322 158.883 55.7986 159.073L72.1666 177.779C72.3213 177.956 72.5362 178.07 72.7697 178.098C73.0032 178.126 73.2389 178.066 73.4311 177.931L74.6592 177.068L56.9391 156.819Z" fill="black"/>
<path d="M91.6679 152.719C92.4599 153.022 93.9414 154.59 93.4138 155.423C92.8796 156.266 87.8126 157.435 86.4103 155.903C85.0811 154.451 86.05 152.178 86.05 152.178C86.05 152.178 90.3501 152.214 91.6679 152.719Z" fill="white"/>
<path d="M88.924 156.921C87.9789 156.921 86.8269 156.762 86.2087 156.087C84.7774 154.523 85.7564 152.171 85.7991 152.071C85.8199 152.022 85.8548 151.98 85.8994 151.95C85.944 151.92 85.9964 151.905 86.0499 151.905C86.2259 151.905 90.4151 151.949 91.7629 152.463C92.4303 152.719 93.4274 153.683 93.7121 154.542C93.8441 154.935 93.8185 155.29 93.6421 155.569C93.2399 156.203 91.3066 156.746 89.7459 156.883C89.5118 156.904 89.2285 156.921 88.924 156.921ZM86.24 152.454C86.0609 152.982 85.6174 154.631 86.6131 155.719C87.0936 156.244 88.2187 156.471 89.701 156.339C91.4901 156.181 92.9821 155.595 93.1836 155.276C93.2716 155.139 93.2751 154.95 93.1968 154.714C92.9724 154.037 92.1003 153.177 91.5688 152.973C90.4675 152.551 87.0821 152.468 86.24 152.454Z" fill="black"/>
<path d="M65.8852 161.159C65.8231 161.309 65.7043 161.429 65.5547 161.492C65.405 161.556 65.2364 161.558 65.0852 161.498C64.9341 161.438 64.8126 161.321 64.7469 161.172C64.6812 161.024 64.6766 160.855 64.7342 160.703L65.5539 158.629C65.5931 158.531 65.6569 158.444 65.7393 158.377C65.8217 158.31 65.9199 158.265 66.0244 158.247C66.129 158.229 66.2365 158.238 66.3366 158.273C66.4367 158.308 66.5261 158.369 66.5963 158.448C66.6715 158.534 66.7217 158.638 66.7412 158.75C66.7608 158.862 66.749 158.977 66.7071 159.083L65.8852 161.159Z" fill="white"/>
<path d="M65.3114 161.823C65.1657 161.823 65.0221 161.788 64.8933 161.72C64.7644 161.652 64.6542 161.553 64.5722 161.433C64.4902 161.312 64.4389 161.173 64.4229 161.029C64.4069 160.884 64.4265 160.737 64.4802 160.602L65.2995 158.529C65.3881 158.31 65.5596 158.134 65.7768 158.04C65.9939 157.946 66.2393 157.942 66.4598 158.028C66.6795 158.115 66.8557 158.286 66.9496 158.503C67.0436 158.72 67.0476 158.965 66.9609 159.185L66.139 161.26C66.0727 161.425 65.9586 161.567 65.8113 161.667C65.6639 161.768 65.49 161.822 65.3118 161.822L65.3114 161.823ZM66.1293 158.511C66.0597 158.511 65.9918 158.532 65.9343 158.571C65.8768 158.611 65.8324 158.666 65.8068 158.731L64.988 160.803C64.9634 160.867 64.958 160.936 64.9725 161.002C64.9869 161.069 65.0206 161.129 65.0692 161.177C65.1179 161.224 65.1794 161.256 65.2462 161.269C65.3129 161.282 65.382 161.275 65.4447 161.249C65.4869 161.231 65.5251 161.205 65.5572 161.172C65.5892 161.139 65.6144 161.101 65.6313 161.058L66.4536 158.983C66.4766 158.924 66.4829 158.86 66.4718 158.798C66.4607 158.736 66.4326 158.678 66.3907 158.631C66.3545 158.59 66.3093 158.558 66.2587 158.538C66.2176 158.521 66.1737 158.512 66.1293 158.511Z" fill="black"/>
<path d="M67.2698 162.619C67.1942 162.59 67.1251 162.545 67.0666 162.489C67.0081 162.433 66.9614 162.365 66.929 162.291C66.8967 162.216 66.8794 162.136 66.8781 162.055C66.8769 161.974 66.8917 161.893 66.9218 161.817L67.7419 159.744C67.7802 159.644 67.8436 159.556 67.9259 159.489C68.0083 159.421 68.1068 159.376 68.2117 159.358C68.3167 159.34 68.4246 159.349 68.5249 159.385C68.6252 159.421 68.7144 159.483 68.7839 159.563C68.8597 159.649 68.9101 159.753 68.9293 159.866C68.9486 159.978 68.936 160.094 68.893 160.2L68.0733 162.272C68.0125 162.424 67.8939 162.546 67.7433 162.612C67.5927 162.677 67.4224 162.679 67.2698 162.619Z" fill="white"/>
<path d="M67.4961 162.936C67.3505 162.937 67.2071 162.901 67.0784 162.833C66.9497 162.765 66.8396 162.667 66.7578 162.546C66.6759 162.426 66.6248 162.287 66.609 162.143C66.5931 161.998 66.6129 161.852 66.6667 161.716L67.4859 159.643C67.5418 159.501 67.6335 159.375 67.7522 159.278C67.8709 159.181 68.0126 159.117 68.1635 159.09C68.3145 159.064 68.4697 159.078 68.614 159.129C68.7584 159.18 68.8871 159.268 68.9877 159.383C69.0972 159.507 69.1699 159.658 69.1975 159.821C69.2251 159.983 69.2065 160.15 69.1439 160.303L68.325 162.374C68.2586 162.54 68.1442 162.682 67.9965 162.782C67.8488 162.882 67.6745 162.936 67.4961 162.936ZM68.318 159.625C68.2481 159.625 68.1798 159.646 68.122 159.685C68.0642 159.724 68.0195 159.78 67.9937 159.845L67.1757 161.92C67.159 161.962 67.1507 162.007 67.1513 162.052C67.152 162.097 67.1616 162.142 67.1795 162.183C67.1975 162.225 67.2234 162.262 67.2559 162.294C67.2884 162.325 67.3268 162.35 67.3689 162.366H67.3711C67.4562 162.4 67.5511 162.398 67.6351 162.362C67.7191 162.326 67.7854 162.258 67.8195 162.173L68.6392 160.1C68.6634 160.041 68.6706 159.976 68.66 159.913C68.6493 159.85 68.6212 159.792 68.5789 159.744C68.5429 159.702 68.4977 159.67 68.4469 159.649C68.4065 159.633 68.3633 159.625 68.3197 159.625H68.318Z" fill="black"/>
<path d="M119.419 120.833C119.419 120.833 140.448 108.407 147.479 120.232C159.862 141.059 96.0546 168.174 96.0546 168.174C94.6858 168.601 81.6499 162.366 81.546 151.913C81.5078 148.016 119.419 120.833 119.419 120.833Z" fill="#11B3E8"/>
<path d="M96.0546 168.174C95.7246 168.278 94.7082 167.989 93.3605 167.349C100.47 164.228 155.628 139.227 144.037 119.733C142.549 117.23 140.434 115.817 138.027 115.136C141.823 115.25 145.314 116.588 147.479 120.231C159.863 141.06 96.0546 168.174 96.0546 168.174Z" fill="#39459B"/>
<path d="M95.9072 168.458C94.8195 168.458 92.0061 167.19 89.3217 165.237C86.3438 163.069 81.3383 158.456 81.2732 151.915C81.2341 147.991 115.368 123.403 119.259 120.611L119.28 120.598C119.333 120.567 124.64 117.453 130.742 115.834C138.901 113.669 144.77 115.141 147.713 120.092C149.498 123.094 149.819 126.4 148.668 129.918C146.109 137.735 136.49 146.594 120.076 156.248C107.878 163.423 96.2772 168.376 96.1615 168.425C96.0789 168.449 95.9931 168.46 95.9072 168.458ZM119.568 121.062C104.375 131.956 81.792 149.156 81.8193 151.91C81.8822 158.212 86.7473 162.688 89.6433 164.795C92.8259 167.112 95.5596 168.041 95.9732 167.913C96.4092 167.726 142.14 148.109 148.148 129.749C149.248 126.386 148.944 123.231 147.244 120.371C140.492 109.015 120.123 120.738 119.568 121.062Z" fill="black"/>
<path d="M79.13 161.46L79.3597 161.584L89.6112 167.096L92.9478 168.889L100.419 158.117L93.9945 154.542L93.6491 154.351L86.6412 150.455L79.3619 161.119L79.3601 161.121L79.13 161.46Z" fill="#F5C8B2"/>
<path d="M79.3597 161.584L89.6117 167.096C91.9662 162.945 93.6892 155.841 93.9946 154.543C94.0236 154.407 94.0417 154.335 94.0417 154.335L93.6496 154.351L88.4347 154.565L79.3624 161.121L79.3597 161.584Z" fill="#F09080"/>
<path d="M92.9487 169.163C92.9036 169.163 92.8591 169.152 92.8193 169.13L79.0003 161.7C78.9663 161.682 78.9366 161.657 78.913 161.626C78.8894 161.596 78.8726 161.561 78.8635 161.524C78.8544 161.486 78.8534 161.447 78.8604 161.409C78.8675 161.372 78.8824 161.336 78.9043 161.304L86.4151 150.3C86.4534 150.243 86.5114 150.203 86.5777 150.188C86.644 150.172 86.7138 150.182 86.7733 150.215L100.553 157.876C100.587 157.895 100.616 157.92 100.639 157.951C100.662 157.981 100.679 158.017 100.687 158.054C100.696 158.091 100.697 158.13 100.689 158.168C100.682 158.205 100.667 158.241 100.645 158.272L93.1731 169.046C93.1479 169.082 93.1143 169.111 93.0752 169.132C93.0362 169.152 92.9928 169.163 92.9487 169.163ZM79.5287 161.363L92.8656 168.535L100.027 158.21L86.724 150.814L79.5287 161.363Z" fill="black"/>
<path d="M91.5803 168.337L102.458 175.241C102.713 175.403 103.019 175.465 103.318 175.415C103.616 175.365 103.885 175.206 104.074 174.97L119.55 155.518C119.753 155.264 119.846 154.939 119.809 154.616C119.772 154.293 119.608 153.998 119.354 153.796L118.426 153.058C117.827 152.581 117.102 152.289 116.339 152.218C115.576 152.147 114.809 152.299 114.132 152.657L105.412 157.266L99.7687 157.249C97.7504 161.573 95.1558 165.388 91.5803 168.337Z" fill="#EE3E2F"/>
<path d="M103.114 175.706C102.83 175.706 102.551 175.625 102.311 175.472L91.4321 168.568C91.396 168.544 91.3659 168.513 91.3442 168.476C91.3225 168.439 91.3098 168.397 91.3072 168.354C91.3045 168.312 91.312 168.269 91.3289 168.229C91.3459 168.19 91.3719 168.155 91.4048 168.128C94.6691 165.436 97.3232 161.84 99.5197 157.135C99.5417 157.088 99.5767 157.049 99.6206 157.021C99.6645 156.993 99.7154 156.978 99.7674 156.978L105.343 156.994L114.004 152.416C114.728 152.033 115.548 151.87 116.364 151.946C117.179 152.022 117.955 152.334 118.596 152.844L119.524 153.582C119.834 153.83 120.034 154.191 120.079 154.585C120.124 154.98 120.01 155.377 119.763 155.688L104.287 175.139C104.147 175.316 103.968 175.459 103.765 175.557C103.562 175.655 103.34 175.706 103.114 175.706ZM92.0415 168.307L102.604 175.01C102.802 175.137 103.041 175.185 103.273 175.146C103.505 175.107 103.714 174.984 103.86 174.799L119.336 155.348C119.493 155.15 119.565 154.898 119.537 154.647C119.508 154.396 119.381 154.167 119.184 154.009L118.257 153.271C117.699 152.828 117.024 152.556 116.314 152.49C115.604 152.424 114.89 152.566 114.26 152.899L105.54 157.507C105.5 157.528 105.457 157.539 105.412 157.539L99.9425 157.523C97.7896 162.088 95.202 165.621 92.0415 168.307Z" fill="black"/>
<path d="M118.03 152.787C118.167 152.869 118.299 152.959 118.426 153.057L119.353 153.796C119.479 153.896 119.584 154.02 119.662 154.161C119.74 154.302 119.79 154.456 119.808 154.616C119.826 154.776 119.812 154.938 119.768 155.093C119.724 155.248 119.649 155.392 119.549 155.518L104.073 174.969C103.884 175.206 103.615 175.365 103.317 175.415C103.018 175.465 102.712 175.403 102.457 175.241L100.932 174.273L118.03 152.787Z" fill="white"/>
<path d="M103.115 175.706C102.83 175.706 102.552 175.625 102.311 175.472L100.787 174.504C100.755 174.483 100.727 174.456 100.706 174.424C100.685 174.392 100.67 174.356 100.664 174.318C100.658 174.28 100.66 174.241 100.669 174.204C100.679 174.167 100.696 174.133 100.72 174.103L117.816 152.616C117.858 152.564 117.917 152.529 117.982 152.517C118.048 152.506 118.116 152.518 118.173 152.553C118.32 152.641 118.461 152.738 118.596 152.843L119.524 153.581C119.835 153.829 120.035 154.19 120.079 154.585C120.124 154.979 120.011 155.376 119.764 155.687L104.287 175.138C104.147 175.315 103.969 175.458 103.766 175.556C103.563 175.655 103.34 175.706 103.115 175.706ZM101.336 174.206L102.604 175.01C102.802 175.137 103.041 175.185 103.273 175.146C103.504 175.107 103.714 174.983 103.86 174.799L119.336 155.348C119.493 155.15 119.565 154.898 119.537 154.647C119.508 154.396 119.381 154.167 119.184 154.009L118.257 153.271C118.203 153.227 118.146 153.188 118.09 153.15L101.336 174.206Z" fill="black"/>
<path d="M99.7687 157.249C98.9503 157.473 97.3214 158.887 97.7645 159.768C98.2129 160.66 103.14 162.323 104.686 160.937C106.152 159.622 105.412 157.266 105.412 157.266C105.412 157.266 101.129 156.877 99.7687 157.249Z" fill="white"/>
<path d="M102.806 161.739C102.29 161.734 101.775 161.682 101.268 161.583C99.7282 161.292 97.8582 160.563 97.5203 159.891C97.3724 159.597 97.383 159.241 97.5515 158.862C97.9198 158.036 99.007 157.175 99.6965 156.986C101.089 156.605 105.26 156.977 105.437 156.994C105.49 156.999 105.542 157.019 105.583 157.053C105.625 157.087 105.656 157.132 105.673 157.184C105.705 157.287 106.447 159.724 104.868 161.14C104.354 161.601 103.566 161.739 102.806 161.739ZM99.8408 157.515C99.2935 157.665 98.3409 158.435 98.0505 159.087C97.9497 159.314 97.9352 159.503 98.0065 159.648C98.1759 159.984 99.6028 160.715 101.369 161.049C102.83 161.325 103.972 161.211 104.502 160.736C105.602 159.751 105.321 158.067 105.195 157.524C104.355 157.454 100.977 157.204 99.8391 157.515H99.8408Z" fill="black"/>
<path d="M109.357 157.904C109.424 158.053 109.549 158.17 109.702 158.228C109.856 158.286 110.026 158.281 110.176 158.213C110.325 158.146 110.442 158.021 110.5 157.868C110.558 157.714 110.553 157.544 110.485 157.394L109.57 155.361C109.526 155.264 109.458 155.18 109.373 155.117C109.287 155.054 109.187 155.014 109.082 155.001C108.976 154.988 108.869 155.002 108.771 155.042C108.673 155.082 108.586 155.146 108.52 155.229C108.449 155.318 108.403 155.424 108.389 155.537C108.375 155.65 108.392 155.764 108.438 155.868L109.357 157.904Z" fill="white"/>
<path d="M109.921 158.541C109.75 158.54 109.582 158.491 109.438 158.398C109.294 158.305 109.179 158.173 109.108 158.017L108.189 155.98C108.093 155.764 108.085 155.519 108.169 155.298C108.253 155.077 108.421 154.899 108.637 154.802C108.853 154.706 109.097 154.699 109.318 154.782C109.539 154.865 109.719 155.032 109.818 155.246L110.734 157.281C110.783 157.388 110.809 157.503 110.813 157.62C110.816 157.737 110.797 157.854 110.755 157.964C110.714 158.073 110.651 158.173 110.57 158.258C110.49 158.344 110.393 158.412 110.286 158.46C110.172 158.513 110.047 158.541 109.921 158.541ZM109.605 157.793C109.624 157.835 109.651 157.872 109.685 157.903C109.718 157.935 109.758 157.959 109.801 157.975C109.843 157.991 109.887 157.998 109.932 157.996C109.977 157.995 110.021 157.984 110.062 157.965C110.103 157.947 110.141 157.921 110.172 157.888C110.204 157.855 110.228 157.816 110.245 157.774C110.261 157.732 110.269 157.686 110.268 157.641C110.266 157.596 110.256 157.551 110.238 157.509L109.321 155.475C109.297 155.421 109.259 155.374 109.211 155.339C109.163 155.304 109.107 155.281 109.048 155.274C108.989 155.267 108.929 155.275 108.874 155.297C108.819 155.32 108.771 155.356 108.734 155.402C108.694 155.451 108.668 155.51 108.66 155.573C108.652 155.636 108.661 155.699 108.687 155.757L109.605 157.793Z" fill="black"/>
<path d="M108.042 159.427C108.116 159.394 108.183 159.346 108.239 159.287C108.294 159.228 108.338 159.159 108.367 159.083C108.396 159.007 108.409 158.926 108.407 158.845C108.404 158.764 108.386 158.684 108.352 158.61L107.436 156.577C107.393 156.479 107.326 156.395 107.24 156.331C107.155 156.267 107.055 156.227 106.949 156.213C106.843 156.2 106.736 156.214 106.637 156.255C106.539 156.296 106.452 156.361 106.387 156.445C106.315 156.534 106.269 156.641 106.255 156.754C106.241 156.867 106.259 156.982 106.307 157.086L107.224 159.119C107.292 159.268 107.416 159.384 107.569 159.442C107.723 159.5 107.893 159.494 108.042 159.427Z" fill="white"/>
<path d="M107.789 159.756C107.617 159.755 107.449 159.706 107.305 159.613C107.161 159.52 107.047 159.388 106.975 159.232L106.058 157.198C105.961 156.982 105.954 156.736 106.038 156.514C106.121 156.293 106.29 156.113 106.506 156.016C106.722 155.92 106.967 155.913 107.188 155.997C107.409 156.082 107.587 156.25 107.685 156.465L108.601 158.498C108.662 158.634 108.688 158.783 108.676 158.931C108.665 159.079 108.617 159.222 108.536 159.347C108.455 159.472 108.344 159.575 108.214 159.646C108.083 159.718 107.937 159.755 107.789 159.756ZM106.869 156.484C106.821 156.484 106.773 156.495 106.729 156.515C106.678 156.537 106.634 156.572 106.6 156.615C106.56 156.665 106.535 156.724 106.527 156.787C106.52 156.85 106.529 156.913 106.556 156.971L107.474 159.007C107.512 159.09 107.581 159.155 107.667 159.187C107.709 159.203 107.755 159.21 107.8 159.209C107.845 159.208 107.89 159.197 107.931 159.178C107.972 159.16 108.009 159.133 108.04 159.101C108.071 159.068 108.095 159.029 108.111 158.987C108.127 158.945 108.135 158.9 108.134 158.855C108.132 158.809 108.122 158.765 108.104 158.724L107.187 156.69C107.159 156.629 107.115 156.577 107.058 156.54C107.002 156.504 106.936 156.484 106.869 156.484Z" fill="black"/>
<path d="M51.2759 126.752C51.2759 126.752 30.1774 114.591 24.3545 127.054C14.0981 149.007 80.2811 169.658 80.2811 169.658C81.6856 169.947 94.0386 162.452 93.1045 152.038C92.7564 148.157 51.2759 126.752 51.2759 126.752Z" fill="#11B3E8"/>
<path d="M89.7794 162.337C86.2638 167.006 81.1554 169.838 80.2815 169.659C80.2815 169.659 14.0985 149.006 24.3527 127.054C25.0959 125.465 26.103 124.247 27.2967 123.325C27.1017 123.652 26.9234 123.989 26.7626 124.334C16.5049 146.286 82.6866 166.936 82.6866 166.936C83.3765 167.079 86.6879 165.352 89.7794 162.337Z" fill="#39459B"/>
<path d="M80.3585 169.938C80.3142 169.938 80.27 169.934 80.2265 169.925C80.0805 169.881 68.0456 166.104 55.1958 160.175C37.9038 152.196 27.4543 144.335 24.1318 136.811C22.6358 133.423 22.6283 130.102 24.1063 126.939C26.0221 122.838 31.7812 120.999 36.5319 120.647C36.6028 120.644 36.6722 120.668 36.7253 120.715C36.7784 120.763 36.811 120.829 36.8163 120.899C36.8215 120.97 36.799 121.04 36.7535 121.095C36.708 121.149 36.643 121.184 36.5724 121.191C32.1865 121.518 26.4189 123.28 24.6013 127.171C23.1933 130.186 23.203 133.356 24.6312 136.592C32.432 154.264 79.8838 169.248 80.3625 169.397C80.7585 169.479 83.3888 168.28 86.3258 165.657C88.9975 163.273 93.3953 158.337 92.8325 152.061C92.6535 150.066 79.5261 141.193 57.7166 128.329C57.6542 128.292 57.609 128.232 57.5909 128.162C57.5728 128.092 57.5832 128.018 57.62 127.955C57.6568 127.893 57.7168 127.848 57.7869 127.83C57.857 127.811 57.9314 127.822 57.9938 127.859C71.0921 135.585 93.1058 148.997 93.3764 152.012C93.9607 158.527 89.4375 163.614 86.6884 166.066C84.1148 168.364 81.3283 169.938 80.3585 169.938Z" fill="black"/>
<path d="M196.941 177.964L191.737 180.454C191.703 180.47 191.666 180.48 191.628 180.482C191.59 180.484 191.552 180.479 191.517 180.466C191.481 180.453 191.448 180.434 191.42 180.409C191.392 180.383 191.369 180.353 191.353 180.319L177.646 151.668C177.613 151.599 177.609 151.52 177.634 151.448C177.66 151.376 177.713 151.317 177.782 151.284L182.986 148.794C183.02 148.778 183.057 148.769 183.095 148.767C183.132 148.764 183.17 148.77 183.206 148.783C183.241 148.795 183.274 148.815 183.302 148.84C183.33 148.865 183.353 148.896 183.369 148.93L197.076 177.58C197.109 177.649 197.113 177.728 197.088 177.8C197.063 177.872 197.01 177.931 196.941 177.964Z" fill="#6F3F51"/>
<path d="M192.601 180.057C192.1 180.057 191.609 179.916 191.184 179.649C190.76 179.382 190.42 179.001 190.203 178.549L178.303 153.674C178.153 153.36 178.066 153.019 178.047 152.671C178.028 152.323 178.078 151.975 178.194 151.647C178.31 151.318 178.49 151.016 178.722 150.756C178.955 150.497 179.237 150.286 179.551 150.136L180.98 149.452C181.615 149.149 182.344 149.111 183.008 149.345C183.671 149.579 184.214 150.066 184.519 150.7L196.419 175.575C196.723 176.21 196.762 176.939 196.528 177.603C196.294 178.267 195.806 178.81 195.171 179.114L193.742 179.797C193.386 179.968 192.996 180.057 192.601 180.057ZM182.122 149.741C181.808 149.741 181.499 149.811 181.216 149.947L179.787 150.63C179.537 150.75 179.313 150.917 179.128 151.123C178.944 151.329 178.801 151.569 178.709 151.83C178.617 152.091 178.577 152.368 178.592 152.644C178.607 152.921 178.676 153.191 178.796 153.441L190.696 178.313C190.938 178.816 191.37 179.203 191.896 179.389C192.423 179.575 193.002 179.545 193.506 179.305L194.935 178.621C195.185 178.502 195.409 178.334 195.594 178.128C195.778 177.922 195.921 177.682 196.013 177.421C196.105 177.16 196.145 176.884 196.13 176.607C196.115 176.331 196.046 176.06 195.926 175.811L184.026 150.936C183.854 150.578 183.584 150.275 183.247 150.063C182.91 149.851 182.52 149.739 182.122 149.739V149.741Z" fill="black"/>
<path d="M59.334 177.964L64.5383 180.454C64.6072 180.487 64.6863 180.491 64.7582 180.466C64.8302 180.44 64.8891 180.387 64.922 180.319L78.628 151.668C78.6609 151.599 78.6651 151.52 78.6397 151.448C78.6143 151.376 78.5613 151.317 78.4925 151.284L73.2882 148.794C73.2193 148.761 73.1402 148.757 73.0683 148.783C72.9963 148.808 72.9374 148.861 72.9045 148.93L59.1976 177.58C59.1812 177.614 59.1717 177.651 59.1697 177.689C59.1677 177.727 59.1732 177.764 59.1859 177.8C59.1985 177.836 59.2182 177.869 59.2436 177.897C59.269 177.925 59.2997 177.948 59.334 177.964Z" fill="#6F3F51"/>
<path d="M63.6738 180.057C63.2789 180.057 62.8891 179.968 62.5333 179.797L61.1041 179.114C60.4699 178.81 59.9822 178.266 59.7481 177.603C59.514 176.939 59.5526 176.21 59.8554 175.575L71.7561 150.7C71.9065 150.386 72.1173 150.104 72.3765 149.871C72.6357 149.638 72.9382 149.459 73.2668 149.343C73.5954 149.227 73.9436 149.177 74.2915 149.196C74.6394 149.214 74.9803 149.301 75.2946 149.452L76.7233 150.135C77.0377 150.286 77.3193 150.497 77.5523 150.756C77.7852 151.015 77.9647 151.317 78.0807 151.646C78.1967 151.975 78.2467 152.323 78.2281 152.671C78.2094 153.019 78.1224 153.36 77.972 153.674L66.0718 178.548C65.855 179 65.5148 179.382 65.0905 179.649C64.6662 179.916 64.175 180.057 63.6738 180.057ZM61.3395 178.621L62.7682 179.305C63.2727 179.545 63.8516 179.575 64.3784 179.389C64.9052 179.203 65.3368 178.816 65.579 178.313L77.4792 153.439C77.7203 152.934 77.7513 152.355 77.5654 151.828C77.3795 151.301 76.9919 150.87 76.4879 150.628L75.0592 149.945C74.8096 149.826 74.5389 149.756 74.2626 149.742C73.9862 149.727 73.7097 149.767 73.4487 149.859C73.1878 149.951 72.9475 150.093 72.7416 150.278C72.5358 150.463 72.3683 150.687 72.2489 150.936L60.3482 175.811C60.1076 176.315 60.0769 176.894 60.2627 177.421C60.4486 177.948 60.8358 178.379 61.3395 178.621Z" fill="black"/>
<path d="M126.095 158.375C167.969 158.375 201.916 150.289 201.916 140.315C201.916 130.34 167.969 122.254 126.095 122.254C84.2201 122.254 50.2739 130.34 50.2739 140.315C50.2739 150.289 84.2201 158.375 126.095 158.375Z" fill="#FFD367"/>
<path d="M201.916 140.316C201.916 150.29 167.972 158.372 126.098 158.372C84.2239 158.372 50.2731 150.291 50.2731 140.316C50.2731 138.828 51.0237 137.387 52.4467 136.004C53.9664 145.656 87.3026 153.374 128.209 153.374C163.852 153.374 193.744 147.517 201.858 139.623C201.896 139.852 201.915 140.084 201.916 140.316Z" fill="#F79955"/>
<path d="M126.095 158.649C105.822 158.649 86.7588 156.767 72.4183 153.351C57.9621 149.908 50.0012 145.278 50.0012 140.316C50.0012 135.354 57.9621 130.724 72.4183 127.279C86.7588 123.863 105.822 121.982 126.095 121.982C146.368 121.982 165.431 123.863 179.771 127.279C194.227 130.723 202.188 135.353 202.188 140.316C202.188 145.279 194.227 149.908 179.771 153.352C165.43 156.767 146.368 158.649 126.095 158.649ZM126.095 122.525C105.863 122.525 86.8468 124.401 72.5468 127.807C58.5641 131.139 50.5473 135.696 50.5473 140.316C50.5473 144.936 58.5654 149.491 72.5473 152.821C86.8473 156.228 105.865 158.103 126.095 158.103C146.325 158.103 165.343 156.228 179.645 152.821C193.625 149.491 201.643 144.933 201.643 140.316C201.643 135.699 193.625 131.141 179.645 127.811C165.345 124.403 146.326 122.527 126.095 122.527V122.525Z" fill="black"/>
<path d="M50.2739 144.952C50.2739 154.927 84.2199 163.013 126.095 163.013C167.97 163.013 201.916 154.927 201.916 144.952V140.316C201.916 150.29 167.97 158.377 126.096 158.377C84.2212 158.377 50.2739 150.289 50.2739 140.316V144.952Z" fill="#ED7545"/>
<path d="M126.095 163.286C105.822 163.286 86.7588 161.405 72.4183 157.989C57.9621 154.545 50.0012 149.915 50.0012 144.952V140.316C49.9997 140.279 50.0057 140.242 50.0187 140.208C50.0318 140.174 50.0517 140.142 50.0772 140.116C50.1027 140.089 50.1333 140.068 50.1671 140.054C50.201 140.039 50.2374 140.032 50.2742 140.032C50.311 140.032 50.3474 140.039 50.3813 140.054C50.4152 140.068 50.4458 140.089 50.4713 140.116C50.4968 140.142 50.5166 140.174 50.5297 140.208C50.5427 140.242 50.5487 140.279 50.5472 140.316C50.5472 144.933 58.5654 149.491 72.5472 152.821C86.8472 156.228 105.865 158.103 126.095 158.103C146.325 158.103 165.343 156.228 179.645 152.821C193.625 149.491 201.643 144.933 201.643 140.316C201.641 140.279 201.647 140.242 201.66 140.208C201.673 140.174 201.693 140.142 201.719 140.116C201.744 140.089 201.775 140.068 201.809 140.054C201.843 140.039 201.879 140.032 201.916 140.032C201.953 140.032 201.989 140.039 202.023 140.054C202.057 140.068 202.087 140.089 202.113 140.116C202.138 140.142 202.158 140.174 202.171 140.208C202.184 140.242 202.19 140.279 202.189 140.316V144.954C202.189 149.917 194.227 154.546 179.772 157.99C165.43 161.405 146.368 163.286 126.095 163.286ZM50.5468 142.551V144.952C50.5468 149.57 58.5649 154.128 72.5468 157.457C86.8468 160.864 105.865 162.74 126.095 162.74C146.325 162.74 165.343 160.864 179.645 157.457C193.625 154.128 201.642 149.57 201.642 144.952V142.551C199.618 146.657 192.031 150.431 179.771 153.351C165.43 156.767 146.368 158.649 126.095 158.649C105.821 158.649 86.7588 156.767 72.4183 153.351C60.1586 150.431 52.5704 146.657 50.5472 142.551H50.5468Z" fill="black"/>
<path d="M115.59 136.293L147.774 129.169L155.536 131.032L147.148 142.745L115.59 136.293Z" fill="#ABC2CE"/>
<path d="M147.148 143.018C147.13 143.018 147.111 143.016 147.093 143.012L115.535 136.56C115.474 136.548 115.418 136.515 115.378 136.467C115.338 136.418 115.316 136.358 115.316 136.295C115.315 136.232 115.336 136.171 115.375 136.122C115.415 136.073 115.469 136.039 115.531 136.026L147.715 128.902C147.756 128.893 147.798 128.893 147.838 128.902L155.6 130.768C155.644 130.778 155.684 130.799 155.718 130.829C155.751 130.859 155.777 130.896 155.792 130.938C155.808 130.98 155.813 131.025 155.807 131.069C155.801 131.114 155.784 131.156 155.758 131.192L147.37 142.905C147.345 142.94 147.311 142.968 147.273 142.988C147.234 143.008 147.192 143.018 147.148 143.018ZM116.901 136.282L147.029 142.442L155.078 131.204L147.772 129.448L116.901 136.282Z" fill="black"/>
<path d="M146.9 146.172L148.46 110.081C148.498 109.622 148.697 109.192 149.022 108.866C149.347 108.541 149.777 108.341 150.235 108.302L192.582 102.938C192.864 102.914 193.148 102.952 193.413 103.049C193.679 103.146 193.92 103.299 194.12 103.499C194.32 103.699 194.474 103.94 194.572 104.205C194.669 104.471 194.708 104.754 194.685 105.036L192.089 136.476C192.059 136.831 191.908 137.165 191.66 137.422C191.413 137.678 191.084 137.841 190.73 137.882L146.9 146.172Z" fill="white"/>
<path d="M146.9 146.445C146.863 146.445 146.826 146.437 146.793 146.423C146.759 146.409 146.728 146.387 146.703 146.361C146.677 146.334 146.657 146.303 146.644 146.268C146.632 146.234 146.626 146.197 146.627 146.16L148.187 110.069C148.227 109.544 148.453 109.05 148.824 108.677C149.195 108.303 149.687 108.074 150.211 108.031L192.547 102.667C192.869 102.638 193.193 102.68 193.497 102.789C193.802 102.899 194.078 103.074 194.308 103.302C194.537 103.53 194.714 103.805 194.826 104.108C194.938 104.412 194.982 104.736 194.955 105.058L192.359 136.499C192.324 136.916 192.145 137.309 191.854 137.61C191.563 137.912 191.176 138.103 190.76 138.153L146.951 146.44C146.934 146.443 146.917 146.445 146.9 146.445ZM192.748 103.203C192.701 103.203 192.654 103.203 192.606 103.21L150.271 108.574C149.875 108.604 149.502 108.775 149.22 109.055C148.939 109.335 148.766 109.707 148.733 110.103L147.189 145.839L190.679 137.611C190.974 137.579 191.248 137.446 191.455 137.235C191.663 137.023 191.79 136.747 191.817 136.452L194.413 105.011C194.432 104.781 194.403 104.549 194.328 104.33C194.253 104.112 194.133 103.911 193.977 103.741C193.82 103.571 193.63 103.435 193.418 103.342C193.207 103.249 192.978 103.201 192.747 103.201L192.748 103.203Z" fill="black"/>
<path d="M147.148 142.745L115.59 136.293V139.723L146.9 146.172L147.148 142.745Z" fill="#EAEDF2"/>
<path d="M146.9 146.445C146.881 146.445 146.863 146.443 146.845 146.439L115.535 139.99C115.473 139.978 115.417 139.945 115.377 139.896C115.337 139.848 115.315 139.786 115.315 139.723V136.291C115.315 136.251 115.324 136.211 115.341 136.174C115.358 136.138 115.384 136.105 115.415 136.08C115.446 136.054 115.483 136.036 115.522 136.026C115.562 136.016 115.603 136.016 115.642 136.024L147.201 142.476C147.266 142.489 147.324 142.526 147.364 142.579C147.404 142.632 147.424 142.697 147.419 142.763L147.17 146.19C147.166 146.259 147.135 146.324 147.084 146.371C147.034 146.418 146.967 146.444 146.898 146.443L146.9 146.445ZM115.863 139.501L146.652 145.842L146.86 142.964L115.865 136.628L115.863 139.501Z" fill="black"/>
<path d="M174.614 126.896C176.093 125.493 176.268 123.277 175.006 121.946C173.743 120.615 171.521 120.674 170.042 122.077C168.564 123.479 168.388 125.695 169.65 127.026C170.913 128.357 173.135 128.298 174.614 126.896Z" fill="#EAEDF2"/>
<path d="M171.959 128.26C170.947 128.26 170.038 127.866 169.394 127.151C168.751 126.436 168.448 125.474 168.555 124.458C168.773 122.392 170.631 120.712 172.697 120.712C173.709 120.712 174.618 121.108 175.261 121.821C175.904 122.534 176.208 123.498 176.1 124.515C175.882 126.58 174.024 128.26 171.959 128.26ZM172.697 121.258C170.902 121.258 169.288 122.719 169.099 124.514C169.007 125.375 169.257 126.181 169.8 126.785C170.343 127.389 171.105 127.714 171.959 127.714C173.753 127.714 175.368 126.253 175.557 124.458C175.648 123.597 175.399 122.79 174.853 122.187C174.308 121.583 173.55 121.258 172.697 121.258V121.258Z" fill="black"/>
<path d="M89.951 62.3972C89.951 62.3972 95.715 63.3415 100.449 69.0337C105.12 74.6486 107.574 84.9569 113.179 88.0857C118.784 91.2146 131.895 83.8362 131.895 83.8362L129.551 102.331C129.551 102.331 113.053 115.181 99.4215 109.711C85.7899 104.241 77.2803 74.5654 77.2803 74.5654" fill="#EE3E2F"/>
<path d="M106.695 111.327C104.214 111.327 101.723 110.931 99.3194 109.966C85.7199 104.51 77.3669 75.8596 77.018 74.643C77.0067 74.6081 77.0026 74.5713 77.0058 74.5348C77.009 74.4983 77.0196 74.4629 77.0368 74.4305C77.054 74.3982 77.0775 74.3696 77.106 74.3466C77.1345 74.3235 77.1673 74.3064 77.2025 74.2963C77.2377 74.2861 77.2746 74.2832 77.311 74.2876C77.3473 74.292 77.3824 74.3037 77.4142 74.322C77.446 74.3403 77.4737 74.3647 77.4959 74.3939C77.518 74.4231 77.534 74.4565 77.5429 74.492C77.6279 74.7877 86.1713 104.101 99.5231 109.459C112.341 114.602 127.972 103.178 129.294 102.184L131.556 84.3344C129.115 85.6452 118.178 91.1927 113.046 88.3261C109.63 86.4182 107.343 81.8691 105.131 77.4691C103.643 74.5105 102.104 71.4508 100.239 69.2081C95.6313 63.668 89.9633 62.6763 89.9065 62.667C89.8371 62.6532 89.7758 62.6129 89.7355 62.5547C89.6951 62.4965 89.679 62.4249 89.6904 62.3551C89.7018 62.2852 89.7399 62.2225 89.7966 62.1801C89.8533 62.1378 89.9243 62.1191 89.9945 62.128C90.2343 62.1672 95.9143 63.1541 100.658 68.86C102.564 71.1507 104.116 74.2386 105.618 77.2249C107.793 81.551 110.043 86.0249 113.312 87.8504C118.718 90.8706 131.631 83.674 131.76 83.6009C131.804 83.576 131.854 83.5639 131.905 83.5659C131.956 83.5679 132.005 83.5839 132.047 83.6122C132.089 83.6404 132.122 83.6798 132.143 83.7259C132.164 83.772 132.172 83.823 132.165 83.8733L129.821 102.368C129.812 102.439 129.775 102.504 129.718 102.549C129.58 102.655 118.285 111.326 106.695 111.327Z" fill="black"/>
<path d="M95.9482 65.7686C93.1238 62.1548 80.9257 58.1077 68.0258 61.0971C62.0123 62.491 54.4232 64.5348 52.6126 68.0434C46.2388 80.3928 49.8164 116.673 49.8164 116.673C55.2869 120.886 89.5084 125.33 103.716 116.823C103.715 116.823 104.975 77.3186 95.9482 65.7686Z" fill="#EE3E2F"/>
<path d="M79.1041 121.939C77.0158 121.939 75.1001 121.876 73.4756 121.791C62.7981 121.235 52.5554 119.127 49.6496 116.89C49.6201 116.867 49.5955 116.838 49.5775 116.806C49.5595 116.773 49.5484 116.737 49.5449 116.7C49.3984 115.215 46.0319 80.198 52.3701 67.9184C54.164 64.4424 61.2581 62.385 67.9642 60.8314C78.8392 58.3106 88.7172 60.8837 94.3347 64.1314C94.3657 64.1493 94.3929 64.1732 94.4147 64.2016C94.4365 64.2301 94.4525 64.2625 94.4617 64.2972C94.471 64.3318 94.4733 64.3679 94.4686 64.4034C94.4639 64.439 94.4523 64.4732 94.4343 64.5043C94.4164 64.5353 94.3925 64.5625 94.3641 64.5843C94.3356 64.6061 94.3032 64.6221 94.2685 64.6313C94.2339 64.6406 94.1978 64.6429 94.1623 64.6382C94.1267 64.6335 94.0925 64.6219 94.0614 64.6039C88.5346 61.4078 78.8102 58.8773 68.0874 61.3624C61.5045 62.8879 54.5472 64.8895 52.855 68.1679C46.772 79.9542 49.8604 114.224 50.0764 116.527C52.991 118.645 63.2108 120.707 73.5038 121.246C86.4437 121.921 97.3438 120.251 103.446 116.665C103.492 114.92 103.864 98.3471 101.699 84.1452C101.692 84.1091 101.692 84.072 101.7 84.0361C101.708 84.0002 101.723 83.9663 101.744 83.9363C101.765 83.9063 101.792 83.881 101.823 83.8617C101.855 83.8424 101.889 83.8296 101.926 83.824C101.962 83.8185 101.999 83.8204 102.035 83.8295C102.07 83.8386 102.104 83.8548 102.133 83.8771C102.162 83.8993 102.186 83.9273 102.205 83.9592C102.223 83.9912 102.234 84.0264 102.238 84.0629C104.523 99.0493 103.993 116.656 103.988 116.832C103.986 116.878 103.974 116.922 103.95 116.962C103.927 117.001 103.895 117.034 103.856 117.058C97.1898 121.049 86.9286 121.939 79.1041 121.939Z" fill="black"/>
<path d="M91.1187 32.769C92.9803 34.5442 94.0854 36.9692 94.204 39.5388C94.2444 40.5288 94.116 41.5729 93.544 42.3821C93.115 42.9893 92.4624 43.4165 91.7611 43.6634C89.95 44.2996 87.8275 43.7197 86.4371 42.3979C85.0467 41.0762 84.3612 39.1063 84.4056 37.187C84.45 35.2677 85.1765 33.4052 86.2536 31.8151" fill="black"/>
<path d="M68.024 60.9607C68.024 60.9607 71.0684 66.0563 77.7736 65.5882C83.7224 65.1732 82.6738 60.9655 82.6738 60.9655L82.5084 57.8736L82.1656 51.4527L81.796 44.572L68.868 41.052L68.024 60.9607Z" fill="#F5C8B2"/>
<path d="M76.9239 65.8913C70.7282 65.8913 67.8211 61.1507 67.7912 61.1006C67.764 61.0548 67.7507 61.002 67.7529 60.9488L68.596 41.0375C68.5977 40.9965 68.6086 40.9565 68.628 40.9203C68.6473 40.8842 68.6745 40.8528 68.7076 40.8286C68.7407 40.8045 68.7788 40.788 68.8192 40.7806C68.8595 40.7732 68.901 40.775 68.9405 40.7858L81.8677 44.3058C81.9232 44.3208 81.9725 44.353 82.0086 44.3977C82.0447 44.4424 82.0658 44.4974 82.0688 44.5548L82.9457 60.9263C82.9954 61.1507 83.2665 62.5983 82.3253 63.8928C81.4867 65.0469 79.9621 65.7087 77.7933 65.8601C77.497 65.8815 77.2072 65.8919 76.9239 65.8913ZM68.3025 60.8859C68.6879 61.4719 71.7182 65.7369 77.7563 65.3158C79.7526 65.1767 81.1404 64.592 81.8805 63.5787C82.7341 62.4109 82.4137 61.0447 82.4085 61.0311C82.4049 61.0142 82.4024 60.9972 82.401 60.98L81.5337 44.7819L69.1257 41.4027L68.3025 60.8859Z" fill="black"/>
<path d="M92.0762 44.6943C91.8606 45.9923 91.5433 47.2463 91.1038 48.4062C89.7543 51.9904 87.2656 55.5733 83.2528 55.7907C79.3624 56.0019 76.028 53.8107 73.3225 51.6868L68.9889 45.3244C67.0877 42.1775 67.0754 39.2885 66.9451 36.9147C66.2992 24.948 81.312 22.033 89.0872 28.4781C91.5785 30.5439 93.1524 38.1612 92.0762 44.6943Z" fill="#F5C8B2"/>
<path d="M71.7614 39.4271C71.4345 40.1395 72.2956 40.9671 73.0651 40.818C73.8347 40.6688 74.3354 39.8764 74.441 39.102C74.5466 38.3276 74.353 37.5439 74.2289 36.77C74.1048 35.996 74.0639 35.1596 74.4401 34.4719C75.1476 33.1783 77.1241 34.1925 78.529 34.6479C79.934 35.1033 81.0419 34.8146 82.489 35.1033C83.9362 35.3919 85.7714 34.7359 85.9963 33.2786C88.0401 35.3659 92.6843 36.9543 94.7831 34.9237C101.218 28.7021 89.6382 25.3845 88.4911 24.747C85.877 23.295 83.6977 19.731 80.7581 19.188C77.8184 18.6451 74.6421 18.9218 72.0786 20.464C69.5152 22.0062 67.7121 24.9476 67.9994 27.9233C66.5386 27.7755 63.184 28.6441 62.4664 29.9201C60.101 34.1159 65.0664 44.6856 67.0829 45.944C69.0994 47.2024 68.9722 42.7289 70.8418 41.2606" fill="black"/>
<path d="M83.3094 42.4599C83.7381 41.9879 83.7031 41.2577 83.2311 40.829C82.7591 40.4003 82.0289 40.4353 81.6001 40.9073C81.1714 41.3793 81.2065 42.1095 81.6785 42.5383C82.1505 42.967 82.8807 42.9319 83.3094 42.4599Z" fill="black"/>
<path d="M90.4614 41.4231C90.4972 40.7865 90.0101 40.2414 89.3735 40.2056C88.7369 40.1697 88.1917 40.6568 88.1559 41.2934C88.1201 41.9301 88.6072 42.4752 89.2438 42.511C89.8804 42.5468 90.4256 42.0598 90.4614 41.4231Z" fill="black"/>
<path d="M86.4349 42.3152C86.4349 42.3152 87.7703 44.6965 87.2331 45.5479C86.6958 46.3993 85.0718 45.6147 85.0718 45.6147" fill="#F5C8B2"/>
<path d="M86.3826 46.2158C85.7002 46.2158 84.9997 45.8832 84.953 45.8607C84.8905 45.8277 84.8432 45.7717 84.8212 45.7045C84.7991 45.6373 84.8039 45.5642 84.8346 45.5005C84.8653 45.4368 84.9195 45.3875 84.9858 45.3629C85.0521 45.3384 85.1254 45.3405 85.1902 45.3688C85.2043 45.3758 86.607 46.0288 87.0021 45.4022C87.3128 44.9103 86.7179 43.3782 86.1965 42.4485C86.1635 42.3855 86.1563 42.3121 86.1766 42.2439C86.1968 42.1757 86.2429 42.1181 86.3049 42.0833C86.367 42.0486 86.4401 42.0394 86.5089 42.0577C86.5776 42.076 86.6365 42.1204 86.673 42.1814C86.8178 42.4397 88.0704 44.7334 87.465 45.694C87.2129 46.0908 86.8015 46.2158 86.3826 46.2158Z" fill="black"/>
<path d="M81.0766 45.7153C81.1681 44.9514 80.623 44.2579 79.8591 44.1664C79.0952 44.0749 78.4018 44.62 78.3103 45.3839C78.2188 46.1478 78.7639 46.8413 79.5278 46.9328C80.2917 47.0243 80.9851 46.4792 81.0766 45.7153Z" fill="#F09080"/>
<path d="M92.0348 45.2214C91.8923 46.1156 91.6623 46.9937 91.348 47.8429C91.1611 47.8445 90.9759 47.8074 90.8041 47.7338C90.4619 47.5886 90.1913 47.3133 90.052 46.9686C89.9127 46.6239 89.916 46.238 90.0612 45.8957C90.2064 45.5534 90.4817 45.2829 90.8264 45.1435C91.1711 45.0042 91.557 45.0075 91.8993 45.1527C91.9461 45.1723 91.9913 45.1953 92.0348 45.2214Z" fill="#F09080"/>
<path d="M82.7271 56.078C78.9897 56.078 75.7997 53.9809 73.1536 51.9015C73.1239 51.8798 73.0989 51.8524 73.08 51.8209C73.0612 51.7894 73.0489 51.7544 73.0439 51.718C73.0389 51.6816 73.0412 51.6445 73.0509 51.6091C73.0605 51.5736 73.0772 51.5405 73.0999 51.5116C73.1226 51.4828 73.151 51.4588 73.1832 51.4411C73.2154 51.4235 73.2508 51.4125 73.2874 51.4088C73.3239 51.4052 73.3608 51.4089 73.3959 51.4199C73.431 51.4308 73.4635 51.4487 73.4915 51.4725C76.1843 53.5884 79.4579 55.726 83.2384 55.5178C87.5869 55.2824 89.8727 50.9009 90.8504 48.3098C91.2653 47.215 91.5878 45.9835 91.8087 44.6498C92.9162 37.9306 91.1623 30.5518 88.9152 28.688C84.6173 25.124 77.88 24.3601 72.8953 26.869C68.9925 28.8332 66.9764 32.3954 67.2193 36.901L67.2466 37.4211C67.3632 39.7183 67.4947 42.3218 69.2266 45.184C69.264 45.246 69.2753 45.3203 69.258 45.3906C69.2407 45.4609 69.1961 45.5214 69.1342 45.5589C69.0722 45.5963 68.9979 45.6076 68.9276 45.5903C68.8573 45.573 68.7967 45.5284 68.7593 45.4665C66.9588 42.4868 66.8171 39.6932 66.7032 37.4488L66.6763 36.9305C66.4207 32.1961 68.5428 28.4499 72.6515 26.3819C77.8215 23.7798 84.8087 24.574 89.2655 28.2686C91.935 30.4827 93.405 38.3332 92.3494 44.7396C92.1224 46.1093 91.7906 47.3756 91.3634 48.5038C90.3408 51.2186 87.9314 55.8122 83.2722 56.0643C83.088 56.0734 82.9063 56.078 82.7271 56.078Z" fill="black"/>
<path d="M84.6455 50.6911C83.9903 50.6915 83.3438 50.5408 82.7562 50.2509C82.1686 49.9609 81.6558 49.5394 81.2575 49.0191C81.2357 48.9906 81.2197 48.9582 81.2105 48.9235C81.2013 48.8889 81.199 48.8528 81.2037 48.8173C81.2084 48.7818 81.2201 48.7475 81.238 48.7165C81.256 48.6855 81.2799 48.6583 81.3083 48.6365C81.3368 48.6147 81.3692 48.5988 81.4039 48.5895C81.4385 48.5803 81.4746 48.578 81.5101 48.5827C81.5457 48.5874 81.5799 48.5991 81.6109 48.617C81.6419 48.635 81.6691 48.6589 81.6909 48.6873C82.2116 49.368 82.9512 49.8482 83.7849 50.0468C84.6185 50.2455 85.4952 50.1504 86.2669 49.7777C86.3318 49.7484 86.4056 49.7456 86.4726 49.7699C86.5396 49.7942 86.5944 49.8437 86.6253 49.9079C86.6563 49.972 86.661 50.0457 86.6385 50.1133C86.6159 50.1809 86.5678 50.2369 86.5045 50.2696C85.9244 50.5481 85.289 50.6921 84.6455 50.6911Z" fill="black"/>
<path d="M73.0968 42.1916C72.9353 40.2199 71.5616 38.6276 69.7717 38.4876C67.7534 38.3292 65.9697 40.076 65.7884 42.3891C65.6071 44.7022 67.0961 46.706 69.1143 46.8644C69.5543 46.8991 70.9003 46.9163 71.3042 46.7834" fill="#F5C8B2"/>
<path d="M69.9777 47.1623C69.5847 47.1623 69.2349 47.1478 69.0933 47.1368C66.928 46.9665 65.3233 44.8277 65.5161 42.3681C65.7088 39.9085 67.625 38.0464 69.7933 38.2158C71.6897 38.3645 73.1936 40.0273 73.3687 42.1692C73.3716 42.2049 73.3675 42.2408 73.3565 42.2749C73.3455 42.309 73.3279 42.3406 73.3047 42.3679C73.2814 42.3952 73.2531 42.4176 73.2212 42.434C73.1893 42.4503 73.1545 42.4602 73.1188 42.4631C73.0831 42.466 73.0472 42.4618 73.0131 42.4508C72.979 42.4398 72.9474 42.4222 72.9201 42.399C72.8928 42.3758 72.8704 42.3474 72.854 42.3156C72.8377 42.2837 72.8278 42.2489 72.8249 42.2132C72.6713 40.3401 71.3786 38.8877 69.7506 38.7596C67.8881 38.6131 66.2306 40.2508 66.0608 42.4116C65.8909 44.5725 67.2708 46.4469 69.1359 46.5916C69.6406 46.6312 70.8959 46.6299 71.2193 46.5239C71.2881 46.5013 71.3631 46.507 71.4277 46.5396C71.4923 46.5723 71.5413 46.6293 71.5639 46.6981C71.5864 46.7669 71.5808 46.8418 71.5481 46.9064C71.5154 46.9711 71.4584 47.02 71.3896 47.0426C71.1041 47.1363 70.5035 47.1623 69.9777 47.1623Z" fill="black"/>
<path d="M116.771 79.9511C116.771 79.9511 113.569 75.6756 104.26 74.7428C99.454 74.2615 92.9662 74.8748 89.217 75.3329C88.3532 75.4376 87.5481 75.8247 86.927 76.4341C86.3059 77.0436 85.9035 77.8411 85.7824 78.7028L84.8091 100.364L92.5368 104.489L106.818 103.356L116.771 79.9511Z" fill="white"/>
<path d="M92.5373 104.761C92.4923 104.761 92.4481 104.75 92.4083 104.729L84.6802 100.605C84.6347 100.581 84.5971 100.544 84.5716 100.499C84.5462 100.454 84.5339 100.403 84.5363 100.352L85.5096 78.6905C85.6358 77.765 86.0646 76.9072 86.7292 76.2508C87.3939 75.5944 88.257 75.1764 89.184 75.0618C92.7234 74.6306 99.392 73.9807 104.287 74.4709C113.608 75.405 116.856 79.6088 116.989 79.7874C117.018 79.8257 117.036 79.8708 117.042 79.9182C117.047 79.9656 117.041 80.0136 117.022 80.0576L107.07 103.462C107.05 103.508 107.018 103.548 106.978 103.577C106.937 103.606 106.89 103.624 106.84 103.627L92.5588 104.76C92.5517 104.761 92.5445 104.762 92.5373 104.761ZM85.0894 100.204L92.5953 104.208L106.631 103.095L116.454 79.9947C115.853 79.3091 112.43 75.8327 104.233 75.0112C99.3894 74.5272 92.7665 75.1723 89.25 75.6008C88.4462 75.699 87.6973 76.0596 87.1193 76.6268C86.5413 77.1939 86.1665 77.9358 86.053 78.7376L85.0894 100.204Z" fill="black"/>
<path d="M116.771 79.9511C116.771 79.9511 117.682 66.337 131.199 63.8986L133.015 72.9344L122.384 79.8675L116.771 79.9511Z" fill="white"/>
<path d="M116.771 80.2239C116.733 80.2239 116.696 80.2162 116.662 80.2014C116.628 80.1865 116.597 80.1647 116.571 80.1374C116.546 80.1101 116.526 80.0778 116.514 80.0426C116.501 80.0073 116.496 79.9699 116.498 79.9326C116.508 79.7944 117.58 66.0779 131.15 63.6297C131.221 63.617 131.293 63.6324 131.352 63.6725C131.411 63.7127 131.452 63.7744 131.466 63.8444L133.283 72.8807C133.293 72.9342 133.288 72.9897 133.267 73.0401C133.246 73.0904 133.21 73.1333 133.164 73.1632L122.533 80.0963C122.49 80.1243 122.44 80.1395 122.388 80.1403L116.776 80.2239H116.771ZM130.983 64.2162C119.174 66.5042 117.31 77.7009 117.072 79.6734L122.3 79.5955L132.709 72.8068L130.983 64.2162Z" fill="black"/>
<path d="M116.771 79.9511C116.771 79.9511 125.902 66.3371 135.003 65.6256L135.033 68.8319L130.633 75.5995L124.685 80.2455L116.771 79.9511Z" fill="white"/>
<path d="M124.683 80.52H124.673L116.76 80.2257C116.712 80.2238 116.664 80.209 116.624 80.1828C116.583 80.1566 116.549 80.1199 116.527 80.0766C116.505 80.0333 116.495 79.9849 116.498 79.9364C116.501 79.8879 116.517 79.841 116.544 79.8006C116.919 79.2401 125.854 66.0687 134.982 65.355C135.019 65.352 135.057 65.3568 135.092 65.369C135.128 65.3811 135.16 65.4005 135.188 65.4258C135.215 65.4511 135.238 65.4818 135.253 65.516C135.268 65.5503 135.276 65.5872 135.276 65.6247L135.306 68.831C135.306 68.8846 135.291 68.9373 135.262 68.9823L130.862 75.75C130.845 75.7754 130.825 75.7978 130.801 75.8164L124.853 80.4624C124.804 80.5001 124.744 80.5204 124.683 80.52ZM117.281 79.6985L124.594 79.9705L130.427 75.4138L134.759 68.7535L134.733 65.9265C126.841 66.7872 118.867 77.4642 117.281 79.6968V79.6985Z" fill="black"/>
<path d="M82.1189 113.891L109.996 118.871C112.727 118.954 115.161 117.319 115.161 117.319L129.278 106.461L137.257 67.7094L118.816 79.3254C116.729 79.8094 115.048 80.1798 114.337 80.3334L114.254 80.3523C114.203 80.3629 114.157 80.373 114.12 80.3818L113.973 80.413L84.9969 78.84L82.1189 113.891Z" fill="#80C244"/>
<path d="M110.202 119.147C110.131 119.147 110.06 119.147 109.988 119.144C109.975 119.143 109.962 119.142 109.948 119.14L82.071 114.16C82.0041 114.148 81.944 114.112 81.9026 114.058C81.8612 114.004 81.8414 113.937 81.847 113.869L84.7251 78.8159C84.7271 78.7805 84.7361 78.7458 84.7517 78.7139C84.7673 78.6821 84.7891 78.6536 84.8158 78.6303C84.8425 78.607 84.8736 78.5892 84.9073 78.5781C84.941 78.567 84.9766 78.5627 85.0119 78.5655L113.951 80.1368L114.064 80.113C114.096 80.1051 114.145 80.0945 114.199 80.0831L114.277 80.0655C114.608 79.9938 116.356 79.6145 118.709 79.068L137.112 67.4779C137.157 67.4493 137.21 67.4347 137.264 67.4359C137.317 67.437 137.369 67.4539 137.413 67.4845C137.457 67.515 137.491 67.5579 137.511 67.6076C137.531 67.6574 137.536 67.7119 137.525 67.7644L129.545 106.517C129.532 106.581 129.496 106.638 129.444 106.678L115.327 117.535C115.214 117.612 112.897 119.147 110.202 119.147ZM110.026 118.598C112.635 118.672 114.986 117.108 115.01 117.092L129.032 106.307L136.862 68.2818L118.963 79.5546C118.937 79.5708 118.909 79.5825 118.879 79.5894C116.5 80.1425 114.727 80.527 114.396 80.5983L114.316 80.6168C114.264 80.6278 114.221 80.637 114.184 80.6454L114.029 80.6784C114.006 80.6836 113.982 80.6855 113.958 80.6841L85.2473 79.1252L82.4115 113.665L110.026 118.598Z" fill="black"/>
<path d="M109.996 118.871C112.727 118.954 115.161 117.319 115.161 117.319L118.816 79.3236L114.338 80.3316L114.254 80.3506L114.12 80.38L113.973 80.4113L109.996 118.871Z" fill="#06A84B"/>
<path d="M110.202 119.147C110.131 119.147 110.06 119.147 109.988 119.144C109.951 119.143 109.914 119.134 109.88 119.118C109.846 119.102 109.815 119.079 109.791 119.051C109.766 119.022 109.747 118.989 109.736 118.954C109.724 118.918 109.72 118.88 109.724 118.843L113.7 80.3836C113.706 80.3261 113.731 80.272 113.769 80.2291C113.808 80.1861 113.859 80.1564 113.916 80.1443L114.276 80.0655L118.756 79.057C118.798 79.0475 118.842 79.0481 118.883 79.0588C118.925 79.0695 118.964 79.0899 118.996 79.1185C119.029 79.1471 119.054 79.1829 119.07 79.2231C119.085 79.2633 119.092 79.3066 119.087 79.3496L115.433 117.345C115.429 117.386 115.416 117.424 115.395 117.459C115.375 117.494 115.347 117.523 115.313 117.546C115.214 117.612 112.897 119.147 110.202 119.147ZM114.224 80.6371L110.299 118.6C112.476 118.566 114.432 117.449 114.903 117.16L118.508 79.6717L114.224 80.6371Z" fill="black"/>
<path d="M84.5324 93.4952C84.9904 92.6451 86.9871 88.6851 85.6724 87.12H85.6689C85.5798 87.0135 85.4761 86.92 85.3609 86.8424C83.9414 85.8814 82.5009 88.7542 81.5144 90.1631" fill="#F5C8B2"/>
<path d="M84.5315 93.7685C84.4864 93.7686 84.4419 93.7574 84.4022 93.7359C84.3385 93.7015 84.2911 93.6433 84.2703 93.574C84.2496 93.5047 84.2571 93.43 84.2913 93.3663C84.5702 92.8475 86.9647 88.2623 85.2061 87.0664C85.1227 87.0045 85.0272 86.9607 84.9259 86.938C84.8246 86.9153 84.7196 86.914 84.6178 86.9344C83.8187 87.0981 82.9607 88.4304 82.2713 89.5044C82.0821 89.7997 81.9025 90.0764 81.7362 90.3153C81.6947 90.3746 81.6313 90.415 81.56 90.4275C81.4887 90.4401 81.4153 90.4238 81.3561 90.3822C81.2968 90.3407 81.2564 90.2773 81.2439 90.206C81.2313 90.1347 81.2476 90.0613 81.2892 90.0021C81.452 89.7697 81.6266 89.4974 81.8119 89.2101C82.5955 87.9913 83.4839 86.6101 84.5078 86.4002C84.8598 86.3285 85.1977 86.4002 85.5127 86.6132C87.5697 88.0133 85.4661 92.3332 84.7722 93.6233C84.7491 93.6671 84.7145 93.7037 84.6721 93.7293C84.6296 93.7549 84.5811 93.7684 84.5315 93.7685Z" fill="black"/>
<path d="M81.5131 90.1609C79.5613 92.9329 76.1482 95.411 73.3793 97.123L78.537 108.072C78.537 108.072 80.5574 108.883 82.7038 107.792C84.8501 106.701 97.3668 103.04 98.5618 101.739C99.7023 100.491 97.9203 99.2069 97.9203 99.2069C97.9203 99.2069 100.095 98.4087 99.8488 97.1169C99.6024 95.825 97.9427 95.9143 97.9427 95.9143C97.9427 95.9143 100.051 94.9274 99.0036 93.5678C98.7985 93.3038 98.1513 93.1692 97.3373 93.108C98.1676 92.5171 99.4123 91.3313 98.2463 90.116C96.9875 88.8044 91.7528 90.1543 89.7702 90.9296C88.6301 91.3788 86.0244 92.7138 84.5342 93.4939" fill="#F5C8B2"/>
<path d="M80.2965 108.636C79.233 108.636 78.4863 108.345 78.4348 108.324C78.3709 108.298 78.3191 108.249 78.2896 108.187L73.1319 97.24C73.1035 97.1792 73.0983 97.1102 73.1174 97.0459C73.1364 96.9816 73.1784 96.9265 73.2353 96.8911C75.8234 95.2908 79.3218 92.7991 81.2873 90.0042C81.3299 89.9471 81.393 89.9089 81.4633 89.8977C81.5336 89.8864 81.6056 89.9031 81.6638 89.9441C81.722 89.9851 81.7619 90.0472 81.775 90.1172C81.7881 90.1872 81.7734 90.2595 81.7339 90.3188C79.7662 93.1123 76.3364 95.5966 73.7259 97.2268L78.7309 107.852C79.1458 107.987 80.8288 108.437 82.5761 107.549C83.4196 107.119 85.7414 106.341 88.4281 105.437C92.3058 104.136 97.6171 102.357 98.3549 101.552C98.5886 101.297 98.688 101.033 98.6594 100.747C98.5872 100.038 97.7627 99.4325 97.7543 99.4268C97.7142 99.3978 97.6827 99.3584 97.6632 99.3128C97.6437 99.2673 97.6369 99.2173 97.6437 99.1682C97.6504 99.1191 97.6704 99.0728 97.7014 99.0341C97.7324 98.9955 97.7734 98.9661 97.8199 98.9489C97.8397 98.9419 99.7709 98.1983 99.5746 97.1661C99.3784 96.1338 98.0108 96.1827 97.9501 96.1853C97.8875 96.1864 97.8262 96.1667 97.7758 96.1294C97.7255 96.0921 97.6888 96.0392 97.6716 95.9789C97.6564 95.9176 97.6628 95.8529 97.6898 95.7958C97.7169 95.7387 97.7628 95.6927 97.8199 95.6657C98.101 95.5337 98.8592 95.0668 98.9947 94.5058C99.0558 94.2519 98.9863 93.9989 98.7813 93.7327C98.7373 93.6733 98.4874 93.4687 97.3113 93.3807C97.2552 93.3767 97.2018 93.3554 97.1583 93.3199C97.1148 93.2843 97.0833 93.2362 97.0682 93.1821C97.0531 93.1279 97.0551 93.0705 97.0738 93.0175C97.0926 92.9646 97.1273 92.9187 97.1731 92.8862C97.6179 92.5689 98.3738 91.9353 98.4381 91.2516C98.4684 90.9242 98.3395 90.6149 98.0421 90.3065C96.9799 89.199 92.1527 90.2897 89.8629 91.1865C88.6525 91.6634 85.8149 93.1299 84.6516 93.7385C84.6198 93.7551 84.5851 93.7653 84.5493 93.7685C84.5136 93.7716 84.4776 93.7678 84.4434 93.757C84.4092 93.7463 84.3774 93.7289 84.3499 93.7059C84.3224 93.6829 84.2997 93.6547 84.2831 93.623C84.2665 93.5912 84.2563 93.5564 84.2531 93.5207C84.2499 93.485 84.2538 93.449 84.2645 93.4148C84.2752 93.3806 84.2926 93.3488 84.3156 93.3213C84.3386 93.2938 84.3668 93.2711 84.3986 93.2545C85.5703 92.642 88.4281 91.1649 89.6632 90.6783C91.5068 89.9571 97.0112 88.4413 98.4363 89.9303C98.8433 90.3544 99.0264 90.8164 98.9811 91.3048C98.9221 91.9301 98.4922 92.4827 98.017 92.9117C98.6436 93.0085 99.029 93.1682 99.2121 93.4019C99.5201 93.804 99.6261 94.2203 99.524 94.64C99.4127 95.0989 99.0651 95.4703 98.7351 95.7317C99.3291 95.8865 99.9534 96.2667 100.11 97.0666C100.324 98.1935 99.0919 98.9586 98.4196 99.2864C98.7276 99.5887 99.1399 100.096 99.2015 100.694C99.2455 101.139 99.0976 101.554 98.7566 101.926C97.9827 102.768 94.0597 104.129 88.601 105.959C86.0442 106.817 83.629 107.627 82.8212 108.038C82.0386 108.434 81.1734 108.639 80.2965 108.636Z" fill="black"/>
<path d="M97.3373 93.1084C96.4326 92.8858 93.3887 93.8626 90.4966 94.8882L97.3373 93.1084Z" fill="#F5C8B2"/>
<path d="M90.4961 95.1609C90.4316 95.1611 90.3691 95.1384 90.3198 95.097C90.2705 95.0555 90.2374 94.9979 90.2265 94.9343C90.2156 94.8708 90.2275 94.8054 90.2602 94.7499C90.2928 94.6943 90.3441 94.6521 90.405 94.6307C94.4464 93.1981 96.6041 92.6472 97.401 92.843C97.4713 92.8605 97.5319 92.9053 97.5693 92.9674C97.6066 93.0295 97.6178 93.104 97.6003 93.1743C97.5828 93.2447 97.5381 93.3052 97.4759 93.3426C97.4138 93.38 97.3393 93.3912 97.269 93.3737C96.2759 93.1295 91.9921 94.6466 90.5849 95.1455C90.5564 95.1555 90.5263 95.1607 90.4961 95.1609Z" fill="black"/>
<path d="M91.088 98.0048C91.0217 98.0045 90.9579 97.9803 90.9082 97.9364C90.8585 97.8926 90.8264 97.8323 90.8179 97.7666C90.8094 97.7009 90.8251 97.6344 90.862 97.5794C90.8989 97.5243 90.9545 97.4846 91.0185 97.4675L97.8741 95.6516C97.9433 95.6355 98.016 95.647 98.0769 95.6836C98.1377 95.7203 98.1819 95.7791 98.2001 95.8478C98.2183 95.9164 98.2091 95.9895 98.1743 96.0514C98.1396 96.1134 98.0821 96.1594 98.014 96.1796L91.1584 97.9955C91.1354 98.0016 91.1117 98.0047 91.088 98.0048Z" fill="black"/>
<path d="M91.6199 101.024C91.5529 101.024 91.4882 101 91.4381 100.956C91.3879 100.911 91.3558 100.85 91.3478 100.784C91.3398 100.717 91.3565 100.65 91.3948 100.595C91.433 100.54 91.4901 100.501 91.5552 100.486L97.8534 98.9397C97.8882 98.9311 97.9243 98.9293 97.9598 98.9347C97.9953 98.94 98.0294 98.9522 98.0601 98.9707C98.0909 98.9892 98.1177 99.0136 98.139 99.0424C98.1603 99.0713 98.1758 99.104 98.1845 99.1388C98.1931 99.1736 98.1948 99.2098 98.1895 99.2453C98.1842 99.2808 98.172 99.3149 98.1535 99.3456C98.135 99.3764 98.1106 99.4032 98.0818 99.4245C98.0529 99.4458 98.0202 99.4613 97.9854 99.4699L91.6872 101.016C91.6652 101.021 91.6426 101.024 91.6199 101.024Z" fill="black"/>
<path d="M55.6459 65.2357C44.2094 72.512 28.57 106.615 38.016 117.162C48.9667 129.386 82.745 109.828 82.745 109.828L77.4523 92.2882L54.6594 100.364C54.6594 100.364 64.9721 89.7384 63.6442 75.988C63.2592 72.0064 55.6459 65.2357 55.6459 65.2357Z" fill="#EE3E2F"/>
<path d="M48.9609 121.419C44.0409 121.419 40.3141 120.061 37.8171 117.347C35.2087 114.511 34.2478 109.713 35.0389 103.472C36.7958 89.6121 46.9295 70.5601 55.4989 65.0065C55.529 64.987 55.5626 64.9736 55.5978 64.9671C55.6331 64.9606 55.6693 64.9611 55.7043 64.9685C55.7394 64.976 55.7726 64.9903 55.8022 65.0106C55.8317 65.031 55.8569 65.0569 55.8764 65.087C55.8959 65.1171 55.9093 65.1507 55.9158 65.1859C55.9223 65.2212 55.9218 65.2574 55.9144 65.2924C55.9069 65.3275 55.8926 65.3607 55.8722 65.3902C55.8519 65.4198 55.826 65.445 55.7959 65.4645C47.336 70.9469 37.3234 89.8071 35.5827 103.541C34.8123 109.617 35.7244 114.263 38.2227 116.977C40.7866 119.764 44.6054 120.829 48.9425 120.83C62.2195 120.83 80.3765 110.85 82.4265 109.698L77.2785 92.6415L54.7535 100.622C54.7024 100.64 54.647 100.642 54.5945 100.629C54.5419 100.615 54.4946 100.586 54.4586 100.546C54.4225 100.505 54.3993 100.455 54.392 100.401C54.3847 100.347 54.3935 100.293 54.4174 100.244C54.4684 100.14 59.5403 89.8044 62.5046 80.1653C62.5259 80.0961 62.5738 80.0382 62.6378 80.0044C62.7018 79.9705 62.7766 79.9634 62.8458 79.9847C62.915 80.006 62.9729 80.0539 63.0068 80.1179C63.0407 80.1819 63.0477 80.2567 63.0264 80.3259C60.4559 88.6719 56.3199 97.5335 55.194 99.8848L77.3629 92.0308C77.3977 92.0184 77.4347 92.0132 77.4716 92.0156C77.5084 92.0179 77.5444 92.0277 77.5774 92.0445C77.6103 92.0612 77.6395 92.0844 77.6631 92.1128C77.6868 92.1412 77.7044 92.174 77.7149 92.2095L83.0081 109.749C83.0259 109.808 83.0232 109.871 83.0005 109.928C82.9778 109.985 82.9365 110.033 82.8832 110.064C82.7991 110.113 74.3432 114.969 64.6373 118.283C58.5116 120.374 53.2861 121.42 48.9609 121.419Z" fill="black"/>
<path d="M48.8162 103.576C48.7546 103.576 48.6948 103.555 48.6465 103.517C48.5981 103.479 48.564 103.426 48.5498 103.366C48.5355 103.306 48.5419 103.243 48.5679 103.187C48.5939 103.132 48.638 103.086 48.693 103.059L54.5362 100.118C54.5684 100.101 54.6037 100.09 54.6401 100.087C54.6765 100.083 54.7132 100.087 54.7481 100.098C54.7829 100.109 54.8153 100.127 54.8431 100.151C54.871 100.174 54.8938 100.203 54.9102 100.236C54.9266 100.269 54.9363 100.304 54.9388 100.341C54.9412 100.377 54.9362 100.414 54.9243 100.448C54.9123 100.483 54.8935 100.515 54.869 100.542C54.8445 100.569 54.8149 100.591 54.7817 100.606L48.9385 103.546C48.9006 103.566 48.8587 103.576 48.8162 103.576Z" fill="black"/>
<path d="M131.942 88.2847C130.506 88.228 129.161 87.1847 129.37 85.9716C129.58 84.7586 131.264 83.8346 132.701 83.8909C134.138 83.9472 134.782 84.9627 134.573 86.1762C134.363 87.3898 133.379 88.341 131.942 88.2847Z" fill="#F5C8B2"/>
<path d="M129.58 87.0254C129.385 86.7111 129.31 86.3366 129.371 85.9716C129.581 84.7572 131.265 83.8354 132.703 83.8908C133.995 83.9388 134.648 84.7708 134.612 85.8202C134.324 85.2856 133.755 84.9274 132.917 84.8909C131.479 84.8355 129.796 85.7599 129.587 86.9748C129.584 86.9915 129.581 87.0084 129.58 87.0254Z" fill="#F09080"/>
<path d="M132.063 88.5602C132.019 88.5602 131.975 88.5602 131.931 88.5575C130.982 88.5201 130.061 88.0881 129.529 87.4303C129.158 86.9713 129.01 86.4512 129.1 85.9254C129.341 84.5328 131.208 83.5582 132.711 83.6181C133.454 83.6471 134.051 83.9146 134.437 84.3912C134.822 84.8677 134.965 85.5145 134.841 86.2224C134.596 87.6344 133.489 88.5602 132.063 88.5602ZM132.568 84.1602C131.211 84.1602 129.808 85.0402 129.639 86.017C129.559 86.4794 129.767 86.853 129.954 87.0853C130.384 87.6164 131.169 87.9798 131.953 88.0093C133.344 88.0638 134.135 87.1038 134.303 86.1274C134.398 85.577 134.295 85.0815 134.013 84.7326C133.731 84.3837 133.272 84.1844 132.69 84.1606C132.65 84.1624 132.609 84.1615 132.568 84.1615V84.1602Z" fill="black"/>
<path d="M131.399 91.9855C129.774 91.9217 128.231 90.871 128.44 89.6575C128.649 88.444 130.533 87.5283 132.158 87.5921C133.783 87.6559 134.534 88.6754 134.325 89.8889C134.116 91.1025 133.024 92.048 131.399 91.9855Z" fill="#F5C8B2"/>
<path d="M128.656 90.6475C128.464 90.3435 128.38 90.0086 128.44 89.658C128.648 88.4458 130.531 87.5284 132.158 87.59C133.657 87.6507 134.412 88.5236 134.353 89.61C134.035 89.0288 133.366 88.6323 132.373 88.5901C130.75 88.528 128.872 89.441 128.656 90.6475Z" fill="#F09080"/>
<path d="M131.552 92.2619C131.498 92.2619 131.443 92.2619 131.388 92.2588C130.261 92.2148 129.157 91.7215 128.576 91.0035C128.228 90.5731 128.088 90.0918 128.171 89.6113C128.411 88.2191 130.484 87.2551 132.169 87.3189C133.056 87.3541 133.753 87.6555 134.187 88.1914C134.563 88.6565 134.708 89.2756 134.594 89.9356C134.351 91.344 133.139 92.2619 131.552 92.2619ZM131.988 87.8619C130.445 87.8619 128.877 88.7295 128.709 89.7041C128.653 90.0297 128.753 90.3509 129.001 90.6598C129.48 91.2521 130.448 91.6749 131.41 91.7127C132.782 91.7682 133.853 91.0158 134.056 89.8423C134.144 89.3328 134.042 88.8809 133.762 88.5351C133.43 88.125 132.872 87.8935 132.147 87.8649C132.094 87.8627 132.041 87.8619 131.988 87.8619Z" fill="black"/>
<path d="M130.904 95.6886C129.12 95.6186 127.41 94.5613 127.619 93.3482C127.829 92.1351 129.879 91.2252 131.662 91.2952C133.445 91.3651 134.286 92.3886 134.077 93.6016C133.867 94.8147 132.687 95.759 130.904 95.6886Z" fill="#F5C8B2"/>
<path d="M127.848 94.2951C127.652 94.0042 127.563 93.6826 127.621 93.3478C127.829 92.136 129.881 91.2247 131.661 91.296C133.333 91.3576 134.178 92.2689 134.101 93.3785C133.753 92.7665 133.001 92.3428 131.875 92.2961C130.123 92.224 128.106 93.1088 127.848 94.2951Z" fill="#F09080"/>
<path d="M131.086 95.964C131.023 95.964 130.958 95.964 130.893 95.9605C129.598 95.9095 128.359 95.3793 127.736 94.6097C127.406 94.2014 127.273 93.7486 127.35 93.3003C127.597 91.8667 129.821 90.9489 131.673 91.0211C132.685 91.0607 133.469 91.3893 133.94 91.9715C134.31 92.4277 134.454 93.0231 134.346 93.647C134.104 95.051 132.805 95.964 131.086 95.964ZM131.457 91.564C129.759 91.564 128.056 92.4233 127.889 93.3944C127.838 93.6875 127.929 93.9814 128.161 94.2678C128.681 94.9102 129.789 95.3718 130.914 95.4158C132.445 95.4791 133.605 94.7281 133.807 93.555C133.889 93.082 133.789 92.6535 133.516 92.3164C133.152 91.8667 132.49 91.601 131.651 91.5684C131.587 91.5655 131.522 91.564 131.457 91.564Z" fill="black"/>
<path d="M130.492 99.0316C128.864 98.9678 127.312 97.9316 127.519 96.7322C127.726 95.5327 129.611 94.6316 131.241 94.6959C132.87 94.7601 133.626 95.7668 133.419 96.9641C133.213 98.1613 132.121 99.0959 130.492 99.0316Z" fill="#F5C8B2"/>
<path d="M127.738 97.7063C127.545 97.4076 127.46 97.078 127.518 96.7326C127.725 95.5341 129.61 94.6329 131.241 94.6959C132.749 94.7566 133.509 95.6247 133.445 96.7027C133.123 96.1307 132.452 95.7347 131.455 95.696C129.838 95.6335 127.97 96.5219 127.738 97.7063Z" fill="#F09080"/>
<path d="M130.648 99.308C130.592 99.308 130.537 99.308 130.481 99.3049C129.341 99.2609 128.229 98.7668 127.648 98.0487C127.306 97.6268 127.169 97.1555 127.252 96.6847C127.49 95.3093 129.559 94.3571 131.253 94.4218C132.149 94.457 132.853 94.7597 133.288 95.297C133.659 95.7555 133.802 96.3635 133.691 97.0094C133.449 98.4003 132.236 99.308 130.648 99.308ZM130.502 98.7589C131.89 98.8134 132.951 98.0734 133.15 96.9175C133.238 96.422 133.136 95.9807 132.862 95.6415C132.529 95.2301 131.964 94.9973 131.23 94.9687C129.632 94.904 127.96 95.7854 127.788 96.7789C127.734 97.093 127.829 97.405 128.072 97.7051C128.551 98.2973 129.528 98.7206 130.502 98.7589Z" fill="black"/>
<path d="M93.8889 31.9761C89.3054 31.0583 69.1759 34.4437 61.8411 32.5565C62.1931 35.4966 62.6357 37.1325 63.114 38.2299C63.114 38.2299 88.238 40.8677 93.8889 38.2299V31.9761Z" fill="#11B3E8"/>
<path d="M83.3413 39.6815C74.4766 39.6815 63.7613 38.5727 63.0859 38.5014C63.0381 38.4961 62.9926 38.4783 62.954 38.4498C62.9154 38.4213 62.885 38.3831 62.8659 38.339C62.2969 37.0335 61.886 35.2062 61.5714 32.5891C61.5661 32.545 61.5717 32.5003 61.5876 32.4588C61.6035 32.4174 61.6293 32.3804 61.6627 32.3512C61.6961 32.3219 61.7362 32.3013 61.7794 32.291C61.8226 32.2807 61.8676 32.2811 61.9106 32.2921C66.1307 33.3776 74.5681 32.7053 82.0116 32.1117C87.3642 31.6853 91.9873 31.3166 93.9444 31.7087C94.0064 31.721 94.0622 31.7544 94.1023 31.8033C94.1424 31.8521 94.1644 31.9134 94.1644 31.9766V38.2299C94.1643 38.2818 94.1495 38.3327 94.1216 38.3764C94.0937 38.4202 94.0539 38.4552 94.0069 38.4772C92.0691 39.3801 87.956 39.6815 83.3413 39.6815ZM63.3028 37.9747C65.4355 38.1903 88.0475 40.4066 93.6161 38.0521V32.2054C91.6128 31.8943 87.1688 32.2494 82.0534 32.656C74.7846 33.2355 66.5746 33.888 62.1605 32.9134C62.4487 35.1737 62.8148 36.7951 63.3028 37.9747Z" fill="black"/>
<path d="M42.1045 63.6214C43.5365 62.1893 43.5365 59.8675 42.1045 58.4355C40.6724 57.0035 38.3507 57.0035 36.9186 58.4355C35.4866 59.8675 35.4866 62.1893 36.9186 63.6214C38.3507 65.0534 40.6724 65.0534 42.1045 63.6214Z" fill="#96ADBD"/>
<path d="M43.032 60.0064C43.2641 60.8053 43.2175 61.6595 42.8999 62.4285C42.5823 63.1975 42.0127 63.8356 41.2845 64.238C40.5563 64.6404 39.7129 64.7832 38.8928 64.643C38.0727 64.5027 37.3248 64.0877 36.7717 63.4661C37.5365 63.6979 38.3561 63.6735 39.1057 63.3966C39.8554 63.1197 40.4941 62.6055 40.9246 61.9323C41.3551 61.259 41.5539 60.4635 41.4907 59.6669C41.4276 58.8702 41.1059 58.116 40.5747 57.519C41.1592 57.6959 41.6902 58.0161 42.1194 58.4505C42.5486 58.8849 42.8623 59.4198 43.032 60.0064Z" fill="#2A495E"/>
<path d="M39.5059 64.9704C38.6537 64.968 37.8252 64.6898 37.1443 64.1775C36.4633 63.6651 35.9665 62.9461 35.728 62.128C35.4996 61.3356 35.5262 60.4914 35.8039 59.7148C36.0816 58.9383 36.5965 58.2688 37.2757 57.801C37.9549 57.3332 38.764 57.0908 39.5885 57.108C40.413 57.1253 41.2112 57.4014 41.8702 57.8973C42.5292 58.3932 43.0155 59.0837 43.2605 59.8712C43.5054 60.6587 43.4965 61.5033 43.2351 62.2854C42.9737 63.0676 42.4729 63.7478 41.8037 64.2297C41.1344 64.7116 40.3306 64.9709 39.5059 64.9709V64.9704ZM36.2525 61.9753C36.4397 62.6202 36.8139 63.195 37.3278 63.6271C37.8418 64.0593 38.4723 64.3293 39.1397 64.403C39.8071 64.4768 40.4813 64.351 41.0772 64.0415C41.6731 63.732 42.1638 63.2527 42.4873 62.6643C42.8107 62.0759 42.9524 61.4048 42.8945 60.7358C42.8365 60.0669 42.5814 59.4302 42.1615 58.9062C41.7416 58.3822 41.1758 57.9946 40.5356 57.7922C39.8953 57.5898 39.2095 57.5819 38.5647 57.7694C38.1351 57.891 37.7338 58.0968 37.3844 58.3748C37.0349 58.6529 36.7442 58.9975 36.5291 59.3888C36.314 59.7802 36.1787 60.2103 36.1313 60.6543C36.0838 61.0984 36.125 61.5474 36.2525 61.9753Z" fill="black"/>
<path d="M44.0994 47.5587C42.6434 49.8608 41.9953 52.5747 42.3236 55.2667L34.0516 57.6704C33.7724 57.0858 33.4434 56.5264 33.0682 55.9984C31.8899 54.3303 30.2737 52.9958 28.398 52.1039C26.1245 51.0241 24.236 49.2741 22.9865 47.0891C21.737 44.9042 21.1864 42.3892 21.4086 39.882C21.6308 37.3749 22.6153 34.9959 24.2296 33.0648C25.8439 31.1338 28.0107 29.7432 30.4387 29.0801C36.7281 27.3597 43.3505 30.9118 45.3904 37.1061C45.9623 38.8353 46.1432 40.6699 45.9199 42.4775C45.6967 44.2851 45.0749 46.0206 44.0994 47.5587Z" fill="#FFD367"/>
<path d="M44.0994 47.5588C42.6435 49.8609 41.9954 52.5748 42.3236 55.2667L34.0516 57.6704C33.7725 57.0858 33.4435 56.5264 33.0682 55.9984C34.9602 54.8219 36.5944 53.2242 37.7595 51.3212C40.2516 47.2534 40.5359 41.918 38.4881 37.6069C37.5544 35.6462 36.0782 33.8303 34.0485 33.0603C32.5292 32.4853 30.8471 32.5447 29.2332 32.7281C27.6518 32.9068 26.0568 33.2069 24.6431 33.9381C23.889 34.3232 23.2134 34.8455 22.6508 35.4781C23.4229 33.9216 24.5162 32.5464 25.8586 31.4433C27.2011 30.3401 28.7621 29.5341 30.4388 29.0783C36.7277 27.3579 43.3506 30.9101 45.3904 37.1048C45.9624 38.8342 46.1434 40.6691 45.9201 42.4769C45.6969 44.2848 45.075 46.0205 44.0994 47.5588Z" fill="#F79955"/>
<path d="M34.0502 57.944C33.9987 57.944 33.9482 57.9295 33.9046 57.902C33.861 57.8745 33.826 57.8352 33.8038 57.7887C32.6876 55.4435 30.7238 53.5114 28.2788 52.349C25.9545 51.2454 24.0238 49.4566 22.7464 47.2231C21.469 44.9896 20.906 42.4186 21.1332 39.8556C21.3604 37.2927 22.3669 34.8608 24.0174 32.8869C25.6678 30.913 27.883 29.4917 30.3652 28.8143C36.8332 27.0441 43.5498 30.6473 45.6478 37.0185C46.2326 38.7864 46.4175 40.662 46.1892 42.51C45.9609 44.3581 45.3252 46.1323 44.3278 47.7048C42.8929 49.9725 42.2769 52.6468 42.5924 55.2345C42.6004 55.2988 42.5852 55.3638 42.5496 55.418C42.5139 55.4721 42.4602 55.5117 42.3979 55.5297L34.1259 57.9335C34.1013 57.9406 34.0758 57.9441 34.0502 57.944ZM33.6982 28.9106C30.9606 28.9079 28.3036 29.837 26.1643 31.545C24.0249 33.2531 22.5305 35.6384 21.927 38.3086C21.3234 40.9789 21.6466 43.775 22.8434 46.2371C24.0402 48.6993 26.0393 50.6808 28.512 51.8557C30.9984 53.0371 33.0083 54.9797 34.1932 57.3447L42.0252 55.0695C41.7573 52.4295 42.4076 49.7195 43.8666 47.4135C44.8205 45.909 45.4284 44.2115 45.6464 42.4435C45.8644 40.6755 45.6871 38.8812 45.1272 37.1901C43.4676 32.1424 38.7772 28.9106 33.6982 28.9106Z" fill="black"/>
<path d="M43.3345 54.208L32.6284 57.3184C32.5297 57.3471 32.473 57.4504 32.5016 57.5491L33.2573 60.1502C33.286 60.2489 33.3893 60.3057 33.488 60.277L44.194 57.1666C44.2927 57.1379 44.3495 57.0346 44.3208 56.9359L43.5651 54.3349C43.5365 54.2361 43.4332 54.1794 43.3345 54.208Z" fill="white"/>
<path d="M43.9437 55.6345C44.0573 56.0271 44.0106 56.4488 43.8137 56.807C43.6168 57.1651 43.2858 57.4306 42.8934 57.545L34.7895 59.8994C34.467 59.9931 34.1227 59.9787 33.809 59.8585C33.4954 59.7383 33.2297 59.5189 33.0524 59.2337C33.3683 59.3579 33.7166 59.3734 34.0424 59.2777L42.1467 56.9233C42.539 56.8086 42.8698 56.5432 43.0667 56.1851C43.2636 55.827 43.3104 55.4054 43.197 55.0128C43.1581 54.8781 43.1005 54.7496 43.0258 54.6309C43.2457 54.7163 43.4429 54.8513 43.6021 55.0254C43.7613 55.1995 43.8782 55.4079 43.9437 55.6345Z" fill="#ABC2CE"/>
<path d="M34.3566 60.236C33.92 60.2352 33.4984 60.0771 33.1691 59.7905C32.8397 59.504 32.6247 59.1083 32.5636 58.6761C32.5024 58.2439 32.5991 57.8041 32.836 57.4374C33.0729 57.0707 33.4341 56.8018 33.8532 56.6799L41.9585 54.3255C42.4203 54.1913 42.9165 54.246 43.338 54.4777C43.7594 54.7093 44.0716 55.0989 44.2058 55.5607C44.34 56.0226 44.2852 56.5188 44.0535 56.9402C43.8219 57.3617 43.4323 57.6738 42.9705 57.808L34.8652 60.1629C34.7 60.2113 34.5287 60.2359 34.3566 60.236ZM42.4636 54.7993C42.3444 54.7994 42.2259 54.8165 42.1116 54.8499L34.0063 57.2044C33.6836 57.2982 33.4113 57.5164 33.2494 57.811C33.0875 58.1056 33.0492 58.4524 33.1431 58.7752C33.2369 59.098 33.4551 59.3702 33.7497 59.5321C34.0443 59.694 34.3911 59.7323 34.7139 59.6385L42.8187 57.2836C43.1117 57.1986 43.3642 57.0107 43.5299 56.7545C43.6955 56.4982 43.7631 56.1908 43.7203 55.8888C43.6775 55.5867 43.5272 55.3101 43.2969 55.11C43.0666 54.9099 42.7718 54.7996 42.4667 54.7993H42.4636Z" fill="black"/>
<path d="M45.056 60.1252L34.35 63.2355C34.3265 63.2424 34.3019 63.2445 34.2776 63.2419C34.2533 63.2392 34.2298 63.2318 34.2084 63.22C34.1869 63.2083 34.1681 63.1924 34.1528 63.1733C34.1375 63.1542 34.1262 63.1323 34.1194 63.1088L33.3639 60.508C33.3571 60.4845 33.3549 60.4599 33.3575 60.4356C33.3602 60.4113 33.3676 60.3878 33.3794 60.3664C33.3912 60.3449 33.4071 60.326 33.4262 60.3108C33.4452 60.2955 33.4672 60.2842 33.4906 60.2774L44.1963 57.167C44.2198 57.1602 44.2444 57.158 44.2687 57.1606C44.293 57.1633 44.3166 57.1707 44.3381 57.1825C44.3595 57.1943 44.3784 57.2101 44.3938 57.2292C44.4091 57.2483 44.4205 57.2703 44.4273 57.2938L45.1828 59.8946C45.1965 59.942 45.1909 59.9929 45.1671 60.0361C45.1434 60.0793 45.1034 60.1114 45.056 60.1252Z" fill="white"/>
<path d="M44.8034 58.5935C44.9172 58.9861 44.8705 59.4078 44.6736 59.766C44.4767 60.1242 44.1456 60.3896 43.7532 60.504L35.6492 62.8584C35.3267 62.9521 34.9825 62.9378 34.6689 62.8177C34.3553 62.6976 34.0895 62.4782 33.9121 62.1931C34.2281 62.3171 34.5764 62.3326 34.9021 62.2371L43.0065 59.884C43.3988 59.7695 43.7297 59.504 43.9266 59.1459C44.1235 58.7878 44.1703 58.3661 44.0568 57.9735C44.0177 57.839 43.9601 57.7106 43.8856 57.592C44.1052 57.6772 44.3023 57.8119 44.4615 57.9855C44.6207 58.1592 44.7377 58.3673 44.8034 58.5935Z" fill="#ABC2CE"/>
<path d="M35.2163 63.1928C34.78 63.1917 34.3588 63.0334 34.0297 62.7469C33.7007 62.4604 33.4859 62.065 33.4248 61.633C33.3636 61.201 33.4602 60.7615 33.6968 60.3949C33.9334 60.0284 34.2941 59.7594 34.7129 59.6372L42.8182 57.2823C43.278 57.1549 43.7694 57.2138 44.1861 57.4462C44.6028 57.6786 44.9111 58.0659 45.0442 58.5241C45.1773 58.9822 45.1245 59.4744 44.8973 59.8939C44.6701 60.3135 44.2867 60.6266 43.8302 60.7654L35.7249 63.1202C35.5596 63.1683 35.3884 63.1927 35.2163 63.1928ZM43.3233 57.7566C43.2042 57.7568 43.0857 57.7737 42.9713 57.8068L34.8661 60.1617C34.5433 60.2555 34.271 60.4737 34.1091 60.7683C33.9472 61.0629 33.9089 61.4097 34.0028 61.7325C34.0966 62.0553 34.3148 62.3275 34.6094 62.4894C34.904 62.6513 35.2508 62.6896 35.5736 62.5958L43.6784 60.2409C43.9714 60.1559 44.2239 59.968 44.3896 59.7118C44.5552 59.4555 44.6228 59.1481 44.58 58.8461C44.5372 58.544 44.3869 58.2675 44.1566 58.0673C43.9263 57.8672 43.6315 57.7569 43.3264 57.7566H43.3233Z" fill="black"/>
<path d="M35.6005 56.7279C35.5434 56.7279 35.4877 56.7101 35.4413 56.6769C35.3949 56.6436 35.3601 56.5967 35.3417 56.5426C34.5247 54.1459 32.7268 49.2826 31.0407 45.8115H31.0385C28.6669 45.8115 27.3773 44.8958 26.9641 43.8596C26.5831 42.9057 26.9641 41.9056 27.8881 41.4277C28.0369 41.3512 28.2806 41.2865 28.5965 41.4137C29.3885 41.7322 30.3812 43.2718 31.3769 45.2535C32.3361 45.2192 33.4629 45.0335 34.7557 44.66C36.0484 44.2864 37.0978 43.8359 37.9263 43.351C37.7063 41.1439 37.7177 39.3127 38.2158 38.6188C38.4147 38.3416 38.6558 38.2668 38.8217 38.2509C39.8575 38.159 40.7163 38.7992 40.906 39.809C41.1119 40.9055 40.5131 42.3702 38.5097 43.6409C38.9449 47.4742 40.0339 52.5457 40.6283 55.0066C40.644 55.0765 40.6316 55.1498 40.5937 55.2106C40.5558 55.2715 40.4956 55.315 40.426 55.3319C40.3563 55.3487 40.2828 55.3375 40.2213 55.3007C40.1599 55.2639 40.1153 55.2044 40.0973 55.1351C39.8685 54.1877 38.5097 48.4589 37.9905 43.9481C37.1686 44.4017 36.1513 44.8232 34.9079 45.1845C33.6645 45.5457 32.5794 45.7353 31.6427 45.7925C33.6227 49.8793 35.5437 55.4444 35.8579 56.3666C35.8812 56.4352 35.8764 56.5102 35.8445 56.5752C35.8126 56.6402 35.7561 56.6899 35.6876 56.7133C35.6595 56.7228 35.6301 56.7277 35.6005 56.7279ZM28.2481 41.888C28.2108 41.8876 28.1741 41.8965 28.1411 41.9139C27.4754 42.258 27.2004 42.9752 27.4732 43.6581C27.8226 44.5341 28.9305 45.1955 30.7666 45.2562C29.8712 43.4843 29.0247 42.1762 28.3955 41.921C28.3489 41.9007 28.2988 41.8895 28.2481 41.888ZM39.0153 38.7895C38.9687 38.7895 38.9207 38.7917 38.8727 38.7961C38.8248 38.8005 38.7469 38.8199 38.6624 38.9382C38.2664 39.4895 38.2537 41.0502 38.4468 43.0249C39.9653 41.9896 40.5456 40.8377 40.3714 39.9106C40.2429 39.2335 39.6951 38.7886 39.0135 38.7886L39.0153 38.7895Z" fill="black"/>
<path d="M29.6947 27.5114C29.6353 27.5115 29.5774 27.4924 29.5298 27.4568C29.4822 27.4213 29.4474 27.3713 29.4307 27.3143L28.9436 25.6365C28.9257 25.5677 28.9354 25.4947 28.9705 25.4328C29.0056 25.371 29.0634 25.3253 29.1317 25.3054C29.1999 25.2856 29.2733 25.2931 29.3361 25.3264C29.3989 25.3597 29.4462 25.4162 29.4681 25.4839L29.9556 27.162C29.9757 27.2316 29.9675 27.3063 29.9326 27.3697C29.8977 27.4332 29.839 27.4802 29.7695 27.5004C29.7452 27.5075 29.72 27.5112 29.6947 27.5114Z" fill="black"/>
<path d="M23.353 31.3517C23.2827 31.3518 23.215 31.3247 23.1643 31.276L21.9028 30.0665C21.8503 30.0163 21.8198 29.9473 21.8182 29.8747C21.8165 29.8021 21.8438 29.7318 21.894 29.6793C21.9442 29.6268 22.0131 29.5963 22.0858 29.5947C22.1584 29.593 22.2287 29.6203 22.2812 29.6705L23.5422 30.88C23.5816 30.9177 23.6088 30.9663 23.6203 31.0196C23.6318 31.0729 23.6271 31.1285 23.6067 31.179C23.5863 31.2296 23.5513 31.2729 23.5061 31.3034C23.4608 31.3339 23.4075 31.3501 23.353 31.3499V31.3517Z" fill="black"/>
<path d="M19.7819 37.8488C19.7598 37.8487 19.7378 37.846 19.7164 37.8408L18.0197 37.4242C17.951 37.4054 17.8924 37.3606 17.8563 37.2992C17.8201 37.2378 17.8094 37.1648 17.8263 37.0956C17.8432 37.0265 17.8865 36.9667 17.9468 36.9289C18.0072 36.8911 18.0799 36.8785 18.1495 36.8935L19.8466 37.312C19.9117 37.3275 19.9688 37.3665 20.007 37.4214C20.0453 37.4763 20.062 37.5434 20.054 37.6098C20.046 37.6763 20.0139 37.7375 19.9637 37.7818C19.9136 37.8261 19.8489 37.8504 19.7819 37.8501V37.8488Z" fill="black"/>
<path d="M43.604 30.9276C43.5505 30.9276 43.4982 30.9118 43.4536 30.8823C43.409 30.8528 43.3741 30.8108 43.3531 30.7616C43.3321 30.7125 43.326 30.6582 43.3356 30.6056C43.3451 30.553 43.3699 30.5043 43.4069 30.4656L44.616 29.2046C44.6661 29.1521 44.735 29.1216 44.8076 29.1199C44.8802 29.1183 44.9504 29.1455 45.003 29.1956C45.0555 29.2457 45.0859 29.3146 45.0876 29.3872C45.0893 29.4598 45.0621 29.5301 45.012 29.5826L43.8007 30.844C43.7752 30.8705 43.7446 30.8915 43.7108 30.9059C43.677 30.9203 43.6407 30.9277 43.604 30.9276Z" fill="black"/>
<path d="M37.107 27.3561C37.0656 27.3559 37.0249 27.3463 36.9878 27.3281C36.9508 27.3099 36.9183 27.2835 36.8929 27.2509C36.8675 27.2184 36.8498 27.1805 36.8411 27.1401C36.8325 27.0997 36.8331 27.0578 36.843 27.0177L37.2601 25.3211C37.2687 25.2863 37.2842 25.2535 37.3055 25.2247C37.3268 25.1958 37.3536 25.1714 37.3844 25.153C37.4151 25.1345 37.4492 25.1222 37.4847 25.1169C37.5202 25.1116 37.5564 25.1133 37.5912 25.122C37.626 25.1307 37.6588 25.1461 37.6876 25.1674C37.7164 25.1888 37.7408 25.2156 37.7593 25.2463C37.7778 25.277 37.79 25.3111 37.7954 25.3466C37.8007 25.3821 37.7989 25.4183 37.7903 25.4531L37.3718 27.148C37.3573 27.2073 37.3233 27.26 37.2753 27.2977C37.2273 27.3354 37.168 27.356 37.107 27.3561Z" fill="black"/>
<path d="M121.554 49.2501C121.554 50.7166 122.11 52.0485 123.016 53.0138C123.922 53.9792 130.108 54.578 131.489 54.578H159.931C162.689 54.578 164.93 52.1893 164.93 49.2501C164.938 47.8527 164.413 46.5047 163.462 45.4806C162.562 44.5214 161.313 43.9221 159.931 43.9221H131.489C128.726 43.9221 121.554 46.3052 121.554 49.2501Z" fill="#F397BE"/>
<path d="M159.931 54.8513H131.489C130.286 54.8513 123.845 54.2973 122.817 53.2008C121.827 52.1448 121.281 50.7425 121.281 49.25C121.281 46.0732 128.529 43.6493 131.489 43.6493H159.931C161.342 43.6493 162.667 44.2332 163.661 45.2936C164.656 46.354 165.201 47.7576 165.201 49.25C165.203 52.3384 162.838 54.8513 159.931 54.8513ZM131.489 44.1953C128.842 44.1953 121.827 46.4912 121.827 49.25C121.827 50.603 122.32 51.8733 123.215 52.8273C123.978 53.6399 129.802 54.3052 131.487 54.3052H159.931C162.537 54.3052 164.657 52.0374 164.657 49.25C164.657 47.8975 164.162 46.625 163.263 45.6671C162.373 44.7181 161.189 44.1953 159.931 44.1953H131.489Z" fill="black"/>
<path d="M116.771 43.9221H141.342C142.724 43.9221 143.973 44.5214 144.879 45.4806C145.826 46.5068 146.348 47.8539 146.341 49.2501C146.341 52.1893 144.105 54.578 141.342 54.578H116.771C118.052 50.816 118.223 47.2353 116.771 43.9221Z" fill="white"/>
<path d="M141.342 54.8513H116.771C116.727 54.8513 116.685 54.841 116.646 54.8212C116.607 54.8015 116.574 54.7727 116.549 54.7374C116.523 54.7021 116.507 54.6613 116.5 54.6184C116.494 54.5754 116.498 54.5316 116.512 54.4905C117.862 50.5195 117.865 47.0985 116.521 44.0317C116.502 43.9901 116.495 43.9447 116.499 43.8995C116.502 43.8542 116.517 43.8106 116.542 43.7726C116.567 43.7346 116.601 43.7035 116.641 43.6819C116.681 43.6604 116.725 43.6492 116.771 43.6493H141.342C142.75 43.6493 144.077 44.2327 145.077 45.2931C146.069 46.3562 146.614 47.7611 146.614 49.25C146.614 52.3384 144.249 54.8513 141.342 54.8513ZM117.149 54.3052H141.342C143.948 54.3052 146.068 52.0374 146.068 49.25C146.068 47.8997 145.574 46.6272 144.679 45.6667C143.784 44.7181 142.598 44.1953 141.342 44.1953H117.181C118.383 47.1979 118.372 50.512 117.149 54.3052Z" fill="black"/>
<path d="M139.026 48.5377H121.554C121.518 48.5392 121.481 48.5332 121.447 48.5202C121.412 48.5071 121.381 48.4872 121.354 48.4617C121.328 48.4362 121.307 48.4056 121.292 48.3718C121.278 48.3379 121.27 48.3015 121.27 48.2647C121.27 48.2279 121.278 48.1915 121.292 48.1576C121.307 48.1237 121.328 48.0931 121.354 48.0676C121.381 48.0422 121.412 48.0223 121.447 48.0092C121.481 47.9962 121.518 47.9902 121.554 47.9917H139.026C139.096 47.9945 139.163 48.0245 139.212 48.0754C139.261 48.1263 139.288 48.1941 139.288 48.2647C139.288 48.3353 139.261 48.4031 139.212 48.454C139.163 48.5049 139.096 48.5349 139.026 48.5377Z" fill="black"/>
<path d="M135.236 51.59H121.552C121.515 51.5914 121.479 51.5855 121.444 51.5724C121.41 51.5594 121.378 51.5395 121.352 51.514C121.325 51.4885 121.304 51.4579 121.29 51.424C121.275 51.3902 121.268 51.3537 121.268 51.3169C121.268 51.2801 121.275 51.2437 121.29 51.2099C121.304 51.176 121.325 51.1454 121.352 51.1199C121.378 51.0944 121.41 51.0745 121.444 51.0615C121.479 51.0484 121.515 51.0424 121.552 51.0439H135.236C135.273 51.0424 135.31 51.0484 135.344 51.0615C135.378 51.0745 135.41 51.0944 135.436 51.1199C135.463 51.1454 135.484 51.176 135.498 51.2099C135.513 51.2437 135.52 51.2801 135.52 51.3169C135.52 51.3537 135.513 51.3902 135.498 51.424C135.484 51.4579 135.463 51.4885 135.436 51.514C135.41 51.5395 135.378 51.5594 135.344 51.5724C135.31 51.5855 135.273 51.5914 135.236 51.59Z" fill="black"/>
</svg>
