<svg width="89" height="23" viewBox="0 0 89 23" fill="none" xmlns="http://www.w3.org/2000/svg">
<path fill-rule="evenodd" clip-rule="evenodd" d="M22.5775 11.587C22.5775 15.7874 15.787 22.5011 11.5387 22.5011C7.29044 22.5011 0.5 15.7874 0.5 11.587C0.5 7.38673 7.28935 0.671875 11.5376 0.671875C15.7859 0.671875 22.5764 7.38564 22.5764 11.586L22.5775 11.587ZM15.9531 11.587C15.9531 13.2674 13.2372 15.9527 11.5376 15.9527C9.8381 15.9527 7.12214 13.2674 7.12214 11.587C7.12214 9.9067 9.8381 7.22141 11.5376 7.22141C13.2372 7.22141 15.9531 9.9067 15.9531 11.587Z" fill="#00BEFF"/>
<path d="M34.5984 22.5C38.7181 22.5 41.2998 19.9474 42.083 16.5911H37.5575C37.0064 17.7385 36.1362 18.5988 34.5984 18.5988C32.7416 18.5988 31.3787 17.2795 31.3787 15.013C31.3787 12.7464 32.7416 11.4271 34.5984 11.4271C36.1362 11.4271 37.0064 12.2874 37.5575 13.4348H42.083C41.2998 10.0785 38.7181 7.5259 34.5984 7.5259C30.1884 7.5259 26.9688 10.8529 26.9688 15.0119C26.9688 19.1709 30.1884 22.4978 34.5984 22.4978V22.5ZM43.6286 22.1846H48.0089V0.671841H43.6286V22.1846ZM52.8027 5.89233C54.3405 5.89233 55.5583 4.68727 55.5583 3.19616C55.5583 1.70506 54.3394 0.5 52.8027 0.5C51.2661 0.5 50.0758 1.70506 50.0758 3.19616C50.0758 4.68727 51.3232 5.89233 52.8027 5.89233ZM50.6269 22.1846H55.0071V7.8424H50.6269V22.1835V22.1846ZM64.386 22.5C68.5056 22.5 71.0873 19.9474 71.8705 16.5911H67.3451C66.7939 17.7385 65.9239 18.5988 64.386 18.5988C62.5292 18.5988 61.1663 17.2795 61.1663 15.013C61.1663 12.7464 62.5292 11.4271 64.386 11.4271C65.9239 11.4271 66.7939 12.2874 67.3451 13.4348H71.8705C71.0873 10.0785 68.5056 7.5259 64.386 7.5259C59.9761 7.5259 56.7563 10.8529 56.7563 15.0119C56.7563 19.1709 59.9761 22.4978 64.386 22.4978V22.5ZM83.192 22.1846H88.5007L81.8862 14.3256L87.2247 7.84348H82.0315L77.7964 12.9781V0.671841H73.416V22.1846H77.7964V15.7884L83.192 22.1846Z" fill="black"/>
</svg>
