<svg width="216" height="75" viewBox="0 0 216 75" fill="none" xmlns="http://www.w3.org/2000/svg">
<path d="M203.579 26.3991C207.752 30.0867 209.846 34.4102 198.593 31.8595C191.203 30.0685 184.084 27.4967 177.393 24.2C180.039 23.4524 182.823 23.1603 185.593 23.3398H185.644L187.196 23.4894C186.812 23.3398 186.379 23.1902 185.899 23.0406H185.839C175.4 19.8915 143.524 17.842 131.253 19.8691C121.612 14.0571 101.09 2.78474 77.2189 3.57762C74.254 3.67314 71.3009 3.95813 68.3827 4.43034C49.608 7.42234 39.7118 17.1463 39.7118 17.1463C30.2142 17.1463 18.2998 13.4063 14.5771 9.1951C18.427 11.8355 56.9771 1.81982 74.0558 0.548223C83.6891 -0.199777 89.9304 -0.626136 99.7757 2.37334C107.348 4.67718 117.058 9.02306 132.084 16.8546C139.861 16.4432 147.298 16.4058 154.302 16.6377C189.664 17.7821 213.9 25.6137 213.9 25.6137C210.495 26.1624 207.04 26.4254 203.579 26.3991Z" fill="url(#paint0_linear_2020_57)"/>
<path d="M99.2754 25.8531C75.4126 35.1731 48.4632 27.6857 27.3904 22.7264C16.4766 20.1683 7.14864 18.2833 0.627518 19.7344C1.03456 19.5025 10.7018 14.2591 33.2416 19.0313C43.5024 21.208 53.831 23.0705 63.8714 24.3421C76.337 25.9428 88.3786 26.6235 99.2754 25.8531Z" fill="url(#paint1_linear_2020_57)"/>
<path d="M0.585125 24.574C4.63008 21.006 15.8491 22.9209 21.4035 24.574C11.5582 31.1115 4.83943e-06 28.6431 0.585125 24.574Z" fill="url(#paint2_linear_2020_57)"/>
<path d="M143.897 35.061C154.514 22.5544 176.248 25.5763 190.266 36.3026C173.84 29.5856 153.895 30.2887 143.897 35.061Z" fill="url(#paint3_linear_2020_57)"/>
<path d="M214.748 27.7156C217.232 36.9384 212.424 45.6676 207.607 52.2575C211.449 37.9856 210.474 31.8745 208.65 28.2167C210.691 28.144 212.726 27.9767 214.748 27.7156Z" fill="url(#paint4_linear_2020_57)"/>
<path d="M99.7418 2.35836C86.691 0.114358 79.2032 1.54303 68.3658 4.42283C49.591 7.41483 39.6949 17.1388 39.6949 17.1388C30.1973 17.1388 18.2829 13.3988 14.5602 9.1876C18.4101 11.828 56.9602 1.81231 74.0389 0.540712C83.6552 -0.192328 89.8965 -0.641122 99.7418 2.35836Z" fill="url(#paint5_linear_2020_57)"/>
<path d="M203.579 26.3991C207.752 30.0867 209.846 34.4102 198.593 31.8595C191.203 30.0685 184.084 27.4967 177.393 24.2C180.039 23.4524 182.823 23.1603 185.593 23.3398H185.644L187.196 23.4894L185.899 23.0406H185.839C175.683 19.6993 165.075 17.5443 154.285 16.6302C189.647 17.7747 213.883 25.6062 213.883 25.6062C210.484 26.1565 207.034 26.422 203.579 26.3991Z" fill="url(#paint6_linear_2020_57)"/>
<path d="M99.2754 25.8531C75.4127 35.1731 48.4632 27.6857 27.3904 22.7264C40.9584 25.9204 41.1195 23.5941 63.8544 24.3496C76.337 25.9428 88.3786 26.6235 99.2754 25.8531Z" fill="url(#paint7_linear_2020_57)"/>
<path d="M2.04369 58.9147L6.67376 43.7452H10.6763L6.04625 58.9147H2.04369Z" fill="url(#paint8_linear_2020_57)"/>
<path d="M12.5589 58.9147L17.189 43.7452H20.4792L24.5326 54.4491H22.7858L33.2331 43.7452H36.5488L31.9102 58.9147H28.2045L31.2403 48.7942H32.012L23.6253 57.2915H21.836L18.5627 48.7942H19.4107L16.3155 58.9147H12.5589Z" fill="url(#paint9_linear_2020_57)"/>
<path d="M42.0099 58.9147L45.7666 46.5951H40.263L41.111 43.7303H56.0952L55.2472 46.5951H49.7437L45.987 58.8997L42.0099 58.9147Z" fill="url(#paint10_linear_2020_57)"/>
<path d="M56.0782 58.9147L60.7168 43.7452H64.7194L60.0808 58.9147H56.0782Z" fill="url(#paint11_linear_2020_57)"/>
<path d="M66.5934 58.9147L71.232 43.7452H75.26L70.6214 58.9147H66.5934ZM72.1818 52.6913L73.0806 49.6993H81.4843L80.577 52.6913H72.1818ZM78.3806 58.9147L83.0192 43.7452H86.9963L82.3662 58.9147H78.3806Z" fill="url(#paint12_linear_2020_57)"/>
<path d="M97.1469 59.1765C95.9292 59.1957 94.7199 58.9946 93.5937 58.5855C92.5994 58.2391 91.7232 57.6723 91.0497 56.9399C90.4067 56.2169 89.9887 55.3583 89.8371 54.4491C89.666 53.4054 89.7528 52.3413 90.0915 51.3299C90.442 50.2049 91.0162 49.1437 91.7875 48.1958C92.5466 47.2482 93.4711 46.4125 94.5266 45.7199C95.5847 45.0155 96.7604 44.4603 98.0118 44.0744C99.272 43.6788 100.6 43.4788 101.938 43.4834C103.16 43.4618 104.374 43.6577 105.508 44.0594C106.481 44.4103 107.336 44.9741 107.993 45.6975C108.638 46.4195 109.056 47.2786 109.205 48.1884C109.376 49.2396 109.289 50.3108 108.951 51.3299C108.597 52.4538 108.023 53.5145 107.255 54.4641C106.501 55.422 105.576 56.2657 104.516 56.9624C103.46 57.6673 102.283 58.2202 101.031 58.6005C99.7812 58.9808 98.4687 59.1754 97.1469 59.1765ZM98.0542 56.1845C98.8162 56.1849 99.5718 56.0632 100.284 55.8254C101.014 55.5823 101.695 55.239 102.303 54.8082C102.925 54.3693 103.468 53.8497 103.914 53.2673C104.372 52.6681 104.713 52.0057 104.923 51.3075C105.132 50.6717 105.199 50.006 105.118 49.3477C105.037 48.7933 104.804 48.2645 104.44 47.8069C104.083 47.3677 103.604 47.0173 103.049 46.7896C102.415 46.5393 101.725 46.4166 101.031 46.4305C100.263 46.4301 99.502 46.5518 98.7835 46.7896C98.0524 47.0293 97.3706 47.3729 96.7653 47.8069C96.1478 48.248 95.6077 48.7672 95.1626 49.3477C94.7061 49.9465 94.3677 50.6091 94.1619 51.3075C93.948 51.9425 93.8817 52.6091 93.9669 53.2673C94.0462 53.8198 94.2729 54.3479 94.6283 54.8082C94.9814 55.253 95.4651 55.6046 96.0275 55.8254C96.6627 56.0834 97.355 56.2137 98.0542 56.2069V56.1845Z" fill="url(#paint13_linear_2020_57)"/>
<path d="M112.089 58.9147L116.719 43.7452H120.009L126.793 54.666H125.199L128.531 43.7452H132.466L127.836 58.9147H124.546L117.762 47.9939H119.356L116.015 58.9147H112.089Z" fill="url(#paint14_linear_2020_57)"/>
<path d="M142.608 59.1765C141.384 59.1973 140.167 59.0014 139.03 58.6005C138.055 58.2572 137.2 57.6919 136.553 56.9624C135.923 56.2351 135.514 55.3776 135.366 54.4715C135.196 53.4203 135.282 52.3491 135.621 51.3299C135.975 50.2038 136.549 49.1408 137.317 48.1883C138.075 47.2361 139 46.3955 140.056 45.6975C141.116 44.9894 142.299 44.4363 143.558 44.0594C144.83 43.6746 146.165 43.4799 147.51 43.4834C148.853 43.4514 150.188 43.6813 151.419 44.1566C152.456 44.5677 153.326 45.2489 153.912 46.1089L150.732 48.1883C150.311 47.625 149.725 47.1727 149.036 46.8793C148.315 46.5815 147.525 46.4356 146.729 46.453C145.923 46.4518 145.123 46.5733 144.364 46.812C143.611 47.048 142.907 47.389 142.277 47.8218C141.644 48.2518 141.094 48.7697 140.649 49.3552C140.193 49.9604 139.852 50.6275 139.64 51.3299C139.436 51.9588 139.372 52.6169 139.454 53.2673C139.523 53.8248 139.758 54.3562 140.134 54.8081C140.511 55.2599 141.016 55.6159 141.599 55.8404C142.271 56.0945 142.997 56.2194 143.728 56.2069C144.546 56.2015 145.359 56.0829 146.136 55.8553C147.045 55.5905 147.903 55.2046 148.68 54.7109L150.172 57.2466C149.022 57.8847 147.77 58.3687 146.458 58.6828C145.207 59.0032 143.911 59.1694 142.608 59.1765ZM150.155 57.2466L146.662 56.7679L148.4 51.0906H152.029L150.155 57.2466Z" fill="url(#paint15_linear_2020_57)"/>
<path d="M153.522 58.9147L165.792 43.7452H169.727L172.78 58.9147H168.608L166.386 45.5255H167.98L157.575 58.9147H153.522ZM158.372 55.6609L160.196 52.998H169.083L169.303 55.6609H158.372Z" fill="url(#paint16_linear_2020_57)"/>
<path d="M2.756 74.3608V68.1824H0V67.0305H7.05537V68.1824H4.29937V74.3608H2.756Z" fill="#0077BE"/>
<path d="M7.81009 74.3608L11.5498 67.0305H13.0677L16.8243 74.3608H15.1962L11.9907 67.756H12.6098L9.38737 74.3608H7.81009ZM9.50609 72.6629L9.93856 71.5933H14.4075L14.823 72.6629H9.50609Z" fill="#0077BE"/>
<path d="M20.6234 74.3609V71.4586L20.9795 72.2889L17.3586 67.0529H18.9952L21.9123 71.2941H20.988L23.8966 67.0529H25.4146L21.8106 72.2889L22.1498 71.4586V74.3609H20.6234Z" fill="#0077BE"/>
<path d="M29.892 74.3609V71.4586L30.2482 72.2889L26.6272 67.0529H28.2638L31.164 71.2791H30.2397L33.1398 67.0379H34.6662L31.0538 72.2739L31.4014 71.4437V74.3459L29.892 74.3609Z" fill="#0077BE"/>
<path d="M40.4242 74.4656C39.8129 74.4694 39.2062 74.373 38.6349 74.1813C38.1032 74.0064 37.6182 73.7364 37.2102 73.3885C36.805 73.0491 36.4844 72.6389 36.269 72.1842C36.0435 71.7108 35.9309 71.2016 35.9382 70.6882C35.9326 70.1749 36.0451 69.6659 36.269 69.1922C36.4847 68.7419 36.8054 68.3367 37.2102 68.0028C37.6182 67.6549 38.1032 67.3849 38.6349 67.21C39.7872 66.8363 41.0527 66.8363 42.205 67.21C42.7315 67.3862 43.2129 67.6532 43.6211 67.9954C44.0211 68.3342 44.3385 68.7414 44.5539 69.1922C44.7758 69.6665 44.8882 70.1751 44.8846 70.6882C44.8903 71.2014 44.7778 71.7104 44.5539 72.1842C44.3385 72.6349 44.0211 73.0421 43.6211 73.381C43.2149 73.7273 42.7331 73.997 42.205 74.1738C41.6374 74.3688 41.0333 74.4678 40.4242 74.4656ZM40.4242 73.2688C40.8188 73.2739 41.2107 73.2104 41.5774 73.0818C41.9243 72.9623 42.2396 72.7811 42.5037 72.5494C42.7677 72.3178 42.9749 72.0407 43.1123 71.7354C43.4003 71.0655 43.4003 70.3258 43.1123 69.6559C42.9737 69.3504 42.7659 69.073 42.5018 68.8406C42.2333 68.6113 41.9164 68.4309 41.569 68.3095C41.2022 68.1809 40.8103 68.1174 40.4157 68.1225C40.0156 68.1174 39.6181 68.1809 39.2454 68.3095C38.8965 68.4317 38.5792 68.6149 38.3126 68.8481C38.0505 69.0835 37.8406 69.36 37.6936 69.6634C37.4 70.3246 37.4 71.0592 37.6936 71.7204C37.8384 72.0271 38.0485 72.3064 38.3126 72.5432C38.5792 72.7764 38.8965 72.9596 39.2454 73.0818C39.6207 73.2114 40.0212 73.2749 40.4242 73.2688Z" fill="#0077BE"/>
<path d="M47.7085 74.3609V67.0305H51.1005C52.0369 66.9828 52.9623 67.2293 53.7123 67.7261C54.0249 67.9604 54.2724 68.255 54.4355 68.5869C54.5987 68.9189 54.6733 69.2795 54.6536 69.641C54.67 70.1277 54.5192 70.6075 54.2211 71.0173C53.9262 71.4137 53.504 71.7236 53.0085 71.9074C52.4104 72.1289 51.7659 72.236 51.1174 72.2216H48.5734L49.2434 71.6157V74.3609H47.7085ZM49.2518 71.7653L48.5819 71.1071H51.0581C51.6083 71.1406 52.1544 71.003 52.6014 70.7181C52.7719 70.5834 52.9061 70.4168 52.9942 70.2304C53.0822 70.044 53.1219 69.8426 53.1102 69.641C53.1231 69.4392 53.084 69.2375 52.9959 69.051C52.9077 68.8644 52.7729 68.6979 52.6014 68.5639C52.1533 68.2816 51.6073 68.1466 51.0581 68.1824H48.5819L49.2518 67.5092V71.7653ZM53.1526 74.3609L51.0496 71.698H52.6947L54.8147 74.3609H53.1526Z" fill="#0077BE"/>
<path d="M57.5792 74.3608V67.0305H59.148V73.2089H63.4898V74.3608H57.5792Z" fill="#0077BE"/>
<path d="M69.5954 74.4656C68.9841 74.4694 68.3774 74.373 67.8061 74.1813C67.2729 74.0046 66.7854 73.735 66.373 73.3885C65.973 73.0467 65.6557 72.6371 65.4402 72.1842C65.2118 71.7114 65.0963 71.2021 65.101 70.6882C65.0982 70.1744 65.2136 69.6655 65.4402 69.1922C65.6558 68.7437 65.9733 68.339 66.373 68.0028C66.7837 67.658 67.2679 67.3885 67.7976 67.21C68.9527 66.8357 70.221 66.8357 71.3762 67.21C71.9027 67.3862 72.3841 67.6532 72.7923 67.9954C73.1923 68.3342 73.5097 68.7414 73.7251 69.1922C73.947 69.6665 74.0594 70.1751 74.0558 70.6882C74.0615 71.2014 73.949 71.7104 73.7251 72.1842C73.5097 72.6349 73.1923 73.0421 72.7923 73.381C72.3861 73.7273 71.9043 73.997 71.3762 74.1738C70.8082 74.3675 70.2043 74.4664 69.5954 74.4656ZM69.5954 73.2688C69.99 73.2739 70.3819 73.2104 70.7486 73.0818C71.0946 72.9622 71.4092 72.7815 71.673 72.5507C71.9316 72.3144 72.1386 72.0379 72.2835 71.7354C72.5771 71.0664 72.5771 70.3249 72.2835 69.6559C72.1504 69.3479 71.9419 69.0695 71.673 68.8406C71.4092 68.6098 71.0946 68.4291 70.7486 68.3095C70.3819 68.1809 69.99 68.1174 69.5954 68.1225C69.1952 68.1174 68.7978 68.1809 68.4251 68.3095C68.0751 68.4298 67.7573 68.6132 67.4923 68.8481C67.2302 69.0835 67.0202 69.36 66.8733 69.6634C66.6435 70.1439 66.5797 70.6734 66.6899 71.1857C66.8 71.6981 67.0791 72.1703 67.4923 72.5432C67.7573 72.7781 68.0751 72.9615 68.4251 73.0818C68.7978 73.2104 69.1952 73.2739 69.5954 73.2688Z" fill="#0077BE"/>
<path d="M79.1014 74.3608L75.472 67.0305H77.168L80.4074 73.6577H79.4152L82.7139 67.0305H84.2403L80.6194 74.3608H79.1014Z" fill="#0077BE"/>
<defs>
<linearGradient id="paint0_linear_2020_57" x1="14.5432" y1="16.3086" x2="213.866" y2="16.3086" gradientUnits="userSpaceOnUse">
<stop stop-color="#0097D5"/>
<stop offset="1" stop-color="#462E8E"/>
</linearGradient>
<linearGradient id="paint1_linear_2020_57" x1="0.602078" y1="23.6614" x2="99.2754" y2="23.6614" gradientUnits="userSpaceOnUse">
<stop stop-color="#0097D5"/>
<stop offset="1" stop-color="#462E8E"/>
</linearGradient>
<linearGradient id="paint2_linear_2020_57" x1="0.559685" y1="25.5838" x2="21.4035" y2="25.5838" gradientUnits="userSpaceOnUse">
<stop stop-color="#0097D5"/>
<stop offset="1" stop-color="#462E8E"/>
</linearGradient>
<linearGradient id="paint3_linear_2020_57" x1="143.897" y1="31.5977" x2="190.266" y2="31.5977" gradientUnits="userSpaceOnUse">
<stop stop-color="#0097D5"/>
<stop offset="1" stop-color="#462E8E"/>
</linearGradient>
<linearGradient id="paint4_linear_2020_57" x1="166.954" y1="23.5492" x2="213.403" y2="45.7353" gradientUnits="userSpaceOnUse">
<stop stop-color="#0097D5"/>
<stop offset="1" stop-color="#462E8E"/>
</linearGradient>
<linearGradient id="paint5_linear_2020_57" x1="14.5432" y1="8.56676" x2="99.7418" y2="8.56676" gradientUnits="userSpaceOnUse">
<stop stop-color="#0097D5"/>
<stop offset="1" stop-color="#462E8E"/>
</linearGradient>
<linearGradient id="paint6_linear_2020_57" x1="154.268" y1="24.6263" x2="213.866" y2="24.6263" gradientUnits="userSpaceOnUse">
<stop stop-color="#0097D5"/>
<stop offset="1" stop-color="#462E8E"/>
</linearGradient>
<linearGradient id="paint7_linear_2020_57" x1="97.0367" y1="29.3836" x2="36.7858" y2="21.6057" gradientUnits="userSpaceOnUse">
<stop stop-color="#0097D5"/>
<stop offset="1" stop-color="#462E8E"/>
</linearGradient>
<linearGradient id="paint8_linear_2020_57" x1="2.04369" y1="51.33" x2="172.805" y2="51.33" gradientUnits="userSpaceOnUse">
<stop stop-color="#0097D5"/>
<stop offset="1" stop-color="#462E8E"/>
</linearGradient>
<linearGradient id="paint9_linear_2020_57" x1="2.04367" y1="51.33" x2="172.805" y2="51.33" gradientUnits="userSpaceOnUse">
<stop stop-color="#0097D5"/>
<stop offset="1" stop-color="#462E8E"/>
</linearGradient>
<linearGradient id="paint10_linear_2020_57" x1="2.04368" y1="51.3299" x2="172.805" y2="51.3299" gradientUnits="userSpaceOnUse">
<stop stop-color="#0097D5"/>
<stop offset="1" stop-color="#462E8E"/>
</linearGradient>
<linearGradient id="paint11_linear_2020_57" x1="2.04367" y1="51.33" x2="172.805" y2="51.33" gradientUnits="userSpaceOnUse">
<stop stop-color="#0097D5"/>
<stop offset="1" stop-color="#462E8E"/>
</linearGradient>
<linearGradient id="paint12_linear_2020_57" x1="2.04369" y1="51.33" x2="172.805" y2="51.33" gradientUnits="userSpaceOnUse">
<stop stop-color="#0097D5"/>
<stop offset="1" stop-color="#462E8E"/>
</linearGradient>
<linearGradient id="paint13_linear_2020_57" x1="2.0437" y1="51.33" x2="172.805" y2="51.33" gradientUnits="userSpaceOnUse">
<stop stop-color="#0097D5"/>
<stop offset="1" stop-color="#462E8E"/>
</linearGradient>
<linearGradient id="paint14_linear_2020_57" x1="2.04368" y1="51.33" x2="172.805" y2="51.33" gradientUnits="userSpaceOnUse">
<stop stop-color="#0097D5"/>
<stop offset="1" stop-color="#462E8E"/>
</linearGradient>
<linearGradient id="paint15_linear_2020_57" x1="2.0437" y1="51.3299" x2="172.805" y2="51.3299" gradientUnits="userSpaceOnUse">
<stop stop-color="#0097D5"/>
<stop offset="1" stop-color="#462E8E"/>
</linearGradient>
<linearGradient id="paint16_linear_2020_57" x1="2.04375" y1="51.33" x2="172.805" y2="51.33" gradientUnits="userSpaceOnUse">
<stop stop-color="#0097D5"/>
<stop offset="1" stop-color="#462E8E"/>
</linearGradient>
</defs>
</svg>
