<svg width="150" height="59" viewBox="0 0 150 59" fill="none" xmlns="http://www.w3.org/2000/svg">
<g clip-path="url(#clip0_637_2140)">
<path d="M141.751 20.919C144.656 23.8406 146.115 27.2659 138.279 25.2451C133.133 23.8261 128.177 21.7886 123.518 19.1768C125.36 18.5844 127.299 18.3531 129.228 18.4953H129.263L130.344 18.6138C130.076 18.4953 129.775 18.3767 129.44 18.2582H129.399C122.13 15.7633 99.9351 14.1396 91.3912 15.7456C84.6777 11.141 70.3886 2.21041 53.7672 2.83857C51.7027 2.91425 49.6465 3.14003 47.6146 3.51415C34.5419 5.88458 27.6512 13.5885 27.6512 13.5885C21.0381 13.5885 12.7421 10.6254 10.15 7.28905C12.8307 9.38096 39.6729 1.44594 51.5648 0.438511C58.2724 -0.154096 62.6181 -0.491881 69.4734 1.88448C74.7462 3.70971 81.5069 7.15276 91.9698 13.3574C97.3843 13.0314 102.563 13.0018 107.44 13.1855C132.062 14.0922 148.937 20.2968 148.937 20.2968C146.567 20.7315 144.161 20.9399 141.751 20.919Z" fill="url(#paint0_linear_637_2140)"/>
<path d="M69.1249 20.4864C52.5094 27.8703 33.7446 21.9383 19.0718 18.0093C11.4726 15.9826 4.97751 14.4892 0.43689 15.6389C0.72031 15.4552 7.45153 11.301 23.1459 15.0819C30.2905 16.8063 37.4822 18.2819 44.4733 19.2894C53.153 20.5575 61.5375 21.0968 69.1249 20.4864Z" fill="url(#paint1_linear_637_2140)"/>
<path d="M0.407439 19.4731C3.22392 16.6463 11.0357 18.1634 14.9032 19.4731C8.04797 24.6524 2.30372e-05 22.6968 0.407439 19.4731Z" fill="url(#paint2_linear_637_2140)"/>
<path d="M100.195 27.7814C107.587 17.873 122.721 20.2672 132.481 28.7651C121.044 23.4435 107.156 24.0006 100.195 27.7814Z" fill="url(#paint3_linear_637_2140)"/>
<path d="M149.528 21.962C151.258 29.2689 147.91 36.1846 144.556 41.4055C147.231 30.0985 146.552 25.2569 145.282 22.3591C146.703 22.3014 148.12 22.1689 149.528 21.962Z" fill="url(#paint4_linear_637_2140)"/>
<path d="M69.4497 1.87264C60.3626 0.0948125 55.1488 1.22669 47.6028 3.50823C34.53 5.87866 27.6394 13.5826 27.6394 13.5826C21.0262 13.5826 12.7303 10.6195 10.1382 7.28314C12.8189 9.37505 39.6611 1.44003 51.5529 0.432594C58.2487 -0.148161 62.5945 -0.503721 69.4497 1.87264Z" fill="url(#paint5_linear_637_2140)"/>
<path d="M141.751 20.919C144.656 23.8406 146.115 27.2658 138.279 25.2451C133.133 23.8261 128.177 21.7886 123.518 19.1768C125.36 18.5844 127.299 18.3531 129.228 18.4953H129.263L130.344 18.6138L129.44 18.2582H129.399C122.327 15.6111 114.941 13.9037 107.428 13.1796C132.05 14.0863 148.925 20.2909 148.925 20.2909C146.559 20.7268 144.157 20.9372 141.751 20.919Z" fill="url(#paint6_linear_637_2140)"/>
<path d="M69.1249 20.4864C52.5094 27.8703 33.7447 21.9383 19.0718 18.0093C28.5191 20.5397 28.6313 18.6967 44.4615 19.2952C53.153 20.5575 61.5375 21.0968 69.1249 20.4864Z" fill="url(#paint7_linear_637_2140)"/>
<path d="M1.42297 46.6797L4.64687 34.6616H7.43383L4.20994 46.6797H1.42297Z" fill="url(#paint8_linear_637_2140)"/>
<path d="M8.74463 46.6797L11.9685 34.6616H14.2595L17.0819 43.1418H15.8656L23.14 34.6616H25.4487L22.2189 46.6797H19.6386L21.7524 38.6617H22.2897L16.4501 45.3937H15.2042L12.9251 38.6617H13.5155L11.3604 46.6797H8.74463Z" fill="url(#paint9_linear_637_2140)"/>
<path d="M29.2513 46.6797L31.867 36.9195H28.0349L28.6254 34.6498H39.0588L38.4683 36.9195H34.6362L32.0205 46.6679L29.2513 46.6797Z" fill="url(#paint10_linear_637_2140)"/>
<path d="M39.047 46.6797L42.2768 34.6616H45.0638L41.834 46.6797H39.047Z" fill="url(#paint11_linear_637_2140)"/>
<path d="M44.6741 46.6797L51.7182 39.5684L51.175 41.5951L48.1223 34.6735H51.2518L53.3656 39.4795L52.0253 39.5151L56.7076 34.6735H59.7012L52.9936 41.4588L53.525 39.4676L56.7726 46.6797H53.5841L51.4289 41.5833H52.6925L47.8507 46.6797H44.6741Z" fill="url(#paint12_linear_637_2140)"/>
<path d="M65.2633 46.8871C64.4155 46.9019 63.5736 46.7426 62.7893 46.419C62.1102 46.1386 61.5129 45.69 61.0533 45.1152C60.6037 44.5429 60.3106 43.8627 60.2031 43.1419C60.0899 42.3147 60.1502 41.473 60.3802 40.6707C60.6245 39.7794 61.0243 38.9388 61.5611 38.1877C62.0876 37.4371 62.7293 36.775 63.4624 36.2261C64.2005 35.6667 65.0213 35.2268 65.8951 34.9224C66.7705 34.6091 67.6936 34.4507 68.623 34.4542C69.4738 34.4366 70.3193 34.5918 71.1088 34.9105C71.7869 35.1869 72.3828 35.6339 72.8389 36.2083C73.2873 36.7814 73.5803 37.4613 73.6891 38.1817C73.8027 39.0151 73.7403 39.8631 73.5061 40.6707C73.2665 41.5583 72.877 42.3981 72.3547 43.1537C71.2857 44.6753 69.7677 45.8215 68.0148 46.4308C67.1298 46.7373 66.1995 46.8916 65.2633 46.8871ZM65.8951 44.5167C66.4276 44.5176 66.9558 44.4212 67.4539 44.2323C67.9599 44.0395 68.4322 43.7675 68.8533 43.4263C69.2884 43.0788 69.6686 42.6672 69.9811 42.2055C70.2978 41.7306 70.5333 41.2058 70.6778 40.6529C70.8265 40.1498 70.8727 39.6217 70.8136 39.1003C70.7591 38.6614 70.599 38.2424 70.3471 37.8795C70.0981 37.5301 69.7622 37.2522 69.3729 37.0736C68.9313 36.8752 68.4513 36.7781 67.9676 36.7891C67.4351 36.7887 66.907 36.8851 66.4088 37.0736C65.8979 37.2635 65.4212 37.5357 64.9976 37.8795C64.571 38.2307 64.1971 38.6419 63.8875 39.1003C63.5678 39.5744 63.3302 40.0993 63.1849 40.6529C63.0232 41.1697 62.9709 41.7147 63.0314 42.2529C63.0819 42.6909 63.2379 43.1099 63.486 43.4737C63.7319 43.8261 64.0687 44.1047 64.4603 44.2797C64.9137 44.4706 65.4039 44.5577 65.8951 44.5345V44.5167Z" fill="url(#paint13_linear_637_2140)"/>
<path d="M75.6672 46.6797L78.8911 34.6616H81.188L85.9117 43.3137H84.8016L87.128 34.6616H89.8619L86.6498 46.6797H84.3529L79.6292 38.0276H80.7452L78.3833 46.6797H75.6672Z" fill="url(#paint14_linear_637_2140)"/>
<path d="M96.9237 46.887C96.0692 46.9035 95.22 46.7484 94.4261 46.4307C93.7493 46.1579 93.1565 45.7101 92.7079 45.1329C92.2696 44.5557 91.9833 43.8771 91.8753 43.1595C91.7617 42.3262 91.8241 41.4782 92.0584 40.6706C92.2997 39.7764 92.6997 38.9333 93.2393 38.1816C94.3092 36.6623 95.8271 35.5182 97.5791 34.9104C98.4666 34.6056 99.3985 34.4513 100.337 34.4541C101.272 34.4293 102.201 34.6114 103.059 34.9875C103.778 35.3151 104.382 35.8545 104.789 36.5342L102.592 38.1816C102.297 37.7371 101.889 37.3792 101.411 37.1446C100.909 36.9093 100.359 36.7936 99.8052 36.8068C99.2437 36.8048 98.6863 36.9011 98.1578 37.0912C97.1019 37.4656 96.1948 38.1723 95.5716 39.1061C95.2515 39.5843 95.014 40.1132 94.8689 40.6706C94.7236 41.1683 94.6794 41.6903 94.739 42.2055C94.7871 42.6487 94.95 43.0716 95.2114 43.4321C95.4764 43.7843 95.8257 44.0636 96.227 44.244C96.6968 44.4458 97.204 44.5448 97.7149 44.5344C98.283 44.5301 98.8469 44.4361 99.3859 44.2559C100.018 44.0444 100.615 43.7387 101.157 43.3492L102.191 45.3581C101.391 45.8626 100.521 46.2459 99.6103 46.4959C98.737 46.75 97.8329 46.8816 96.9237 46.887ZM102.173 45.3581L99.7402 44.9789L100.951 40.481H103.484L102.173 45.3581Z" fill="url(#paint15_linear_637_2140)"/>
<path d="M104.523 46.6797L113.067 34.6616H115.801L117.944 46.6797H115.039L113.492 36.072H114.602L107.357 46.6797H104.523ZM107.894 44.1019L109.164 41.9922H115.358L115.505 44.1019H107.894Z" fill="url(#paint16_linear_637_2140)"/>
<path d="M1.91899 58.917V54.0221H0V53.1095H4.91262V54.0221H2.99363V58.917H1.91899Z" fill="#0077BE"/>
<path d="M5.43811 58.917L8.04202 53.1095H9.09895L11.7147 58.917H10.581L8.34907 53.6843H8.7801L6.53636 58.917H5.43811ZM6.61903 57.5718L6.92016 56.7244H10.0319L10.3212 57.5718H6.61903Z" fill="#0077BE"/>
<path d="M14.3599 58.9171V56.6178L14.6079 57.2756L12.0867 53.1273H13.2262L15.2574 56.4874H14.6138L16.6391 53.1273H17.696L15.1866 57.2756L15.4228 56.6178V58.9171H14.3599Z" fill="#0077BE"/>
<path d="M20.8137 58.917V56.6177L21.0617 57.2755L18.5404 53.1272H19.68L21.6994 56.4754H21.0558L23.0751 53.1154H24.138L21.6226 57.2636L21.8647 56.6058V58.9051L20.8137 58.917Z" fill="#0077BE"/>
<path d="M28.1472 59C27.7216 59.003 27.2991 58.9267 26.9013 58.7748C26.5311 58.6362 26.1934 58.4224 25.9094 58.1467C25.6272 57.8778 25.404 57.5529 25.254 57.1926C25.0969 56.8175 25.0186 56.4141 25.0237 56.0073C25.0197 55.6007 25.0981 55.1975 25.254 54.8221C25.4042 54.4654 25.6275 54.1444 25.9094 53.8799C26.1934 53.6042 26.5311 53.3903 26.9013 53.2517C27.7037 52.9556 28.5848 52.9556 29.3872 53.2517C29.7538 53.3914 30.089 53.6029 30.3732 53.8739C30.6517 54.1424 30.8727 54.465 31.0227 54.8221C31.1772 55.1979 31.2555 55.6008 31.253 56.0073C31.2569 56.414 31.1786 56.8172 31.0227 57.1926C30.8727 57.5496 30.6517 57.8723 30.3732 58.1407C30.0904 58.4151 29.7549 58.6288 29.3872 58.7689C28.992 58.9234 28.5713 59.0018 28.1472 59ZM28.1472 58.0518C28.422 58.0559 28.6948 58.0056 28.9502 57.9037C29.1918 57.809 29.4113 57.6654 29.5951 57.4819C29.779 57.2984 29.9233 57.0789 30.0189 56.837C30.2195 56.3063 30.2195 55.7202 30.0189 55.1895C29.9224 54.9475 29.7778 54.7277 29.5938 54.5436C29.4069 54.362 29.1862 54.219 28.9443 54.1229C28.6889 54.021 28.4161 53.9706 28.1413 53.9747C27.8627 53.9706 27.5859 54.0209 27.3265 54.1229C27.0835 54.2196 26.8625 54.3648 26.6769 54.5495C26.4944 54.736 26.3482 54.9551 26.2459 55.1955C26.0415 55.7193 26.0415 56.3013 26.2459 56.8251C26.3467 57.0681 26.493 57.2894 26.6769 57.477C26.8625 57.6618 27.0835 57.8069 27.3265 57.9037C27.5878 58.0064 27.8666 58.0567 28.1472 58.0518Z" fill="#0077BE"/>
<path d="M33.2192 58.917V53.1095H35.5811C36.2331 53.0717 36.8774 53.267 37.3997 53.6606C37.6173 53.8462 37.7896 54.0796 37.9033 54.3426C38.0169 54.6056 38.0688 54.8913 38.0551 55.1777C38.0665 55.5633 37.9615 55.9434 37.754 56.2681C37.5486 56.5821 37.2546 56.8276 36.9096 56.9733C36.4932 57.1487 36.0444 57.2336 35.5929 57.2222H33.8215L34.288 56.7422V58.917H33.2192ZM34.2939 56.8607L33.8274 56.3392H35.5516C35.9347 56.3658 36.3149 56.2567 36.6262 56.031C36.7449 55.9243 36.8383 55.7923 36.8996 55.6446C36.9609 55.497 36.9885 55.3374 36.9805 55.1777C36.9894 55.0178 36.9622 54.858 36.9008 54.7102C36.8395 54.5624 36.7456 54.4305 36.6262 54.3243C36.3141 54.1007 35.9339 53.9938 35.5516 54.0221H33.8274L34.2939 53.4887V56.8607ZM37.01 58.917L35.5456 56.8073H36.6911L38.1673 58.917H37.01Z" fill="#0077BE"/>
<path d="M40.0922 58.917V53.1095H41.1845V58.0044H44.2077V58.917H40.0922Z" fill="#0077BE"/>
<path d="M48.4589 59C48.0333 59.003 47.6108 58.9266 47.213 58.7748C46.8417 58.6348 46.5023 58.4211 46.2151 58.1466C45.9366 57.8759 45.7157 57.5513 45.5656 57.1925C45.4066 56.8179 45.3262 56.4144 45.3294 56.0073C45.3275 55.6003 45.4079 55.1971 45.5656 54.8221C45.7158 54.4668 45.9368 54.1461 46.2151 53.8798C46.5011 53.6066 46.8383 53.3931 47.2071 53.2517C48.0114 52.9552 48.8945 52.9552 49.6988 53.2517C50.0654 53.3913 50.4006 53.6028 50.6849 53.8739C50.9634 54.1424 51.1844 54.465 51.3344 54.8221C51.4889 55.1979 51.5672 55.6008 51.5647 56.0073C51.5686 56.4139 51.4903 56.8171 51.3344 57.1925C51.1844 57.5496 50.9634 57.8722 50.6849 58.1407C50.4021 58.415 50.0666 58.6288 49.6988 58.7688C49.3033 58.9223 48.8829 59.0006 48.4589 59ZM48.4589 58.0518C48.7336 58.0559 49.0065 58.0055 49.2619 57.9036C49.5028 57.8089 49.7218 57.6658 49.9055 57.4829C50.0856 57.2957 50.2297 57.0767 50.3306 56.8369C50.5351 56.3069 50.5351 55.7195 50.3306 55.1895C50.2379 54.9454 50.0928 54.7249 49.9055 54.5435C49.7218 54.3607 49.5028 54.2175 49.2619 54.1228C49.0065 54.0209 48.7336 53.9706 48.4589 53.9746C48.1803 53.9706 47.9035 54.0209 47.644 54.1228C47.4003 54.2181 47.1791 54.3634 46.9945 54.5495C46.812 54.736 46.6658 54.955 46.5635 55.1954C46.4035 55.5761 46.3591 55.9956 46.4358 56.4015C46.5125 56.8074 46.7068 57.1815 46.9945 57.477C47.1791 57.663 47.4003 57.8084 47.644 57.9036C47.9035 58.0056 48.1803 58.0559 48.4589 58.0518Z" fill="#0077BE"/>
<path d="M55.0779 58.917L52.5508 53.1095H53.7317L55.9873 58.36H55.2964L57.5933 53.1095H58.6561L56.1349 58.917H55.0779Z" fill="#0077BE"/>
</g>
<defs>
<linearGradient id="paint0_linear_637_2140" x1="10.1264" y1="12.9248" x2="148.914" y2="12.9248" gradientUnits="userSpaceOnUse">
<stop stop-color="#0097D5"/>
<stop offset="1" stop-color="#462E8E"/>
</linearGradient>
<linearGradient id="paint1_linear_637_2140" x1="0.419176" y1="18.7501" x2="69.1249" y2="18.7501" gradientUnits="userSpaceOnUse">
<stop stop-color="#0097D5"/>
<stop offset="1" stop-color="#462E8E"/>
</linearGradient>
<linearGradient id="paint2_linear_637_2140" x1="0.389725" y1="20.2731" x2="14.9032" y2="20.2731" gradientUnits="userSpaceOnUse">
<stop stop-color="#0097D5"/>
<stop offset="1" stop-color="#462E8E"/>
</linearGradient>
<linearGradient id="paint3_linear_637_2140" x1="100.195" y1="25.0376" x2="132.481" y2="25.0376" gradientUnits="userSpaceOnUse">
<stop stop-color="#0097D5"/>
<stop offset="1" stop-color="#462E8E"/>
</linearGradient>
<linearGradient id="paint4_linear_637_2140" x1="116.25" y1="18.6612" x2="150.019" y2="32.8374" gradientUnits="userSpaceOnUse">
<stop stop-color="#0097D5"/>
<stop offset="1" stop-color="#462E8E"/>
</linearGradient>
<linearGradient id="paint5_linear_637_2140" x1="10.1264" y1="6.79127" x2="69.4497" y2="6.79127" gradientUnits="userSpaceOnUse">
<stop stop-color="#0097D5"/>
<stop offset="1" stop-color="#462E8E"/>
</linearGradient>
<linearGradient id="paint6_linear_637_2140" x1="107.416" y1="19.5145" x2="148.914" y2="19.5145" gradientUnits="userSpaceOnUse">
<stop stop-color="#0097D5"/>
<stop offset="1" stop-color="#462E8E"/>
</linearGradient>
<linearGradient id="paint7_linear_637_2140" x1="67.5661" y1="23.2835" x2="25.4566" y2="18.5059" gradientUnits="userSpaceOnUse">
<stop stop-color="#0097D5"/>
<stop offset="1" stop-color="#462E8E"/>
</linearGradient>
<linearGradient id="paint8_linear_637_2140" x1="1.42297" y1="40.6707" x2="117.944" y2="40.6707" gradientUnits="userSpaceOnUse">
<stop stop-color="#0097D5"/>
<stop offset="1" stop-color="#462E8E"/>
</linearGradient>
<linearGradient id="paint9_linear_637_2140" x1="1.42294" y1="40.6707" x2="117.944" y2="40.6707" gradientUnits="userSpaceOnUse">
<stop stop-color="#0097D5"/>
<stop offset="1" stop-color="#462E8E"/>
</linearGradient>
<linearGradient id="paint10_linear_637_2140" x1="1.42297" y1="40.6707" x2="117.944" y2="40.6707" gradientUnits="userSpaceOnUse">
<stop stop-color="#0097D5"/>
<stop offset="1" stop-color="#462E8E"/>
</linearGradient>
<linearGradient id="paint11_linear_637_2140" x1="1.42299" y1="40.6707" x2="117.944" y2="40.6707" gradientUnits="userSpaceOnUse">
<stop stop-color="#0097D5"/>
<stop offset="1" stop-color="#462E8E"/>
</linearGradient>
<linearGradient id="paint12_linear_637_2140" x1="1.42301" y1="40.6706" x2="117.944" y2="40.6706" gradientUnits="userSpaceOnUse">
<stop stop-color="#0097D5"/>
<stop offset="1" stop-color="#462E8E"/>
</linearGradient>
<linearGradient id="paint13_linear_637_2140" x1="1.42296" y1="40.6707" x2="117.944" y2="40.6707" gradientUnits="userSpaceOnUse">
<stop stop-color="#0097D5"/>
<stop offset="1" stop-color="#462E8E"/>
</linearGradient>
<linearGradient id="paint14_linear_637_2140" x1="1.423" y1="40.6707" x2="117.944" y2="40.6707" gradientUnits="userSpaceOnUse">
<stop stop-color="#0097D5"/>
<stop offset="1" stop-color="#462E8E"/>
</linearGradient>
<linearGradient id="paint15_linear_637_2140" x1="1.42303" y1="40.6706" x2="117.944" y2="40.6706" gradientUnits="userSpaceOnUse">
<stop stop-color="#0097D5"/>
<stop offset="1" stop-color="#462E8E"/>
</linearGradient>
<linearGradient id="paint16_linear_637_2140" x1="1.42299" y1="40.6707" x2="117.944" y2="40.6707" gradientUnits="userSpaceOnUse">
<stop stop-color="#0097D5"/>
<stop offset="1" stop-color="#462E8E"/>
</linearGradient>
<clipPath id="clip0_637_2140">
<rect width="150" height="59" fill="white"/>
</clipPath>
</defs>
</svg>
