<svg width="213" height="119" viewBox="0 0 213 119" fill="none" xmlns="http://www.w3.org/2000/svg">
<path d="M44.442 15.8909V102H26.2364V33.1716H25.7318L6.0125 45.533V29.3875L27.3295 15.8909H44.442ZM98.6702 103.892C91.4384 103.864 85.2156 102.084 80.002 98.5523C74.8164 95.0205 70.8221 89.9049 68.019 83.2057C65.244 76.5064 63.8706 68.4477 63.8986 59.0295C63.8986 49.6394 65.2861 41.6367 68.0611 35.0216C70.8641 28.4064 74.8584 23.375 80.044 19.9273C85.2577 16.4515 91.4664 14.7136 98.6702 14.7136C105.874 14.7136 112.069 16.4515 117.254 19.9273C122.468 23.403 126.476 28.4485 129.279 35.0636C132.082 41.6508 133.47 49.6394 133.442 59.0295C133.442 68.4758 132.04 76.5485 129.237 83.2477C126.462 89.947 122.482 95.0625 117.296 98.5943C112.111 102.126 105.902 103.892 98.6702 103.892ZM98.6702 88.7977C103.604 88.7977 107.542 86.317 110.485 81.3557C113.428 76.3943 114.886 68.9523 114.858 59.0295C114.858 52.4985 114.185 47.0606 112.839 42.7159C111.522 38.3712 109.644 35.1057 107.205 32.9193C104.795 30.733 101.95 29.6398 98.6702 29.6398C93.7649 29.6398 89.8406 32.0924 86.8974 36.9977C83.9543 41.903 82.4687 49.247 82.4406 59.0295C82.4406 65.6447 83.0993 71.1667 84.4168 75.5955C85.7622 79.9962 87.6543 83.3038 90.0929 85.5182C92.5315 87.7045 95.3906 88.7977 98.6702 88.7977Z" fill="#E9A500"/>
<path d="M178.655 83.4636V80.219C178.655 77.7555 179.176 75.4923 180.217 73.4294C181.279 71.3464 182.811 69.6841 184.814 68.4423C186.837 67.1805 189.3 66.5496 192.204 66.5496C195.148 66.5496 197.622 67.1705 199.625 68.4123C201.648 69.654 203.17 71.3164 204.191 73.3994C205.233 75.4623 205.754 77.7355 205.754 80.219V83.4636C205.754 85.9271 205.233 88.2004 204.191 90.2833C203.15 92.3462 201.618 93.9986 199.595 95.2403C197.572 96.5021 195.108 97.133 192.204 97.133C189.26 97.133 186.787 96.5021 184.784 95.2403C182.781 93.9986 181.259 92.3462 180.217 90.2833C179.176 88.2004 178.655 85.9271 178.655 83.4636ZM187.397 80.219V83.4636C187.397 84.8857 187.738 86.2276 188.419 87.4893C189.12 88.7511 190.382 89.382 192.204 89.382C194.027 89.382 195.269 88.7612 195.93 87.5194C196.611 86.2776 196.951 84.9257 196.951 83.4636V80.219C196.951 78.757 196.631 77.395 195.99 76.1332C195.349 74.8714 194.087 74.2406 192.204 74.2406C190.402 74.2406 189.15 74.8714 188.449 76.1332C187.748 77.395 187.397 78.757 187.397 80.219ZM147.08 48.2537V45.0091C147.08 42.5256 147.611 40.2523 148.673 38.1894C149.734 36.1065 151.266 34.4441 153.269 33.2023C155.292 31.9606 157.735 31.3397 160.599 31.3397C163.564 31.3397 166.047 31.9606 168.05 33.2023C170.053 34.4441 171.575 36.1065 172.617 38.1894C173.658 40.2523 174.179 42.5256 174.179 45.0091V48.2537C174.179 50.7372 173.648 53.0104 172.586 55.0734C171.545 57.1363 170.013 58.7886 167.99 60.0304C165.987 61.2521 163.524 61.863 160.599 61.863C157.675 61.863 155.202 61.2421 153.179 60.0004C151.176 58.7386 149.654 57.0862 148.612 55.0433C147.591 52.9804 147.08 50.7172 147.08 48.2537ZM155.883 45.0091V48.2537C155.883 49.7158 156.223 51.0677 156.904 52.3094C157.605 53.5512 158.837 54.1721 160.599 54.1721C162.442 54.1721 163.694 53.5512 164.355 52.3094C165.036 51.0677 165.376 49.7158 165.376 48.2537V45.0091C165.376 43.547 165.056 42.1851 164.415 40.9233C163.774 39.6615 162.502 39.0306 160.599 39.0306C158.817 39.0306 157.585 39.6715 156.904 40.9533C156.223 42.2352 155.883 43.5871 155.883 45.0091ZM151.046 95L193.346 33.4727H201.217L158.917 95H151.046Z" fill="#E9A500"/>
</svg>
