<svg width="216" height="75" viewBox="0 0 216 75" fill="none" xmlns="http://www.w3.org/2000/svg">
<path d="M203.576 26.5885C207.748 30.3026 209.842 34.6571 198.589 32.0881C191.199 30.2842 184.081 27.694 177.39 24.3736C180.035 23.6206 182.819 23.3265 185.59 23.5072H185.641L187.193 23.6579C186.808 23.5072 186.376 23.3566 185.895 23.2059H185.836C175.397 20.0342 143.521 17.97 131.251 20.0116C121.609 14.1579 101.088 2.80471 77.2174 3.60328C74.2526 3.69948 71.2996 3.98651 68.3814 4.46211C49.6071 7.47558 39.7111 17.2694 39.7111 17.2694C30.2137 17.2694 18.2995 13.5025 14.5769 9.26106C18.4267 11.9204 56.9761 1.83286 74.0545 0.552138C83.6876 -0.201229 89.9287 -0.630647 99.7738 2.39036C107.346 4.71073 117.056 9.08779 132.082 16.9755C139.858 16.5612 147.295 16.5235 154.299 16.7571C189.66 17.9097 213.896 25.7975 213.896 25.7975C210.491 26.3501 207.036 26.615 203.576 26.5885Z" fill="white"/>
<path d="M99.2735 26.0385C75.4113 35.4255 48.4623 27.8843 27.3899 22.8895C16.4763 20.313 7.14851 18.4145 0.62751 19.876C1.03454 19.6425 10.7016 14.3614 33.241 19.1678C43.5016 21.3601 53.8301 23.236 63.8702 24.5167C76.3356 26.1289 88.3769 26.8145 99.2735 26.0385Z" fill="white"/>
<path d="M0.585109 24.7503C4.62999 21.1567 15.8488 23.0853 21.4031 24.7503C11.558 31.3347 2.5518e-09 28.8486 0.585109 24.7503Z" fill="white"/>
<path d="M143.894 35.3125C154.511 22.7162 176.245 25.7598 190.262 36.5631C173.837 29.7979 153.892 30.506 143.894 35.3125Z" fill="white"/>
<path d="M214.744 27.9144C217.228 37.2034 212.42 45.9952 207.604 52.6324C211.445 38.2582 210.47 32.1031 208.647 28.4192C210.687 28.3459 212.723 28.1774 214.744 27.9144Z" fill="white"/>
<path d="M99.7399 2.37528C86.6894 0.115179 79.2017 1.55411 68.3645 4.45457C49.5901 7.46804 39.6941 17.2618 39.6941 17.2618C30.1967 17.2618 18.2825 13.495 14.5599 9.25353C18.4097 11.9129 56.9591 1.82532 74.0375 0.544592C83.6537 -0.193708 89.8948 -0.645722 99.7399 2.37528Z" fill="white"/>
<path d="M203.576 26.5885C207.748 30.3026 209.842 34.6571 198.589 32.0881C191.199 30.2842 184.081 27.694 177.39 24.3736C180.035 23.6206 182.819 23.3265 185.59 23.5072H185.641L187.193 23.6579L185.895 23.2059H185.836C175.68 19.8407 165.072 17.6701 154.282 16.7495C189.643 17.9022 213.879 25.7899 213.879 25.7899C210.48 26.3442 207.031 26.6116 203.576 26.5885Z" fill="white"/>
<path d="M99.2735 26.0385C75.4113 35.4255 48.4623 27.8843 27.3899 22.8895C40.9576 26.1063 41.1188 23.7634 63.8532 24.5243C76.3356 26.1289 88.3769 26.8145 99.2735 26.0385Z" fill="white"/>
<path d="M2.04365 59.3374L6.67363 44.0591H10.6761L6.04613 59.3374H2.04365Z" fill="white"/>
<path d="M12.5586 59.3374L17.1886 44.0591H20.4788L24.5322 54.8398H22.7853L33.2325 44.0591H36.5481L31.9097 59.3374H28.204L31.2397 49.1443H32.0114L23.6248 57.7026H21.8356L18.5624 49.1443H19.4104L16.3152 59.3374H12.5586Z" fill="white"/>
<path d="M42.0091 59.3374L45.7657 46.9294H40.2623L41.1103 44.044H56.0942L55.2462 46.9294H49.7428L45.9862 59.3223L42.0091 59.3374Z" fill="white"/>
<path d="M56.0772 59.3374L60.7157 44.0591H64.7182L60.0797 59.3374H56.0772Z" fill="white"/>
<path d="M66.5922 59.3374L71.2307 44.0591H75.2586L70.6201 59.3374H66.5922ZM72.1804 53.0694L73.0793 50.0559H81.4828L80.5755 53.0694H72.1804ZM78.3792 59.3374L83.0177 44.0591H86.9947L82.3647 59.3374H78.3792Z" fill="white"/>
<path d="M97.1451 59.6011C95.9274 59.6204 94.7182 59.4179 93.592 59.0059C92.5977 58.657 91.7215 58.0861 91.0481 57.3485C90.4051 56.6202 89.9871 55.7555 89.8355 54.8398C89.6644 53.7885 89.7512 52.7169 90.0899 51.6982C90.4403 50.5651 91.0146 49.4963 91.7858 48.5416C92.5449 47.5871 93.4693 46.7455 94.5248 46.048C95.5829 45.3384 96.7587 44.7793 98.01 44.3906C99.2702 43.9921 100.599 43.7908 101.936 43.7954C103.158 43.7736 104.372 43.9709 105.506 44.3755C106.479 44.7289 107.334 45.2967 107.991 46.0254C108.636 46.7525 109.054 47.6178 109.203 48.5341C109.374 49.5928 109.287 50.6717 108.949 51.6982C108.595 52.8302 108.021 53.8985 107.253 54.8548C106.499 55.8196 105.574 56.6694 104.514 57.3711C103.458 58.0811 102.281 58.638 101.029 59.0209C99.7793 59.404 98.4669 59.6 97.1451 59.6011ZM98.0524 56.5876C98.8143 56.588 99.57 56.4655 100.283 56.226C101.012 55.9811 101.693 55.6353 102.301 55.2014C102.923 54.7594 103.466 54.2361 103.912 53.6495C104.37 53.046 104.711 52.3789 104.921 51.6756C105.131 51.0353 105.197 50.3647 105.116 49.7018C105.035 49.1433 104.802 48.6108 104.438 48.1499C104.081 47.7076 103.602 47.3547 103.047 47.1253C102.413 46.8732 101.723 46.7496 101.029 46.7637C100.261 46.7633 99.5002 46.8858 98.7817 47.1253C98.0506 47.3667 97.3688 47.7128 96.7635 48.1499C96.146 48.5941 95.606 49.1171 95.1608 49.7018C94.7043 50.3049 94.366 50.9722 94.1602 51.6756C93.9463 52.3152 93.88 52.9866 93.9651 53.6495C94.0444 54.2059 94.2711 54.7378 94.6266 55.2014C94.9797 55.6494 95.4634 56.0036 96.0258 56.226C96.661 56.4857 97.3532 56.617 98.0524 56.6102V56.5876Z" fill="white"/>
<path d="M112.087 59.3374L116.717 44.0591H120.007L126.791 55.0583H125.196L128.529 44.0591H132.464L127.834 59.3374H124.543L117.76 48.3382H119.354L116.013 59.3374H112.087Z" fill="white"/>
<path d="M142.606 59.601C141.381 59.622 140.164 59.4247 139.027 59.0209C138.052 58.6752 137.198 58.1059 136.551 57.3711C135.921 56.6385 135.512 55.7749 135.364 54.8624C135.193 53.8036 135.28 52.7247 135.618 51.6982C135.972 50.564 136.546 49.4934 137.314 48.5341C138.073 47.575 138.997 46.7284 140.053 46.0254C141.113 45.3122 142.296 44.7551 143.555 44.3755C144.827 43.9879 146.162 43.7918 147.507 43.7954C148.85 43.7631 150.185 43.9947 151.416 44.4734C152.454 44.8874 153.323 45.5736 153.909 46.4397L150.729 48.5341C150.308 47.9667 149.722 47.5112 149.033 47.2157C148.312 46.9157 147.523 46.7687 146.727 46.7863C145.921 46.7851 145.12 46.9074 144.361 47.1479C143.609 47.3856 142.904 47.729 142.275 48.1649C141.642 48.598 141.092 49.1196 140.647 49.7093C140.19 50.3189 139.849 50.9908 139.638 51.6982C139.433 52.3316 139.37 52.9945 139.451 53.6495C139.52 54.211 139.755 54.7463 140.132 55.2013C140.509 55.6563 141.014 56.015 141.596 56.241C142.268 56.497 142.994 56.6228 143.725 56.6102C144.544 56.6048 145.356 56.4853 146.133 56.2561C147.042 55.9894 147.9 55.6007 148.677 55.1034L150.17 57.6573C149.019 58.3 147.767 58.7875 146.455 59.1038C145.204 59.4266 143.908 59.5939 142.606 59.601ZM150.153 57.6573L146.659 57.1752L148.397 51.4572H152.027L150.153 57.6573Z" fill="white"/>
<path d="M153.519 59.3374L165.789 44.0591H169.724L172.777 59.3374H168.605L166.383 45.8521H167.977L157.572 59.3374H153.519ZM158.37 56.0602L160.193 53.3782H169.08L169.3 56.0602H158.37Z" fill="white"/>
<path d="M2.04365 59.3374L6.67363 44.0591H10.6761L6.04613 59.3374H2.04365Z" fill="white"/>
<path d="M12.5586 59.3374L17.1886 44.0591H20.4788L24.5322 54.8398H22.7853L33.2325 44.0591H36.5481L31.9097 59.3374H28.204L31.2397 49.1443H32.0114L23.6248 57.7026H21.8356L18.5624 49.1443H19.4104L16.3152 59.3374H12.5586Z" fill="white"/>
<path d="M42.0091 59.3374L45.7657 46.9294H40.2623L41.1103 44.044H56.0942L55.2462 46.9294H49.7428L45.9862 59.3223L42.0091 59.3374Z" fill="white"/>
<path d="M56.0772 59.3374L60.7157 44.0591H64.7182L60.0797 59.3374H56.0772Z" fill="white"/>
<path d="M66.5922 59.3374L71.2307 44.0591H75.2586L70.6201 59.3374H66.5922ZM72.1804 53.0694L73.0793 50.0559H81.4828L80.5755 53.0694H72.1804ZM78.3792 59.3374L83.0177 44.0591H86.9947L82.3647 59.3374H78.3792Z" fill="white"/>
<path d="M97.1451 59.6011C95.9274 59.6204 94.7182 59.4179 93.592 59.0059C92.5977 58.657 91.7215 58.0861 91.0481 57.3485C90.4051 56.6202 89.9871 55.7555 89.8355 54.8398C89.6644 53.7885 89.7512 52.7169 90.0899 51.6982C90.4403 50.5651 91.0146 49.4963 91.7858 48.5416C92.5449 47.5871 93.4693 46.7455 94.5248 46.048C95.5829 45.3384 96.7587 44.7793 98.01 44.3906C99.2702 43.9921 100.599 43.7908 101.936 43.7954C103.158 43.7736 104.372 43.9709 105.506 44.3755C106.479 44.7289 107.334 45.2967 107.991 46.0254C108.636 46.7525 109.054 47.6178 109.203 48.5341C109.374 49.5928 109.287 50.6717 108.949 51.6982C108.595 52.8302 108.021 53.8985 107.253 54.8548C106.499 55.8196 105.574 56.6694 104.514 57.3711C103.458 58.0811 102.281 58.638 101.029 59.0209C99.7793 59.404 98.4669 59.6 97.1451 59.6011ZM98.0524 56.5876C98.8143 56.588 99.57 56.4655 100.283 56.226C101.012 55.9811 101.693 55.6353 102.301 55.2014C102.923 54.7594 103.466 54.2361 103.912 53.6495C104.37 53.046 104.711 52.3789 104.921 51.6756C105.131 51.0353 105.197 50.3647 105.116 49.7018C105.035 49.1433 104.802 48.6108 104.438 48.1499C104.081 47.7076 103.602 47.3547 103.047 47.1253C102.413 46.8732 101.723 46.7496 101.029 46.7637C100.261 46.7633 99.5002 46.8858 98.7817 47.1253C98.0506 47.3667 97.3688 47.7128 96.7635 48.1499C96.146 48.5941 95.606 49.1171 95.1608 49.7018C94.7043 50.3049 94.366 50.9722 94.1602 51.6756C93.9463 52.3152 93.88 52.9866 93.9651 53.6495C94.0444 54.2059 94.2711 54.7378 94.6266 55.2014C94.9797 55.6494 95.4634 56.0036 96.0258 56.226C96.661 56.4857 97.3532 56.617 98.0524 56.6102V56.5876Z" fill="white"/>
<path d="M112.087 59.3374L116.717 44.0591H120.007L126.791 55.0583H125.196L128.529 44.0591H132.464L127.834 59.3374H124.543L117.76 48.3382H119.354L116.013 59.3374H112.087Z" fill="white"/>
<path d="M142.606 59.601C141.381 59.622 140.164 59.4247 139.027 59.0209C138.052 58.6752 137.198 58.1059 136.551 57.3711C135.921 56.6385 135.512 55.7749 135.364 54.8624C135.193 53.8036 135.28 52.7247 135.618 51.6982C135.972 50.564 136.546 49.4934 137.314 48.5341C138.073 47.575 138.997 46.7284 140.053 46.0254C141.113 45.3122 142.296 44.7551 143.555 44.3755C144.827 43.9879 146.162 43.7918 147.507 43.7954C148.85 43.7631 150.185 43.9947 151.416 44.4734C152.454 44.8874 153.323 45.5736 153.909 46.4397L150.729 48.5341C150.308 47.9667 149.722 47.5112 149.033 47.2157C148.312 46.9157 147.523 46.7687 146.727 46.7863C145.921 46.7851 145.12 46.9074 144.361 47.1479C143.609 47.3856 142.904 47.729 142.275 48.1649C141.642 48.598 141.092 49.1196 140.647 49.7093C140.19 50.3189 139.849 50.9908 139.638 51.6982C139.433 52.3316 139.37 52.9945 139.451 53.6495C139.52 54.211 139.755 54.7463 140.132 55.2013C140.509 55.6563 141.014 56.015 141.596 56.241C142.268 56.497 142.994 56.6228 143.725 56.6102C144.544 56.6048 145.356 56.4853 146.133 56.2561C147.042 55.9894 147.9 55.6007 148.677 55.1034L150.17 57.6573C149.019 58.3 147.767 58.7875 146.455 59.1038C145.204 59.4266 143.908 59.5939 142.606 59.601ZM150.153 57.6573L146.659 57.1752L148.397 51.4572H152.027L150.153 57.6573Z" fill="white"/>
<path d="M153.519 59.3374L165.789 44.0591H169.724L172.777 59.3374H168.605L166.383 45.8521H167.977L157.572 59.3374H153.519ZM158.37 56.0602L160.193 53.3782H169.08L169.3 56.0602H158.37Z" fill="white"/>
<path d="M2.75595 74.8944V68.6716H0V67.5114H7.05524V68.6716H4.29929V74.8944H2.75595Z" fill="white"/>
<path d="M7.80994 74.8944L11.5495 67.5114H13.0674L16.824 74.8944H15.1959L11.9905 68.2422H12.6095L9.3872 74.8944H7.80994ZM9.50591 73.1843L9.93838 72.1069H14.4073L14.8228 73.1843H9.50591Z" fill="white"/>
<path d="M20.623 74.8944V71.9713L20.9791 72.8076L17.3582 67.534H18.9948L21.9119 71.8056H20.9876L23.8962 67.534H25.4141L21.8102 72.8076L22.1493 71.9713V74.8944H20.623Z" fill="white"/>
<path d="M29.8915 74.8944V71.9713L30.2476 72.8076L26.6267 67.534H28.2633L31.1634 71.7905H30.2391L33.1392 67.5189H34.6656L31.0532 72.7925L31.4009 71.9563V74.8793L29.8915 74.8944Z" fill="white"/>
<path d="M40.4234 74.9999C39.8122 75.0037 39.2055 74.9066 38.6342 74.7136C38.1025 74.5374 37.6175 74.2655 37.2096 73.915C36.8043 73.5733 36.4837 73.1601 36.2683 72.7021C36.0428 72.2254 35.9302 71.7125 35.9376 71.1954C35.9319 70.6784 36.0444 70.1658 36.2683 69.6886C36.484 69.2351 36.8047 68.827 37.2096 68.4908C37.6175 68.1403 38.1025 67.8684 38.6342 67.6922C39.7865 67.3158 41.0519 67.3158 42.2042 67.6922C42.7307 67.8697 43.2121 68.1386 43.6203 68.4832C44.0202 68.8245 44.3376 69.2347 44.5531 69.6886C44.775 70.1664 44.8874 70.6786 44.8838 71.1954C44.8895 71.7123 44.777 72.2249 44.5531 72.7021C44.3376 73.1561 44.0202 73.5662 43.6203 73.9075C43.2141 74.2563 42.7323 74.528 42.2042 74.7061C41.6366 74.9025 41.0325 75.0022 40.4234 74.9999ZM40.4234 73.7945C40.818 73.7997 41.2099 73.7357 41.5767 73.6062C41.9235 73.4858 42.2388 73.3033 42.5029 73.07C42.7669 72.8367 42.9741 72.5576 43.1115 72.2501C43.3995 71.5754 43.3995 70.8304 43.1115 70.1557C42.9729 69.848 42.7651 69.5686 42.501 69.3346C42.2325 69.1036 41.9156 68.9219 41.5682 68.7997C41.2014 68.6701 40.8096 68.6061 40.4149 68.6113C40.0148 68.6061 39.6174 68.6701 39.2447 68.7997C38.8958 68.9227 38.5785 69.1072 38.3119 69.3421C38.0498 69.5792 37.8399 69.8577 37.6929 70.1633C37.3993 70.8292 37.3993 71.5691 37.6929 72.235C37.8376 72.5439 38.0478 72.8252 38.3119 73.0637C38.5785 73.2986 38.8958 73.4831 39.2447 73.6062C39.62 73.7367 40.0204 73.8007 40.4234 73.7945Z" fill="white"/>
<path d="M47.7076 74.8944V67.5114H51.0995C52.036 67.4634 52.9613 67.7116 53.7113 68.212C54.0239 68.448 54.2713 68.7447 54.4345 69.079C54.5977 69.4134 54.6723 69.7766 54.6526 70.1406C54.669 70.6309 54.5182 71.114 54.2201 71.5268C53.9252 71.9261 53.503 72.2382 53.0075 72.4233C52.4094 72.6464 51.7649 72.7542 51.1165 72.7398H48.5725L49.2425 72.1295V74.8944H47.7076ZM49.2509 72.2802L48.581 71.6172H51.0571C51.6073 71.6511 52.1534 71.5124 52.6005 71.2255C52.771 71.0898 52.9051 70.922 52.9932 70.7343C53.0812 70.5466 53.1209 70.3437 53.1093 70.1406C53.1221 69.9374 53.083 69.7343 52.9949 69.5464C52.9068 69.3585 52.7719 69.1908 52.6005 69.0558C52.1523 68.7715 51.6063 68.6356 51.0571 68.6716H48.581L49.2509 67.9935V72.2802ZM53.1517 74.8944L51.0487 72.2124H52.6937L54.8137 74.8944H53.1517Z" fill="white"/>
<path d="M57.5781 74.8944V67.5114H59.1469V73.7342H63.4886V74.8944H57.5781Z" fill="white"/>
<path d="M69.5941 74.9999C68.9828 75.0037 68.3761 74.9066 67.8048 74.7136C67.2716 74.5356 66.7842 74.264 66.3717 73.915C65.9718 73.5709 65.6544 73.1582 65.4389 72.7021C65.2105 72.2259 65.0951 71.713 65.0997 71.1954C65.097 70.6779 65.2124 70.1653 65.4389 69.6886C65.6546 69.237 65.972 68.8293 66.3717 68.4908C66.7824 68.1434 67.2666 67.872 67.7963 67.6922C68.9514 67.3153 70.2197 67.3153 71.3748 67.6922C71.9013 67.8697 72.3827 68.1386 72.791 68.4832C73.1909 68.8245 73.5083 69.2347 73.7237 69.6886C73.9456 70.1663 74.058 70.6786 74.0545 71.1954C74.0601 71.7123 73.9476 72.2249 73.7237 72.7021C73.5083 73.156 73.1909 73.5662 72.791 73.9075C72.3848 74.2563 71.903 74.528 71.3748 74.7061C70.8068 74.9011 70.203 75.0007 69.5941 74.9999ZM69.5941 73.7945C69.9887 73.7997 70.3806 73.7357 70.7473 73.6061C71.0933 73.4858 71.4078 73.3037 71.6716 73.0713C71.9303 72.8332 72.1372 72.5548 72.2822 72.2501C72.5758 71.5763 72.5758 70.8295 72.2822 70.1557C72.149 69.8455 71.9406 69.5651 71.6716 69.3345C71.4078 69.1021 71.0933 68.92 70.7473 68.7997C70.3806 68.6701 69.9887 68.6061 69.5941 68.6113C69.1939 68.6061 68.7965 68.6701 68.4238 68.7997C68.0738 68.9208 67.7561 69.1055 67.4911 69.3421C67.2289 69.5792 67.019 69.8577 66.872 70.1632C66.6423 70.6471 66.5785 71.1805 66.6886 71.6965C66.7987 72.2125 67.0779 72.6881 67.4911 73.0637C67.7561 73.3003 68.0738 73.485 68.4238 73.6061C68.7965 73.7357 69.1939 73.7997 69.5941 73.7945Z" fill="white"/>
<path d="M79.1 74.8944L75.4706 67.5114H77.1666L80.4059 74.1862H79.4137L82.7124 67.5114H84.2388L80.6179 74.8944H79.1Z" fill="white"/>
</svg>
