<svg width="138" height="54" viewBox="0 0 138 54" fill="none" xmlns="http://www.w3.org/2000/svg">
<path d="M130.412 19.1458C133.085 21.8202 134.427 24.9557 127.218 23.1059C122.484 21.807 117.924 19.9418 113.638 17.5509C115.332 17.0087 117.116 16.7969 118.891 16.9271H118.923L119.917 17.0356C119.671 16.9271 119.394 16.8186 119.086 16.7101H119.048C112.361 14.4262 91.9411 12.9399 84.0806 14.41C77.9041 10.1949 64.758 2.01978 49.4662 2.59481C47.5669 2.66408 45.6751 2.87076 43.8058 3.21323C31.7787 5.38314 25.4393 12.4353 25.4393 12.4353C19.3552 12.4353 11.7228 9.72296 9.33806 6.66881C11.8043 8.58376 36.5265 1.31999 47.44 0.397774C53.611 -0.144704 57.6092 -0.453915 63.916 1.72142C68.767 3.39225 74.987 6.54404 84.6129 12.2238C89.5943 11.9254 94.3584 11.8983 98.8455 12.0665C121.498 12.8964 137.023 18.5762 137.023 18.5762C134.843 18.9742 132.629 19.1649 130.412 19.1458Z" fill="url(#paint0_linear_7_15)"/>
<path d="M63.5955 18.7387C48.3091 25.498 31.0454 20.0678 17.5462 16.4712C10.5549 14.6159 4.5794 13.2489 0.401993 14.3013C0.662741 14.1331 6.85553 10.3303 21.2945 13.7914C27.8675 15.37 34.484 16.7207 40.9158 17.6429C48.9012 18.8147 56.6151 19.3083 63.5955 18.7387Z" fill="url(#paint1_linear_7_15)"/>
<path d="M0.369396 17.8274C2.96059 15.2343 10.1475 16.6231 13.7056 17.8274C7.43134 22.5686 1.99676e-06 20.8002 0.369396 17.8274Z" fill="url(#paint2_linear_7_15)"/>
<path d="M92.1747 25.4329C98.9758 16.3573 112.899 18.5543 121.878 26.3334C111.361 21.4511 98.5847 21.9936 92.1747 25.4329Z" fill="url(#paint3_linear_7_15)"/>
<path d="M137.567 20.1058C139.158 26.7891 136.078 33.1252 132.993 37.899C135.453 27.5486 134.829 23.122 133.661 20.4638C134.968 20.4114 136.272 20.2919 137.567 20.1058Z" fill="url(#paint4_linear_7_15)"/>
<path d="M63.8943 1.71037C55.534 0.0829369 50.7374 1.11907 43.7949 3.2076C31.7679 5.37751 25.4284 12.4297 25.4284 12.4297C19.3443 12.4297 11.712 9.71734 9.32721 6.66319C11.7935 8.57814 36.5157 1.31436 47.4291 0.392145C53.6056 -0.139483 57.5874 -0.464965 63.8943 1.71037Z" fill="url(#paint5_linear_7_15)"/>
<path d="M130.412 19.1456C133.085 21.82 134.427 24.9555 127.218 23.1057C122.484 21.8068 117.924 19.9416 113.638 17.5507C115.332 17.0085 117.116 16.7967 118.891 16.9269H118.923L119.917 17.0354L119.086 16.7099H119.048C112.542 14.2867 105.747 12.7237 98.8346 12.0608C121.487 12.8908 137.013 18.5706 137.013 18.5706C134.836 18.9697 132.626 19.1622 130.412 19.1456Z" fill="url(#paint6_linear_7_15)"/>
<path d="M63.5955 18.7387C48.3091 25.498 31.0454 20.0678 17.5462 16.4712C26.2378 18.7876 26.3411 17.1005 40.905 17.6484C48.9012 18.8147 56.6151 19.3083 63.5955 18.7387Z" fill="url(#paint7_linear_7_15)"/>
<path d="M1.30917 42.7271L4.27519 31.7582H6.84465L3.8732 42.7542L1.30917 42.7271Z" fill="url(#paint8_linear_7_15)"/>
<path d="M8.04518 42.7271L11.0112 31.7582H13.1189L15.7155 39.5211H14.5965L21.289 31.7582H23.4131L20.4688 42.7271H18.0949L20.0451 35.3928H20.4688L15.0963 41.5499H13.9609L11.8641 35.3928H12.4073L10.4245 42.7271H8.04518Z" fill="url(#paint9_linear_7_15)"/>
<path d="M26.9114 42.7271L29.3179 33.8033H25.7924L26.3356 31.7311H35.9507L35.4075 33.8033H31.8765L29.47 42.7271H26.9114Z" fill="url(#paint10_linear_7_15)"/>
<path d="M35.9236 42.7271L38.895 31.7582H41.459L38.4876 42.7542L35.9236 42.7271Z" fill="url(#paint11_linear_7_15)"/>
<path d="M41.1114 42.7271L47.5921 36.2174L47.0923 38.0727L44.273 31.7582H47.1575L49.0968 36.1577L47.8637 36.1903L52.1769 31.7582H54.9256L48.7491 37.9804L49.238 36.1577L52.2258 42.7542H49.2869L47.3042 38.0889H48.4667L44.0122 42.7542L41.1114 42.7271Z" fill="url(#paint12_linear_7_15)"/>
<path d="M60.0428 42.917C59.2632 42.9322 58.4886 42.7882 57.7667 42.4939C57.1431 42.2352 56.5941 41.8249 56.1696 41.3004C55.7579 40.7753 55.4885 40.1532 55.3874 39.494C55.283 38.7351 55.3385 37.9627 55.5503 37.2264C55.7774 36.4131 56.1451 35.6458 56.6368 34.9589C57.121 34.2701 57.7113 33.6622 58.386 33.1578C59.0663 32.6478 59.8212 32.2453 60.6241 31.9644C61.4305 31.6819 62.2792 31.5389 63.1338 31.5413C63.9165 31.5251 64.6944 31.6672 65.4207 31.959C66.0432 32.2119 66.5909 32.6189 67.0124 33.1416C67.4241 33.6667 67.6935 34.2888 67.7946 34.948C67.9023 35.7108 67.8449 36.4877 67.6262 37.2264C67.4009 38.042 67.0331 38.8115 66.5398 39.4994C66.0521 40.1935 65.4581 40.8068 64.7797 41.3167C64.1029 41.8264 63.3493 42.2255 62.5471 42.4993C61.7417 42.7777 60.8951 42.9189 60.0428 42.917ZM60.6241 40.7471C61.114 40.748 61.5999 40.6597 62.0582 40.4867C62.5258 40.3113 62.9623 40.0623 63.3511 39.749C63.7482 39.4312 64.096 39.0564 64.3832 38.6369C64.6747 38.2002 64.8914 37.718 65.0242 37.2102C65.1615 36.7497 65.204 36.2662 65.1491 35.7889C65.0947 35.3982 64.9476 35.0262 64.72 34.7039C64.4912 34.3824 64.1822 34.1262 63.8237 33.9607C63.4161 33.7837 62.9751 33.6968 62.5308 33.7058C62.0415 33.7062 61.5561 33.7925 61.0967 33.9607C60.6275 34.1353 60.1906 34.3865 59.8038 34.7039C59.4104 35.0136 59.0645 35.3791 58.7771 35.7889C58.4849 36.224 58.2665 36.7041 58.1306 37.2102C57.9952 37.6729 57.9545 38.1581 58.0111 38.6369C58.0576 39.0361 58.2012 39.4179 58.4294 39.749C58.6544 40.0727 58.9646 40.328 59.3257 40.4867C59.7328 40.6733 60.1762 40.7677 60.6241 40.7634V40.7471Z" fill="url(#paint13_linear_7_15)"/>
<path d="M69.6145 42.7271L72.5805 31.7582H74.6936L79.0394 39.6784H78.0508L80.1693 31.7582H82.6845L79.7185 42.7542H77.6053L73.2595 34.8341H74.2482L72.1079 42.7542L69.6145 42.7271Z" fill="url(#paint14_linear_7_15)"/>
<path d="M89.1706 42.917C88.3845 42.9315 87.6033 42.7895 86.8727 42.4993C86.2518 42.249 85.707 41.8414 85.292 41.3167C84.8885 40.7864 84.6252 40.1633 84.526 39.5048C84.4215 38.7419 84.4789 37.9657 84.6944 37.2264C84.919 36.4088 85.2868 35.6374 85.7809 34.948C86.7625 33.5558 88.1601 32.5095 89.7736 31.9589C90.5901 31.6798 91.4475 31.5387 92.3104 31.5412C93.171 31.5185 94.0259 31.6852 94.8147 32.0295C95.4764 32.3273 96.0315 32.8193 96.4064 33.4399L94.3475 34.948C94.0744 34.5424 93.6999 34.2152 93.2611 33.9986C92.7977 33.7877 92.2927 33.6838 91.7835 33.6949C91.2675 33.6939 90.7551 33.7801 90.2679 33.9498C89.2946 34.2919 88.4593 34.9413 87.8886 35.7997C87.5941 36.2355 87.3756 36.7178 87.2422 37.2264C87.1111 37.6843 87.0705 38.1634 87.1226 38.6368C87.1669 39.0426 87.3167 39.4297 87.5572 39.7598C87.8025 40.0793 88.1236 40.3329 88.4916 40.4975C88.923 40.6849 89.3902 40.7756 89.8605 40.7633C90.3829 40.7614 90.9017 40.6771 91.3978 40.5138C91.9798 40.3182 92.5291 40.0366 93.0275 39.6784L93.9782 41.5174C93.2414 41.9786 92.4419 42.3313 91.6043 42.5644C90.8123 42.7892 89.9939 42.9078 89.1706 42.917ZM93.9999 41.5174L91.7672 41.1756L92.8537 37.0582H95.1841L93.9999 41.5174Z" fill="url(#paint15_linear_7_15)"/>
<path d="M96.1619 42.7271L104.022 31.7582H106.538L108.509 42.7542H105.837L104.414 33.0439H105.435L98.7694 42.7542L96.1619 42.7271ZM99.2637 40.3728L100.432 38.4361H106.13L106.266 40.3728H99.2637Z" fill="url(#paint16_linear_7_15)"/>
<path d="M1.76549 53.9347V49.4538H0V48.6184H4.51964V49.4538H2.75416V53.9347H1.76549Z" fill="white"/>
<path d="M5.00311 53.9347L7.39874 48.6184H8.37111L10.7776 53.9347H9.73462L7.68122 49.1175H8.07778L6.01351 53.913L5.00311 53.9347ZM6.08957 52.7033L6.36118 51.9275H9.22941L9.4956 52.7033H6.08957Z" fill="white"/>
<path d="M13.2113 53.9347V51.8299L13.4394 52.4266L11.1198 48.6293H12.1683L14.037 51.7051H13.4449L15.3081 48.6293H16.2805L13.9718 52.4266L14.1891 51.8299V53.9347H13.2113Z" fill="white"/>
<path d="M19.1487 53.9347V51.8299L19.3769 52.4266L17.0573 48.6293H18.1057L19.9799 51.7051H19.3823L21.2456 48.6293H22.2234L19.9093 52.4266L20.132 51.8299V53.9347H19.1487Z" fill="white"/>
<path d="M25.901 53.9998C25.5098 54.0044 25.1211 53.9363 24.7548 53.7991C24.4139 53.667 24.1021 53.4698 23.8368 53.2186C23.5806 52.9729 23.3772 52.6775 23.2392 52.3506C22.9566 51.6549 22.9566 50.8765 23.2392 50.1807C23.376 49.8532 23.5795 49.5576 23.8368 49.3128C24.1037 49.065 24.4152 48.8699 24.7548 48.7377C25.4921 48.4619 26.3045 48.4619 27.0418 48.7377C27.3774 48.8624 27.684 49.0542 27.9428 49.3014C28.2015 49.5486 28.407 49.846 28.5465 50.1753C28.6889 50.5192 28.761 50.8881 28.7584 51.2603C28.762 51.6325 28.69 52.0016 28.5465 52.3452C28.4081 52.6759 28.2032 52.9746 27.9443 53.2228C27.6854 53.4711 27.3783 53.6635 27.0418 53.7882C26.6781 53.9291 26.2912 54.0009 25.901 53.9998ZM25.901 53.1372C26.1536 53.1383 26.4041 53.0923 26.6398 53.0016C26.8616 52.9127 27.063 52.7798 27.232 52.6111C27.4009 52.4423 27.534 52.2412 27.6231 52.0197C27.7188 51.7799 27.7667 51.5238 27.7643 51.2657C27.7653 51.0099 27.7193 50.7562 27.6285 50.5171C27.5411 50.2948 27.4078 50.0933 27.2374 49.9258C27.0657 49.7578 26.8627 49.6251 26.6398 49.5352C26.4041 49.4445 26.1536 49.3985 25.901 49.3996C25.6449 49.3986 25.3908 49.4445 25.1514 49.5352C24.9278 49.6238 24.7246 49.7566 24.5538 49.9258C24.3783 50.1016 24.2399 50.3108 24.1466 50.5409C24.0533 50.771 24.0071 51.0174 24.0106 51.2657C24.0087 51.522 24.0567 51.7762 24.1518 52.0143C24.2458 52.236 24.3803 52.4384 24.5484 52.611C24.7191 52.7802 24.9224 52.913 25.1459 53.0016C25.3868 53.0948 25.6428 53.1426 25.901 53.1427V53.1372Z" fill="white"/>
<path d="M30.5619 53.9347V48.6184H32.7348C33.3347 48.5838 33.9275 48.7626 34.408 49.1229C34.6078 49.292 34.7661 49.5047 34.8706 49.7445C34.9751 49.9843 35.0232 50.2449 35.0109 50.5062C35.0202 50.852 34.9245 51.1925 34.7364 51.4829C34.5483 51.7734 34.2767 52.0002 33.9571 52.1337C33.574 52.2943 33.1611 52.3719 32.7457 52.3615H31.116L31.5452 51.9221V53.913L30.5619 53.9347ZM31.5506 52.0469L31.1214 51.5695H32.7077C33.0603 51.5957 33.4108 51.4957 33.6963 51.2874C33.8007 51.1863 33.8836 51.0653 33.9402 50.9315C33.9968 50.7978 34.026 50.6541 34.026 50.5089C34.026 50.3638 33.9968 50.2201 33.9402 50.0863C33.8836 49.9526 33.8007 49.8316 33.6963 49.7305C33.4089 49.5266 33.0594 49.4288 32.7077 49.4538H31.1214L31.5506 48.9656V52.0469ZM34.0494 53.9347L32.7022 52.0035H33.7561L35.1142 53.9347H34.0494Z" fill="white"/>
<path d="M36.8851 53.9347V48.6184H37.852V53.0938H40.6333V53.9347H36.8851Z" fill="white"/>
<path d="M44.5826 53.9998C44.1914 54.0044 43.8027 53.9363 43.4364 53.7991C43.0955 53.667 42.7837 53.4698 42.5183 53.2186C42.2621 52.9729 42.0588 52.6775 41.9208 52.3507C41.7773 52.0069 41.7035 51.6381 41.7035 51.2657C41.7035 50.8933 41.7773 50.5245 41.9208 50.1807C42.0576 49.8532 42.2611 49.5576 42.5183 49.3128C42.7842 49.0663 43.0937 48.8713 43.431 48.7377C44.1699 48.4605 44.9844 48.4605 45.7234 48.7377C46.059 48.8624 46.3656 49.0542 46.6243 49.3014C46.8831 49.5486 47.0885 49.846 47.2281 50.1753C47.3705 50.5192 47.4426 50.8881 47.44 51.2603C47.4436 51.6325 47.3715 52.0016 47.2281 52.3452C47.0897 52.6759 46.8847 52.9746 46.6259 53.2228C46.367 53.4711 46.0598 53.6635 45.7234 53.7882C45.3595 53.9286 44.9727 54.0004 44.5826 53.9998ZM44.5826 53.1372C44.8352 53.1383 45.0857 53.0923 45.3214 53.0016C45.5433 52.9129 45.7447 52.78 45.9135 52.611C46.0792 52.4396 46.2118 52.2392 46.3046 52.0197C46.4929 51.5365 46.4929 51.0003 46.3046 50.5171C46.2211 50.2927 46.0874 50.0905 45.9135 49.9258C45.7447 49.7568 45.5433 49.6239 45.3214 49.5352C45.0857 49.4445 44.8352 49.3985 44.5826 49.3996C44.3265 49.3986 44.0724 49.4445 43.8329 49.5352C43.6087 49.6224 43.4052 49.7554 43.2354 49.9258C43.0673 50.0984 42.9328 50.3008 42.8388 50.5225C42.7387 50.7573 42.6887 51.0105 42.6922 51.2657C42.6894 51.5226 42.7393 51.7774 42.8388 52.0143C42.9328 52.2361 43.0673 52.4384 43.2354 52.611C43.4052 52.7814 43.6087 52.9144 43.8329 53.0016C44.072 53.0941 44.3262 53.142 44.5826 53.1427V53.1372Z" fill="white"/>
<path d="M50.6722 53.9347L48.3472 48.6184H49.4336L51.5087 53.4248H50.8894L53.008 48.6184H53.9858L51.6663 53.9347H50.6722Z" fill="white"/>
<defs>
<linearGradient id="paint0_linear_7_15" x1="9.31633" y1="11.8332" x2="137.002" y2="11.8332" gradientUnits="userSpaceOnUse">
<stop stop-color="white"/>
</linearGradient>
<linearGradient id="paint1_linear_7_15" x1="0.385696" y1="17.1656" x2="63.5955" y2="17.1656" gradientUnits="userSpaceOnUse">
<stop offset="1" stop-color="white"/>
</linearGradient>
<linearGradient id="paint2_linear_7_15" x1="0.358531" y1="18.5597" x2="13.711" y2="18.5597" gradientUnits="userSpaceOnUse">
<stop offset="1" stop-color="white"/>
</linearGradient>
<linearGradient id="paint3_linear_7_15" x1="92.1801" y1="22.9212" x2="121.884" y2="22.9212" gradientUnits="userSpaceOnUse">
<stop stop-color="white"/>
</linearGradient>
<linearGradient id="paint4_linear_7_15" x1="106.95" y1="17.0842" x2="137.972" y2="30.1668" gradientUnits="userSpaceOnUse">
<stop offset="1" stop-color="white"/>
</linearGradient>
<linearGradient id="paint5_linear_7_15" x1="9.31634" y1="6.21293" x2="63.8943" y2="6.21293" gradientUnits="userSpaceOnUse">
<stop offset="1" stop-color="white"/>
</linearGradient>
<linearGradient id="paint6_linear_7_15" x1="98.8238" y1="17.8599" x2="137.002" y2="17.8599" gradientUnits="userSpaceOnUse">
<stop stop-color="white"/>
</linearGradient>
<linearGradient id="paint7_linear_7_15" x1="62.1614" y1="21.3101" x2="23.4253" y2="16.8932" gradientUnits="userSpaceOnUse">
<stop offset="1" stop-color="white"/>
</linearGradient>
<linearGradient id="paint8_linear_7_15" x1="1.30917" y1="37.2264" x2="108.509" y2="37.2264" gradientUnits="userSpaceOnUse">
<stop stop-color="#E0E0E0"/>
<stop offset="0.75" stop-color="white"/>
<stop offset="1" stop-color="#EBEDEC"/>
</linearGradient>
<linearGradient id="paint9_linear_7_15" x1="1.30918" y1="37.2264" x2="108.509" y2="37.2264" gradientUnits="userSpaceOnUse">
<stop stop-color="#E0E0E0"/>
<stop offset="0.75" stop-color="white"/>
<stop offset="1" stop-color="#EBEDEC"/>
</linearGradient>
<linearGradient id="paint10_linear_7_15" x1="1.30918" y1="37.2264" x2="108.509" y2="37.2264" gradientUnits="userSpaceOnUse">
<stop stop-color="#E0E0E0"/>
<stop offset="0.75" stop-color="white"/>
<stop offset="1" stop-color="#EBEDEC"/>
</linearGradient>
<linearGradient id="paint11_linear_7_15" x1="1.30916" y1="37.2264" x2="108.509" y2="37.2264" gradientUnits="userSpaceOnUse">
<stop stop-color="#E0E0E0"/>
<stop offset="0.75" stop-color="white"/>
<stop offset="1" stop-color="#EBEDEC"/>
</linearGradient>
<linearGradient id="paint12_linear_7_15" x1="1.30919" y1="37.2264" x2="108.509" y2="37.2264" gradientUnits="userSpaceOnUse">
<stop stop-color="#E0E0E0"/>
<stop offset="0.75" stop-color="white"/>
<stop offset="1" stop-color="#EBEDEC"/>
</linearGradient>
<linearGradient id="paint13_linear_7_15" x1="1.30918" y1="37.2264" x2="108.509" y2="37.2264" gradientUnits="userSpaceOnUse">
<stop stop-color="#E0E0E0"/>
<stop offset="0.75" stop-color="white"/>
<stop offset="1" stop-color="#EBEDEC"/>
</linearGradient>
<linearGradient id="paint14_linear_7_15" x1="1.30918" y1="37.2264" x2="108.509" y2="37.2264" gradientUnits="userSpaceOnUse">
<stop stop-color="#E0E0E0"/>
<stop offset="0.75" stop-color="white"/>
<stop offset="1" stop-color="#EBEDEC"/>
</linearGradient>
<linearGradient id="paint15_linear_7_15" x1="1.30919" y1="37.2264" x2="108.509" y2="37.2264" gradientUnits="userSpaceOnUse">
<stop stop-color="#E0E0E0"/>
<stop offset="0.75" stop-color="white"/>
<stop offset="1" stop-color="#EBEDEC"/>
</linearGradient>
<linearGradient id="paint16_linear_7_15" x1="1.30912" y1="37.2264" x2="108.509" y2="37.2264" gradientUnits="userSpaceOnUse">
<stop stop-color="#E0E0E0"/>
<stop offset="0.75" stop-color="white"/>
<stop offset="1" stop-color="#EBEDEC"/>
</linearGradient>
</defs>
</svg>
