<svg width="257" height="124" viewBox="0 0 257 124" fill="none" xmlns="http://www.w3.org/2000/svg">
<path d="M136.793 122.523C204.703 117.094 258.508 98.2904 256.968 80.5246C255.428 62.7588 199.122 52.7579 131.212 58.1872C63.3018 63.6165 9.49689 82.4193 11.0368 100.185C12.5768 117.951 68.8773 127.952 136.793 122.523Z" fill="#004EB7"/>
<path d="M66.5127 24.1969C66.5127 24.1969 60.9482 24.6845 59.5175 25.6019C58.0868 26.5194 57.1912 29.1407 57.4807 30.9757C57.7701 32.8106 69.123 25.0829 68.9974 25.0829C68.8718 25.0829 66.5127 24.1969 66.5127 24.1969Z" fill="#254370"/>
<path d="M68.2 24.8155C67.4738 24.5586 66.5126 24.1969 66.5126 24.1969C64.8744 24.3458 63.2471 24.5807 61.6362 24.8994C60.9591 25.8143 60.5331 26.8748 60.3857 27.9873C60.3311 28.359 60.3912 28.7381 60.5604 29.0768C60.7297 29.4154 60.9973 29.6985 61.3358 29.8904C63.1215 28.9258 65.1583 27.6413 66.7147 26.64L68.2 24.8155Z" fill="#192D4B"/>
<path d="M192.039 83.481C200.23 83.8479 236.392 86.5584 244.687 87.4287C252.981 88.299 250.06 90.2597 235.682 94.7684C221.304 99.2771 162.508 110.281 140.495 112.116C118.483 113.951 104.279 116.269 56.9456 110.952C9.61166 105.636 5.03553 98.1552 48.536 96.2154C92.0364 94.2756 192.039 83.481 192.039 83.481Z" fill="#0032A1"/>
<path d="M137.071 53.6133C136.591 53.7968 130.196 62.1327 130.196 62.1327L151.193 72.1986L155.392 90.8886L247.958 74.217L250.655 71.3755L249.869 52.6854L244.768 42.4937L137.071 53.6133Z" fill="#192D4B"/>
<path d="M136.367 110.842C149.052 110.842 159.335 99.3431 159.335 85.1585C159.335 70.974 149.052 59.4747 136.367 59.4747C123.682 59.4747 113.399 70.974 113.399 85.1585C113.399 99.3431 123.682 110.842 136.367 110.842Z" fill="#14233B"/>
<path d="M122.011 110.842C134.696 110.842 144.979 99.3431 144.979 85.1585C144.979 70.974 134.696 59.4747 122.011 59.4747C109.325 59.4747 99.0426 70.974 99.0426 85.1585C99.0426 99.3431 109.325 110.842 122.011 110.842Z" fill="#14233B"/>
<path d="M136.367 59.4747H122.01V110.842H136.367V59.4747Z" fill="#14233B"/>
<path d="M136.367 102.506C144.935 102.506 151.881 94.7395 151.881 85.1585C151.881 75.5775 144.935 67.8105 136.367 67.8105C127.799 67.8105 120.853 75.5775 120.853 85.1585C120.853 94.7395 127.799 102.506 136.367 102.506Z" fill="#8B99B9"/>
<path d="M136.367 89.772C138.644 89.772 140.49 87.7064 140.49 85.1585C140.49 82.6105 138.644 80.5449 136.367 80.5449C134.09 80.5449 132.244 82.6105 132.244 85.1585C132.244 87.7064 134.09 89.772 136.367 89.772Z" fill="#14233B"/>
<path d="M238.915 92.5192C243.665 92.5192 247.515 83.4541 247.515 72.272C247.515 61.09 243.665 52.0249 238.915 52.0249C234.164 52.0249 230.314 61.09 230.314 72.272C230.314 83.4541 234.164 92.5192 238.915 92.5192Z" fill="#14233B"/>
<path d="M228.468 92.5192C233.552 92.5192 237.669 83.4541 237.669 72.272C237.669 61.09 233.552 52.0249 228.468 52.0249C223.384 52.0249 219.267 61.09 219.267 72.272C219.267 83.4541 223.384 92.5192 228.468 92.5192Z" fill="#14233B"/>
<path d="M238.914 52.0249H228.468V92.5192H238.914V52.0249Z" fill="#14233B"/>
<path d="M239.346 85.945C242.557 85.945 245.156 79.8236 245.156 72.2721C245.156 64.7206 242.557 58.5992 239.346 58.5992C236.135 58.5992 233.536 64.7206 233.536 72.2721C233.536 79.8236 236.135 85.945 239.346 85.945Z" fill="#8B99B9"/>
<path d="M239.936 75.9052C240.788 75.9052 241.481 74.2784 241.481 72.2721C241.481 70.2657 240.788 68.6389 239.936 68.6389C239.084 68.6389 238.39 70.2657 238.39 72.2721C238.39 74.2784 239.084 75.9052 239.936 75.9052Z" fill="#14233B"/>
<path d="M50.4144 102.543C63.0998 102.543 73.3824 91.0439 73.3824 76.8593C73.3824 62.6748 63.0998 51.1755 50.4144 51.1755C37.7291 51.1755 27.4465 62.6748 27.4465 76.8593C27.4465 91.0439 37.7291 102.543 50.4144 102.543Z" fill="#14233B"/>
<path d="M36.0581 102.543C48.7434 102.543 59.026 91.0439 59.026 76.8593C59.026 62.6748 48.7434 51.1755 36.0581 51.1755C23.3727 51.1755 13.0901 62.6748 13.0901 76.8593C13.0901 91.0439 23.3727 102.543 36.0581 102.543Z" fill="#14233B"/>
<path d="M50.4144 51.1755H36.0581V102.543H50.4144V51.1755Z" fill="#14233B"/>
<path d="M7.18698 92.3672V95.2978C7.18698 95.2978 16.4702 99.4238 43.0368 101.133C69.6034 102.842 119.001 102.706 119.001 102.706L119.635 97.526L122.311 96.231C122.311 96.231 123.479 78.9303 128.367 68.7333C133.254 58.5363 139.643 55.0709 144.514 54.9713C149.385 54.8717 155.201 57.7185 157.205 69.2628C159.209 80.8071 157.205 93.5416 157.205 93.5416C157.205 93.5416 212.746 83.7378 218.366 82.9147C223.985 82.0916 225.759 82.3642 226.764 80.9434C227.769 79.5227 228.037 77.9656 228.992 71.2498C229.948 64.5339 231.406 56.8954 234.715 51.5793C238.024 46.2633 244.577 44.1924 247.504 51.7628C250.431 59.3332 248.968 70.5787 248.394 71.8579C247.821 73.1371 246.292 75.9524 246.292 75.9524C246.292 75.9524 252.403 72.1043 253.74 71.3074C255.078 70.5106 255.455 70.3323 255.712 66.589C255.843 64.1281 255.843 61.663 255.712 59.2021C255.712 57.7342 256.727 53.3985 256.602 47.8413C256.476 42.2841 255.903 37.8226 255.204 35.7832C254.592 34.3074 253.609 33.0009 252.337 31.9822C252.135 31.8176 251.911 31.6797 251.671 31.5733C251.671 31.5733 252.146 30.5615 250.906 29.7384C249.667 28.9153 247.805 29.0988 242.557 25.387C237.309 21.6752 226.721 11.1689 211.365 6.46623C196.009 1.76357 185.667 0.604942 170.841 0.175044C156.015 -0.254855 138.966 0.143586 127.04 0.971926C115.113 1.80027 102.608 3.9917 96.6888 6.28274C90.7694 8.57378 73.3113 18.4667 65.6772 24.7893C58.0431 31.112 52.413 29.7384 44.6805 31.9351C36.9481 34.1317 28.5222 37.0047 23.6239 39.7991C18.7256 42.5934 13.3139 45.7233 10.5781 47.3118C7.84225 48.9003 5.93641 50.3053 5.42856 53.8494C5.15552 55.3829 5.00811 56.9336 4.98081 58.4891C3.42995 60.1196 2.43064 62.1663 2.11937 64.3557C1.67159 67.8997 0.781486 74.5526 0.481144 75.5959C0.180802 76.6392 -0.40896 76.0835 0.481144 77.8555C1.37125 79.6275 1.51324 84.0523 1.51324 84.0523C1.51324 84.0523 0.322771 86.3906 0.606731 87.4443C0.890691 88.4981 3.23338 91.4759 4.52212 92.0212C5.35762 92.3719 6.28049 92.492 7.18698 92.3672Z" fill="#C9CDD8"/>
<path d="M82.1797 86.1179C82.1797 86.1179 84.151 78.0756 91.8561 75.9681C99.5613 73.8605 115.103 69.7818 119.641 69.3466C124.178 68.9115 124.473 70.3689 118.548 72.6652C114.595 74.1426 110.505 75.2656 106.333 76.0205L82.1797 86.1179Z" fill="#DADDE5"/>
<path d="M1.49146 69.3047C1.09283 72.1934 0.672358 75.0139 0.47577 75.664C0.159046 76.7126 -0.414334 76.1516 0.47577 77.9236C0.967239 79.1861 1.25664 80.5109 1.34401 81.8556C2.76381 81.4572 4.01979 80.8647 4.14539 79.9945C4.44027 77.8974 3.71944 76.4557 2.84572 74.4006C2.26142 72.7365 1.80819 71.0332 1.49146 69.3047Z" fill="#DADDE5"/>
<path d="M77.5216 62.5312L73.011 61.1629C73.011 61.1629 70.0076 62.2638 68.2547 63.0817C66.5018 63.8995 62.7557 64.8327 68.2056 66.5314C73.6554 68.23 78.7121 70.7884 84.4841 70.7255C90.2561 70.6626 106.578 68.6599 113.115 67.4278C119.651 66.1958 123.168 52.4443 123.168 52.4443L89.6827 60.8011L77.5216 62.5312Z" fill="#DADDE5"/>
<path d="M11.8123 61.9703C11.8123 61.9703 11.8942 61.1576 11.8778 60.885C11.8014 59.7211 9.50786 56.1666 9.50786 56.1666L5.02453 57.5559C4.99723 57.8857 4.98634 58.216 4.9918 58.5468C4.18361 59.394 3.51741 60.3608 3.02594 61.4093C3.20615 62.2534 3.40269 63.2232 3.52829 63.9834C3.81771 65.6925 4.89896 63.0398 7.85324 62.2114C10.8075 61.3831 11.8123 61.9703 11.8123 61.9703Z" fill="#DADDE5"/>
<path d="M184.498 81.3053C193.568 79.3707 207.499 76.5869 212.839 73.4937C218.18 70.4006 222.543 67.0819 224.515 65.7975C226.486 64.513 229.162 62.3164 221.047 63.9626C212.932 65.6088 191.657 71.3023 182.778 73.7663C173.899 76.2304 167.488 79.9055 163.933 82.6527C160.378 85.3998 158.543 86.5008 165.795 85.405C173.047 84.3093 179.239 82.4325 184.498 81.3053Z" fill="#DADDE5"/>
<path d="M139.075 45.9854C133.068 47.9147 127.717 54.6882 124.473 62.3844C121.23 70.0806 125.904 66.2325 130.005 61.058C134.106 55.8835 138.879 50.6566 146.753 51.574C154.628 52.4915 156.73 59.5429 157.97 63.4382C159.209 67.3335 159.242 60.1825 158.461 55.1915C157.68 50.2005 152.432 41.7021 139.075 45.9854Z" fill="#DADDE5"/>
<path d="M252.348 32.0347C252.146 31.8701 251.922 31.7322 251.682 31.6257C251.682 31.6257 252.157 30.6139 250.917 29.7908C249.678 28.9677 247.816 29.1512 242.568 25.4394C237.32 21.7276 226.731 11.2213 211.376 6.51865C208.804 5.73225 206.385 5.05071 204.048 4.42159C196.807 3.28918 187.305 2.49229 180.965 4.58411C169.497 8.3798 165.571 16.2962 160.76 23.7618C155.949 31.2273 152.23 31.7463 138.748 34.483C125.265 37.2197 99.9381 43.8149 95.2309 45.2776C90.5237 46.7403 105.655 45.2776 116.157 43.1806C126.658 41.0835 148.031 37.183 152.487 40.4229C156.943 43.6629 156.686 46.604 172.211 43.794C187.736 40.9839 210.508 43.6681 220.686 46.8452C230.865 50.0222 232.285 51.7313 234.573 48.5281C236.861 45.3248 239.772 43.9879 242.158 44.0823C244.545 44.1767 247.22 46.5097 248.46 50.1743C249.699 53.8389 251.13 47.5162 251.704 44.7691C252.004 43.3274 252.987 38.1057 253.85 33.4502C253.396 32.9359 252.894 32.462 252.348 32.0347Z" fill="#DADDE5"/>
<path d="M225.077 33.8381C219.845 34.6455 212.714 35.9352 219.485 35.715C224.946 35.5263 243.299 34.1422 253.342 32.9312C253.036 32.6145 252.714 32.3152 252.37 32.0347C252.168 31.8701 251.944 31.7322 251.704 31.6257C251.802 31.3725 251.818 31.0968 251.753 30.8341L249.891 31.0071C239.351 32.0189 230.308 33.036 225.077 33.8381Z" fill="#C9CDD8"/>
<path d="M62.0295 28.8733C60.8772 28.8219 59.7251 28.8676 58.5838 29.0096C55.624 30.0582 52.7844 30.3989 49.7263 30.9075L49.3223 31.2587C49.3223 31.2587 39.411 33.3558 33.8793 37.0728C29.4724 40.0507 25.4096 43.3903 31.3727 40.7427C37.3359 38.0952 52.4185 33.7909 59.8616 33.4659C67.3046 33.1408 77.6964 32.8315 72.7435 34.3309C54.723 39.7885 49.8684 42.4466 44.5004 45.6761C41.77 47.3275 65.7647 39.432 70.936 38.1371C77.7401 36.4385 90.3217 33.8801 95.6132 33.7857C100.905 33.6913 106.071 33.922 102.712 35.6626C99.3538 37.4031 93.2104 40.5225 89.3879 41.6654C85.5653 42.8083 108.238 36.947 108.238 36.947L119.215 35.1593C119.215 35.1593 132.031 33.9849 137.661 32.2758C143.291 30.5667 142.974 29.7331 142.974 29.7331L62.0295 28.8733Z" fill="#DADDE5"/>
<path d="M256.334 42.6039C256.22 40.3176 255.854 38.0491 255.242 35.8356C254.631 34.3598 253.648 33.0533 252.375 32.0347C252.173 31.8701 251.949 31.7322 251.709 31.6258H251.567C251.567 31.6258 249.694 30.8446 250.382 33.0885C251.07 35.3323 254.095 38.0847 254.805 39.4111C255.22 40.2185 255.761 42.2264 256.334 42.6039Z" fill="#A04040"/>
<path d="M126.816 32.045C122.191 32.045 117.325 31.7777 111.695 31.4736C104.64 31.0856 96.6506 30.6557 87.1543 30.6557C76.555 30.6557 69.8601 30.5561 65.8574 30.4985C64.0062 30.4722 62.6628 30.4513 61.6908 30.4513C61.1447 30.4513 60.7352 30.4513 60.3966 30.4513H59.7195C59.5065 30.4513 59.3263 30.4513 59.1734 30.4513C59.5229 30.2625 60.0308 30.0109 60.7734 29.6963C64.0062 28.2604 67.0478 26.4506 69.8274 24.3069C70.2424 24.0028 70.6137 23.7302 70.9195 23.5047L72.1864 22.603C75.0205 20.5232 77.9748 18.5976 81.0329 16.8361C86.4499 13.7639 96.5523 8.63133 97.7974 8.00221C99.3919 7.78202 114.464 5.79504 128.432 5.79504C129.524 5.79504 130.573 5.79505 131.589 5.83175C144.694 6.13582 163.398 7.27872 169.077 7.64046C166.264 10.6324 163.671 13.81 161.322 17.1506C160.23 18.7234 159.367 20.2386 158.537 21.6751C156.643 24.957 155.141 27.5416 152.116 29.2402C147.692 31.7147 139.288 31.8615 128.634 32.0346C128.045 32.0398 127.433 32.045 126.816 32.045Z" fill="#254370"/>
<path d="M129.415 9.59084C99.4356 12.4743 61.3359 29.8904 61.3359 29.8904L61.7018 30.4514C62.6738 30.4514 64.0171 30.4514 65.8629 30.4986C69.8656 30.5562 76.5605 30.6558 87.1598 30.6558C96.6561 30.6558 104.634 31.0857 111.7 31.4737C117.331 31.7778 122.196 32.0452 126.821 32.0452C127.433 32.0452 128.045 32.0452 128.651 32.0452C139.288 31.8669 147.692 31.7254 152.132 29.2508C155.157 27.5522 156.659 24.9676 158.554 21.6857C159.384 20.2492 160.247 18.7603 161.339 17.1612C163.359 14.283 165.571 11.5317 167.957 8.92502C164.948 8.41648 154.191 7.1897 129.415 9.59084Z" fill="#192D4B"/>
<path d="M128.454 6.59208C129.546 6.59208 130.584 6.59208 131.594 6.62353C143.608 6.90664 160.318 7.89226 167.379 8.33264C164.949 10.987 162.699 13.7887 160.645 16.7209C159.553 18.3514 158.625 19.9189 157.828 21.303C155.993 24.4486 154.551 26.9808 151.712 28.5641C147.474 30.939 139.152 31.0753 128.64 31.2535C128.039 31.2535 127.433 31.2535 126.827 31.2535C122.224 31.2535 117.374 30.9862 111.755 30.6821C104.689 30.2994 96.6836 29.8642 87.1818 29.8642C76.5879 29.8642 69.8985 29.7646 65.8849 29.707L62.7831 29.665C65.4534 28.3255 67.9817 26.7459 70.3408 24.9466C70.7503 24.6478 71.1108 24.3804 71.4329 24.155C71.7551 23.9296 72.2302 23.594 72.7217 23.2428C75.523 21.1803 78.4391 19.2688 81.4589 17.5178C86.7121 14.5399 96.3832 9.6171 98.0596 8.76778C100.244 8.4742 114.868 6.58684 128.438 6.58684M128.438 5.01404C113.508 5.01404 97.5518 7.24741 97.5518 7.24741C97.5518 7.24741 86.461 12.8571 80.6234 16.1599C77.1067 18.2177 73.7047 20.4594 70.4446 22.8758C68.5988 24.1602 65.2896 26.9074 60.4241 28.9887C56.0555 30.8499 57.6937 31.2588 59.7087 31.2588H60.4241C60.7517 31.2588 61.1613 31.2588 61.68 31.2588C64.7981 31.2588 71.7661 31.4633 87.1436 31.4633C104.072 31.4633 116.266 32.8526 126.805 32.8526C127.422 32.8526 128.039 32.8526 128.645 32.8526C139.616 32.6691 147.933 32.517 152.514 29.9481C157.096 27.3792 158.368 22.923 161.994 17.6122C164.654 13.8694 167.613 10.3275 170.835 7.01673C170.835 7.01673 147.354 5.44394 131.611 5.09268C130.562 5.06647 129.503 5.05598 128.432 5.05598L128.438 5.01404Z" fill="#192D4B"/>
<path d="M157.97 37.7964C157.948 37.7964 157.931 37.7917 157.91 37.7828C157.893 37.7733 157.877 37.7602 157.866 37.744C157.855 37.7251 157.849 37.7031 157.849 37.6811C157.849 37.659 157.855 37.637 157.866 37.6182C157.926 37.4976 163.725 25.1878 166.843 20.3174C167.084 19.9399 167.329 19.5415 167.592 19.1221C170.841 13.8794 175.755 6.01541 186.316 5.00882C197.495 3.96028 212.572 7.6983 221.691 11.9291C230.429 15.9922 234.639 22.1523 234.835 22.7238L234.879 22.8496C235.026 23.1332 235.108 23.4441 235.119 23.7613C235.125 24.0779 235.065 24.393 234.934 24.6845C234.743 24.9383 234.497 25.149 234.218 25.3032C233.934 25.4568 233.618 25.5501 233.295 25.5758C232.678 25.6806 232.001 25.8641 231.062 26.1C228.386 26.8183 223.472 28.1604 212.097 29.7332C197.003 31.8303 158.379 37.7335 157.991 37.7964H157.97ZM190.319 5.056C188.943 5.056 187.611 5.11524 186.322 5.23425C175.892 6.20938 171.032 14.0419 167.799 19.2269C167.537 19.6463 167.291 20.0448 167.051 20.4222C164.168 24.9467 158.974 35.8514 158.188 37.5081C161.465 36.9838 197.587 31.479 212.058 29.4816C223.428 27.9088 228.343 26.5771 230.98 25.8536C231.925 25.5967 232.618 25.408 233.241 25.2979C233.525 25.279 233.803 25.2004 234.054 25.0683C234.306 24.9362 234.524 24.7532 234.693 24.5325C234.797 24.2714 234.846 23.992 234.835 23.712C234.819 23.432 234.748 23.1579 234.617 22.9073L234.573 22.7762C234.377 22.2152 230.243 16.1547 221.566 12.1283C213.527 8.40082 200.842 5.056 190.319 5.056Z" fill="#9DA4B9"/>
<path d="M162.131 34.6455C164.102 30.6034 167.111 24.6058 169.033 21.5861C169.279 21.2033 169.53 20.7944 169.798 20.3697C172.779 15.5727 177.29 8.31163 186.551 7.45708C187.725 7.34698 188.981 7.29456 190.286 7.29456C200.935 7.29456 213.44 10.8438 220.55 14.1415C226.633 16.962 231.177 21.3763 231.029 23.2952C231.029 23.4577 230.985 23.8456 230.155 24.092C227.829 24.7264 223.799 25.6072 211.725 27.2743C199.936 28.8996 174.188 32.8053 162.131 34.6455Z" fill="#254370"/>
<path d="M230.155 24.0922C230.985 23.8458 231.018 23.4578 231.029 23.2953C231.029 23.2602 231.029 23.2256 231.029 23.1904C215.804 15.6043 202.426 18.4091 194.333 19.6149C185.552 20.9204 166.592 33.8225 166.592 33.8225L166.619 33.9641C179.725 31.9666 201.246 28.7214 211.731 27.2745C223.799 25.6073 227.84 24.7265 230.155 24.0922Z" fill="#192D4B"/>
<path d="M190.286 8.08099C200.809 8.08099 213.167 11.5883 220.195 14.8493C226.704 17.869 230.347 22.1366 230.216 23.2375C230.128 23.2936 230.035 23.3361 229.932 23.3633C227.605 23.9925 223.603 24.8627 211.611 26.5089C200.099 28.0817 174.762 31.9403 163.556 33.6494C165.489 29.7332 168.061 24.6793 169.759 22.0107C170.005 21.628 170.262 21.2191 170.529 20.7892C173.598 15.8506 177.809 9.08234 186.655 8.254C187.802 8.14915 189.03 8.09672 190.314 8.09672M190.314 6.52393C188.981 6.52393 187.693 6.57635 186.491 6.69169C176.82 7.59867 172.184 15.0485 169.115 19.9818C168.853 20.4065 168.602 20.8102 168.356 21.1876C166.172 24.6059 162.644 31.7726 160.76 35.6679C170.202 34.2261 199.248 29.8066 211.867 28.066C223.138 26.4932 227.633 25.6177 230.434 24.8575C234.803 23.5521 228.643 17.0197 220.943 13.4495C213.751 10.1099 201.099 6.52393 190.319 6.52393H190.314Z" fill="#192D4B"/>
<path d="M170.944 7.06379L170.759 6.89078C170.791 6.85408 174.357 3.39917 181.904 2.42404C189.451 1.4489 199.122 3.14228 199.22 3.15801L199.171 3.40441C199.073 3.40441 189.418 1.71103 181.937 2.67568C174.456 3.64033 170.983 7.03233 170.944 7.06379Z" fill="#9DA4B9"/>
<path d="M200.749 21.0723C198.8 13.6015 196.719 9.0142 195.545 6.7651C194.245 6.64452 192.957 6.56063 191.684 6.52917C192.902 9.64961 193.951 12.8272 194.835 16.0498C196.075 20.6733 196.916 25.3865 197.353 30.1421C199.166 29.8747 200.929 29.6178 202.611 29.3714C202.213 27.1643 201.628 24.4224 200.749 21.0723Z" fill="#192D4B"/>
<path d="M221.074 13.5124L220.91 13.4337C219.818 12.9095 218.622 12.4271 217.323 11.9238C217.754 13.0929 218.415 14.8073 219.332 17.329C220.474 20.3268 221.325 23.4168 221.893 26.5613C223.597 26.2782 225.006 26.0371 226.196 25.7959L225.65 23.615C224.809 20.4589 222.379 15.8558 221.074 13.5124Z" fill="#192D4B"/>
<path d="M160.738 35.6521L167.701 34.6036L166.8 23.7985C164.736 27.4893 162.224 32.5799 160.738 35.6521Z" fill="#192D4B"/>
<path d="M166.27 31.762C166.27 31.762 161.901 33.2667 161.323 34.462C160.744 35.6573 159.99 36.559 161.869 36.6639C163.747 36.7688 167.1 37.5866 167.537 36.0715C167.974 34.5564 167.881 34.3729 167.881 34.3729C167.881 34.3729 180.004 34.7398 183.439 34.5983C186.873 34.4567 187.66 33.6389 188.555 32.2653C189.304 30.9672 189.62 29.4783 189.451 28.003C189.309 27.0856 189.402 25.906 185.082 25.67C180.763 25.4341 174.822 25.4394 172.768 25.9898C170.715 26.5403 170.529 26.7238 169.432 27.9558C168.334 29.1879 166.27 31.762 166.27 31.762Z" fill="#192D4B"/>
<path d="M175.291 26.9964C179.66 26.9964 182.969 26.9493 184.498 26.9964C186.027 27.0436 187.6 27.2691 186.169 28.4644C184.809 29.721 183.073 30.5368 181.205 30.7974C178.726 31.2587 173.238 31.6257 171.665 31.7148C170.093 31.804 167.75 32.2391 169.481 30.2469C171.212 28.2547 172.233 27.0017 175.291 26.9964Z" fill="#254370"/>
<path d="M162.901 88.7341C162.863 88.5066 162.863 88.2749 162.901 88.0473C162.934 87.8685 162.983 87.6929 163.048 87.5231C163.359 86.7875 163.42 85.9749 163.212 85.2058C162.977 84.5651 162.873 83.8867 162.912 83.2083C162.912 82.9514 162.912 82.6526 162.912 82.2804C162.912 81.9082 162.912 80.7076 163.01 78.9932C163.147 75.6065 163.381 69.9339 163.294 64.0726C163.163 57.8292 162.546 51.6045 161.437 45.4507C161.061 43.5214 157.904 37.8017 157.871 37.744L158.101 37.6287C158.232 37.8646 161.312 43.4375 161.694 45.4035C162.802 51.5726 163.425 57.8134 163.556 64.0726C163.638 69.9392 163.409 75.6065 163.267 79.0037C163.201 80.6604 163.152 81.8505 163.174 82.2699C163.196 82.6893 163.174 82.9514 163.174 83.2136C163.136 83.8637 163.234 84.5143 163.463 85.1272C163.687 85.9476 163.627 86.8153 163.299 87.6017C163.239 87.7595 163.19 87.9225 163.163 88.0893C163.136 88.2874 163.136 88.4888 163.163 88.6869L162.901 88.7341Z" fill="#9DA4B9"/>
<path d="M157.686 89.8349L157.636 89.5885C157.975 89.5256 191.493 83.0351 199.013 81.7245C205.374 80.6025 214.226 78.883 218.48 78.0546L220.353 77.6929C221.369 77.502 222.325 77.0753 223.133 76.4504C223.936 75.8254 224.575 75.0212 224.984 74.1069C225.574 72.5341 227.917 65.0738 229.271 60.1929C230.505 56.0213 231.996 51.9247 233.743 47.925L234.071 47.1386C235.267 44.2709 235.988 42.5408 235.66 38.6141C235.332 34.6873 234.775 33.0044 233.268 31.5994C231.777 30.0308 230.385 28.3783 229.102 26.6503L229.314 26.5035C230.587 28.2205 231.968 29.8625 233.448 31.4212C235.01 32.8786 235.589 34.5667 235.922 38.5931C236.255 42.6195 235.523 44.3286 234.284 47.233L233.956 48.0194C232.22 52.0096 230.729 56.0957 229.495 60.2558C228.14 65.1419 225.792 72.6232 225.197 74.1908C224.771 75.1455 224.116 75.9859 223.275 76.6396C222.434 77.2929 221.44 77.739 220.381 77.9393L218.502 78.301C214.248 79.1294 205.396 80.8489 199.029 81.9709C191.515 83.2815 158.024 89.772 157.686 89.8349Z" fill="#9DA4B9"/>
<path d="M203.573 81.0798L203.332 80.9855C203.693 80.1136 204.004 79.2229 204.255 78.3169C204.501 77.41 204.506 77.1111 204.528 74.7991C204.528 73.6143 204.566 71.8213 204.632 69.1213C204.697 66.2903 204.845 63.1342 204.987 60.0777C205.233 54.6149 205.495 48.9685 205.331 44.9422C205.08 38.7506 201.312 31.3847 201.273 31.3113L201.508 31.1959C201.547 31.2746 205.331 38.6877 205.593 44.9317C205.757 48.9685 205.495 54.6201 205.243 60.0882C205.107 63.1447 204.96 66.3008 204.894 69.1318C204.828 71.8213 204.807 73.6143 204.79 74.7991C204.79 77.1426 204.79 77.4205 204.506 78.3799C204.25 79.2963 203.938 80.198 203.573 81.0798Z" fill="#9DA4B9"/>
<path d="M122.404 54.0066C125.014 50.7089 120.274 51.7784 117.888 52.1454C115.501 52.5124 104.432 53.7968 92.2221 54.6252C80.0118 55.4535 40.596 55.5374 35.8233 55.3539C31.0506 55.1704 14.925 54.253 10.2451 52.0301C8.22461 51.0654 7.91876 49.933 8.2191 48.9474C8.01705 49.1099 7.82049 49.2829 7.63483 49.4717C7.70582 50.1081 7.91332 50.7236 8.24096 51.2804C9.10376 52.8532 11.9324 56.3762 12.8226 57.7184C13.7127 59.0605 15.3072 60.4708 16.8963 60.8325C18.4853 61.1942 28.3639 62.4839 33.2458 62.788C38.1277 63.0921 49.4698 63.0973 54.6247 63.0973C59.7797 63.0973 61.9366 62.8509 63.5912 62.4839C65.2459 62.117 71.6076 60.1457 75.3319 58.8508C80.1865 57.1574 82.3763 56.5073 84.3476 56.3186C86.3189 56.1298 93.9422 55.5217 93.9422 55.5217L92.7299 56.6226C92.7299 56.6226 84.5879 57.4772 82.5838 57.6712C80.5797 57.8652 71.5476 61.8234 71.5476 61.8234C74.065 62.8992 76.6862 63.7385 79.3729 64.3294C83.3155 65.121 86.7504 65.9755 97.1203 64.6911C107.49 63.4066 111.182 62.1274 114.999 60.9688C118.816 59.8102 119.793 57.3094 122.404 54.0066Z" fill="#14233B"/>
<path d="M35.5283 66.0699C43.5229 66.6833 58.4635 65.4303 62.3461 66.2534C66.2287 67.0765 72.2738 69.1893 74.3598 69.9233C76.4458 70.6572 78.0349 71.8054 76.6479 73.5931C75.2609 75.3809 69.8765 81.7926 66.5345 84.4507C63.1926 87.1087 62.3025 88.3774 56.2574 88.6815C50.2124 88.9856 35.2007 89.3526 31.0014 88.6815C26.8021 88.0104 17.3877 85.8085 15.0996 84.4874C12.8116 83.1662 11.3426 82.9146 8.98902 77.0952C6.63543 71.2759 4.92076 67.2181 7.84227 65.834C10.6928 64.5197 13.8491 63.9398 17.0054 64.1511C19.6867 64.3608 20.2928 64.9113 35.5283 66.0699Z" fill="#14233B"/>
<path d="M249.978 73.6614C251.54 72.6863 253.14 71.6849 253.751 71.3232C255.084 70.5315 255.466 70.3481 255.723 66.6048C255.821 65.1631 255.843 63.9468 255.832 62.9349C255.204 64.7227 254.27 67.0714 253.271 68.4607C252.413 69.6455 251.103 71.7741 249.978 73.6614Z" fill="#14233B"/>
<path d="M159.581 34.0846C159.226 32.9406 158.647 31.8727 157.871 30.939C156.555 29.2928 154.104 28.973 154.082 28.9677L154.114 28.7213C154.218 28.7213 156.692 29.0568 158.079 30.7869C158.871 31.7411 159.471 32.8321 159.837 34.0007L159.581 34.0846Z" fill="#9DA4B9"/>
<path d="M60.9373 47.8727C52.7462 47.8727 45.811 47.7836 42.4854 47.5057C32.5468 46.6826 22.7884 45.7599 20.4348 45.4926C20.2382 45.4663 20.0362 45.4454 19.8396 45.4296C18.6601 45.3091 17.6553 45.2095 17.4915 44.6328C17.3768 44.2134 17.6444 43.4689 20.768 41.3928L20.9153 41.5973C18.6928 43.0862 17.6389 44.0875 17.7591 44.5699C17.8683 44.9735 18.8895 45.0941 19.8833 45.178L20.484 45.2409C22.8321 45.5135 32.585 46.431 42.5236 47.2541C49.9284 47.8727 75.4029 47.5739 92.2657 47.3747C97.9176 47.3065 102.385 47.2541 104.733 47.2541C109.604 47.3264 114.447 46.6318 119.083 45.199C120.356 44.8477 121.677 44.4807 123.152 44.1504C129.028 42.8083 137.219 41.1359 141.129 40.36C144.694 39.6575 144.809 39.3796 145.552 37.5604C145.628 37.3717 145.71 37.1672 145.808 36.9418C146.426 35.304 146.704 33.5655 146.628 31.825H146.884C146.972 33.6085 146.688 35.391 146.049 37.0676L145.792 37.6862C145.028 39.5684 144.886 39.9039 141.183 40.6379C137.273 41.4138 129.082 43.0862 123.212 44.4231C121.743 44.7586 120.427 45.1256 119.154 45.4716C114.496 46.9117 109.625 47.6095 104.733 47.5372C102.39 47.5372 97.923 47.5896 92.2657 47.6578C82.9442 47.7364 71.0124 47.8727 60.9373 47.8727Z" fill="#9DA4B9"/>
<path d="M122.688 51.9411C122.404 51.0241 122.005 50.1439 121.497 49.3198C120.629 47.8885 117.8 45.7652 117.773 45.739L117.931 45.545C118.051 45.6342 120.831 47.7207 121.721 49.2149C122.245 50.049 122.655 50.9445 122.939 51.8782L122.688 51.9411Z" fill="#9DA4B9"/>
<path d="M128.793 67.6428C128.733 67.1715 128.542 66.7238 128.247 66.3426L128.039 66.1329C127.247 65.2967 126.352 64.5528 125.38 63.9153C123.682 62.7671 118.314 59.4328 118.281 59.3961L118.423 59.1864C118.477 59.2179 123.851 62.5627 125.522 63.7108C126.521 64.3562 127.439 65.1111 128.252 65.9599L128.454 66.1696C128.804 66.5833 129.028 67.0829 129.099 67.6114L128.793 67.6428Z" fill="#9DA4B9"/>
<path d="M119.002 102.722L119.635 97.5418L122.311 96.2468L108.724 97.222C102.428 97.6833 95.5585 98.6899 93.1721 97.222C90.7858 95.754 91.5339 95.5758 93.8383 94.1969C96.1428 92.8181 98.2069 92.8234 101.762 92.5507C105.317 92.2781 105.584 92.0946 107.676 89.0487C109.767 86.0027 111.018 78.8097 111.302 76.5554C111.586 74.301 110.636 74.6838 109.118 75.0507C107.599 75.4177 100.719 76.4243 95.4656 77.7088C90.2124 78.9932 88.596 80.1833 84.4895 82.747C80.383 85.3106 73.4205 92.0003 73.4205 92.0003C73.4205 92.0003 44.7952 93.7408 33.557 92.5507C22.3187 91.3607 11.0368 87.9687 9.32209 87.4182C7.60741 86.8677 6.3624 85.5885 4.45114 81.0955C3.69209 79.313 1.72072 77.9237 0.0824926 76.5187C0.0115027 76.7284 0.0825019 77.043 0.535745 77.9237C0.655882 78.1727 0.759663 78.4302 0.836114 78.6944C0.978094 79.172 1.0873 79.6569 1.16921 80.1466C1.38218 81.4625 1.51869 82.7894 1.56784 84.1205C1.33849 84.5882 1.13645 85.0679 0.961701 85.557C0.694123 86.1751 0.590342 86.8467 0.661332 87.5125C0.661332 87.5755 0.705026 87.6489 0.737791 87.7275L0.830648 87.9267C0.830648 87.9477 0.830648 87.9687 0.830648 87.9896C1.04362 88.3802 1.28386 88.7571 1.54597 89.1168C1.68795 89.316 1.83543 89.5152 1.99379 89.7145C2.15216 89.9137 2.22855 90.0028 2.34869 90.1496C2.93845 90.9266 3.68112 91.5866 4.53299 92.0946C5.10637 92.3269 5.72894 92.4427 6.35147 92.4354C6.5426 92.4354 6.70643 92.4354 6.84295 92.4354C7.06684 92.4354 7.20332 92.3882 7.20332 92.3882V95.3189C7.20332 95.3189 10.1303 96.6243 17.4313 98.0713C18.2395 98.2285 19.1023 98.3911 20.0252 98.5536C27.6429 99.8459 35.3317 100.721 43.0532 101.175C69.6308 102.842 119.002 102.722 119.002 102.722Z" fill="#192D4B"/>
<path d="M74.6166 90.8678H77.1831C77.1831 90.8678 82.2944 86.8414 86.4664 86.1075C90.4855 85.4049 105.284 83.5281 110.335 81.7089C110.838 79.5437 111.155 77.5567 111.28 76.5553C111.57 74.3062 110.614 74.6837 109.096 75.0507C107.578 75.4177 100.697 76.4243 95.4439 77.7087C90.1907 78.9932 88.5742 80.1833 84.4677 82.7469C81.4316 84.6552 76.79 88.8494 74.6166 90.8678Z" fill="#F1F1F1"/>
<path d="M98.1305 97.982C95.9462 98.0134 94.166 97.8352 93.1722 97.2218C90.7858 95.7591 91.5339 95.5756 93.8384 94.1968C94.6793 93.6893 95.6022 93.3207 96.5688 93.1063C93.1066 93.3947 89.508 93.662 87.3729 93.7407C82.2725 93.9242 70.2479 95.3135 67.097 95.4812C63.9462 95.649 48.6779 96.0055 38.8485 95.4812C29.0191 94.957 15.2744 91.696 11.5447 90.8677C6.87029 89.8192 4.57677 87.8794 3.35356 86.2279C2.77472 85.4573 2.07572 84.6551 1.49142 84.0417V84.1204V84.1571V84.1833L1.44776 84.2672L1.42043 84.3249L1.3713 84.4349L1.33304 84.5188C1.33304 84.5817 1.27302 84.6447 1.24571 84.7181V84.7548C1.20749 84.8439 1.16375 84.9382 1.12552 85.0379C1.12552 85.0379 1.12552 85.085 1.12552 85.1113C1.12552 85.1375 1.06004 85.2685 1.03273 85.3524L0.999938 85.4415L0.934412 85.6303C0.896186 85.7456 0.857987 85.8557 0.825223 85.9763C0.808841 86.0193 0.792416 86.0628 0.781494 86.1074C0.781494 86.1157 0.781494 86.1252 0.781494 86.1336C1.34395 87.3708 2.22316 88.4524 3.33716 89.2792C7.24707 92.3514 6.48257 92.0787 8.05527 92.624C9.62797 93.1692 16.7924 94.915 37.4997 96.9334C58.2069 98.9519 98.1305 97.982 98.1305 97.982Z" fill="#254370"/>
<path d="M1.50784 84.1205C1.50784 84.1205 0.317371 86.4587 0.60133 87.5125C1.01635 88.4682 1.58972 89.3537 2.29962 90.1338C2.51259 89.0433 2.73648 87.8166 2.8457 87.0302C3.03136 85.3053 1.50784 84.1205 1.50784 84.1205Z" fill="#DADDE5"/>
<path d="M84.3311 89.3108L84.2601 88.7866C84.4021 88.7866 98.4254 86.9673 100.768 86.6371C103.285 86.2753 108.206 84.6186 108.255 84.6029L108.435 85.0957C108.233 85.1639 103.416 86.7891 100.844 87.1561C98.5018 87.4916 84.4731 89.2898 84.3311 89.3108Z" fill="#254370"/>
<path d="M80.798 91.3921L80.7325 90.8678C80.8854 90.8678 96.1428 89.1273 99.8452 88.7708C102.319 88.4803 104.733 87.8407 107.01 86.8729L107.239 87.3448C104.907 88.3383 102.434 88.9952 99.8997 89.295C96.2028 89.6568 80.9455 91.3764 80.798 91.3921Z" fill="#254370"/>
<path d="M76.7244 93.4997L76.6916 92.9754C76.8281 92.9754 90.6384 92.0999 96.2957 91.6018C99.392 91.3806 102.445 90.7703 105.377 89.7878L105.585 90.2754C102.603 91.2726 99.4957 91.8928 96.3449 92.1208C90.6821 92.6451 76.8664 93.4892 76.7244 93.4997Z" fill="#254370"/>
<path d="M3.58286 83.7797C2.50709 82.479 1.55694 81.0876 0.743286 79.6223L1.2293 79.3864C2.03203 80.8181 2.96581 82.1796 4.01428 83.4547L3.58286 83.7797Z" fill="#254370"/>
<path d="M5.33594 86.9726C5.33594 86.9726 4.35847 86.1233 2.88953 84.6711C1.42058 83.2189 1.19122 82.7732 1.16937 82.7261L1.66085 82.5059C2.13594 83.1617 2.68748 83.7646 3.29908 84.3041C4.75165 85.7458 5.70724 86.5742 5.71816 86.5846L5.33594 86.9726Z" fill="#254370"/>
<path d="M40.8309 90.2283C32.5742 90.2283 30.3408 89.704 26.9059 88.949C26.3599 88.8232 25.7537 88.6869 25.0984 88.5506L24.8472 88.4929C19.6377 87.3815 14.2479 86.2386 12.069 84.519C9.89017 82.7994 8.07171 78.8884 6.78297 76.0573C5.69082 73.7034 3.39185 67.9994 4.88263 65.7765C6.09492 63.9678 9.02191 63.0713 10.4308 62.6309L10.9769 62.4631C11.8069 62.1695 12.0253 61.5614 11.6595 60.56C11.2936 59.5587 10.9059 58.7461 10.9059 58.7408L11.1407 58.6307C11.1407 58.6307 11.5284 59.4276 11.9106 60.4762C12.3202 61.6086 12.0363 62.353 11.0643 62.699L10.5182 62.8668C9.13661 63.2915 6.26969 64.167 5.10654 65.9023C3.64306 68.0833 6.19871 74.1385 7.02874 75.9472C8.3011 78.7521 10.054 82.6002 12.2383 84.3355C14.4226 86.0708 19.9707 87.2032 24.9073 88.257L25.1639 88.3094L26.9715 88.7079C30.8541 89.5886 33.1967 90.1181 44.5387 89.9556C56.9892 89.7826 60.2603 89.316 62.5265 88.4091C64.5087 87.6122 66.2616 86.2333 69.7347 82.7417C72.9292 79.5227 77.1067 74.8777 78.4392 73.1477C78.5921 72.9825 78.7013 72.7859 78.7613 72.5731C78.8214 72.3602 78.8269 72.1369 78.7832 71.9209C78.5593 71.0296 77.2706 70.3481 76.0528 69.7661C73.2077 68.5158 70.2917 67.4253 67.3156 66.5C65.934 66.0701 65.246 65.614 65.2077 65.1002C65.1531 64.4553 66.1306 63.9311 67.0425 63.4907C68.5606 62.762 71.4821 61.6925 71.5094 61.682L71.6023 61.9179C71.6023 61.9179 68.6644 62.9926 67.1627 63.7161C66.2999 64.1303 65.4262 64.6126 65.4644 65.0844C65.4644 65.3518 65.8411 65.7765 67.3974 66.264C70.3736 67.1962 73.2896 68.2882 76.1347 69.5355C77.4835 70.1593 78.7722 70.8724 79.0234 71.8632C79.078 72.1154 79.0726 72.3765 79.0016 72.6255C78.936 72.875 78.805 73.1057 78.6303 73.2997C77.2978 75.0193 73.104 79.6905 69.8931 82.9147C66.8296 85.9974 64.8582 87.7327 62.5975 88.6397C60.3367 89.5467 57.0111 90.029 44.5114 90.2125C43.179 90.223 41.9503 90.2283 40.8309 90.2283Z" fill="#9DA4B9"/>
<path d="M73.3988 62.678L73.3279 62.6518C72.2357 62.2376 71.4876 61.9178 71.4821 61.9178L71.2145 61.7973L71.4821 61.6767C71.5149 61.6767 74.9825 60.1406 78.035 58.9505L78.9743 58.5887L73.3988 62.678ZM71.8753 61.7973C72.1702 61.9178 72.6889 62.1328 73.3551 62.3844L77.205 59.5691C74.9388 60.4761 72.6452 61.4565 71.8753 61.7973Z" fill="#9DA4B9"/>
<path d="M80.9456 56.995C80.9456 56.995 72.7545 58.7933 68.8118 59.7107C64.8691 60.6282 62.0842 61.2835 50.7913 61.1734C39.4984 61.0633 24.4486 60.0934 20.9482 59.695C17.4479 59.2966 16.3066 58.8981 15.2909 58.1222C14.5318 57.5298 11.168 54.6411 9.49701 53.1993C10.6711 54.8403 12.1946 56.8011 12.8062 57.7238C13.6963 59.0711 15.2909 60.4762 16.88 60.8379C18.4691 61.1996 28.3475 62.4893 33.2295 62.7934C38.1114 63.0975 49.4534 63.1027 54.6084 63.1027C59.7633 63.1027 61.9203 62.8563 63.5749 62.4893C65.2295 62.1223 71.5913 60.1511 75.3155 58.8562C77.7838 57.9754 79.5586 57.3882 80.9456 56.995Z" fill="#E2E2E2"/>
<path d="M54.6192 63.2128C49.2676 63.2128 38.1331 63.2128 33.2293 62.9035C28.3256 62.5942 18.4307 61.3307 16.847 60.948C15.176 60.56 13.5706 59.0763 12.6914 57.8024C12.3528 57.2781 11.7194 56.4393 11.0532 55.5375C10.5071 54.7878 9.91733 54.0067 9.41494 53.278L8.76508 52.371L9.61699 53.1049C11.1023 54.3842 14.63 57.4197 15.4054 58.0278C16.3665 58.7723 17.404 59.1759 20.9972 59.6006C24.5904 60.0253 39.5638 60.9899 50.8239 61.079C62.084 61.1682 64.929 60.5233 68.8444 59.6216C72.7598 58.7198 80.8964 56.9216 80.9783 56.9059L81.4424 56.801L81.0492 57.1575C79.7386 57.5298 78.1059 58.0593 75.4137 58.9977C71.684 60.2979 65.3113 62.2744 63.6621 62.6361C62.013 62.9978 59.785 63.2128 54.6192 63.2128ZM10.2941 54.0329C10.6163 54.4733 10.9494 54.9189 11.2771 55.3593C11.9815 56.303 12.5931 57.1156 12.9153 57.6346C13.7508 58.8928 15.3071 60.3241 16.9071 60.6911C18.5071 61.0581 28.3256 62.3373 33.2348 62.6413C38.144 62.9454 49.2512 62.9507 54.6028 62.9507C59.7413 62.9507 61.8929 62.7043 63.542 62.3425C65.1912 61.9808 71.5366 60.0095 75.2608 58.7094C76.3147 58.3424 77.2103 58.0383 77.9912 57.7814C75.2608 58.3895 71.2635 59.2756 68.8608 59.8313C64.9454 60.7383 62.1168 61.4041 50.7912 61.2992C39.4655 61.1944 24.5303 60.2245 20.9426 59.8208C17.273 59.4014 16.2081 58.982 15.2088 58.2008C14.559 57.6923 11.987 55.4904 10.2941 54.0329Z" fill="#9DA4B9"/>
<path d="M131.851 33.4554C131.851 33.4554 113.656 34.5564 103.411 37.2406C93.1667 39.9249 76.6916 45.3038 76.6916 45.3038C76.6916 45.3038 100.424 39.3796 108.058 37.9169C115.692 36.4542 131.851 33.4554 131.851 33.4554Z" fill="#B4B8C2"/>
<path d="M49.3223 31.2588C49.3223 31.2588 41.9721 32.5852 35.6704 36.5014C29.3687 40.4177 27.2226 42.8713 27.2226 42.8713C28.981 40.4591 31.1762 38.3678 33.6991 36.6954C37.7619 34.0951 46.0731 31.7149 49.3223 31.2588Z" fill="#B4B8C2"/>
<path d="M199.499 42.1861C200.553 41.8044 200.957 40.3281 200.394 38.889C199.832 37.4493 198.516 36.5916 197.456 36.9733C196.397 37.3544 195.998 38.8308 196.561 40.2704C197.123 41.7095 198.439 42.5672 199.499 42.1861Z" fill="#B4B8C2"/>
<path d="M198.27 38.1214C196.179 38.6457 194.802 39.2538 195.185 40.166C195.354 40.6221 195.687 41.0054 196.124 41.2492C196.561 41.4924 197.074 41.5805 197.571 41.4977C198.811 41.4033 199.815 39.9249 200.673 39.9249C201.53 39.9249 200.531 40.5592 201.055 40.8371C201.579 41.115 203.239 41.1621 203.785 39.9249C204.331 38.6876 203.436 37.9169 202.306 37.8278C200.951 37.6559 199.581 37.756 198.27 38.1214Z" fill="#192D4B"/>
<path d="M202.295 37.8698C200.946 37.6926 199.575 37.7854 198.27 38.1424C196.179 38.6667 194.802 39.2748 195.185 40.1923C195.185 40.2395 195.234 40.2866 195.261 40.3338C195.501 40.434 195.758 40.4811 196.02 40.4722C196.282 40.4633 196.539 40.3978 196.768 40.2814C198.325 39.3928 200.067 38.8549 201.869 38.7086C202.589 38.6404 203.316 38.7988 203.938 39.1595C203.895 38.4098 203.157 37.9379 202.295 37.8698Z" fill="#254370"/>
<path d="M228.523 38.4554C229.489 38.1068 229.855 36.7558 229.342 35.4383C228.829 34.1208 227.627 33.3355 226.655 33.6846C225.689 34.0333 225.323 35.3843 225.836 36.7018C226.349 38.0193 227.551 38.8046 228.523 38.4554Z" fill="#B4B8C2"/>
<path d="M227.398 34.7556C225.486 35.2222 224.225 35.8042 224.575 36.6325C224.733 37.0498 225.033 37.4005 225.437 37.6234C225.836 37.8456 226.306 37.9259 226.759 37.8488C227.895 37.7649 228.812 36.3861 229.598 36.428C230.385 36.47 229.467 37.01 229.948 37.2616C230.428 37.5133 231.93 37.5604 232.444 36.428C232.957 35.2956 232.116 34.5879 231.084 34.504C229.85 34.3441 228.594 34.4295 227.398 34.7556Z" fill="#192D4B"/>
<path d="M231.084 34.504C229.85 34.3441 228.594 34.4295 227.398 34.7556C225.486 35.2222 224.225 35.8042 224.575 36.6325C224.575 36.6797 224.618 36.7164 224.64 36.7636C224.859 36.8558 225.099 36.8993 225.339 36.891C225.574 36.8831 225.809 36.8233 226.022 36.7164C227.447 35.9074 229.041 35.4214 230.691 35.2956C231.351 35.2317 232.018 35.3753 232.591 35.7045C232.547 34.9758 231.876 34.5669 231.084 34.504Z" fill="#254370"/>
<path d="M41.3605 70.4791C39.5475 70.4791 37.5379 70.4372 35.3536 70.3323C31.6076 70.195 27.8778 69.7918 24.1973 69.1265C23.5365 68.9692 21.8273 67.905 19.8287 66.631L19.0587 66.1434C18.3598 65.7135 15.4601 65.4409 13.7946 65.3728L13.8437 64.3242C14.6137 64.3557 18.5017 64.5444 19.6539 65.2627L20.4348 65.7555C21.5706 66.4737 23.9351 67.9784 24.4648 68.1042C28.0799 68.7527 31.7386 69.1448 35.4137 69.2785C41.5079 69.5774 46.8431 69.3886 48.2956 69.0426C49.3059 68.7506 50.2943 68.4009 51.2608 67.9941C51.8943 67.7299 52.5386 67.5023 53.1994 67.3125C54.1113 67.1081 54.8376 66.9927 57.568 67.0556L63.2909 67.1762V68.2248L57.5626 68.1042C55.0069 68.0465 54.3243 68.1514 53.4943 68.3349C52.8881 68.5126 52.2984 68.7244 51.7195 68.9692C50.7093 69.3797 49.6718 69.7299 48.6124 70.0177C47.5475 70.3113 44.8663 70.4791 41.3605 70.4791Z" fill="#254370"/>
<path d="M41.355 76.5449C40.2629 76.5449 38.9195 76.4768 37.385 76.4034L35.381 76.309C31.127 76.1203 26.9714 75.7847 25.3768 74.841L24.3993 74.2486C22.9249 73.3469 20.9045 72.1096 19.7359 71.4753C18.7202 70.9248 11.8724 69.4149 7.52014 68.5394L7.74398 67.4908C8.8689 67.7215 18.7802 69.7295 20.3037 70.5421C21.4942 71.1922 23.5311 72.4347 25.0164 73.3416L25.9884 73.9393C27.3754 74.7781 31.7768 75.077 35.4574 75.2395L37.4669 75.3339C40.4431 75.4807 42.5891 75.5908 43.8779 75.2552C45.3195 74.7912 46.7175 74.2182 48.0663 73.5409C48.5523 73.3154 48.9891 73.111 49.3332 72.9642C50.7912 72.3298 53.7018 71.9995 55.7878 71.9995C57.9721 71.9995 74.4636 71.4753 74.6275 71.4753L74.6602 72.5238C73.9831 72.5238 57.9994 73.0481 55.7878 73.0481C53.5762 73.0481 50.9059 73.4308 49.781 73.9183C49.4479 74.0651 49.0219 74.2644 48.5469 74.4845C47.1434 75.1934 45.6854 75.7894 44.1782 76.2671C43.2554 76.4757 42.3052 76.569 41.355 76.5449Z" fill="#254370"/>
<path d="M39.9024 82.4271C37.9857 82.4271 35.8232 82.2855 33.6935 82.1492C32.8089 82.0916 31.9406 82.0339 31.1051 81.9867C27.3973 81.7875 26.529 81.1059 25.6444 80.0941C25.426 79.8294 25.1748 79.5882 24.9017 79.3759C23.4492 78.3682 21.871 77.542 20.2 76.9171L19.8014 76.7545C18.6765 76.2827 12.0471 74.7309 8.69415 73.9707L8.94539 72.9536C9.34403 73.0427 18.742 75.1713 20.2382 75.7899L20.6314 75.9577C22.3789 76.614 24.0335 77.4848 25.5461 78.5475C25.8792 78.8018 26.185 79.0922 26.4526 79.4126C27.086 80.1308 27.6375 80.7494 31.1543 80.9382C31.9952 80.9854 32.869 81.043 33.7536 81.1007C37.9311 81.3733 42.6601 81.6826 44.4895 80.7547L46.1277 79.9316C47.4328 79.2763 48.3721 78.8044 49.437 78.2172C50.8131 77.4518 51.796 77.4833 53.7509 77.5462L54.8431 77.5829C57.5298 77.6458 71.3237 76.7388 71.4657 76.7283L71.5367 77.7769C70.9906 77.8136 57.5571 78.6943 54.8213 78.6367L53.6854 78.6C51.8287 78.5423 51.0588 78.5161 49.9502 79.1242C48.8417 79.7324 47.9243 80.1728 46.6083 80.8595L44.97 81.6826C43.8943 82.2488 42.054 82.4271 39.9024 82.4271Z" fill="#254370"/>
<path d="M40.4104 86.7103C36.7735 86.7103 31.9353 86.2699 31.2145 86.186C30.6684 86.1336 30.166 86.0969 29.7127 86.0602C27.4957 85.8924 26.1577 85.7928 24.5468 84.4193C22.8485 82.9775 22.5701 82.8465 20.0854 82.0391C17.6008 81.2317 10.9277 79.4649 10.8622 79.4492L11.1516 78.4374C11.4246 78.5108 17.972 80.2356 20.4348 81.0587C22.8977 81.8818 23.4056 82.0705 25.2622 83.6433C26.6001 84.781 27.6048 84.8596 29.7946 85.0274C30.2533 85.0589 30.7557 85.1008 31.3182 85.1532C34.8131 85.4783 41.295 85.9186 43.4247 85.4625C44.5059 85.2329 45.5435 84.8366 46.4937 84.2882C46.9961 84.0156 47.5148 83.7707 48.0445 83.5542C49.8629 82.836 53.0575 82.5843 55.4384 82.5843C58.0486 82.5843 64.2193 82.427 66.6548 81.95L66.8732 82.9985C64.3558 83.4913 58.0814 83.6538 55.4384 83.6538C52.577 83.6538 49.8356 84.0051 48.4541 84.5451C47.9626 84.7469 47.482 84.9745 47.0179 85.2266C45.9749 85.8232 44.8445 86.2552 43.6595 86.5058C42.5837 86.6762 41.4971 86.7444 40.4104 86.7103Z" fill="#254370"/>
<path d="M253.32 61.8602C252.157 62.7724 251.873 62.7724 251.398 64.4238C250.923 66.0753 248.82 70.7937 251.299 68.4816C252.976 66.9088 254.811 64.9376 255.832 63.8157C255.832 61.7186 255.723 60.2821 255.723 59.2336C255.723 58.9715 255.755 58.615 255.805 58.1851C255.078 59.5167 254.019 61.3044 253.32 61.8602Z" fill="#DADDE5"/>
<path d="M90.4746 95.9637C90.4746 95.9637 101.396 95.0672 108.342 95.0672C115.288 95.0672 120.798 94.1969 116.932 93.2375C113.066 92.2781 107.217 91.6647 100.266 92.4039C93.3142 93.1431 89.2568 95.0672 89.2568 95.0672L90.4746 95.9637Z" fill="#DADDE5"/>
<path d="M97.6227 7.36262L97.4971 7.14243C100.184 5.72901 103.012 4.57562 105.939 3.698L106.01 3.93916C103.105 4.81102 100.293 5.95759 97.6227 7.36262Z" fill="#9DA4B9"/>
<path d="M7.71133 60.4551L10.9878 58.6988C10.9878 58.6988 10.6055 57.7342 8.93453 54.5729C7.26354 51.4116 7.76592 50.2267 7.76592 50.2267V49.3407C6.44441 50.5476 5.61984 52.1733 5.45056 53.9175C5.17752 55.451 5.03011 57.0018 5.00281 58.5573C5.11748 61.1262 6.90313 60.8798 7.71133 60.4551Z" fill="#F1F1F1"/>
<path d="M117.888 52.1455C115.676 52.4862 106.01 53.6134 94.8869 54.4313L93.9367 55.4798L92.7244 56.5808C92.7244 56.5808 84.5824 57.4353 82.5783 57.6293C80.5742 57.8233 71.5421 61.7815 71.5421 61.7815C74.0595 62.8573 76.6807 63.6966 79.3674 64.2875C83.31 65.0791 86.7449 65.9337 97.1148 64.6492C107.485 63.3648 111.176 62.0855 114.993 60.9269C118.81 59.7683 119.793 57.2938 122.404 53.9909C125.014 50.688 120.263 51.7785 117.888 52.1455Z" fill="#F1F1F1"/>
<path d="M153.994 99.5444H155.398C158.128 94.9088 159.488 89.6431 159.318 84.3197C159.155 78.9958 157.473 73.8176 154.458 69.3467H153.994V99.5444Z" fill="#14233B"/>
<path d="M245.528 77.3889H247.237C247.422 75.6892 247.515 73.9812 247.515 72.2721C247.515 71.0311 247.466 69.8185 247.373 68.6337H245.528V77.3889Z" fill="#14233B"/>
</svg>
