<svg width="200" height="154" viewBox="0 0 200 154" fill="none" xmlns="http://www.w3.org/2000/svg">
<g opacity="0.5">
<path opacity="0.2" d="M176.336 146.498C176.291 146.518 176.243 146.533 176.197 146.548C176.336 146.629 176.471 146.73 176.6 146.856C179.599 148.32 182.001 150.95 181.229 154.461C180.506 157.746 178.206 158.606 175.468 156.576C176.193 161.773 173.717 166.561 169.73 169.838C167.343 171.8 164.421 173.286 161.331 173.321C158.241 173.356 155.021 171.685 153.848 168.826C150.495 174.091 145.143 178.047 139.127 179.709C133.111 181.37 126.487 180.722 120.908 177.925C119.554 177.246 118.233 176.422 117.291 175.236C115.645 173.162 115.886 170.864 117.665 168.997C111.254 169.946 104.843 170.896 98.4325 171.845C98.2453 171.873 98.0438 171.907 97.9115 172.043C97.7474 172.21 97.7443 172.472 97.7409 172.707C97.6021 182.169 82.9235 185.002 75.7352 185.332C65.2959 185.81 56.6492 182.273 55.0953 177.229C54.7658 176.159 54.784 175.024 55.0566 174.075C53.2286 174.423 51.3007 174.655 49.3115 174.745C41.3998 175.108 34.5166 173.173 30.9735 170.019C29.5614 168.764 27.3917 165.801 28.9779 162.481C30.0772 160.183 32.2051 160.329 32.8853 157.145C33.356 154.933 32.8563 151.511 32.0342 149.395C30.5415 150.04 28.8844 150.393 27.137 150.393C20.631 150.393 15.3598 145.48 15.3598 139.424C15.3598 134.274 19.1705 129.951 24.3192 128.772C24.3192 128.772 177.094 129.24 177.1 129.24C180.792 130.735 183.822 133.791 183.822 137.73C183.822 141.394 181.13 144.573 177.168 146.186C176.894 146.342 176.617 146.448 176.336 146.498Z" fill="#9A9AE2"/>
<path opacity="0.4" d="M149.152 139.057C149.152 140.14 144.268 141.019 138.246 141.019C132.223 141.019 127.339 140.14 127.339 139.057C127.339 137.974 132.223 137.095 138.246 137.095C144.268 137.095 149.152 137.974 149.152 139.057Z" fill="#9A9AE2"/>
<path opacity="0.4" d="M177.099 129.097C191.959 71.8661 152.05 18.027 99.6754 18.027C55.1663 18.027 19.0784 57.039 19.0784 105.166C19.0784 113.346 20.1234 121.262 22.0728 128.769L177.099 129.097Z" fill="#9A9AE2"/>
<path d="M172.312 67.7059H156.081C156.035 67.7059 155.997 67.6686 155.997 67.6225C155.997 67.5765 156.035 67.5392 156.081 67.5392H172.312C172.358 67.5392 172.395 67.5765 172.395 67.6225C172.395 67.6686 172.358 67.7059 172.312 67.7059Z" fill="#9A9AE2"/>
<path d="M168.322 59.57H153.47C153.424 59.57 153.387 59.5327 153.387 59.4867C153.387 59.4406 153.424 59.4033 153.47 59.4033H168.322C168.368 59.4033 168.405 59.4406 168.405 59.4867C168.405 59.5327 168.368 59.57 168.322 59.57Z" fill="#9A9AE2"/>
<path d="M157.848 45.1246H148.556C148.51 45.1246 148.473 45.0873 148.473 45.0412C148.473 44.9952 148.51 44.9579 148.556 44.9579H157.848C157.894 44.9579 157.931 44.9952 157.931 45.0412C157.931 45.0873 157.894 45.1246 157.848 45.1246Z" fill="#9A9AE2"/>
<path d="M51.0112 68.5109H29.0438C28.9977 68.5109 28.9604 68.4736 28.9604 68.4276C28.9604 68.3815 28.9977 68.3442 29.0438 68.3442H51.0112C51.0573 68.3442 51.0946 68.3815 51.0946 68.4276C51.0946 68.4736 51.0573 68.5109 51.0112 68.5109Z" fill="#9A9AE2"/>
<path d="M110.538 88.9391H86.1493C86.1032 88.9391 86.0659 88.9019 86.0659 88.8558C86.0659 88.8097 86.1032 88.7725 86.1493 88.7725H110.538C110.584 88.7725 110.621 88.8097 110.621 88.8558C110.621 88.9019 110.584 88.9391 110.538 88.9391Z" fill="#9A9AE2"/>
<path d="M151.689 99.013C151.643 99.013 151.606 98.9757 151.606 98.9297V88.0135C151.606 87.9674 151.643 87.9302 151.689 87.9302C151.735 87.9302 151.772 87.9674 151.772 88.0135V98.9297C151.772 98.9757 151.735 99.013 151.689 99.013Z" fill="#9A9AE2"/>
<path d="M179.903 113.485H92.5457C92.4997 113.485 92.4624 113.447 92.4624 113.401C92.4624 113.355 92.4997 113.318 92.5457 113.318H179.903C179.95 113.318 179.987 113.355 179.987 113.401C179.987 113.447 179.95 113.485 179.903 113.485Z" fill="#9A9AE2"/>
<path d="M180.215 102.304H118.3C118.254 102.304 118.217 102.267 118.217 102.221C118.217 102.175 118.254 102.138 118.3 102.138H180.215C180.261 102.138 180.298 102.175 180.298 102.221C180.298 102.267 180.261 102.304 180.215 102.304Z" fill="#9A9AE2"/>
<path d="M125.482 123.414H89.3698C89.3237 123.414 89.2864 123.376 89.2864 123.33C89.2864 123.284 89.3237 123.247 89.3698 123.247H125.482C125.528 123.247 125.566 123.284 125.566 123.33C125.566 123.376 125.528 123.414 125.482 123.414Z" fill="#9A9AE2"/>
<path d="M22.6896 98.0072C22.6435 98.0072 22.6063 97.9699 22.6063 97.9238C22.6063 97.8778 22.6435 97.8405 22.6896 97.8405C73.2728 97.8793 71.2776 97.7586 71.2776 97.9238C71.2776 98.0884 73.2003 97.9684 22.6896 98.0072Z" fill="#9A9AE2"/>
<path d="M96.4157 28.6872C96.3696 28.6872 96.3323 28.6499 96.3323 28.6039V21.739C96.3323 21.6929 96.3696 21.6556 96.4157 21.6556C96.4617 21.6556 96.499 21.6929 96.499 21.739V28.6039C96.499 28.6499 96.4617 28.6872 96.4157 28.6872Z" fill="#9A9AE2"/>
<path d="M142.024 31.4607H72.613C72.5669 31.4607 72.5297 31.4235 72.5297 31.3774C72.5297 31.3313 72.5669 31.2941 72.613 31.2941H142.024C142.07 31.2941 142.107 31.3313 142.107 31.3774C142.107 31.4235 142.07 31.4607 142.024 31.4607Z" fill="#9A9AE2"/>
<path d="M104.123 41.9779C104.077 41.9779 104.039 41.9406 104.039 41.8945C104.039 41.8485 104.077 41.8112 104.123 41.8112C142.955 41.8434 148.327 41.7661 149.033 41.8332C149.173 41.8465 149.173 41.9422 149.035 41.9556C148.341 42.0232 143.007 41.9457 104.123 41.9779Z" fill="#9A9AE2"/>
<path d="M96.8278 41.5397H64.3049C64.2588 41.5397 64.2216 41.5024 64.2216 41.4564C64.2216 41.4103 64.2588 41.373 64.3049 41.373H96.8278C96.8739 41.373 96.9112 41.4103 96.9112 41.4564C96.9112 41.5024 96.8739 41.5397 96.8278 41.5397Z" fill="#9A9AE2"/>
<path d="M108.795 21.2723H87.1012C87.0552 21.2723 87.0179 21.235 87.0179 21.1889C87.0179 21.1429 87.0552 21.1056 87.1012 21.1056H108.795C108.841 21.1056 108.878 21.1429 108.878 21.1889C108.878 21.235 108.841 21.2723 108.795 21.2723Z" fill="#9A9AE2"/>
<path d="M58.4936 78.3986H26.2775C26.2314 78.3986 26.1942 78.3613 26.1942 78.3153C26.1942 78.2692 26.2314 78.2319 26.2775 78.2319H58.4936C58.5397 78.2319 58.577 78.2692 58.577 78.3153C58.577 78.3613 58.5397 78.3986 58.4936 78.3986Z" fill="#9A9AE2"/>
<path d="M59.8114 88.1222H27.1663C27.1203 88.1222 27.083 88.085 27.083 88.0389C27.083 87.9928 27.1203 87.9556 27.1663 87.9556H59.8114C59.8574 87.9556 59.8947 87.9928 59.8947 88.0389C59.8947 88.085 59.8574 88.1222 59.8114 88.1222Z" fill="#9A9AE2"/>
<path d="M35.3747 86.7951C35.3286 86.7951 35.2913 86.7579 35.2913 86.7118V78.9372C35.2913 78.8912 35.3286 78.8539 35.3747 78.8539C35.4207 78.8539 35.458 78.8912 35.458 78.9372V86.7118C35.458 86.7579 35.4207 86.7951 35.3747 86.7951Z" fill="#9A9AE2"/>
<path d="M50.3796 88.8014C50.3335 88.8014 50.2963 88.7641 50.2963 88.7181V80.3505C50.2963 80.3045 50.3335 80.2672 50.3796 80.2672C50.4257 80.2672 50.4629 80.3045 50.4629 80.3505V88.7181C50.4629 88.7641 50.4257 88.8014 50.3796 88.8014Z" fill="#9A9AE2"/>
<path opacity="0.4" d="M177.989 125.78C177.945 125.768 177.918 125.723 177.93 125.678C179.796 118.491 181.787 110.129 181.787 101.847C181.787 53.8447 145.673 14.7917 101.283 14.7917C83.1986 14.7917 66.1143 21.1243 51.8768 33.105C51.8418 33.1346 51.7891 33.1304 51.7593 33.0949C51.7297 33.0596 51.7342 33.007 51.7694 32.9774C66.347 20.7107 83.7726 14.625 101.283 14.625C145.392 14.625 181.954 53.2068 181.954 101.847C181.954 110.148 179.96 118.522 178.091 125.72C178.079 125.765 178.034 125.791 177.989 125.78Z" fill="#9A9AE2"/>
<path d="M131.784 76.2548C131.738 76.2548 131.7 76.2175 131.7 76.1714V65.257C131.7 65.211 131.738 65.1737 131.784 65.1737C131.83 65.1737 131.867 65.211 131.867 65.257V76.1714C131.867 76.2175 131.83 76.2548 131.784 76.2548Z" fill="#9A9AE2"/>
<path d="M163.883 75.7869H120.825C120.779 75.7869 120.741 75.7496 120.741 75.7036C120.741 75.6575 120.779 75.6202 120.825 75.6202H163.883C163.929 75.6202 163.966 75.6575 163.966 75.7036C163.966 75.7496 163.929 75.7869 163.883 75.7869Z" fill="#9A9AE2"/>
<path d="M143.382 85.0504C143.336 85.0504 143.299 85.0131 143.299 84.9671V77.9482C143.299 77.9021 143.336 77.8649 143.382 77.8649C143.428 77.8649 143.466 77.9021 143.466 77.9482V84.9671C143.466 85.0131 143.428 85.0504 143.382 85.0504Z" fill="#9A9AE2"/>
<path d="M176.015 84.2985H136.312C136.265 84.2985 136.228 84.2612 136.228 84.2152C136.228 84.1691 136.265 84.1318 136.312 84.1318H176.015C176.062 84.1318 176.099 84.1691 176.099 84.2152C176.099 84.2612 176.062 84.2985 176.015 84.2985Z" fill="#9A9AE2"/>
<path d="M108.994 90.4593C108.948 90.4593 108.91 90.422 108.91 90.3759V85.2399H100.868C100.821 85.2399 100.784 85.2026 100.784 85.1565V79.5234C100.784 79.4773 100.821 79.4401 100.868 79.4401C100.914 79.4401 100.951 79.4773 100.951 79.5234V85.0732H108.994C109.04 85.0732 109.077 85.1105 109.077 85.1565V90.3759C109.077 90.422 109.04 90.4593 108.994 90.4593Z" fill="#9A9AE2"/>
<path d="M88.6221 75.741C88.576 75.741 88.5388 75.7037 88.5388 75.6577V66.0185C88.5388 65.9725 88.576 65.9352 88.6221 65.9352C88.6682 65.9352 88.7054 65.9725 88.7054 66.0185V75.6577C88.7054 75.7037 88.6682 75.741 88.6221 75.741Z" fill="#9A9AE2"/>
<path d="M100.533 75.741H73.9815C73.9354 75.741 73.8981 75.7037 73.8981 75.6577C73.8981 75.6116 73.9354 75.5743 73.9815 75.5743H100.533C100.579 75.5743 100.616 75.6116 100.616 75.6577C100.616 75.7037 100.579 75.741 100.533 75.741Z" fill="#9A9AE2"/>
<path d="M35.4912 109.427C35.4452 109.427 35.4079 109.39 35.4079 109.344V102.911C35.4079 102.865 35.4452 102.828 35.4912 102.828C35.5373 102.828 35.5746 102.865 35.5746 102.911V109.344C35.5746 109.39 35.5373 109.427 35.4912 109.427Z" fill="#9A9AE2"/>
<path d="M61.6538 109.269H25.9953L25.4578 109.205C25.4121 109.2 25.3795 109.158 25.3851 109.113C25.3906 109.067 25.4339 109.034 25.4777 109.04L26.0052 109.103L61.6538 109.103C61.6999 109.103 61.7371 109.14 61.7371 109.186C61.7371 109.232 61.6999 109.269 61.6538 109.269Z" fill="#9A9AE2"/>
<path d="M103.871 92.0324C103.825 92.0324 103.787 91.9951 103.787 91.9491V85.0096C103.787 84.9635 103.825 84.9263 103.871 84.9263C103.917 84.9263 103.954 84.9635 103.954 85.0096V91.9491C103.954 91.9951 103.917 92.0324 103.871 92.0324Z" fill="#9A9AE2"/>
<path d="M114.916 81.049H101.166C101.12 81.049 101.083 81.0117 101.083 80.9657C101.083 80.9196 101.12 80.8823 101.166 80.8823H114.916C114.962 80.8823 114.999 80.9196 114.999 80.9657C114.999 81.0117 114.962 81.049 114.916 81.049Z" fill="#9A9AE2"/>
<path d="M101 85.419H94.4569C94.4108 85.419 94.3735 85.3817 94.3735 85.3357C94.3735 85.2896 94.4108 85.2523 94.4569 85.2523H101C101.046 85.2523 101.083 85.2896 101.083 85.3357C101.083 85.3817 101.046 85.419 101 85.419Z" fill="#9A9AE2"/>
<path d="M60.1395 40.3981C60.0934 40.3981 60.0562 40.3608 60.0562 40.3147V33.123C60.0562 33.0769 60.0934 33.0397 60.1395 33.0397C60.1855 33.0397 60.2228 33.0769 60.2228 33.123V40.3147C60.2228 40.3608 60.1855 40.3981 60.1395 40.3981Z" fill="#9A9AE2"/>
<path d="M79.908 39.1196C79.862 39.1196 79.8247 39.0824 79.8247 39.0363V33.2537C79.8247 33.2077 79.862 33.1704 79.908 33.1704C79.9541 33.1704 79.9914 33.2077 79.9914 33.2537V39.0363C79.9914 39.0824 79.9541 39.1196 79.908 39.1196Z" fill="#9A9AE2"/>
<path d="M136.433 41.709C136.387 41.709 136.349 41.6718 136.349 41.6257V34.1037C136.349 34.0577 136.387 34.0204 136.433 34.0204C136.479 34.0204 136.516 34.0577 136.516 34.1037V41.6257C136.516 41.6718 136.479 41.709 136.433 41.709Z" fill="#9A9AE2"/>
<path d="M125.007 40.594C124.961 40.594 124.924 40.5568 124.924 40.5107V34.1689C124.924 34.1228 124.961 34.0856 125.007 34.0856C125.053 34.0856 125.09 34.1228 125.09 34.1689V40.5107C125.09 40.5568 125.053 40.594 125.007 40.594Z" fill="#9A9AE2"/>
<path d="M81.9842 30.2142C81.9382 30.2142 81.9009 30.177 81.9009 30.1309V23.6242C81.9009 23.5782 81.9382 23.5409 81.9842 23.5409C82.0303 23.5409 82.0675 23.5782 82.0675 23.6242V30.1309C82.0675 30.177 82.0303 30.2142 81.9842 30.2142Z" fill="#9A9AE2"/>
<path d="M120.092 31.3513C120.05 31.3513 120.013 31.3184 120.01 31.2749L119.969 30.7958L119.969 22.5524C119.969 22.5064 120.006 22.4691 120.052 22.4691C120.098 22.4691 120.136 22.5064 120.136 22.5524V30.7888L120.176 31.2609C120.18 31.3068 120.146 31.347 120.1 31.351C120.097 31.3511 120.095 31.3513 120.092 31.3513Z" fill="#9A9AE2"/>
<path d="M25.8941 97.8831C25.848 97.8831 25.8107 97.8458 25.8107 97.7998V90.9751C25.8107 90.929 25.848 90.8917 25.8941 90.8917C25.9401 90.8917 25.9774 90.929 25.9774 90.9751V97.7998C25.9774 97.8458 25.9401 97.8831 25.8941 97.8831Z" fill="#9A9AE2"/>
<path d="M34.2243 98.0072C34.1782 98.0072 34.1409 97.9699 34.1409 97.9239V91.9621C34.1409 91.9161 34.1782 91.8788 34.2243 91.8788C34.2703 91.8788 34.3076 91.9161 34.3076 91.9621V97.9239C34.3076 97.9699 34.2703 98.0072 34.2243 98.0072Z" fill="#9A9AE2"/>
<path d="M171.869 99.9753C171.823 99.9753 171.785 99.938 171.785 99.8919V87.2943C171.785 87.2482 171.823 87.2109 171.869 87.2109C171.915 87.2109 171.952 87.2482 171.952 87.2943V99.8919C171.952 99.938 171.915 99.9753 171.869 99.9753Z" fill="#9A9AE2"/>
<path d="M93.6488 110.249C93.6027 110.249 93.5654 110.211 93.5654 110.165V102.676C93.5654 102.63 93.6027 102.592 93.6488 102.592C93.6948 102.592 93.7321 102.63 93.7321 102.676V110.165C93.7321 110.211 93.6948 110.249 93.6488 110.249Z" fill="#9A9AE2"/>
<path d="M141.794 114.575C141.748 114.575 141.711 114.538 141.711 114.492V104.571C141.711 104.525 141.748 104.487 141.794 104.487C141.84 104.487 141.877 104.525 141.877 104.571V114.492C141.877 114.538 141.84 114.575 141.794 114.575Z" fill="#9A9AE2"/>
<path d="M175.132 111.923C175.086 111.923 175.049 111.886 175.049 111.84V105.201C175.049 105.155 175.086 105.118 175.132 105.118C175.179 105.118 175.216 105.155 175.216 105.201V111.84C175.216 111.886 175.179 111.923 175.132 111.923Z" fill="#9A9AE2"/>
<path d="M162.171 114.325C162.124 114.325 162.087 114.288 162.087 114.242V103.696C162.087 103.65 162.124 103.613 162.171 103.613C162.217 103.613 162.254 103.65 162.254 103.696V114.242C162.254 114.288 162.217 114.325 162.171 114.325Z" fill="#9A9AE2"/>
<path d="M108.408 122.122C108.362 122.122 108.325 122.085 108.325 122.039V114.42C108.325 114.374 108.362 114.336 108.408 114.336C108.454 114.336 108.492 114.374 108.492 114.42V122.039C108.492 122.085 108.454 122.122 108.408 122.122Z" fill="#9A9AE2"/>
<path d="M37.5887 66.1377C37.5426 66.1377 37.5054 66.1004 37.5054 66.0543V56.3906C37.5054 56.3445 37.5426 56.3073 37.5887 56.3073C37.6348 56.3073 37.672 56.3445 37.672 56.3906V66.0543C37.672 66.1004 37.6348 66.1377 37.5887 66.1377Z" fill="#9A9AE2"/>
<path d="M33.277 76.9163C33.2309 76.9163 33.1937 76.8791 33.1937 76.833V70.1229C33.1937 70.0768 33.2309 70.0396 33.277 70.0396C33.3231 70.0396 33.3603 70.0768 33.3603 70.1229V76.833C33.3603 76.8791 33.3231 76.9163 33.277 76.9163Z" fill="#9A9AE2"/>
<path d="M168.365 83.5191C168.319 83.5191 168.282 83.4818 168.282 83.4358V76.3396C168.282 76.2935 168.319 76.2562 168.365 76.2562C168.411 76.2562 168.448 76.2935 168.448 76.3396V83.4358C168.448 83.4818 168.411 83.5191 168.365 83.5191Z" fill="#9A9AE2"/>
<path d="M159.827 58.4893C159.781 58.4893 159.744 58.452 159.744 58.406V51.4328C159.744 51.3868 159.781 51.3495 159.827 51.3495C159.873 51.3495 159.911 51.3868 159.911 51.4328V58.406C159.911 58.452 159.873 58.4893 159.827 58.4893Z" fill="#9A9AE2"/>
<path d="M162.755 66.3233C162.709 66.3233 162.672 66.286 162.672 66.2399V60.9851C162.672 60.939 162.709 60.9017 162.755 60.9017C162.801 60.9017 162.839 60.939 162.839 60.9851V66.2399C162.839 66.286 162.801 66.3233 162.755 66.3233Z" fill="#9A9AE2"/>
<path d="M166.624 76.4196C166.578 76.4196 166.54 76.3823 166.54 76.3363V69.264C166.54 69.2179 166.578 69.1807 166.624 69.1807C166.67 69.1807 166.707 69.2179 166.707 69.264V76.3363C166.707 76.3823 166.67 76.4196 166.624 76.4196Z" fill="#9A9AE2"/>
<path d="M111.865 30.3378C111.819 30.3378 111.782 30.3005 111.782 30.2544V22.9231C111.782 22.877 111.819 22.8397 111.865 22.8397C111.911 22.8397 111.948 22.877 111.948 22.9231V30.2544C111.948 30.3005 111.911 30.3378 111.865 30.3378Z" fill="#9A9AE2"/>
</g>
<path d="M61.5685 142.045C61.5224 142.045 61.4852 142.008 61.4852 141.961V137.38C61.4852 137.334 61.5224 137.297 61.5685 137.297C61.6146 137.297 61.6518 137.334 61.6518 137.38V141.961C61.6518 142.008 61.6146 142.045 61.5685 142.045Z" fill="#9A9AE2"/>
<path d="M63.1351 132.237C63.089 132.237 63.0518 132.199 63.0518 132.153V126.998C63.0518 126.952 63.089 126.915 63.1351 126.915C63.1812 126.915 63.2184 126.952 63.2184 126.998V132.153C63.2184 132.199 63.1812 132.237 63.1351 132.237Z" fill="#9A9AE2"/>
<path d="M71.9447 141.9C62.8579 143.817 53.4723 143.817 44.3856 141.9C41.0971 141.207 39.1825 138.229 40.0392 135.602C40.8947 132.979 43.7369 131.516 46.4582 132.092C54.1766 133.722 62.1537 133.722 69.8721 132.092C72.5889 131.524 75.4306 132.971 76.2882 135.602C77.1476 138.229 75.2332 141.207 71.9447 141.9Z" fill="#F8E77F"/>
<path d="M71.9447 141.9C62.8579 143.817 53.4723 143.817 44.3856 141.9C41.0971 141.207 39.1825 138.229 40.0392 135.602C40.3439 134.667 40.8988 133.883 41.6087 133.285C41.8232 137.687 44.8085 139.39 49.0597 140.388C52.3052 141.152 55.634 141.569 58.9714 141.633C62.5331 141.701 66.2413 141.319 69.2971 139.488C71.6054 138.102 73.4221 135.918 74.3621 133.397C74.3996 133.296 74.4369 133.193 74.4685 133.086C75.2993 133.704 75.9489 134.561 76.2882 135.602C77.1476 138.229 75.2332 141.207 71.9447 141.9Z" fill="#FCCF36"/>
<path d="M39.8386 136.485C39.7485 136.465 39.6917 136.376 39.7116 136.286C39.7313 136.196 39.8198 136.139 39.9102 136.159C51.7438 138.766 64.0278 138.766 76.4207 136.159C76.5108 136.14 76.5993 136.198 76.6182 136.288C76.6371 136.378 76.5794 136.466 76.4894 136.485C64.0564 139.101 51.7257 139.103 39.8386 136.485Z" fill="#FBC52D"/>
<path d="M44.0086 141.852C43.4583 141.473 43.2378 140.793 43.1196 140.315C42.4391 137.558 43.3218 134.503 45.3683 132.534C45.623 132.289 45.9765 132.17 46.3468 132.06C46.4357 132.034 46.5278 132.084 46.554 132.172C46.5804 132.26 46.5301 132.353 46.4419 132.379C46.1782 132.458 45.8169 132.565 45.5994 132.774C43.637 134.663 42.7907 137.591 43.4432 140.236C43.5483 140.661 43.7409 141.263 44.1977 141.578C44.2736 141.63 44.2926 141.734 44.2404 141.81C44.1881 141.886 44.0841 141.904 44.0086 141.852Z" fill="#FBC52D"/>
<path d="M71.436 141.81C71.3838 141.734 71.4028 141.63 71.4787 141.578C71.9357 141.263 72.1281 140.661 72.2331 140.236C72.8856 137.591 72.0392 134.663 70.0768 132.774C69.8594 132.565 69.4981 132.458 69.2344 132.379C69.1462 132.353 69.0959 132.26 69.1222 132.172C69.1483 132.084 69.2412 132.034 69.3294 132.06C69.6997 132.17 70.0532 132.289 70.308 132.534C72.3545 134.503 73.2372 137.558 72.5567 140.315C72.4388 140.793 72.2183 141.473 71.6678 141.852C71.5921 141.904 71.4885 141.886 71.436 141.81Z" fill="#FBC52D"/>
<path d="M65.1683 143.07C65.085 143.03 65.0493 142.931 65.0885 142.848C66.5763 139.686 66.1071 135.926 63.8776 133.227C63.819 133.156 63.8291 133.051 63.9001 132.992C63.9713 132.934 64.0762 132.944 64.1348 133.014C66.4411 135.807 66.9361 139.705 65.39 142.99C65.3508 143.073 65.2513 143.109 65.1683 143.07Z" fill="#FBC52D"/>
<path d="M49.6543 142.928C47.8276 139.598 48.5431 135.413 51.4339 132.886C51.5029 132.825 51.6085 132.832 51.6691 132.901C51.7296 132.971 51.7226 133.076 51.6533 133.137C48.9104 135.534 48.1758 139.539 49.9466 142.768C49.9908 142.849 49.9612 142.95 49.8805 142.994C49.8012 143.038 49.6989 143.01 49.6543 142.928Z" fill="#FBC52D"/>
<path d="M55.2596 143.393C53.132 140.211 53.5868 135.935 56.3351 133.272C56.4012 133.208 56.507 133.21 56.5708 133.276C56.6349 133.342 56.6333 133.447 56.5672 133.511C53.9282 136.068 53.5028 140.166 55.5366 143.207C55.5879 143.284 55.5672 143.387 55.4907 143.439C55.4138 143.49 55.3103 143.469 55.2596 143.393Z" fill="#FBC52D"/>
<path d="M60.631 143.334C60.5525 143.286 60.5278 143.184 60.576 143.105C61.9381 140.88 61.8081 138.107 61.4591 136.174C61.3008 135.295 61.0529 134.298 60.416 133.557C60.3561 133.487 60.3641 133.382 60.4337 133.322C60.5039 133.262 60.6089 133.27 60.6689 133.34C61.3577 134.141 61.6207 135.192 61.7872 136.114C62.1465 138.105 62.2772 140.964 60.8602 143.279C60.8116 143.359 60.7083 143.382 60.631 143.334Z" fill="#FBC52D"/>
<path d="M71.6101 129.634C70.8446 132.633 68.1642 135.049 65.1026 135.499C60.5729 136.167 56.1752 136.238 51.7354 135.472C50.7996 135.311 49.8615 135.113 48.9196 134.875C47.5016 134.517 46.0643 134.05 44.9499 133.104C42.7586 131.244 42.4259 127.578 44.2467 125.355L69.1794 124.348C71.2068 125.94 72.2442 127.146 71.6101 129.634Z" fill="#394049"/>
<path d="M67.8045 128.104C67.0035 128.896 66.1801 129.447 65.6125 130.436C64.3539 132.628 64.3064 134.516 64.1652 135.629C59.9459 136.174 55.8623 136.184 51.7354 135.472C51.549 134.322 51.633 133.102 51.1493 132.044C50.7696 131.216 49.5272 130.362 49.8445 129.419C50.1141 128.621 50.8797 128.559 51.583 128.749C53.0693 129.148 54.8552 130.785 55.5573 133.236C55.6813 133.679 55.7937 134.128 56.0233 134.524C56.6564 135.617 58.2846 136.029 59.2905 135.265C60.7372 134.164 61.3405 130.466 63.5167 128.809C64.7159 127.894 66.3757 127.622 67.8045 128.104Z" fill="#18142E"/>
<path d="M43.1058 161.501C43.3426 163.443 52.182 162.664 51.9453 160.722C52.2488 157.226 51.603 145.102 51.9064 141.606C52.2063 138.149 52.0816 134.512 50.1619 131.184C49.2571 129.615 47.7872 128.216 46.0388 127.769C43.8333 127.205 40.7554 127.621 39.5945 129.325C39.5881 129.334 37.971 132.63 39.814 139.688C40.7897 143.424 43.0346 161.007 43.1058 161.501Z" fill="#394049"/>
<path d="M62.9647 159.827C62.9583 160.054 62.9234 160.455 62.8816 160.949C62.6742 162.889 71.4347 163.356 71.6421 161.416C72.7378 157.962 74.8566 145.895 75.9522 142.441C77.0353 139.026 77.7393 135.409 76.5966 132.005C76.058 130.4 74.9216 128.934 73.2931 128.398C71.1953 127.707 68.7603 128.737 67.2548 130.351C64.6635 133.129 64.5871 136.466 64.4218 139.898C64.2402 143.671 63.0722 156.056 62.9647 159.827Z" fill="#394049"/>
<path d="M145.995 139.851C145.949 139.851 145.911 139.814 145.911 139.768V135.757C145.911 135.711 145.949 135.674 145.995 135.674C146.041 135.674 146.078 135.711 146.078 135.757V139.768C146.078 139.814 146.041 139.851 145.995 139.851Z" fill="#9A9AE2"/>
<path d="M155.079 139.714C147.124 141.393 138.907 141.393 130.952 139.714C128.073 139.108 126.397 136.5 127.147 134.2C127.903 131.882 130.409 130.629 132.766 131.127C139.523 132.554 146.507 132.554 153.264 131.127C155.643 130.631 158.13 131.897 158.881 134.2C159.634 136.5 157.958 139.108 155.079 139.714Z" fill="#F8E77F"/>
<path d="M155.079 139.714C147.124 141.393 138.907 141.393 130.952 139.714C128.073 139.108 126.397 136.5 127.147 134.2C127.413 133.382 127.899 132.695 128.521 132.172C128.708 136.026 131.322 137.517 135.044 138.39C137.885 139.06 140.799 139.425 143.721 139.48C146.839 139.54 150.086 139.206 152.761 137.603C154.782 136.39 156.372 134.477 157.195 132.27C157.228 132.182 157.261 132.091 157.288 131.998C158.016 132.539 158.584 133.289 158.881 134.2C159.634 136.5 157.958 139.108 155.079 139.714Z" fill="#FCCF36"/>
<path d="M126.966 134.994C126.876 134.974 126.82 134.885 126.84 134.795C126.859 134.705 126.948 134.649 127.038 134.668C137.395 136.95 148.146 136.95 158.993 134.668C159.082 134.649 159.172 134.707 159.19 134.797C159.209 134.887 159.152 134.975 159.062 134.994C148.174 137.284 137.376 137.287 126.966 134.994Z" fill="#FBC52D"/>
<path d="M130.61 139.69C130.122 139.354 129.927 138.754 129.823 138.332C129.226 135.911 130.001 133.229 131.798 131.5C132.042 131.264 132.401 131.157 132.663 131.08C132.752 131.053 132.844 131.104 132.87 131.191C132.896 131.28 132.846 131.373 132.758 131.399C132.529 131.467 132.215 131.561 132.029 131.74C130.316 133.388 129.577 135.944 130.147 138.252C130.238 138.621 130.405 139.143 130.799 139.415C130.875 139.467 130.894 139.571 130.842 139.647C130.789 139.723 130.685 139.742 130.61 139.69Z" fill="#FBC52D"/>
<path d="M154.616 139.647C154.564 139.571 154.583 139.467 154.659 139.415C155.053 139.144 155.22 138.621 155.311 138.252C155.881 135.944 155.142 133.388 153.429 131.74C153.243 131.561 152.929 131.467 152.7 131.399C152.612 131.373 152.562 131.28 152.588 131.192C152.614 131.104 152.707 131.053 152.795 131.08C153.122 131.177 153.434 131.282 153.66 131.5C155.457 133.229 156.232 135.911 155.635 138.332C155.53 138.754 155.335 139.354 154.848 139.69C154.773 139.741 154.669 139.723 154.616 139.647Z" fill="#FBC52D"/>
<path d="M149.137 140.757C149.054 140.718 149.018 140.619 149.058 140.535C150.357 137.775 149.947 134.491 148 132.134C147.942 132.063 147.952 131.958 148.023 131.9C148.094 131.841 148.199 131.851 148.257 131.922C150.282 134.373 150.716 137.795 149.359 140.677C149.32 140.761 149.219 140.796 149.137 140.757Z" fill="#FBC52D"/>
<path d="M135.546 140.624C133.942 137.7 134.571 134.025 137.109 131.807C137.178 131.746 137.283 131.753 137.344 131.823C137.404 131.892 137.397 131.997 137.328 132.058C134.929 134.154 134.296 137.652 135.838 140.464C135.883 140.545 135.853 140.646 135.772 140.69C135.693 140.734 135.591 140.706 135.546 140.624Z" fill="#FBC52D"/>
<path d="M140.454 141.032C138.59 138.244 138.981 134.488 141.399 132.146C141.465 132.082 141.571 132.083 141.634 132.149C141.699 132.216 141.697 132.321 141.631 132.385C139.332 134.612 138.953 138.187 140.731 140.847C140.783 140.924 140.762 141.027 140.685 141.078C140.609 141.13 140.505 141.109 140.454 141.032Z" fill="#FBC52D"/>
<path d="M145.163 140.988C145.085 140.94 145.06 140.837 145.108 140.758C146.297 138.816 146.183 136.394 145.879 134.705C145.74 133.939 145.524 133.069 144.97 132.424C144.91 132.354 144.918 132.249 144.988 132.189C145.058 132.129 145.163 132.137 145.223 132.206C145.829 132.912 146.06 133.835 146.207 134.645C146.522 136.392 146.636 138.9 145.392 140.933C145.345 141.01 145.242 141.036 145.163 140.988Z" fill="#FBC52D"/>
<path d="M154.786 128.976C154.116 131.602 151.769 133.716 149.089 134.111C144.292 134.818 139.66 134.761 134.921 133.564C133.68 133.251 132.421 132.842 131.446 132.014C129.527 130.385 129.236 127.176 130.83 125.229L152.658 124.348C154.433 125.742 155.341 126.797 154.786 128.976Z" fill="#394049"/>
<path d="M151.454 127.636C150.753 128.329 150.032 128.812 149.535 129.678C148.433 131.597 148.392 133.25 148.268 134.224C144.574 134.701 140.999 134.71 137.386 134.086C137.223 133.08 137.297 132.012 136.873 131.086C136.541 130.36 135.453 129.613 135.731 128.788C135.967 128.089 136.637 128.035 137.253 128.201C138.82 128.622 140.162 130.327 140.642 131.828C140.798 132.314 140.887 132.819 141.14 133.257C141.694 134.213 143.12 134.574 144 133.906C145.267 132.941 145.795 129.704 147.7 128.253C148.75 127.453 150.203 127.214 151.454 127.636Z" fill="#18142E"/>
<path d="M129.831 160.969C130.039 162.669 137.777 161.988 137.57 160.288C137.836 157.227 137.27 142.518 137.536 139.457C137.798 136.431 137.689 133.246 136.009 130.333C135.217 128.96 133.93 127.735 132.399 127.343C130.468 126.849 127.774 127.213 126.757 128.705C126.752 128.713 125.336 131.598 126.949 137.777C127.804 141.048 129.769 160.537 129.831 160.969Z" fill="#394049"/>
<path d="M147.217 159.504C147.211 159.703 147.181 160.053 147.144 160.486C146.963 162.184 154.632 162.593 154.814 160.895C155.773 157.871 157.628 143.212 158.587 140.188C159.535 137.198 160.152 134.032 159.151 131.051C158.68 129.646 157.685 128.363 156.259 127.893C154.423 127.289 152.291 128.191 150.973 129.603C148.704 132.036 148.637 134.957 148.493 137.962C148.334 141.264 147.311 156.202 147.217 159.504Z" fill="#394049"/>
<path d="M85.5787 108.549L97.4417 120.283H16.815L25.9303 108.549H85.5787Z" fill="#C86150"/>
<path d="M40.8149 114.913C40.3357 115.114 39.8069 115.38 39.643 115.732L38.6921 115.829L38.6872 115.787C38.6317 115.795 39.4634 115.673 30.4742 116.989C30.437 117.158 30.3724 117.264 30.2806 117.274L26.2585 117.684C25.4589 117.766 24.7589 117.139 24.7589 116.326C24.7589 115.638 25.2827 115.045 25.9829 114.975L30.005 114.563C30.0968 114.553 30.1813 114.645 30.2532 114.801C42.8726 114.068 36.8372 114.419 38.5382 114.32L38.5333 114.275L39.571 114.171C39.73 114.506 40.2612 114.707 40.7951 114.772C40.872 114.782 40.8869 114.886 40.8149 114.913Z" fill="#8D3826"/>
<path d="M64.8503 109.171L74.5326 119.037H57.5533L47.871 109.171H64.8503Z" fill="#8D3826"/>
<path d="M63.77 109.171L73.4523 119.037H56.4727L46.7903 109.171H63.77Z" fill="#9DD3F5"/>
<path d="M68.376 70.4777C68.5948 70.6977 68.7915 70.9394 68.9607 71.1979C70.07 72.8932 69.8096 74.6528 69.5138 76.5298C69.2611 78.1337 67.8229 79.79 66.6366 80.8556C65.379 81.9852 63.7775 82.786 62.089 82.8682C60.9154 82.9253 59.7501 82.6388 58.6413 82.2501C57.6943 81.9182 56.7451 81.4903 56.0662 80.7513C55.7249 80.3797 55.1737 80.0249 54.9016 79.6313C54.6278 79.2351 54.6459 78.8511 54.5229 78.4158C54.4342 78.1015 54.2717 77.9658 54.3523 77.5942C54.665 76.1514 55.2066 74.7584 55.9506 73.4832C55.3079 74.5847 53.0094 74.2525 53.2808 72.7681C53.3426 72.4302 53.5026 72.1194 53.6627 71.8155C54.4831 70.2573 55.6009 68.163 57.1355 67.2186C58.6571 66.2821 60.6215 66.1538 62.2875 66.761C62.7352 66.9242 63.179 67.1323 63.5156 67.4697C63.8521 67.807 64.0672 68.2949 63.9785 68.763C64.2551 68.4659 64.5399 68.1625 64.9027 67.9803C65.2656 67.798 65.7287 67.7594 66.0633 67.9894C66.362 68.1946 66.5019 68.5744 66.5067 68.9368C66.5115 69.2992 66.4008 69.652 66.2894 69.9969C67.1785 69.3999 67.7449 69.8434 68.376 70.4777Z" fill="#27254C"/>
<path d="M63.4087 93.1207C62.965 93.8023 62.4305 94.0727 61.6741 94.3992C60.1553 95.0548 59.3451 95.1411 57.7106 94.4501C56.8795 94.0981 55.9582 93.7324 55.3722 93.0313C55.0934 92.6994 55.0588 92.3936 54.9309 92.0046C54.7815 91.5479 54.4588 91.1504 54.7168 90.6544C54.9848 90.1392 55.7673 90.227 56.2071 89.8834C56.8054 89.4158 57.2653 88.6662 57.4179 87.9317C57.583 87.1215 57.4707 85.4783 57.3571 84.6198L63.7946 82.276C63.9524 83.1949 63.679 84.1746 63.6859 85.1173C63.7232 89.8164 64.8889 90.8393 63.4087 93.1207Z" fill="#FCA987"/>
<path d="M63.4087 93.1207C62.9651 93.8023 62.4305 94.0727 61.6742 94.3993C60.1553 95.0548 59.3451 95.1412 57.7106 94.4501C57.0013 94.1497 56.2187 93.8378 55.6372 93.3071C55.1208 92.6038 54.9526 91.791 54.8015 90.9263C54.8339 91.1104 55.3715 91.4185 55.5201 91.5186C55.8128 91.7158 56.1263 91.8806 56.4521 92.0154C57.039 92.2565 57.5535 92.4961 58.1966 92.5161C59.3363 92.5523 60.4593 92.2466 61.4571 91.7049C61.81 91.5133 62.1513 91.4388 62.345 91.0657C62.5993 90.5757 62.6827 89.9897 62.674 89.4437C62.6488 87.868 61.9197 86.7242 62.1267 85.7303C62.2352 85.209 62.6869 84.7163 63.2176 84.7584C63.7028 84.7969 64.0474 85.2384 64.2883 85.6613C65.2804 87.4026 64.8994 88.3548 64.3275 90.285C64.0292 91.2917 64.0023 92.2086 63.4087 93.1207Z" fill="#F69E7C"/>
<path d="M63.5001 84.0151C62.2235 87.2407 58.9474 88.9857 57.1221 88.7549C57.2592 88.4895 57.3605 88.2097 57.4177 87.932C57.5552 87.2556 57.4921 85.9343 57.4281 85.2509C58.0098 85.1016 58.6933 85.1216 59.2752 85.1089C60.7494 85.0772 62.2705 84.8291 63.5001 84.0151Z" fill="#F69E7C"/>
<path d="M66.8522 76.0739C66.7578 76.9603 66.4698 77.5834 66.1719 78.3258C66.0622 78.5891 65.5471 79.9765 65.37 80.4063H65.3675C65.2607 80.6769 65.149 80.9475 65.0348 81.2182V81.2206C64.3002 83.0044 63.7085 84.6492 62.1548 85.4984C61.3752 85.9255 60.5658 86.3178 59.7168 86.5934C57.9192 87.1768 55.9206 86.5711 54.7289 85.0789C53.8947 84.0336 53.4974 82.6854 53.4403 81.3523C53.3289 78.7542 54.2309 76.3535 55.5134 74.1151C55.6276 73.9189 56.7051 72.0245 56.8516 72.0792C58.5399 72.7122 60.5733 72.8885 62.2963 73.4248C64.0169 73.9611 65.5587 74.8176 66.8522 76.0739Z" fill="#FCA987"/>
<path d="M66.4841 80.8073C66.4792 80.8296 66.4767 80.852 66.4692 80.8743C66.284 81.76 65.5665 82.4373 64.925 82.58C64.696 82.6392 64.4118 82.6156 64.2372 82.4583H64.2348V82.4559C64.0393 82.291 63.9479 82.0101 64.0709 81.8004C64.0871 81.7669 64.51 80.8932 64.483 80.9489C64.5972 80.7701 64.6494 80.559 64.7189 80.3579C64.7884 80.1568 64.8331 80.0823 64.9696 79.916C65.7622 78.9648 66.7097 79.5652 66.4841 80.8073Z" fill="#FCA987"/>
<path d="M66.2656 81.4123C66.132 81.9196 65.7546 82.4033 65.3529 82.733C65.201 82.8578 65.0635 82.9054 64.8846 82.9765C64.8538 82.9888 64.1383 83.245 64.2227 83.0557C64.2028 83.1003 64.1854 83.1451 64.1655 83.1897C63.9957 83.1897 63.8336 83.1475 63.7062 83.0383C63.0944 84.5239 62.6419 85.6191 61.9608 86.3975C61.7539 84.5759 62.7289 82.7119 64.697 81.8887C65.1437 81.7019 65.7764 81.3807 66.2656 81.4123Z" fill="#F69E7C"/>
<path d="M72.9681 101.754C72.7433 103.913 72.7565 106.211 72.135 108.291C72.1052 108.387 72.0721 108.473 72.0358 108.549H46.5114C46.4718 108.377 46.442 108.198 46.4354 108.02C46.3656 106.458 46.1597 100.47 46.2998 98.9076C46.4619 96.6759 47.09 94.6294 47.7315 92.4571C47.9034 91.8752 48.0885 91.2702 48.5084 90.8338C49.2423 90.0796 50.4215 90.0674 51.4741 90.1031C51.9025 90.1171 54.1107 90.1935 54.4597 90.2056C54.6548 90.2156 54.8664 90.2254 55.0218 90.3445C55.1739 90.4635 55.2367 90.6552 55.3127 90.8272C55.9508 92.2885 57.6866 92.93 59.2769 93.049C60.4374 93.1349 61.6541 93.0093 62.6691 92.4407C63.6875 91.8719 64.4677 90.7942 64.4512 89.627C65.8721 90.0387 67.3312 90.19 68.7394 90.1164C68.5609 90.1263 69.3478 92.7448 69.4437 92.9663C69.8867 93.9847 70.5645 94.8212 71.2191 95.6874L71.1993 95.5981C72.7679 97.1682 73.5345 96.4771 72.9681 101.754Z" fill="#72D497"/>
<path d="M71.981 108.021C71.8419 108.244 71.6507 108.418 71.4298 108.549C71.3948 108.55 50.0273 108.553 49.9936 108.549C49.8 108.53 49.6187 108.492 49.435 108.423C49.2687 108.358 48.7051 107.869 48.6008 107.869C52.0444 107.576 55.4979 107.388 58.9539 107.301C60.9997 107.249 63.0654 107.231 65.0664 106.802C65.6797 106.67 66.3525 106.447 66.6455 105.893C66.9068 105.399 66.7865 104.663 66.7579 104.124C66.5438 100.086 64.482 96.7752 64.1027 94.1144C63.9331 92.9252 64.05 91.6546 64.6753 90.6291C64.8124 90.4043 64.9882 90.1817 65.2382 90.0991C66.2451 89.7666 66.8692 92.8008 67.0453 93.4345C67.5442 95.227 67.9465 97.0891 68.5522 98.8518C68.7558 99.4427 69.1854 99.8003 69.5056 100.339C69.8408 100.903 70.5559 101.99 70.5559 102.66C71.179 104.331 71.966 106.238 71.981 108.021Z" fill="#309D6D"/>
<path d="M50.2935 108.836C50.1094 108.829 49.9238 108.826 49.7389 108.827C49.9453 108.782 50.1225 108.794 50.2935 108.836Z" fill="#309D6D"/>
<path d="M70.821 82.3046C70.9256 82.2471 70.9965 82.2421 71.0719 82.3472C71.1754 82.4914 71.1907 82.6846 71.1521 82.8579C71.1136 83.0312 71.0268 83.1895 70.9391 83.3438C70.2282 84.5952 69.248 86.3116 67.6311 86.4836C67.7701 86.9398 68.6474 88.303 68.788 88.7611L64.6889 90.8838C64.2574 89.9218 63.2779 87.5871 62.8519 86.6407C62.5492 85.9708 62.3958 85.5301 62.8057 84.4794C63.3114 83.181 63.9424 82.671 65.0463 82.2709C65.4526 82.1236 65.7278 81.8957 66.0499 81.5943C66.7503 80.9388 67.3499 80.1858 67.9462 79.4371C68.1585 79.1706 68.8031 77.9546 69.2444 78.3983C69.3868 78.5415 69.3609 78.7767 69.3108 78.9723C69.1724 79.5122 68.9239 80.0238 68.5851 80.4664C68.9775 80.0182 69.3699 79.57 69.7623 79.1219C69.9571 78.8995 70.2564 78.6563 70.5122 78.8044C70.6589 78.8892 70.7162 79.0801 70.693 79.2479C70.6611 79.4781 70.6498 79.4516 69.2319 81.8605C69.555 81.5481 69.878 81.2358 70.201 80.9234C70.3222 80.8063 70.4669 80.6805 70.6345 80.6981C70.8324 80.7188 70.9563 80.9433 70.9404 81.1417C70.9195 81.4029 70.8437 81.4638 69.7006 83.1511C70.0056 82.8075 70.4204 82.5246 70.821 82.3046Z" fill="#FCA987"/>
<path d="M68.7387 88.631C67.6054 89.4329 65.8385 90.0187 64.4124 90.2546C64.1374 89.6214 63.777 88.775 63.4565 88.0286C64.9739 87.9886 66.4704 87.5657 67.9353 87.1267C68.2118 87.6381 68.5877 88.2728 68.7387 88.631Z" fill="#F69E7C"/>
<path d="M66.2786 88.348C65.2041 88.7827 64.095 89.3149 63.2289 90.1007C64.0646 93.4087 65.349 95.9335 66.5697 99.1196C66.8979 99.9761 67.2607 100.815 67.6272 101.655C67.9394 102.372 67.9746 103.096 68.3552 103.816C68.8679 104.786 69.3806 105.756 69.8933 106.726C70.4875 107.851 71.1463 109.041 72.275 109.627C72.8013 109.9 73.3919 110.018 73.9736 110.134C75.6144 110.46 77.1826 109.882 77.8796 108.302C79.1939 105.322 78.6763 102.625 77.2105 101.007C76.6815 100.423 76.1605 99.8851 75.7374 99.217C74.5226 97.2986 75.274 96.8504 74.8809 96.4455C74.7728 96.3341 74.609 96.304 74.4645 96.2474C73.977 96.0565 73.6965 95.5556 73.4551 95.091C71.5536 91.4316 71.4662 91.1724 71.01 90.7428C70.189 89.9696 70.4722 90.5854 69.3814 87.8272C69.0755 87.0535 66.978 88.0649 66.2786 88.348Z" fill="#72D497"/>
<path d="M44.4652 103.785C44.476 103.788 44.4868 103.791 44.4976 103.794C44.4952 103.796 44.4929 103.797 44.4906 103.799C44.4898 103.799 44.4898 103.799 44.4898 103.799C44.4814 103.794 44.4737 103.789 44.4652 103.785Z" fill="#72D497"/>
<path d="M52.1982 95.3071C51.9701 96.0213 51.5667 96.2428 51.127 96.7817C50.3797 97.6942 50.069 99.3209 49.1829 100.085C47.5189 101.507 44.5113 102.259 42.6001 103.269C43.1093 103.407 43.5755 103.54 44.0681 103.675C43.8796 103.662 43.668 103.692 43.4432 103.758C40.8763 104.504 37.8145 109.292 39.2211 110.443C39.2972 110.503 39.3864 110.552 39.479 110.582C37.482 110.037 34.7841 109.217 32.8731 108.473C32.3276 108.261 31.7523 108.01 31.3621 107.593C30.6777 106.866 30.5554 105.242 30.8563 104.34C31.0745 103.689 31.501 103.126 31.9341 102.594C35.7658 97.8608 39.5235 95.1506 44.531 91.9546C46.2106 90.88 48.0521 89.7857 50.0392 89.9312C50.8263 89.9868 51.6599 90.2935 52.0725 90.9693C52.38 91.4752 52.4032 92.1001 52.4131 92.6952C52.4317 93.5523 52.4628 94.4842 52.1982 95.3071Z" fill="#72D497"/>
<path d="M47.0272 96.2726C47.0264 96.3071 46.8985 102.384 46.8949 102.591C46.8784 103.484 46.852 104.409 46.4552 105.209C46.4949 104.737 46.4387 104.257 46.2998 103.801C46.2891 103.379 46.271 102.409 46.2634 101.718C46.0175 101.816 45.5126 102.023 45.3972 102.068C45.3542 101.758 45.5857 101.513 45.751 101.027C46.0002 100.283 45.6919 101.054 47.0272 96.2726Z" fill="#309D6D"/>
<path d="M43.3029 108.296C42.9448 108.735 42.5658 109.125 42.1869 109.454C40.9992 110.483 39.8077 110.92 39.2223 110.443C37.967 109.418 40.3045 105.288 42.8747 103.99C43.5864 103.629 44.2103 103.56 44.5853 103.866C44.7209 103.976 44.8149 104.128 44.8696 104.314C45.1291 105.186 44.5245 106.798 43.3029 108.296Z" fill="#247F53"/>
<path d="M44.4652 103.785C44.3304 103.748 44.1994 103.712 44.0693 103.675C44.2164 103.685 44.3496 103.722 44.4652 103.785Z" fill="#309D6D"/>
<path d="M49.1815 102.812C49.6682 102.509 50.1866 102.258 50.7256 102.062C51.0246 101.954 51.1376 101.982 51.3565 102.184C51.8701 102.657 52.3136 103.206 52.6683 103.808C52.7537 103.952 52.8355 104.105 52.8578 104.271C52.9021 104.601 52.6805 104.941 52.3671 105.052C52.0537 105.163 51.6797 105.05 51.4651 104.795" fill="#F69E7C"/>
<path d="M48.4514 99.116L46.9634 100.111L52.6181 108.564L54.1061 107.569L48.4514 99.116Z" fill="#2D4987"/>
<path d="M47.7078 99.6136L46.9637 100.111L52.6184 108.564L53.3625 108.066L47.7078 99.6136Z" fill="#1B3370"/>
<path d="M54.1064 107.568L54.3988 109.433C54.4135 109.527 54.3116 109.595 54.2304 109.546L52.6183 108.564L54.1064 107.568Z" fill="#F6BE9B"/>
<path d="M53.7306 109.241L54.2304 109.546C54.3116 109.595 54.4135 109.527 54.3988 109.433L54.3082 108.855L53.7306 109.241Z" fill="#1B3370"/>
<path d="M48.1716 98.6971L46.6836 99.6926L47.0936 100.305L48.5816 99.31L48.1716 98.6971Z" fill="#FCB21F"/>
<path d="M46.5842 97.9341C46.9951 97.6592 47.5511 97.7694 47.826 98.1804L48.1718 98.6973L46.6837 99.6928L46.3379 99.1759C46.063 98.765 46.1732 98.209 46.5842 97.9341Z" fill="#FECA3E"/>
<path d="M53.1032 106.719C52.8281 106.822 52.6342 106.713 51.2262 106.209C51.4542 106.494 51.9186 106.644 51.9248 107.009C51.9278 107.195 51.7954 107.358 51.6467 107.471C51.2932 107.74 50.8056 107.821 50.3836 107.684C50.6023 107.792 50.6547 108.126 50.57 108.371C50.4159 108.817 49.9453 109.132 49.4747 109.104C49.7312 109.135 49.8375 109.489 49.715 109.716C49.5933 109.944 49.3361 110.061 49.0911 110.142C48.0529 110.484 46.9338 110.446 45.8416 110.406C45.6876 110.399 45.5304 110.393 45.3856 110.342C45.0113 110.211 44.7918 109.819 44.4436 109.63C44.1055 109.446 43.6973 109.477 43.313 109.488C41.8441 109.53 40.3899 109.207 38.9813 108.809C39.4303 107.039 41.2174 104.827 42.8747 103.99C43.1951 104.12 44.3342 104.587 44.6662 104.463C44.7564 104.429 44.822 104.36 44.8758 104.308C45.1492 104.034 45.4626 103.737 45.6591 103.401C45.8046 103.152 45.8909 102.954 46.1998 102.854C46.4974 102.76 47.0226 102.891 48.0421 102.746C49.8228 102.492 51.3641 103.979 52.7574 105.117C53.0162 105.328 53.285 105.555 53.402 105.868C53.5184 106.182 53.4159 106.602 53.1032 106.719Z" fill="#FCA987"/>
<path d="M43.0342 104.054C42.1364 104.769 41.1367 106.975 41.4645 109.368C40.6288 109.245 39.8015 109.041 38.9813 108.809C39.4303 107.039 41.2174 104.827 42.8747 103.99C42.9279 104.011 42.981 104.033 43.0342 104.054Z" fill="#F69E7C"/>
<path d="M55.2779 70.9481C54.8964 71.4861 53.2944 73.4239 54.0622 74.0362C54.3716 74.283 55.2108 74.0856 55.5919 73.979C56.4503 73.7388 57.2794 73.2574 57.9604 72.9281C57.7217 73.6014 57.1266 74.2086 57.2556 74.9113C57.3596 75.4779 57.938 75.8632 58.5115 75.9178C59.0849 75.9723 59.6498 75.766 60.1746 75.5285C60.7207 75.2814 61.2497 74.9966 61.7566 74.6768C61.1315 75.1339 61.317 76.6881 63.2973 76.6234C63.8513 76.6053 64.4009 76.4837 64.9546 76.5068C64.4158 77.3693 64.0073 78.282 63.6959 79.246C63.6145 79.498 63.5429 79.8203 63.7465 79.9895C63.8804 80.1007 64.0844 80.0859 64.2384 80.0048C64.3923 79.9236 64.5094 79.7889 64.6297 79.6632C65.1264 79.1443 66.1852 78.7902 66.3921 78.0592C66.8279 76.5197 68.1851 73.4571 66.9061 71.7594C66.6714 71.4479 66.3579 71.2045 66.0311 70.9918C64.9277 70.2736 63.4677 69.6988 62.1487 69.5732C61.5329 69.5146 61.0008 69.1511 60.4006 68.9819C59.6939 68.7827 58.8917 68.5847 58.1536 68.6088C57.0395 68.6453 55.9253 70.0352 55.2779 70.9481Z" fill="#27254C"/>
<path d="M46.145 100.183C45.9317 100.715 45.9017 101.296 45.8716 101.878C44.6821 102.36 43.5147 102.787 42.6028 103.266L42.525 103.245C41.5214 103.091 40.5109 102.979 39.4973 102.911C43.4605 102.113 43.3008 102.686 44.9096 101.479C45.3926 101.118 45.8978 100.728 46.145 100.183Z" fill="#309D6D"/>
<path d="M43.4416 103.759C40.6146 104.604 37.5175 109.929 39.4796 110.583C37.4808 110.037 34.7835 109.216 32.8742 108.472C32.3288 108.26 31.752 108.009 31.3615 107.592C32.801 107.94 34.2567 108.199 35.7332 108.187C36.4611 108.181 37.2182 108.1 37.839 107.72C39.2784 106.837 40.294 105.378 41.6993 104.414C42.1861 104.08 42.8544 103.703 43.4416 103.759Z" fill="#309D6D"/>
<path d="M94.0605 128.023V124.972H20.1962V128.023C20.1962 129.75 21.5961 131.15 23.3229 131.15H90.9339C92.6606 131.15 94.0605 129.75 94.0605 128.023Z" fill="#BFC9D1"/>
<path d="M94.0607 124.972H20.1964V127.355H94.0607V124.972Z" fill="#9FADB7"/>
<path d="M97.442 120.283H16.815V125.207H97.442V120.283Z" fill="#8D3826"/>
<path d="M29.5953 131.15L29.5953 174.065C29.5954 175.215 25.8563 175.215 25.8563 174.065L25.8563 131.15H29.5953Z" fill="#BFC9D1"/>
<path d="M29.5953 131.15H25.8563V136.023H29.5953V131.15Z" fill="#9FADB7"/>
<path d="M87.8228 131.15L87.8228 174.065C87.8228 175.215 84.0837 175.215 84.0837 174.065L84.0837 131.15H87.8228Z" fill="#BFC9D1"/>
<path d="M87.8227 131.15H84.0837V136.023H87.8227V131.15Z" fill="#9FADB7"/>
<path d="M25.3616 115.196L25.2689 114.286C25.2096 113.703 25.6354 113.18 26.2181 113.12L29.5721 112.778C29.8467 112.749 30.0923 112.949 30.1203 113.224C30.1484 113.499 29.9484 113.744 29.6737 113.772L26.3197 114.115C26.2853 114.119 26.2602 114.15 26.2637 114.184L26.3564 115.094C26.3844 115.369 26.1844 115.614 25.9098 115.642C25.638 115.671 25.3898 115.473 25.3616 115.196Z" fill="#27254C"/>
<path d="M29.6437 114.098C42.1113 113.371 37.6044 113.634 38.6232 113.574L38.772 115.034C37.7533 115.183 42.2293 114.527 29.8719 116.338L29.6437 114.098Z" fill="#F8E77F"/>
<path d="M38.0847 115.134L38.772 115.034L38.6234 113.574L37.9297 113.615L38.0847 115.134Z" fill="#FCCF36"/>
<path d="M32.3591 114.416L36.0352 114.202C36.2241 114.191 36.3881 114.33 36.4073 114.519L36.4112 114.557C36.4304 114.745 36.2979 114.915 36.1107 114.943L32.4673 115.477C32.2681 115.506 32.0848 115.363 32.0644 115.163L32.0279 114.805C32.0075 114.605 32.1582 114.428 32.3591 114.416Z" fill="white"/>
<path d="M25.9827 114.234L30.0052 113.823C30.4807 113.774 30.757 116.485 30.2814 116.534L26.2589 116.945C25.5107 117.021 24.8423 116.477 24.766 115.728C24.6897 114.98 25.2344 114.311 25.9827 114.234Z" fill="#F8E77F"/>
<path d="M29.6437 114.098L30.7333 114.035C30.9569 114.537 31.0694 115.642 30.9518 116.179L29.8719 116.338L29.6437 114.098Z" fill="#FCCF36"/>
<path d="M29.2717 113.898L30.0052 113.823C30.4805 113.774 30.7567 116.485 30.2814 116.534L29.548 116.609C29.6449 115.925 29.5046 114.549 29.2717 113.898Z" fill="#27254C"/>
<path d="M38.691 115.089L39.6425 114.992C39.8058 114.639 40.3359 114.374 40.8154 114.174C40.8865 114.145 40.8714 114.041 40.7949 114.032C40.262 113.968 39.731 113.767 39.5715 113.43L38.5328 113.536L38.691 115.089Z" fill="#9DD3F5"/>
<path d="M39.547 114.171L38.5425 114.273L38.5567 114.412L39.5612 114.31L39.547 114.171Z" fill="white"/>
<path d="M39.5348 114.057C39.6365 114.046 39.7277 114.12 39.738 114.221C39.7484 114.323 39.674 114.414 39.5723 114.424C39.4705 114.434 39.3802 114.361 39.3698 114.259C39.3594 114.157 39.4331 114.067 39.5348 114.057Z" fill="white"/>
<path d="M38.3999 113.367C38.5104 113.356 38.6065 113.41 38.6145 113.489L38.7806 115.119C38.7886 115.197 38.7055 115.27 38.595 115.282C38.4845 115.293 38.3884 115.238 38.3804 115.16L38.2143 113.53C38.2063 113.451 38.2894 113.378 38.3999 113.367Z" fill="#27254C"/>
<path d="M69.088 117.265H57.4116C57.3195 117.265 57.2449 117.191 57.2449 117.099C57.2449 117.007 57.3195 116.932 57.4116 116.932H69.088C69.1802 116.932 69.2547 117.007 69.2547 117.099C69.2547 117.191 69.1802 117.265 69.088 117.265Z" fill="white"/>
<path d="M67.069 115.31H55.3926C55.3004 115.31 55.2259 115.235 55.2259 115.143C55.2259 115.051 55.3004 114.976 55.3926 114.976H67.069C67.1611 114.976 67.2357 115.051 67.2357 115.143C67.2357 115.235 67.1611 115.31 67.069 115.31Z" fill="white"/>
<path d="M65.0499 113.354H53.3733C53.2812 113.354 53.2067 113.28 53.2067 113.187C53.2067 113.095 53.2812 113.021 53.3733 113.021H65.0499C65.142 113.021 65.2166 113.095 65.2166 113.187C65.2166 113.28 65.142 113.354 65.0499 113.354Z" fill="white"/>
<path d="M63.0307 111.398H51.3543C51.2622 111.398 51.1876 111.324 51.1876 111.231C51.1876 111.139 51.2622 111.065 51.3543 111.065H63.0307C63.1228 111.065 63.1974 111.139 63.1974 111.231C63.1974 111.324 63.1228 111.398 63.0307 111.398Z" fill="white"/>
<path d="M172.777 108.549L184.64 120.283H104.013L113.129 108.549H172.777Z" fill="#C86150"/>
<path d="M127.202 111.931L125.705 113.088C125.669 113.096 116.646 115.078 116.683 115.069C116.199 115.179 115.72 114.878 115.608 114.394C115.499 113.912 115.802 113.431 116.283 113.321C116.317 113.314 117.453 113.055 117.383 113.071L117.612 113.019V113.021L125.306 111.34L127.158 111.733C127.25 111.752 127.277 111.874 127.202 111.931Z" fill="#8D3826"/>
<path d="M132.193 114.879L130.696 116.036C130.659 116.044 121.637 118.026 121.674 118.017C121.189 118.127 120.71 117.826 120.598 117.342C120.489 116.86 120.792 116.379 121.274 116.269C121.307 116.262 122.443 116.003 122.374 116.019L122.602 115.967V115.969L130.296 114.288L132.148 114.681C132.24 114.7 132.267 114.822 132.193 114.879Z" fill="#8D3826"/>
<path d="M137.672 109.443C137.171 110.142 136.634 110.914 135.915 111.278C134.753 111.864 133.278 111.348 132.374 110.412C131.982 110.004 131.671 109.533 131.411 109.034C131.868 109.317 132.521 109.411 132.997 109.478C134.389 109.676 135.631 109.499 137.672 109.443Z" fill="#C86150"/>
<path d="M154.133 108.55C154.101 108.624 154.066 108.699 154.029 108.77C153.443 109.898 152.638 111.134 151.253 111.293C150.96 111.328 150.66 111.305 150.367 111.271C148.929 111.086 148.149 110.591 147.549 109.843C148.907 110.169 150.147 110.689 151.29 110.322C151.836 110.146 152.301 109.781 152.75 109.424C153.083 109.158 153.418 108.892 153.666 108.55H154.133Z" fill="#C86150"/>
<path d="M152.049 109.171L161.731 119.037H144.752L135.069 109.171H152.049Z" fill="#8D3826"/>
<path d="M150.968 109.171L160.651 119.037H143.671L133.989 109.171H150.968Z" fill="#9DD3F5"/>
<path d="M181.259 128.023V124.972H107.395V128.023C107.395 129.75 108.794 131.15 110.521 131.15H178.132C179.859 131.15 181.259 129.75 181.259 128.023Z" fill="#BFC9D1"/>
<path d="M181.259 124.972H107.395V127.355H181.259V124.972Z" fill="#9FADB7"/>
<path d="M184.64 120.283H104.013V125.207H184.64V120.283Z" fill="#8D3826"/>
<path d="M116.794 131.15L116.794 174.065C116.794 175.215 113.055 175.215 113.055 174.065L113.055 131.15H116.794Z" fill="#BFC9D1"/>
<path d="M116.794 131.15H113.055V136.023H116.794V131.15Z" fill="#9FADB7"/>
<path d="M175.021 131.15V174.065C175.021 175.215 171.282 175.215 171.282 174.065L171.282 131.15H175.021Z" fill="#BFC9D1"/>
<path d="M175.021 131.15H171.282V136.023H175.021V131.15Z" fill="#9FADB7"/>
<path d="M156.287 117.265H144.61C144.518 117.265 144.443 117.191 144.443 117.099C144.443 117.007 144.518 116.932 144.61 116.932H156.287C156.379 116.932 156.453 117.007 156.453 117.099C156.453 117.191 156.379 117.265 156.287 117.265Z" fill="white"/>
<path d="M154.267 115.31H142.591C142.499 115.31 142.424 115.235 142.424 115.143C142.424 115.051 142.499 114.976 142.591 114.976H154.267C154.36 114.976 154.434 115.051 154.434 115.143C154.434 115.235 154.36 115.31 154.267 115.31Z" fill="white"/>
<path d="M152.248 113.354H140.572C140.48 113.354 140.405 113.28 140.405 113.187C140.405 113.095 140.48 113.021 140.572 113.021H152.248C152.34 113.021 152.415 113.095 152.415 113.187C152.415 113.28 152.34 113.354 152.248 113.354Z" fill="white"/>
<path d="M150.229 111.398H138.553C138.461 111.398 138.386 111.324 138.386 111.231C138.386 111.139 138.461 111.065 138.553 111.065H150.229C150.321 111.065 150.396 111.139 150.396 111.231C150.396 111.324 150.321 111.398 150.229 111.398Z" fill="white"/>
<path d="M134.875 86.7819C133.935 85.4832 132.958 84.0789 132.907 82.4769C132.832 80.1473 134.588 78.5108 135.274 76.654C135.828 75.1543 136.498 73.6988 137.282 72.306C137.698 71.5678 138.152 70.8387 138.763 70.2517C139.375 69.6648 140.162 69.226 141.008 69.1767C141.854 69.1274 142.749 69.522 143.16 70.2625C143.651 69.7185 144.469 69.618 145.198 69.6874C147.406 69.8972 148.908 71.2391 150.044 73.0227C151.101 74.6816 151.375 75.3402 151.275 77.2701C151.227 78.2157 151.232 78.8169 151.56 79.7109C152.256 81.6053 153.999 83.821 153.346 86.0665C152.948 87.431 151.1 87.7476 149.745 88.178C148.391 88.6084 146.974 88.8009 145.563 88.9687C143.589 89.2035 141.609 89.3939 139.623 89.489C137.91 89.571 137.435 89.4258 136.16 88.7412C135.882 88.5918 135.599 88.4379 135.385 88.206C135.139 87.9398 134.87 87.1442 134.875 86.7819Z" fill="#27254C"/>
<path d="M145.467 90.1801C145.065 91.4127 144.31 92.0103 143.202 92.3566C140.414 93.2218 138.238 91.7043 138.176 89.6468C138.141 88.5064 138.587 87.7778 138.91 85.2829C139.006 84.5384 139.076 83.7906 139.146 83.0435L144.974 82.1766C145.046 83.2624 145.118 84.3498 145.283 85.4255C145.532 87.0344 145.98 88.617 145.467 90.1801Z" fill="#F69E7C"/>
<path d="M148.069 78.0064C147.966 79.991 147.968 80.7613 147.733 81.5236C147.135 83.4603 145.444 84.1478 143.883 85.1279C143.11 85.6139 142.585 85.6134 141.715 85.3409C141.06 85.1346 140.397 84.925 139.808 84.5687C138.911 84.0254 138.677 83.296 138.256 82.4173C137.827 81.5194 137.688 80.5108 137.683 79.5231C137.672 76.6661 137.8 72.8812 140.474 71.7399C141.319 71.3791 142.845 71.2049 143.971 71.436C145.242 71.6968 146.337 72.494 147.129 73.5026C148.294 74.9859 148.162 76.1645 148.069 78.0064Z" fill="#FCA987"/>
<path d="M142.511 85.5169C142.27 85.4959 142.012 85.4339 141.715 85.3408C141.06 85.1346 140.397 84.925 139.808 84.5686C138.911 84.0254 138.677 83.296 138.256 82.4173C137.7 81.2544 137.679 80.088 137.683 78.9279C138.121 79.1224 138.412 79.6254 138.337 80.1024C138.762 80.0253 139.247 80.0086 139.572 80.2919C139.796 80.4856 139.897 80.7824 139.98 81.0666C140.122 81.5579 140.24 82.0551 140.332 82.5582C140.4 82.9296 140.453 83.3119 140.381 83.6816C140.354 83.8136 140.377 83.8483 140.491 83.9021C140.878 84.0799 141.213 84.344 141.561 84.5854C141.989 84.8822 142.291 85.0572 142.511 85.5169Z" fill="#F69E7C"/>
<path d="M141.39 73.3553C140.709 73.7815 140.372 74.5727 139.971 75.2688C139.538 76.0194 138.883 76.5552 138.411 77.2542C138.227 77.5266 138.138 77.8478 137.942 78.1245C137.854 78.2482 137.204 78.8594 137.216 78.9544C137.163 78.5173 137.173 77.9749 137.22 77.5373C137.284 76.9486 137.171 76.3571 137.116 75.7675C136.946 73.971 137.352 72.0628 138.521 70.6883C138.922 70.2177 139.413 69.7507 139.95 69.4419C140.57 69.0855 141.427 68.3102 142.326 68.4158C142.617 68.45 142.904 68.5946 143.062 68.8411C143.933 68.1113 145.972 68.3873 146.945 69.2513C147.218 69.4938 147.432 69.7941 147.644 70.0917C148.551 71.3674 148.639 71.7485 148.676 72.9599C148.739 75.0404 148.801 77.1392 148.43 79.1873C148.141 78.2993 147.851 77.4093 147.643 76.4982C147.455 75.6747 147.375 75.2273 146.754 74.6107C145.045 72.9145 142.507 72.6556 141.39 73.3553Z" fill="#27254C"/>
<path d="M158.136 91.6234C157.101 95.4385 156.198 96.161 156.374 97.0754C156.48 97.6077 156.959 98.0541 156.906 98.5896C156.849 99.1759 156.226 99.4927 155.805 99.9486C154.954 100.893 155.13 101.844 155.124 102.719C155.113 104.195 154.666 105.77 154.248 107.183C154.116 107.649 153.97 108.122 153.693 108.518C153.683 108.528 153.676 108.538 153.666 108.548H130.959C130.892 108.424 128.959 101.804 128.892 101.598C128.601 100.616 128.88 99.6187 128.519 98.6327C128.515 98.6294 128.515 98.6294 128.515 98.626C128.367 98.2663 128.248 98.1522 127.973 97.4886C127.848 97.1966 127.728 96.8507 127.811 96.5398C127.967 95.9182 128.142 95.69 128.049 95.0123C127.62 91.8274 125.214 87.8426 130.764 85.8143C132.653 85.134 134.504 85.1848 137.862 84.9977C138.226 84.9778 138.59 84.9613 138.95 84.9447C138.45 85.5905 138.565 86.798 138.56 87.5666C138.56 87.7088 138.566 87.8575 138.619 87.9898C138.857 88.6114 140.182 88.8463 140.851 88.942C142.318 89.1523 144.478 88.8093 145.238 87.6261C145.688 86.9682 145.344 86.092 145.278 85.3448C146.445 84.9546 147.662 84.915 148.889 84.9613C151.232 85.046 155.334 85.2538 157.012 86.9318C157.69 87.6096 158.242 88.6543 158.378 89.5206C158.483 90.2248 158.321 90.939 158.136 91.6234Z" fill="#9A9AE2"/>
<path d="M140.073 105.3C139.758 106.181 139.313 107.005 138.807 107.797C137.821 109.203 136.428 110.28 134.643 110.31C133.439 110.332 132.421 109.836 131.52 109.081C131.465 109.034 131.411 108.987 131.361 108.932C131.013 108.249 130.8 107.648 130.102 105.699C129.653 104.443 129.228 103.174 128.975 101.881C128.578 99.8347 128.907 99.8441 128.518 98.6335C128.516 98.631 128.516 98.6285 128.516 98.626C128.454 98.4398 128.379 98.2486 128.292 98.0352C128.331 98.0408 134.403 98.9266 134.368 98.9215C135.446 99.0784 131.625 98.5222 139.604 99.6837C140.747 101.261 140.745 103.463 140.073 105.3Z" fill="#9A9AE2"/>
<path d="M156.045 99.5472C155.5 100.38 155.011 101.16 154.918 102.181C154.816 103.302 155.115 103.813 154.611 106.249C154.395 107.292 154.099 108.354 153.436 109.188C152.294 110.622 150.634 110.593 149.201 109.628C148.047 108.851 147.155 107.668 146.791 106.318C146.424 104.953 146.566 103.508 146.713 102.102C147.053 98.8573 148.304 95.984 149.634 93.0299C150.29 93.6964 147.26 90.6159 156.045 99.5472Z" fill="#9A9AE2"/>
<path d="M149.83 96.4647C150.311 94.7973 150.871 93.1224 151.859 91.6954C150.385 92.788 149.421 94.632 148.308 96.0905" fill="#8686E1"/>
<path d="M135.694 96.9563C135.325 95.2603 134.879 93.5517 133.989 92.0616C135.386 93.2507 136.224 95.1552 137.237 96.6851" fill="#8686E1"/>
<path d="M156.374 97.0753C156.48 97.6076 156.959 98.054 156.906 98.5896C156.849 99.1758 156.226 99.4926 155.805 99.9485C154.954 100.893 155.13 101.844 155.124 102.719C155.114 104.052 154.751 105.45 154.377 106.743C154.367 106.062 154.331 105.381 154.271 104.703C154.155 103.327 153.917 101.978 153.375 100.702C153.62 101.006 153.838 102.213 154.327 102.104C154.85 101.988 154.774 100.246 155.144 99.7997C155.379 99.5153 155.739 99.3302 155.898 98.9962C156.149 98.4607 155.785 97.8523 155.729 97.2671C155.624 96.2297 156.509 95.1511 157.363 94.0402C156.649 95.9773 156.245 96.4077 156.374 97.0753Z" fill="#8686E1"/>
<path d="M139.674 105.182C138.671 109.537 134.916 111.926 131.521 109.08C130.59 108.314 130.429 106.805 130.102 105.698C129.004 102.629 129.132 102.344 128.892 101.598C128.644 100.762 128.81 99.8789 128.638 99.0558C128.629 99.0218 128.611 98.9374 128.519 98.6326C128.515 98.6293 128.515 98.6293 128.515 98.6259C128.367 98.2662 128.248 98.1521 127.973 97.4885C127.848 97.1965 127.728 96.8506 127.811 96.5397C127.967 95.9181 128.142 95.6899 128.049 95.0122C127.822 93.3252 127.112 91.6999 127.166 89.9503C127.378 92.3075 128.455 93.9816 128.459 95.9809C128.459 96.4802 128.4 97.0191 128.651 97.4522C128.787 97.6836 128.998 97.8589 129.173 98.0605C130.215 99.2806 129.828 101.403 131.104 102.375C132.84 99.8228 134.612 97.3298 136.738 95.075C136.212 95.7032 135.832 96.6719 135.462 97.3795C134.982 98.2887 134.536 99.2177 134.129 100.16C133.3 102.084 132.962 103.889 133.141 106.006C133.227 107.024 133.541 107.93 134.701 107.999C135.303 108.032 135.892 107.761 136.341 107.364C136.794 106.968 137.125 106.455 137.419 105.929C137.677 105.929 138.348 103.979 138.444 103.718C138.712 103 138.976 102.263 138.986 101.492C139.003 99.9551 139.529 98.54 139.955 97.0621C140.002 100.641 140.169 103.002 139.674 105.182Z" fill="#8686E1"/>
<path d="M154.94 103.942C155.42 106.2 154.978 108.756 153.063 110.012C152.345 110.483 151.33 110.875 150.485 110.604C149.54 110.3 148.733 109.85 148.028 109.143C147.195 108.308 146.984 107.746 146.772 106.595C146.383 104.489 146.238 102.338 146.34 100.199C147.178 102.177 147.688 104.227 148.654 106.144C148.974 106.779 149.376 107.355 149.959 107.768C150.652 108.257 151.125 108.184 151.635 107.75C152.854 106.72 153.254 104.965 153.046 103.385C152.787 101.445 151.915 99.9501 149.316 94.7902C151.843 96.7963 151.629 97.2277 152.158 98.075C152.384 98.4384 152.674 98.7505 152.887 99.1312C153.744 100.659 154.576 102.231 154.94 103.942Z" fill="#8686E1"/>
<path d="M138.377 103.511C138.293 106.291 136.809 108.537 135.8 109.203C135.399 109.467 134.909 109.62 134.43 109.546C132.222 109.199 131.94 105.381 132.299 103.177C132.411 102.479 132.591 101.787 132.863 101.134C133.299 100.081 134.407 98.308 135.55 98.2054C136.254 98.1417 136.898 98.6213 137.343 99.1704C138.425 100.503 138.425 101.902 138.377 103.511Z" fill="#27254C"/>
<path d="M142.149 87.6733C141.673 89.4598 141.297 91.2506 140.853 93.0132C139.902 96.8056 140.161 96.2607 139.955 98.2524C139.767 100.06 139.461 101.856 139.038 103.623C138.581 105.533 138.201 106.436 136.955 107.963C135.974 109.185 135.438 109.363 135.342 109.438C135.05 109.547 134.736 109.594 134.43 109.546C132.222 109.199 131.94 105.381 132.299 103.177C132.464 102.774 132.654 102.376 132.805 101.967C134.152 98.3144 134.885 97.3297 135.489 96.0667C135.785 95.4507 135.825 95.3281 138.709 88.2409C138.798 88.0221 138.558 87.8033 138.4 87.6281C138.073 87.2661 137.634 87.1672 135.726 85.7995C135.406 85.5706 135.063 85.3124 134.887 84.9502C134.728 84.6257 134.563 84.2208 134.683 83.8611C135.004 82.9011 135.648 82.03 136.127 81.143C136.234 80.9451 136.935 79.6699 137.196 80.2392C137.328 80.0262 137.635 79.9701 137.84 80.1134C138.044 80.2568 138.115 80.5444 138.048 80.7841C138.334 80.5393 138.795 80.598 139.088 80.8353C139.38 81.0726 139.532 81.4431 139.617 81.8104C139.735 82.3268 139.789 82.7796 139.759 83.3086C139.753 83.4025 139.743 83.5014 139.69 83.5786C139.636 83.6565 139.525 83.701 139.444 83.6515C139.415 83.6331 139.394 83.6037 139.374 83.5752C139.139 83.2289 139.084 82.7737 138.804 82.4635C138.687 82.5943 138.527 82.6857 138.355 82.72C138.373 82.9959 138.468 83.2692 138.503 83.5425C139.346 83.7001 140.175 84.1311 140.835 84.6794C141.128 84.9225 141.392 85.1984 141.647 85.4801C142.235 86.1282 142.381 86.8039 142.149 87.6733Z" fill="#FCA987"/>
<path d="M141.45 90.5188C140.801 93.2985 140.571 94.0658 140.236 95.6381C140.054 96.4975 140.045 97.3786 139.955 98.2523C139.767 100.06 139.461 101.856 139.038 103.623C138.581 105.532 138.201 106.436 136.955 107.963C135.974 109.184 135.438 109.363 135.342 109.438C135.05 109.547 134.736 109.593 134.43 109.546C132.222 109.199 131.94 105.381 132.299 103.177C132.464 102.774 132.654 102.376 132.805 101.967C133.058 101.281 133.593 99.9051 133.795 99.4822C133.429 100.993 133.268 102.542 133.388 104.096C133.437 104.718 133.54 105.363 133.899 105.874C134.258 106.385 134.938 106.718 135.523 106.5C135.942 106.343 136.222 105.952 136.466 105.576C137.03 104.704 137.54 103.797 137.992 102.862C138.503 101.807 138.649 100.735 138.979 99.6415C139.883 96.6443 140.179 93.3636 141.45 90.5188Z" fill="#F69E7C"/>
<path d="M137.018 82.0528C136.98 82.0272 136.97 81.9755 136.996 81.9372C137.302 81.4799 137.641 81.038 138.005 80.6239C138.024 80.6021 138.064 80.5567 138.128 80.5551C138.232 80.553 138.292 80.6844 138.213 80.7522C138.184 80.7781 138.141 80.7789 138.11 80.7567C137.759 81.1586 137.431 81.5868 137.134 82.03C137.108 82.0681 137.057 82.0786 137.018 82.0528Z" fill="#B55C38"/>
<path d="M136.315 81.9358C136.271 81.9223 136.246 81.8756 136.26 81.8316C136.441 81.2402 136.727 80.6936 137.11 80.207C137.132 80.1796 137.18 80.1135 137.264 80.1192C137.37 80.1241 137.369 80.2817 137.263 80.2857C137.26 80.2884 137.253 80.2949 137.241 80.3102C136.871 80.7804 136.594 81.3087 136.419 81.8805C136.406 81.9241 136.359 81.9492 136.315 81.9358Z" fill="#B55C38"/>
<path d="M148.022 78.9279C147.969 79.9578 147.96 80.7868 147.733 81.5236C147.135 83.4603 145.444 84.1478 143.883 85.1279C143.649 85.2754 143.437 85.3777 143.233 85.4415C143.429 85.0488 143.791 84.8304 144.144 84.5854C144.492 84.344 144.828 84.0799 145.214 83.9021C145.51 83.7627 145.144 83.8133 145.373 82.5582C145.466 82.0551 145.583 81.5579 145.725 81.0666C145.808 80.7824 145.909 80.4856 146.133 80.2919C146.458 80.0086 146.944 80.0253 147.368 80.1024C147.293 79.6254 147.584 79.1224 148.022 78.9279Z" fill="#F69E7C"/>
<path d="M147.329 103.511C147.41 106.189 148.817 108.484 149.905 109.203C150.307 109.467 150.797 109.62 151.275 109.546C152.771 109.311 153.254 107.572 153.436 106.32C153.713 104.408 153.443 102.127 152.503 100.429C152.028 99.5708 151.134 98.2933 150.156 98.2054C149.452 98.1417 148.808 98.6213 148.362 99.1704C147.28 100.503 147.281 101.902 147.329 103.511Z" fill="#27254C"/>
<path d="M143.557 87.6733C144.033 89.4598 144.409 91.2506 144.852 93.0132C145.804 96.8056 145.544 96.2607 145.751 98.2524C145.939 100.06 146.245 101.856 146.667 103.623C147.127 105.544 147.512 106.446 148.751 107.963C149.732 109.185 150.268 109.363 150.364 109.438C150.656 109.547 150.969 109.594 151.275 109.546C152.771 109.311 153.254 107.572 153.436 106.32C153.585 105.288 153.578 104.231 153.406 103.177C153.241 102.774 153.052 102.376 152.901 101.967C152.353 100.483 151.754 99.0191 151.024 97.6152C149.856 95.375 150.645 97.2083 146.997 88.2409C146.908 88.0221 147.148 87.8033 147.305 87.6281C147.632 87.2661 148.071 87.1672 149.98 85.7995C150.299 85.5706 150.642 85.3124 150.819 84.9502C150.977 84.6257 151.143 84.2208 151.023 83.8611C150.702 82.9011 150.058 82.03 149.578 81.143C149.472 80.9451 148.771 79.6699 148.51 80.2392C148.378 80.0262 148.071 79.9701 147.865 80.1134C147.662 80.2568 147.59 80.5444 147.657 80.7841C147.371 80.5393 146.91 80.598 146.618 80.8353C146.325 81.0726 146.173 81.4431 146.089 81.8104C145.97 82.3268 145.917 82.7796 145.947 83.3086C145.952 83.4025 145.962 83.5014 146.016 83.5786C146.069 83.6565 146.181 83.701 146.261 83.6515C146.291 83.6331 146.312 83.6037 146.332 83.5752C146.567 83.2289 146.621 82.7737 146.901 82.4635C147.018 82.5943 147.179 82.6857 147.351 82.72C147.332 82.9959 147.237 83.2692 147.203 83.5425C146.359 83.7001 145.53 84.1311 144.87 84.6794C144.578 84.9225 144.314 85.1984 144.058 85.4801C143.47 86.1282 143.324 86.8039 143.557 87.6733Z" fill="#FCA987"/>
<path d="M144.256 90.5188C144.45 91.3522 144.644 92.1864 144.852 93.0131C145.804 96.8055 145.544 96.2606 145.751 98.2523C145.939 100.06 146.245 101.856 146.667 103.623C147.127 105.543 147.512 106.446 148.751 107.963C149.732 109.184 150.268 109.363 150.364 109.438C150.656 109.547 150.969 109.593 151.275 109.546C152.771 109.311 153.254 107.572 153.436 106.319C153.585 105.288 153.578 104.231 153.406 103.177C153.241 102.774 153.052 102.376 152.901 101.967C152.648 101.281 152.112 99.9051 151.911 99.4822C152.277 100.993 152.438 102.542 152.317 104.096C152.269 104.718 152.166 105.363 151.807 105.874C151.448 106.385 150.768 106.718 150.183 106.5C149.763 106.343 149.483 105.952 149.239 105.576C148.675 104.704 148.165 103.797 147.714 102.862C147.203 101.807 147.056 100.735 146.727 99.6415C145.983 97.1768 145.656 94.5539 144.861 92.1076C144.686 91.5693 144.487 91.0369 144.256 90.5188Z" fill="#F69E7C"/>
<path d="M148.571 82.03C148.276 81.5876 147.947 81.1594 147.596 80.7567C147.522 80.8092 147.429 80.7248 147.464 80.6333C147.482 80.5861 147.529 80.5557 147.578 80.5551C147.642 80.5567 147.681 80.6021 147.701 80.6237C148.065 81.0388 148.405 81.4805 148.71 81.9372C148.736 81.9755 148.725 82.0272 148.687 82.0529C148.648 82.0786 148.597 82.0679 148.571 82.03Z" fill="#B55C38"/>
<path d="M149.286 81.8804C149.111 81.3085 148.835 80.7802 148.465 80.3101C148.449 80.2901 148.442 80.2852 148.44 80.2841C148.397 80.2885 148.36 80.2515 148.358 80.2055C148.355 80.1594 148.396 80.1213 148.442 80.1192C148.524 80.108 148.576 80.1819 148.596 80.2069C148.978 80.6933 149.265 81.2398 149.446 81.8316C149.459 81.8755 149.435 81.9223 149.391 81.9358C149.346 81.9491 149.3 81.9241 149.286 81.8804Z" fill="#B55C38"/>
<path d="M125.477 112.609L117.554 114.339L117.154 112.59L125.078 110.86L125.477 112.609Z" fill="#FF774C"/>
<path d="M125.278 111.735L117.354 113.465L117.554 114.339L125.477 112.609L125.278 111.735Z" fill="#F36137"/>
<path d="M125.078 110.86L126.928 111.254C127.021 111.274 127.049 111.393 126.973 111.452L125.477 112.609L125.078 110.86Z" fill="#F6BE9B"/>
<path d="M126.509 111.81L126.973 111.452C127.049 111.393 127.021 111.274 126.928 111.254L126.355 111.132L126.509 111.81Z" fill="#232B41"/>
<path d="M117.383 112.538L116.663 112.702L117.062 114.451L117.782 114.287L117.383 112.538Z" fill="#27254C"/>
<path d="M115.38 113.915C115.27 113.432 115.572 112.951 116.055 112.841L116.663 112.702L117.062 114.451L116.454 114.59C115.971 114.7 115.49 114.398 115.38 113.915Z" fill="#F8E77F"/>
<path d="M130.468 115.407L122.544 117.137L122.145 115.388L130.069 113.658L130.468 115.407Z" fill="#72D497"/>
<path d="M130.268 114.532L122.344 116.262L122.544 117.137L130.468 115.407L130.268 114.532Z" fill="#309D6D"/>
<path d="M130.069 113.658L131.918 114.051C132.012 114.071 132.039 114.191 131.964 114.249L130.468 115.407L130.069 113.658Z" fill="#F6BE9B"/>
<path d="M131.5 114.608L131.964 114.249C132.039 114.191 132.012 114.071 131.918 114.051L131.345 113.929L131.5 114.608Z" fill="#232B41"/>
<path d="M122.373 115.336L121.653 115.5L122.052 117.249L122.772 117.085L122.373 115.336Z" fill="#27254C"/>
<path d="M120.371 116.713C120.26 116.23 120.563 115.749 121.045 115.639L121.653 115.5L122.052 117.249L121.445 117.388C120.962 117.498 120.481 117.196 120.371 116.713Z" fill="#F8E77F"/>
<path d="M77.4626 73.2903C77.7419 72.8776 78.0862 71.9765 78.8685 71.5888C79.8579 71.0989 80.7373 71.1327 81.6048 70.7218C81.9207 70.5721 82.1881 70.3116 82.4064 69.9398C82.8283 69.2213 82.877 68.3743 82.1598 67.9532C81.8093 67.7474 81.4568 67.7154 81.1024 67.857C80.4137 68.1324 80.1372 68.8501 80.0003 69.041C79.9317 69.1579 79.8339 69.1787 79.7065 69.1039L78.2787 68.1799C78.2254 68.1486 78.1929 68.1011 78.1807 68.0367C78.1519 67.8879 78.2408 67.8322 78.3494 67.6219C79.4038 65.8262 81.3544 65.2102 83.1985 66.293C84.987 67.3431 85.3443 69.2037 84.3072 70.9701C83.08 73.0603 81.5218 72.6922 80.2684 73.2351C79.4309 73.5989 79.439 74.7078 79.0066 74.4539L77.5414 73.5936C77.4346 73.5309 77.3997 73.3975 77.4626 73.2903ZM75.813 75.6624C76.6931 74.1634 78.9281 75.4994 78.0583 76.9808C77.1799 78.4768 74.9188 77.1854 75.813 75.6624Z" fill="#FF774C"/>
<path d="M96.4649 48.8143V51.6846C96.465 51.905 95.3616 51.905 95.3615 51.6846V48.8143H96.4649Z" fill="#394049"/>
<path d="M107.178 48.8143V51.6846C107.178 51.905 106.075 51.905 106.075 51.6846V48.8143H107.178Z" fill="#394049"/>
<path d="M95.8197 72.078L93.4327 67.943V53.991L109.511 53.7773V67.7293L107.123 72.078H95.8197Z" fill="#646E7B"/>
<path d="M96.9647 70.0947L95.416 67.4117V55.9744H107.528V67.4117L105.978 70.0947H96.9647Z" fill="#394049"/>
<path d="M104.849 63.0357C104.849 64.9043 103.332 66.4185 101.464 66.4185C99.5951 66.4185 98.0786 64.9043 98.0786 63.0357C98.0786 61.1671 99.5951 59.6506 101.464 59.6506C103.332 59.6506 104.849 61.1671 104.849 63.0357Z" fill="#18142E"/>
<path d="M111.494 53.6581H91.4493V55.0767H111.494V53.6581Z" fill="#394049"/>
<path d="M112.855 51.634H90.0887V53.6577H112.855V51.634Z" fill="#646E7B"/>
<path d="M101.963 55.9744H100.963V60.7484H101.963V55.9744Z" fill="white"/>
<path d="M104.849 63.8608C104.849 65.7294 103.332 67.2436 101.464 67.2436C99.5951 67.2436 98.0786 65.7294 98.0786 63.8608C98.0786 61.9922 99.5951 60.4757 101.464 60.4757C103.332 60.4757 104.849 61.9922 104.849 63.8608Z" fill="#F8E77F"/>
<path d="M104.848 63.8601C104.848 65.7298 103.332 67.2443 101.464 67.2443C99.2945 67.2443 97.7028 65.2354 98.1522 63.1587C98.4749 64.6895 99.8361 65.838 101.464 65.838C103.09 65.838 104.452 64.6895 104.774 63.1587C104.823 63.3841 104.848 63.6203 104.848 63.8601Z" fill="#FCCF36"/>
<path d="M115.415 36.9197L108.342 49.1697H94.197L87.1254 36.9197L94.197 24.67H108.342L115.415 36.9197Z" fill="#646E7B"/>
<path d="M95.3423 47.1863L89.4153 36.9197L95.3423 26.6533H107.197L113.125 36.9197L107.197 47.1863H95.3423Z" fill="#394049"/>
<path d="M110.044 36.9197C110.044 41.767 106.115 45.6941 101.27 45.6941C96.4227 45.6941 92.4956 41.767 92.4956 36.9197C92.4956 32.0746 96.4227 28.1455 101.27 28.1455C106.115 28.1455 110.044 32.0746 110.044 36.9197Z" fill="#18142E"/>
<path d="M109.32 36.9198C109.32 41.3672 105.715 44.9704 101.27 44.9704C96.8226 44.9704 93.2194 41.3672 93.2194 36.9198C93.2194 32.4744 96.8226 28.8694 101.27 28.8694C105.715 28.8694 109.32 32.4744 109.32 36.9198Z" fill="white"/>
<path d="M101.27 42.9945C97.9203 42.9945 95.1952 40.2694 95.1952 36.9198C95.1952 33.5702 97.9203 30.8451 101.27 30.8451C104.62 30.8451 107.345 33.5702 107.345 36.9198C107.345 40.2694 104.62 42.9945 101.27 42.9945ZM101.27 31.1784C98.104 31.1784 95.5285 33.7539 95.5285 36.9198C95.5285 40.0857 98.104 42.6612 101.27 42.6612C104.436 42.6612 107.011 40.0857 107.011 36.9198C107.011 33.7539 104.436 31.1784 101.27 31.1784Z" fill="#9A9AE2"/>
<path d="M100.937 36.9197L101.27 31.167L101.603 36.9197H100.937Z" fill="#F96C41"/>
<path d="M101.699 37.041L105.531 41.3443L101.228 37.5123L101.699 37.041Z" fill="#F96C41"/>
<path d="M102.326 36.9198C102.326 37.5031 101.853 37.9756 101.27 37.9756C100.687 37.9756 100.214 37.5031 100.214 36.9198C100.214 36.3368 100.687 35.864 101.27 35.864C101.853 35.864 102.326 36.3368 102.326 36.9198Z" fill="#27254C"/>
<path d="M184.253 55.8568C183.543 59.1763 180.541 61.8941 177.208 62.6744C174.222 63.3721 170.962 62.572 168.519 60.7205C169.16 61.3453 169.207 62.4166 168.807 63.22C168.407 64.0201 167.649 64.5887 166.856 65.0054C162.645 67.2148 156.838 65.1715 154.891 60.9386C155.463 62.1752 151.905 62.8298 151.264 62.7703C147.742 62.4497 147.571 58.4392 149.217 56.1545C150.173 54.8254 151.697 53.9194 153.32 53.7145C151.631 52.3158 150.642 50.1106 150.725 47.9186C150.857 44.3676 157.321 37.9139 160.313 42.698C161.625 36.3295 168.827 33.3301 172.252 35.616C173.571 36.4988 174.262 38.4065 173.442 39.7653C175.823 38.4627 178.425 37.5071 181.06 38.9289C182.881 39.9109 183.863 42.0765 183.801 44.1429C183.741 46.2093 182.766 48.1599 181.47 49.7701C183.373 50.2028 184.943 52.6293 184.253 55.8568Z" fill="#9DD3F5"/>
<path d="M155.795 51.0644L155.323 54.3775C155.298 54.5546 155.478 54.4689 155.656 54.4515L157.614 54.2599C157.762 54.2454 157.871 54.1173 157.863 53.9694L157.713 51.3409C157.706 51.2139 157.613 51.1082 157.488 51.0851L156.118 50.8319C155.964 50.8034 155.817 50.909 155.795 51.0644Z" fill="#18142E"/>
<path d="M178.386 50.2336L179.138 53.9086L177.212 53.6493L177.469 50.8223L178.386 50.2336Z" fill="#18142E"/>
<path d="M165.838 50.2402L165.863 51.2623L155.877 51.5041C155.713 51.5081 155.78 51.3204 155.776 51.1564L155.835 50.7796C155.831 50.6156 155.961 50.4794 156.125 50.4754L165.838 50.2402Z" fill="#18142E"/>
<path d="M168.412 50.1779L168.437 51.2L178.107 50.9659C178.271 50.9619 178.401 50.8257 178.397 50.6617L178.386 50.2337C178.382 50.0696 178.246 49.9398 178.082 49.9438L168.412 50.1779Z" fill="#18142E"/>
<path d="M167.17 51.1634L167.242 54.109C166.15 53.975 157.374 52.8971 156.296 52.7646L156.537 49.7322C156.531 49.4554 156.722 49.2142 156.991 49.1554C160.476 48.3885 163.51 49.0565 166.769 50.5015C167.185 50.6854 167.157 51.1234 167.17 51.1634Z" fill="#FCCF36"/>
<path d="M167.184 53.6028C163.816 52.0446 160.356 51.3937 156.749 52.1878C156.479 52.2472 156.289 52.4886 156.296 52.7645L156.335 54.3731L167.242 54.1091L167.184 53.6028Z" fill="#F8E77F"/>
<path d="M177.572 49.2346L178.11 52.2366L171.047 53.4532L171.047 53.4536L167.242 54.1091L167.17 51.1635L167.179 51.0273C167.195 50.7949 167.331 50.5873 167.54 50.4829C169.956 49.2835 172.413 48.5359 175.112 48.5315C175.917 48.5303 176.265 48.5401 177.091 48.6805C177.363 48.7268 177.565 48.9588 177.572 49.2346Z" fill="#FCCF36"/>
<path d="M167.275 53.6006C170.563 51.8813 173.988 51.0637 177.629 51.6824C177.902 51.7286 178.103 51.9605 178.11 52.2365L178.149 53.845L167.242 54.1091L167.275 53.6006Z" fill="#F8E77F"/>
<path d="M177.28 46.4356L174.898 44.2792C174.642 44.0481 174.281 43.9815 173.958 44.1019C172.46 44.6609 167.949 46.0005 166.966 50.8768C166.836 51.524 167.129 52.8512 167.124 53.6042C167.717 52.6103 169.873 47.39 177.098 46.9597C177.364 46.9439 177.477 46.614 177.28 46.4356Z" fill="#F8E77F"/>
<path d="M167.83 49.4795C167.752 49.4308 167.728 49.3281 167.777 49.25C167.803 49.208 170.442 45.0457 174.601 44.9663C174.828 44.9639 174.824 45.2954 174.608 45.2997C170.627 45.3757 168.085 49.3856 168.06 49.4261C168.011 49.5044 167.908 49.5281 167.83 49.4795Z" fill="#FCCF36"/>
<path d="M156.734 46.8922L158.968 44.6649C159.212 44.4216 159.569 44.3376 159.897 44.4423C161.42 44.9281 165.991 46.0479 167.209 50.8709C167.371 51.511 167.142 52.8508 167.184 53.6028C166.545 52.6413 164.15 47.557 156.959 47.4495C156.671 47.4452 156.53 47.0957 156.734 46.8922Z" fill="#F8E77F"/>
<path d="M166.107 49.4792C166.079 49.4427 163.297 45.8213 159.313 45.9458C159.234 45.9444 159.144 45.8762 159.141 45.784C159.139 45.6921 159.211 45.6153 159.303 45.6125C163.459 45.4966 166.344 49.2403 166.373 49.278C166.428 49.3514 166.414 49.4559 166.34 49.5114C166.266 49.5677 166.162 49.5517 166.107 49.4792Z" fill="#FCCF36"/>
<path d="M166.027 50.5307C166.002 50.4943 163.455 46.8878 158.227 46.8782C158.006 46.8778 158.005 46.5384 158.227 46.5449C163.636 46.5548 166.276 50.3038 166.302 50.3418C166.354 50.4176 166.335 50.5213 166.259 50.5734C166.182 50.6265 166.079 50.6051 166.027 50.5307Z" fill="#FCCF36"/>
<path d="M166.147 53.9171C166.896 53.5552 167.592 53.5384 168.235 53.8665L168.413 55.1898L166.177 55.1679L166.147 53.9171Z" fill="white"/>
<path d="M168.445 55.2181L166.15 55.1956L166.118 53.8999L166.134 53.8921C166.889 53.528 167.599 53.511 168.248 53.8416L168.261 53.8483L168.445 55.2181ZM166.204 55.1403L168.381 55.1617L168.209 53.8847C167.585 53.5719 166.901 53.5882 166.175 53.9345L166.204 55.1403Z" fill="black"/>
<path d="M165.889 53.9233L165.915 54.976L155.63 55.225C155.461 55.229 155.321 55.0954 155.317 54.9265L155.306 54.4856C155.302 54.3167 155.435 54.1764 155.604 54.1723L165.889 53.9233Z" fill="#27254C"/>
<path d="M168.54 53.8592L168.565 54.9118L178.85 54.6628C179.019 54.6587 179.153 54.5185 179.149 54.3495L179.138 53.9087C179.134 53.7398 178.993 53.6061 178.825 53.6102L168.54 53.8592Z" fill="#27254C"/>
<path d="M166.295 53.8593L166.328 55.2404C166.331 55.3527 166.242 55.446 166.13 55.4487C166.017 55.4514 165.924 55.3626 165.921 55.2502L165.888 53.8692C165.885 53.7568 165.974 53.6635 166.086 53.6608C166.199 53.6581 166.292 53.747 166.295 53.8593Z" fill="#18142E"/>
<path d="M168.583 53.8039L168.616 55.185C168.619 55.2973 168.53 55.3906 168.418 55.3933C168.305 55.396 168.212 55.3071 168.209 55.1948L168.176 53.8137C168.173 53.7014 168.262 53.6081 168.375 53.6054C168.487 53.6027 168.58 53.6915 168.583 53.8039Z" fill="#18142E"/>
<path d="M166.12 55.0419L168.408 54.9865C168.52 54.9838 168.614 55.0727 168.616 55.185C168.619 55.2973 168.53 55.3906 168.418 55.3933L166.13 55.4487C166.017 55.4514 165.924 55.3626 165.921 55.2502C165.918 55.1379 166.007 55.0446 166.12 55.0419Z" fill="#18142E"/>
<path d="M169.391 53.5832C169.37 53.4935 169.426 53.4038 169.516 53.3831C172.57 52.6737 175.04 52.549 177.289 52.9906C177.379 53.0083 177.438 53.0959 177.42 53.1862C177.402 53.2765 177.315 53.3345 177.225 53.3177C175.024 52.8853 172.598 53.0093 169.591 53.7077C169.505 53.7286 169.412 53.6755 169.391 53.5832Z" fill="#FCCF36"/>
<path d="M165.211 53.8138C162.174 53.2619 159.745 53.2554 157.567 53.7937C157.478 53.815 157.387 53.7611 157.365 53.6719C157.343 53.5826 157.398 53.4922 157.487 53.4701C159.712 52.92 162.185 52.9248 165.27 53.486C165.361 53.5025 165.421 53.5892 165.404 53.6797C165.388 53.7728 165.298 53.8307 165.211 53.8138Z" fill="#FCCF36"/>
<path d="M167.956 50.5322C167.878 50.4839 167.854 50.3812 167.902 50.3029C167.927 50.2638 170.382 46.3916 175.784 46.1198C175.871 46.1146 175.954 46.1859 175.959 46.278C175.963 46.3698 175.893 46.4481 175.801 46.4528C170.579 46.7155 168.209 50.4407 168.186 50.4783C168.138 50.5562 168.035 50.581 167.956 50.5322Z" fill="#FCCF36"/>
<path d="M175.026 52.9318L175.092 55.6517C175.094 55.7411 174.98 55.7812 174.926 55.7101L174.578 55.2555C174.54 55.2057 174.464 55.2075 174.428 55.2591L174.103 55.7301C174.052 55.8036 173.936 55.7692 173.934 55.6797L173.868 52.9598C174.253 52.8906 174.639 52.8812 175.026 52.9318Z" fill="#DF2715"/>
<path d="M167.118 53.508C167.027 53.508 166.953 53.4361 166.951 53.3454L166.882 50.5122C166.877 50.2974 167.209 50.2745 167.216 50.5041L167.284 53.3373C167.286 53.4294 167.214 53.5057 167.122 53.508C167.12 53.508 167.119 53.508 167.118 53.508Z" fill="#FCCF36"/>
<path d="M167.566 45.2914C167.475 45.2914 167.401 45.2191 167.399 45.1281C167.384 44.4097 168.026 43.7549 168.743 43.7546C168.777 43.7556 168.781 43.7529 168.938 43.7622C169.133 43.7743 169.316 43.7844 169.408 43.6844C169.535 43.5465 169.438 43.2436 169.444 42.9714C169.453 42.5497 169.737 42.1573 170.135 42.0168C170.559 41.8674 171.053 41.9997 171.299 41.76C171.411 41.6516 171.475 41.4478 171.59 41.2842C171.759 41.0433 172.089 40.9051 172.328 41.0811C172.402 41.1359 172.417 41.2403 172.363 41.3143C172.308 41.3881 172.204 41.4038 172.13 41.3493C172.118 41.341 172.099 41.3309 172.062 41.3369C171.811 41.3778 171.769 41.7673 171.532 41.9989C171.17 42.351 170.621 42.1988 170.246 42.3312C169.98 42.4248 169.783 42.6971 169.777 42.9785C169.771 43.2542 169.906 43.6359 169.653 43.9103C169.454 44.1268 169.157 44.1094 168.918 44.0949C168.859 44.0915 168.803 44.0944 168.744 44.0879C168.21 44.0883 167.721 44.5909 167.732 45.1213C167.734 45.2132 167.661 45.2894 167.569 45.2914C167.568 45.2914 167.567 45.2914 167.566 45.2914Z" fill="#27254C"/>
<path d="M164.811 45.0368C164.809 45.0368 164.806 45.0368 164.804 45.0366C164.712 45.0326 164.64 44.9548 164.644 44.8628C164.661 44.4948 164.259 44.1568 163.903 44.2315C163.652 44.2834 163.34 44.4969 163.021 44.3473C162.736 44.2134 162.676 43.8924 162.562 43.6909C162.406 43.4134 162.032 43.2681 161.729 43.3649C161.641 43.3934 161.548 43.3451 161.519 43.2577C161.491 43.1699 161.539 43.076 161.627 43.0479C162.081 42.9012 162.619 43.1122 162.852 43.5275C162.889 43.5918 162.919 43.6618 162.949 43.7319C163.109 44.1002 163.179 44.1282 163.567 43.9876C163.656 43.9553 163.746 43.9235 163.835 43.905C164.404 43.7864 165.003 44.2925 164.977 44.8775C164.974 44.967 164.9 45.0368 164.811 45.0368Z" fill="#27254C"/>
<path d="M151.859 69.7156C153.224 69.7156 154.33 68.6092 154.33 67.2443C154.33 65.8794 153.224 64.7729 151.859 64.7729C150.494 64.7729 149.388 65.8794 149.388 67.2443C149.388 68.6092 150.494 69.7156 151.859 69.7156Z" fill="#9DD3F5"/>
<path d="M184.253 55.8568C183.543 59.1763 180.541 61.8941 177.208 62.6744C174.222 63.3721 170.962 62.572 168.519 60.7205C169.16 61.3452 169.207 62.4165 168.807 63.22C168.407 64.0201 167.649 64.5887 166.856 65.0054C163.371 66.8337 158.739 65.7559 156.157 62.8563C157.545 63.3819 158.954 63.8646 160.415 64.0994C162.204 64.3837 164.108 64.2747 165.722 63.4481C167.63 62.4727 168.083 61.4279 167.97 59.3484C171.184 60.7799 174.94 61.5669 178.2 60.2444C179.334 59.7848 180.355 59.0904 181.36 58.3862C182.412 57.6489 183.48 56.8719 184.253 55.8568Z" fill="#6DB0F4"/>
</svg>
