<svg id="Layer_1" data-name="Layer 1" xmlns="http://www.w3.org/2000/svg" xmlns:xlink="http://www.w3.org/1999/xlink" viewBox="0 0 500 500"><defs><style>.cls-1{fill:url(#Безымянный_градиент_33);}.cls-2{fill:url(#Безымянный_градиент_33-2);}.cls-3{fill:url(#Безымянный_градиент_33-3);}.cls-4{fill:url(#Безымянный_градиент_33-4);}.cls-5{fill:url(#Безымянный_градиент_33-5);}.cls-6{fill:url(#Безымянный_градиент_33-6);}.cls-7{fill:url(#Безымянный_градиент_33-7);}.cls-8{fill:url(#Безымянный_градиент_33-8);}.cls-9{fill:url(#Безымянный_градиент_33-9);}.cls-10{fill:#0077be;}</style><linearGradient id="Безымянный_градиент_33" x1="141.4" y1="218.51" x2="376.45" y2="218.51" gradientUnits="userSpaceOnUse"><stop offset="0" stop-color="#0097d5"/><stop offset="1" stop-color="#462e8e"/></linearGradient><linearGradient id="Безымянный_градиент_33-2" x1="124.96" y1="228.34" x2="241.32" y2="228.34" xlink:href="#Безымянный_градиент_33"/><linearGradient id="Безымянный_градиент_33-3" x1="124.91" y1="230.91" x2="149.49" y2="230.91" xlink:href="#Безымянный_градиент_33"/><linearGradient id="Безымянный_градиент_33-4" x1="293.94" y1="238.95" x2="348.62" y2="238.95" xlink:href="#Безымянный_градиент_33"/><linearGradient id="Безымянный_градиент_33-5" x1="321.13" y1="228.19" x2="378.26" y2="252.26" xlink:href="#Безымянный_градиент_33"/><linearGradient id="Безымянный_градиент_33-6" x1="141.4" y1="208.16" x2="241.87" y2="208.16" xlink:href="#Безымянный_градиент_33"/><linearGradient id="Безымянный_градиент_33-7" x1="306.17" y1="229.63" x2="376.45" y2="229.63" xlink:href="#Безымянный_градиент_33"/><linearGradient id="Безымянный_градиент_33-8" x1="238.68" y1="235.99" x2="167.37" y2="227.87" xlink:href="#Безымянный_градиент_33"/><linearGradient id="Безымянный_градиент_33-9" x1="126.66" y1="265.33" x2="328.03" y2="265.33" xlink:href="#Безымянный_градиент_33"/></defs><title>Orqa fon oq</title><path class="cls-1" d="M364.32,232c4.92,4.93,7.39,10.71-5.88,7.3a112.25,112.25,0,0,1-25-10.24,25.56,25.56,0,0,1,9.67-1.15h.06l1.83.2q-.68-.3-1.53-.6l-.07,0c-12.31-4.21-49.9-6.95-64.37-4.24-11.37-7.77-35.57-22.84-63.72-21.78a72.39,72.39,0,0,0-10.42,1.14h0c-22.14,4-33.81,17-33.81,17-11.2,0-25.25-5-29.64-10.63,4.54,3.53,50-9.86,70.14-11.56,11.36-1,18.72-1.57,30.33,2.44,8.93,3.08,20.38,8.89,38.1,19.36,9.17-.55,17.94-.6,26.2-.29,41.7,1.53,70.28,12,70.28,12A64.6,64.6,0,0,1,364.32,232Z"/><path class="cls-2" d="M241.32,231.27c-28.14,12.46-59.92,2.45-84.77-4.18h0c-12.87-3.42-23.87-5.94-31.56-4,.48-.31,11.88-7.32,38.46-.94,12.1,2.91,24.28,5.4,36.12,7.1C214.27,231.39,228.47,232.3,241.32,231.27Z"/><path class="cls-3" d="M124.94,229.56c4.77-4.77,18-2.21,24.55,0C137.88,238.3,124.25,235,124.94,229.56Z"/><path class="cls-4" d="M293.94,243.58c12.52-16.72,38.15-12.68,54.68,1.66C329.25,236.26,305.73,237.2,293.94,243.58Z"/><path class="cls-5" d="M377.49,233.76c2.93,12.33-2.74,24-8.42,32.81,4.53-19.08,3.38-27.25,1.23-32.14A68.78,68.78,0,0,0,377.49,233.76Z"/><path class="cls-6" d="M241.87,199.86c-15.39-3-24.22-1.09-37,2.76h0c-22.14,4-33.81,17-33.81,17-11.2,0-25.25-5-29.64-10.63,4.54,3.53,50-9.86,70.14-11.56C222.9,196.45,230.26,195.85,241.87,199.86Z"/><path class="cls-7" d="M364.32,232c4.92,4.93,7.39,10.71-5.88,7.3a112.25,112.25,0,0,1-25-10.24,25.56,25.56,0,0,1,9.67-1.15h.06l1.83.2-1.53-.6-.07,0a146.58,146.58,0,0,0-37.21-8.57c41.7,1.53,70.28,12,70.28,12A64.6,64.6,0,0,1,364.32,232Z"/><path class="cls-8" d="M241.32,231.27c-28.14,12.46-59.92,2.45-84.77-4.18,16,4.27,16.19,1.16,43,2.17C214.27,231.39,228.47,232.3,241.32,231.27Z"/><path class="cls-9" d="M126.66,275.47l5.46-20.28h4.72l-5.46,20.28Z"/><path class="cls-9" d="M139.06,275.47l5.46-20.28h3.88l4.78,14.31h-2.06l12.32-14.31h3.91l-5.47,20.28h-4.37l3.58-13.53H162l-9.89,11.36H150l-3.86-11.36h1l-3.65,13.53Z"/><path class="cls-9" d="M173.79,275.47,178.22,259h-6.49l1-3.83h17.67l-1,3.83h-6.49l-4.43,16.45Z"/><path class="cls-9" d="M190.38,275.47l5.47-20.28h4.72l-5.47,20.28Z"/><path class="cls-9" d="M202.78,275.47l5.47-20.28H213l-5.47,20.28Zm6.59-8.32,1.06-4h9.91l-1.07,4Zm7.31,8.32,5.47-20.28h4.69l-5.46,20.28Z"/><path class="cls-9" d="M238.81,275.82a10.51,10.51,0,0,1-4.19-.79,7.33,7.33,0,0,1-3-2.2,7.06,7.06,0,0,1-1.43-3.33,9.78,9.78,0,0,1,.3-4.17,13.17,13.17,0,0,1,2-4.19,14.69,14.69,0,0,1,3.23-3.31,15.09,15.09,0,0,1,4.11-2.2,13.65,13.65,0,0,1,4.63-.79,10.72,10.72,0,0,1,4.21.77,7.29,7.29,0,0,1,2.93,2.19,7,7,0,0,1,1.43,3.33,9.94,9.94,0,0,1-.3,4.2,13.38,13.38,0,0,1-2,4.19,14.42,14.42,0,0,1-3.23,3.34,14.79,14.79,0,0,1-4.11,2.19A14.08,14.08,0,0,1,238.81,275.82Zm1.07-4a7.42,7.42,0,0,0,2.63-.48,8.72,8.72,0,0,0,2.38-1.36,9.3,9.3,0,0,0,1.9-2.06,8.68,8.68,0,0,0,1.19-2.62,6.78,6.78,0,0,0,.23-2.62,4.62,4.62,0,0,0-.8-2.06,4.19,4.19,0,0,0-1.64-1.36,5.52,5.52,0,0,0-2.38-.48,7.53,7.53,0,0,0-2.65.48,8.43,8.43,0,0,0-2.38,1.36,9.5,9.5,0,0,0-1.89,2.06,8.55,8.55,0,0,0-1.18,2.62,6.58,6.58,0,0,0-.23,2.62,4.71,4.71,0,0,0,.78,2.06,4,4,0,0,0,1.65,1.36A5.57,5.57,0,0,0,239.88,271.85Z"/><path class="cls-9" d="M256.43,275.47l5.46-20.28h3.88l8,14.6h-1.88l3.93-14.6h4.64L275,275.47h-3.88l-8-14.6H265l-3.94,14.6Z"/><path class="cls-9" d="M292.42,275.82a10.81,10.81,0,0,1-4.22-.77,7,7,0,0,1-2.92-2.19,7.17,7.17,0,0,1-1.4-3.33,9.94,9.94,0,0,1,.3-4.2,13.46,13.46,0,0,1,2-4.2,14.79,14.79,0,0,1,3.23-3.33,14.63,14.63,0,0,1,4.13-2.19,14.23,14.23,0,0,1,4.66-.77,10.77,10.77,0,0,1,4.61.9,6.57,6.57,0,0,1,2.94,2.61L302,261.13a5,5,0,0,0-2-1.75,6.06,6.06,0,0,0-2.72-.57,8.27,8.27,0,0,0-2.79.48,8.8,8.8,0,0,0-2.46,1.35,8.7,8.7,0,0,0-1.92,2.05,8.9,8.9,0,0,0-1.19,2.64,6.72,6.72,0,0,0-.22,2.59,4.26,4.26,0,0,0,2.53,3.44,6.07,6.07,0,0,0,2.51.49,9.23,9.23,0,0,0,2.84-.47,11.07,11.07,0,0,0,3-1.53l1.76,3.39a16.21,16.21,0,0,1-4.38,1.92A16.65,16.65,0,0,1,292.42,275.82Zm8.9-2.58-4.12-.64,2.05-7.59h4.28Z"/><path class="cls-9" d="M305.29,275.47l14.47-20.28h4.64L328,275.47h-4.92l-2.62-17.9h1.88l-12.27,17.9Zm5.72-4.35,2.15-3.56h10.48l.26,3.56Z"/><path class="cls-10" d="M127.5,296.12v-8.26h-3.25v-1.54h8.32v1.54h-3.25v8.26Z"/><path class="cls-10" d="M133.46,296.12l4.41-9.8h1.79l4.43,9.8h-1.92l-3.78-8.83h.73l-3.8,8.83Zm2-2.27.51-1.43h5.27l.49,1.43Z"/><path class="cls-10" d="M148.57,296.12v-3.88l.42,1.11-4.27-7h1.93l3.44,5.67H149l3.43-5.67h1.79l-4.25,7,.4-1.11v3.88Z"/><path class="cls-10" d="M159.5,296.12v-3.88l.42,1.11-4.27-7h1.93L161,292h-1.09l3.42-5.67h1.8l-4.26,7,.41-1.11v3.88Z"/><path class="cls-10" d="M171.92,296.26a5.82,5.82,0,0,1-2.11-.38,4.86,4.86,0,0,1-1.68-1.06,4.74,4.74,0,0,1-1.11-1.61,5,5,0,0,1-.39-2,5.07,5.07,0,0,1,.39-2,4.66,4.66,0,0,1,1.11-1.59,4.86,4.86,0,0,1,1.68-1.06,6.1,6.1,0,0,1,4.21,0,5,5,0,0,1,1.67,1.05,4.81,4.81,0,0,1,1.1,1.6,5.16,5.16,0,0,1,.39,2,5.07,5.07,0,0,1-.39,2,4.81,4.81,0,0,1-1.1,1.6,4.91,4.91,0,0,1-1.67,1.06A5.72,5.72,0,0,1,171.92,296.26Zm0-1.6a3.54,3.54,0,0,0,1.36-.25,3.2,3.2,0,0,0,1.81-1.8,3.92,3.92,0,0,0,0-2.78,3.24,3.24,0,0,0-.72-1.09,3.36,3.36,0,0,0-1.1-.71,3.54,3.54,0,0,0-1.36-.25,3.64,3.64,0,0,0-1.38.25,3.28,3.28,0,0,0-1.1.72,3.54,3.54,0,0,0-.73,1.09,3.77,3.77,0,0,0,0,2.75,3.47,3.47,0,0,0,.73,1.1,3.28,3.28,0,0,0,1.1.72A3.64,3.64,0,0,0,171.92,294.66Z"/><path class="cls-10" d="M180.51,296.12v-9.8h4a4.68,4.68,0,0,1,3.08.93,3.16,3.16,0,0,1,1.11,2.56,3.23,3.23,0,0,1-.51,1.84,3.19,3.19,0,0,1-1.43,1.19,5.41,5.41,0,0,1-2.23.42h-3l.79-.81v3.67Zm1.82-3.47-.79-.88h2.92a2.78,2.78,0,0,0,1.82-.52,1.81,1.81,0,0,0,.6-1.44,1.79,1.79,0,0,0-.6-1.44,2.78,2.78,0,0,0-1.82-.51h-2.92l.79-.9Zm4.6,3.47-2.48-3.56h1.94l2.5,3.56Z"/><path class="cls-10" d="M192.15,296.12v-9.8H194v8.26h5.12v1.54Z"/><path class="cls-10" d="M206.32,296.26a5.82,5.82,0,0,1-2.11-.38,5,5,0,0,1-1.69-1.06,4.86,4.86,0,0,1-1.1-1.61,5,5,0,0,1-.4-2,5.08,5.08,0,0,1,.4-2,4.77,4.77,0,0,1,1.1-1.59,5.05,5.05,0,0,1,1.68-1.06,6.12,6.12,0,0,1,4.22,0,5,5,0,0,1,1.67,1.05,4.81,4.81,0,0,1,1.1,1.6,5.16,5.16,0,0,1,.39,2,5.07,5.07,0,0,1-.39,2,4.81,4.81,0,0,1-1.1,1.6,4.91,4.91,0,0,1-1.67,1.06A5.8,5.8,0,0,1,206.32,296.26Zm0-1.6a3.54,3.54,0,0,0,1.36-.25,3.21,3.21,0,0,0,1.09-.71,3.57,3.57,0,0,0,.72-1.09,3.85,3.85,0,0,0,0-2.78,3,3,0,0,0-.72-1.09,3.21,3.21,0,0,0-1.09-.71,3.54,3.54,0,0,0-1.36-.25,3.64,3.64,0,0,0-1.38.25,3.18,3.18,0,0,0-1.1.72,3.54,3.54,0,0,0-.73,1.09,3.54,3.54,0,0,0,.73,3.85,3.18,3.18,0,0,0,1.1.72A3.64,3.64,0,0,0,206.32,294.66Z"/><path class="cls-10" d="M217.53,296.12l-4.28-9.8h2l3.82,8.86H217.9l3.89-8.86h1.8l-4.27,9.8Z"/></svg>