<svg width="148" height="56" viewBox="0 0 148 56" fill="none" xmlns="http://www.w3.org/2000/svg">
<rect x="0.5" y="0.5" width="146.644" height="55" rx="17.5" stroke="#242220" stroke-opacity="0.48"/>
<path d="M48.6072 19.1766C48.3407 18.748 47.9941 18.3748 47.5848 18.0773C47.1723 17.7959 46.7194 17.5781 46.2421 17.4288C45.7233 17.2604 45.1882 17.1475 44.645 17.093C44.0107 17.0305 43.3733 17.0012 42.7349 17.0043H37.2102C36.6813 16.9548 36.2121 17.3411 36.1624 17.8665C36.1624 17.8756 36.1604 17.8857 36.1604 17.8948V26.8737C36.9265 28.5095 38.1982 29.8579 39.7902 30.7222V28.9301C39.7395 28.3492 40.1712 27.8368 40.7549 27.7864H40.7569H42.4147C44.6765 27.7864 46.4022 27.3154 47.5919 26.3735C48.7815 25.4315 49.3855 24.0347 49.4037 22.184C49.4057 21.6505 49.3429 21.119 49.2162 20.6007C49.0896 20.0974 48.8849 19.6163 48.6082 19.1766H48.6072ZM45.3696 23.7674C45.177 24.0972 44.8903 24.3635 44.5468 24.5319C44.1738 24.7094 43.7716 24.8153 43.3591 24.8455C42.9062 24.902 42.4512 24.9293 41.9942 24.9282H40.4032C40.0222 24.9282 39.7841 24.6206 39.7841 24.1698V20.4857C39.7638 20.1831 39.9938 19.9209 40.2978 19.8997C40.3333 19.8977 40.3678 19.8987 40.4022 19.9028H41.9932C42.5089 19.9028 42.9953 19.9179 43.4513 19.9471C43.8587 19.9663 44.258 20.0641 44.6278 20.2336C44.9683 20.3848 45.253 20.638 45.4395 20.9597C45.6513 21.3903 45.7476 21.8674 45.7212 22.3454C45.7324 22.8416 45.6098 23.3307 45.3676 23.7644V23.7695L45.3696 23.7674ZM39.7952 31.2618C38.4333 30.7727 37.193 29.9961 36.1604 28.9856V33.302C36.1128 33.6389 36.3489 33.9505 36.6873 33.9969C36.6954 33.9979 36.7046 33.9989 36.7127 34H39.2095C39.8722 34 39.7952 33.296 39.7952 33.296V31.2618ZM74.1148 21.706H71.9605C71.5359 21.6788 71.1529 21.9591 71.0546 22.3716L68.5516 29.2337C68.5516 29.2337 66.3416 22.9818 66.1764 22.4977C66.0801 22.0378 65.6758 21.706 65.2036 21.7H63.2205C62.5132 21.7 62.5132 22.2496 62.6074 22.4644C62.7017 22.6792 65.4144 30.0798 66.4743 32.9118C66.6415 33.2607 66.758 33.6308 66.8219 34.011C66.753 34.3872 66.6101 34.7463 66.4024 35.067C66.3213 35.2031 66.2291 35.3322 66.1257 35.4522C68.1696 34.8471 70.5459 32.6425 71.7386 30.2613C72.9434 26.9625 74.5283 22.5633 74.6002 22.3384C74.6772 21.9924 74.6782 21.706 74.1148 21.706ZM64.5135 36.1229C64.3291 36.1179 64.1447 36.1037 63.9612 36.0785C63.7343 36.0452 63.3036 36.0785 63.3036 36.4638V38.1137C63.3036 38.7461 63.6127 38.7905 63.7728 38.8338C64.2845 38.9458 64.8074 39.0012 65.3303 38.9992C65.9494 39.0154 66.5635 38.8893 67.1259 38.6311C67.6396 38.3729 68.0967 38.0139 68.4686 37.5752C68.8901 37.0951 69.2468 36.5636 69.5295 35.9918C69.8355 35.3836 70.1264 34.711 70.402 33.9737L70.7222 33.0993C70.0818 33.7317 67.2526 36.3871 64.5125 36.1239L64.5135 36.1229ZM61.2536 23.6797C61.1361 23.4023 60.976 23.1442 60.7784 22.9152C60.5787 22.7034 60.3517 22.5189 60.1045 22.3656C59.837 22.184 59.5522 22.0297 59.2533 21.9037C58.9493 21.7867 58.6372 21.6929 58.32 21.6233C57.9562 21.5436 57.5864 21.4902 57.2155 21.464C56.8172 21.4236 56.3724 21.4034 55.8789 21.4034C52.5866 21.4034 50.7119 22.4372 50.2549 24.5047C50.1809 24.7992 50.3603 25.0977 50.6562 25.1723C50.6845 25.1794 50.7129 25.1844 50.7413 25.1864H52.769C53.3212 25.1864 53.3212 25.016 53.531 24.543C53.6232 24.2858 53.7884 24.0599 54.0063 23.8945C54.5241 23.5617 55.1371 23.4054 55.7522 23.4487C56.3258 23.3902 56.9024 23.5324 57.3817 23.8501C57.7475 24.19 57.9643 24.661 57.9836 25.1592C57.9836 25.841 57.7738 26.2918 56.9226 26.2918C54.9061 26.2202 52.7406 26.4461 51.5195 27.144C50.2964 27.8873 49.5668 29.2256 49.6084 30.6516C49.5942 31.1973 49.7057 31.7388 49.9347 32.235C50.1495 32.6667 50.4616 33.0429 50.8467 33.3343C51.25 33.6621 51.7161 33.9051 52.2167 34.0494C52.7821 34.2017 53.3658 34.2753 53.9515 34.2692C54.7399 34.2813 55.5242 34.1704 56.2771 33.9394C56.9429 33.6681 57.5722 33.3152 58.1498 32.8896V33.2748C58.1498 33.654 58.2653 33.9949 58.702 33.9949H61.0499C61.5252 33.9949 61.6356 33.6591 61.6356 33.2415V26.0437C61.6387 25.5949 61.6073 25.1461 61.5414 24.7023C61.4897 24.3504 61.3924 24.0075 61.2536 23.6797ZM58.0434 30.7505C58.0434 30.7505 57.4354 32.0152 55.281 32.0152C54.7642 32.0384 54.2535 31.8982 53.8228 31.6138C53.4378 31.3163 53.229 30.8443 53.2706 30.3602C53.2219 29.7056 53.5847 29.0884 54.1826 28.8101C55.054 28.4773 55.9843 28.3219 56.9176 28.3532C57.4637 28.2715 57.9735 28.6457 58.0555 29.1893C58.0636 29.2407 58.0667 29.2921 58.0667 29.3436L58.0444 30.7515L58.0434 30.7505Z" fill="#333333"/>
<path d="M111.738 26.1244C112.293 27.013 112.293 28.1385 111.738 29.028C111.186 29.8641 108.174 33.0641 107.18 34.0918C106.318 34.9823 105.152 35.884 103.998 35.884H80.0816C76.844 35.884 76.6504 34.7847 76.6504 32.3319V22.3304C76.6504 19.8171 77.3962 19.0859 79.6114 19.0859H104.053C105.197 19.0859 106.218 19.6689 107.368 20.8458C108.373 21.8523 111.34 25.5304 111.738 26.1244Z" fill="#00E3FF"/>
<path d="M82.0824 22.9479V22.8874C82.0824 22.5626 82.0824 22.25 81.5301 22.25H79.5247C79.0555 22.25 79.0332 22.5031 79.0332 22.8985V25.5378C79.8247 24.4415 80.8704 23.553 82.0824 22.9479Z" fill="white"/>
<path d="M95.5127 32.4922V32.349V25.9822C95.5127 23.3176 94.3302 21.9844 91.9661 21.9844C91.3084 21.9924 90.665 22.183 90.1096 22.534C89.4976 22.9142 88.9514 23.3892 88.4914 23.9419C88.2826 23.3449 87.8783 22.8356 87.3422 22.4957C86.7332 22.1619 86.0431 21.9995 85.348 22.0287C84.3255 22.0328 83.3325 22.3727 82.5248 22.9969C82.3485 23.1724 79.0278 25.7462 79.0278 28.4299V32.5043C79.0278 32.6304 78.962 33.1256 79.5193 33.1256H81.6017C82.2482 33.1256 82.1874 32.702 82.1874 32.5265V25.9287C82.535 25.4618 83.2484 24.3453 84.4248 24.3453C84.8079 24.311 85.1798 24.4855 85.3976 24.8022C85.6338 25.2712 85.7371 25.7966 85.6956 26.32V31.4615V32.5174C85.6956 32.6435 85.6297 33.1387 86.187 33.1387H88.2482C88.8947 33.1387 88.8339 32.7151 88.8339 32.5396V32.3964V25.9085C89.2098 25.4416 89.9384 24.3252 91.0713 24.3252C91.4584 24.2939 91.8343 24.4674 92.0603 24.782C92.3005 25.25 92.4059 25.7754 92.3643 26.2999V31.4413V32.4973C92.3643 32.6233 92.2984 33.1185 92.8558 33.1185H94.9382C95.5898 33.0852 95.5127 32.6677 95.5127 32.4973V32.4922Z" fill="white"/>
<path d="M107 29.9035C106.274 31.847 104.364 33.0965 102.282 32.9886C99.1005 32.9886 96.9785 30.8334 96.9785 27.6C96.9785 24.3667 99.1886 22.1016 102.172 22.1016C105.155 22.1016 107.144 24.158 107.271 27.474C107.271 27.8976 107.166 28.2717 106.631 28.2717H99.8797C99.9243 30.0477 100.781 31.021 102.305 31.021C103.132 31.0411 103.895 30.5823 104.26 29.844C104.403 29.6363 104.642 29.5142 104.896 29.5193H106.636C106.827 29.5102 106.99 29.6574 106.999 29.8491C107 29.8753 106.999 29.9005 106.994 29.9267L106.999 29.9045L107 29.9035ZM102.183 24.1519C100.917 24.1519 100.061 25.0263 99.8736 26.4665H104.404C104.289 25.2068 103.603 24.1519 102.183 24.1519Z" fill="white"/>
</svg>
