<svg width="77" height="23" viewBox="0 0 77 23" fill="none" xmlns="http://www.w3.org/2000/svg">
<path d="M13.2849 2.67663C13.0184 2.248 12.6718 1.87485 12.2625 1.57733C11.85 1.29595 11.3971 1.07811 10.9198 0.928849C10.401 0.760425 9.86593 0.64747 9.32278 0.59301C8.68843 0.530481 8.05105 0.501234 7.41265 0.50426H1.88795C1.35899 0.454842 0.889819 0.841108 0.840166 1.36655C0.840166 1.37563 0.838139 1.38571 0.838139 1.39479V10.3737C1.60422 12.0095 2.87595 13.3579 4.4679 14.2222V12.4301C4.41723 11.8492 4.84891 11.3368 5.43259 11.2864H5.43462H7.09243C9.35419 11.2864 11.0799 10.8154 12.2696 9.87347C13.4592 8.93151 14.0632 7.5347 14.0814 5.68405C14.0834 5.15054 14.0206 4.61905 13.8939 4.10067C13.7673 3.59741 13.5626 3.11634 13.2859 2.67663H13.2849ZM10.0473 7.26744C9.85478 7.59723 9.56801 7.86348 9.22449 8.0319C8.85158 8.2094 8.44929 8.3153 8.03686 8.34555C7.5839 8.40203 7.12891 8.42926 6.6719 8.42825H5.08097C4.69995 8.42825 4.46182 8.12065 4.46182 7.66984V3.98569C4.44155 3.68314 4.67158 3.42092 4.97558 3.39974C5.01105 3.39772 5.0455 3.39873 5.07995 3.40277H6.67089C7.18667 3.40277 7.67307 3.41789 8.12907 3.44714C8.53643 3.4663 8.93569 3.56413 9.30555 3.73356C9.64603 3.88484 9.93078 4.13798 10.1172 4.4597C10.329 4.89034 10.4253 5.36737 10.3989 5.84542C10.4101 6.34161 10.2875 6.83075 10.0453 7.26441V7.26946L10.0473 7.26744ZM4.47297 14.7618C3.11105 14.2727 1.87073 13.4961 0.838139 12.4856V16.802C0.790512 17.1389 1.02662 17.4505 1.36507 17.4969C1.37318 17.4979 1.3823 17.4989 1.39041 17.5H3.88726C4.54998 17.5 4.47297 16.796 4.47297 16.796V14.7618ZM38.7925 5.20601H36.6382C36.2136 5.17878 35.8306 5.45915 35.7323 5.87164L33.2293 12.7337C33.2293 12.7337 31.0193 6.4818 30.8541 5.9977C30.7578 5.53782 30.3535 5.20601 29.8813 5.19996H27.8982C27.1909 5.19996 27.1909 5.74961 27.2851 5.96442C27.3794 6.17924 30.0921 13.5798 31.152 16.4118C31.3192 16.7607 31.4357 17.1308 31.4996 17.511C31.4307 17.8872 31.2878 18.2463 31.0801 18.567C30.999 18.7031 30.9068 18.8322 30.8034 18.9522C32.8473 18.3471 35.2236 16.1425 36.4163 13.7613C37.6211 10.4625 39.206 6.06326 39.2779 5.83836C39.3549 5.49243 39.3559 5.20601 38.7925 5.20601ZM29.1912 19.6229C29.0068 19.6179 28.8224 19.6037 28.6389 19.5785C28.412 19.5452 27.9813 19.5785 27.9813 19.9638V21.6137C27.9813 22.2461 28.2904 22.2905 28.4505 22.3338C28.9622 22.4458 29.4851 22.5012 30.008 22.4992C30.6271 22.5154 31.2412 22.3893 31.8036 22.1311C32.3173 21.8729 32.7744 21.5139 33.1463 21.0752C33.5678 20.5951 33.9245 20.0636 34.2072 19.4918C34.5132 18.8836 34.8041 18.211 35.0797 17.4737L35.3999 16.5993C34.7595 17.2317 31.9303 19.8871 29.1902 19.6239L29.1912 19.6229ZM25.9313 7.1797C25.8138 6.90235 25.6537 6.64417 25.4561 6.41523C25.2564 6.20344 25.0294 6.01888 24.7822 5.86559C24.5147 5.68405 24.2299 5.52975 23.931 5.40368C23.627 5.28669 23.3149 5.1929 22.9977 5.12331C22.6339 5.04364 22.2641 4.99019 21.8932 4.96396C21.4949 4.92362 21.0501 4.90345 20.5566 4.90345C17.2643 4.90345 15.3896 5.93719 14.9326 8.00467C14.8586 8.29916 15.038 8.59769 15.3339 8.67232C15.3622 8.67938 15.3906 8.68442 15.419 8.68644H17.4467C17.9989 8.68644 17.9989 8.516 18.2087 8.043C18.3009 7.78582 18.4661 7.55991 18.684 7.39451C19.2018 7.0617 19.8148 6.90538 20.4299 6.94874C21.0035 6.89025 21.5801 7.03245 22.0594 7.35014C22.4252 7.69001 22.642 8.16099 22.6613 8.65921C22.6613 9.34097 22.4515 9.79178 21.6003 9.79178C19.5838 9.72018 17.4183 9.94609 16.1972 10.644C14.9741 11.3873 14.2445 12.7256 14.2861 14.1516C14.2719 14.6973 14.3834 15.2388 14.6124 15.735C14.8272 16.1667 15.1393 16.5429 15.5244 16.8343C15.9277 17.1621 16.3938 17.4051 16.8944 17.5494C17.4598 17.7017 18.0435 17.7753 18.6292 17.7692C19.4176 17.7813 20.2019 17.6704 20.9548 17.4394C21.6206 17.1681 22.2499 16.8152 22.8275 16.3896V16.7748C22.8275 17.154 22.943 17.4949 23.3797 17.4949H25.7276C26.2029 17.4949 26.3133 17.1591 26.3133 16.7415V9.54368C26.3164 9.09489 26.285 8.6461 26.2191 8.20234C26.1674 7.85037 26.0701 7.50747 25.9313 7.1797ZM22.7211 14.2505C22.7211 14.2505 22.1131 15.5152 19.9587 15.5152C19.4419 15.5384 18.9312 15.3982 18.5005 15.1138C18.1155 14.8163 17.9067 14.3443 17.9483 13.8602C17.8996 13.2056 18.2624 12.5884 18.8603 12.3101C19.7317 11.9773 20.662 11.8219 21.5953 11.8532C22.1414 11.7715 22.6512 12.1457 22.7332 12.6893C22.7413 12.7407 22.7444 12.7921 22.7444 12.8436L22.7221 14.2515L22.7211 14.2505Z" fill="#333333"/>
<path d="M76.4158 9.62444C76.9711 10.513 76.9711 11.6385 76.4158 12.528C75.8635 13.3641 72.8519 16.5641 71.8578 17.5918C70.9955 18.4823 69.8302 19.384 68.676 19.384H44.7593C41.5217 19.384 41.3281 18.2847 41.3281 15.8319V5.83037C41.3281 3.31712 42.0739 2.58594 44.2891 2.58594H68.7307C69.8747 2.58594 70.8962 3.16887 72.0453 4.34582C73.0505 5.35233 76.0176 9.03042 76.4158 9.62444Z" fill="#00E3FF"/>
<path d="M46.7601 6.4479V6.38739C46.7601 6.06264 46.7601 5.75 46.2078 5.75H44.2024C43.7332 5.75 43.7109 6.00314 43.7109 6.39848V9.0378C44.5024 7.94153 45.5481 7.05302 46.7601 6.4479Z" fill="white"/>
<path d="M60.1904 15.9922V15.849V9.48217C60.1904 6.81765 59.0079 5.48438 56.6438 5.48438C55.9861 5.49243 55.3427 5.68305 54.7873 6.03402C54.1753 6.41424 53.6291 6.88925 53.1691 7.44192C52.9603 6.84488 52.556 6.33557 52.0199 5.9957C51.4109 5.66188 50.7208 5.4995 50.0257 5.52875C49.0032 5.53278 48.0102 5.87266 47.2025 6.49694C47.0262 6.67242 43.7055 9.24618 43.7055 11.9299V16.0043C43.7055 16.1304 43.6397 16.6256 44.197 16.6256H46.2794C46.9259 16.6256 46.8651 16.202 46.8651 16.0265V9.42872C47.2127 8.96177 47.9261 7.84534 49.1025 7.84534C49.4856 7.81104 49.8575 7.98552 50.0753 8.3022C50.3115 8.77116 50.4148 9.29661 50.3733 9.82003V14.9615V16.0174C50.3733 16.1435 50.3074 16.6387 50.8647 16.6387H52.9259C53.5724 16.6387 53.5116 16.2151 53.5116 16.0396V15.8964V9.40855C53.8875 8.9416 54.6161 7.82517 55.749 7.82517C56.1361 7.7939 56.512 7.96737 56.738 8.28203C56.9782 8.74998 57.0836 9.27543 57.042 9.79986V14.9413V15.9973C57.042 16.1233 56.9761 16.6185 57.5335 16.6185H59.6159C60.2675 16.5852 60.1904 16.1677 60.1904 15.9973V15.9922Z" fill="white"/>
<path d="M71.6781 13.4035C70.9516 15.347 69.0414 16.5965 66.96 16.4886C63.7782 16.4886 61.6562 14.3334 61.6562 11.1C61.6562 7.86671 63.8663 5.60156 66.8496 5.60156C69.8328 5.60156 71.822 7.65795 71.9487 10.974C71.9487 11.3976 71.8433 11.7717 71.3082 11.7717H64.5574C64.602 13.5477 65.4583 14.521 66.9823 14.521C67.8092 14.5411 68.5722 14.0823 68.9381 13.344C69.0809 13.1363 69.3201 13.0142 69.5734 13.0193H71.3133C71.5048 13.0102 71.668 13.1574 71.6771 13.3491C71.6781 13.3753 71.6771 13.4005 71.672 13.4267L71.6771 13.4045L71.6781 13.4035ZM66.8607 7.6519C65.5951 7.6519 64.7388 8.52629 64.5513 9.96647H69.082C68.9664 8.70682 68.2804 7.6519 66.8607 7.6519Z" fill="white"/>
</svg>
