<svg width="96" height="22" viewBox="0 0 96 22" fill="none" xmlns="http://www.w3.org/2000/svg">
<g clip-path="url(#clip0_929_8285)">
<path d="M8.21102 19.871C12.909 19.871 16.1808 16.3262 16.1808 11.7098C16.1808 7.09326 12.909 3.54846 8.21102 3.54846C3.51303 3.54846 0.241211 7.09326 0.241211 11.7098C0.241211 16.3262 3.51303 19.871 8.21102 19.871Z" fill="#20CC6D"/>
<path d="M32.1205 10.0185C32.1205 6.37205 29.7309 3.54846 26.2531 3.54846C24.5876 3.54846 23.2039 4.14101 22.2242 5.17259V4.66879C22.2242 4.11702 21.9058 3.83233 21.3425 3.83233H19.2362C18.6729 3.83233 18.3545 4.11702 18.3545 4.66879V21.1345C18.3545 21.6863 18.6729 22.0001 19.2362 22.0001H21.3425C21.9058 22.0001 22.2242 21.6863 22.2242 21.1345V14.8644C23.2039 15.896 24.5876 16.6065 26.2531 16.6065C29.7309 16.6065 32.1205 13.665 32.1205 10.0185ZM28.3104 10.0185C28.3104 11.7938 26.9756 13.1372 25.2734 13.1372C23.5712 13.1372 22.2242 11.7938 22.2242 10.0185C22.2242 8.25525 23.5712 6.89984 25.2734 6.89984C26.9756 6.89984 28.3104 8.25525 28.3104 10.0185Z" fill="black"/>
<path d="M32.8457 10.0185C32.8457 13.665 35.2953 16.6065 38.7852 16.6065C40.4509 16.6065 41.8224 15.896 42.8143 14.8644V15.3682C42.8143 15.92 43.1327 16.3227 43.6961 16.3227H45.7302C46.2935 16.3227 46.6119 15.92 46.6119 15.3682V4.66879C46.6119 4.11702 46.2935 3.83233 45.7302 3.83233H43.6961C43.1327 3.83233 42.8143 4.11702 42.8143 4.66879V5.17259C41.8224 4.14101 40.4509 3.54846 38.7852 3.54846C35.2953 3.54846 32.8457 6.37206 32.8457 10.0185ZM36.7279 10.0185C36.7279 8.25526 38.0505 6.89984 39.7528 6.89984C41.4674 6.89984 42.8143 8.25526 42.8143 10.0185C42.8143 11.7938 41.4674 13.1372 39.7528 13.1372C38.0505 13.1372 36.7279 11.7938 36.7279 10.0185Z" fill="black"/>
<path d="M50.3873 22H52.6648C53.1669 22 53.4977 22.0001 53.669 21.3024L59.5787 4.80067C59.6294 4.66047 59.6529 4.55675 59.6529 4.41815C59.6529 4.03397 59.3982 3.83228 58.898 3.83228H56.6447C56.1306 3.83228 55.7999 4.045 55.6528 4.52478L53.4977 11.3379L51.3792 4.52478C51.2321 4.045 50.9013 3.83228 50.3873 3.83228H48.134C47.6276 3.83228 47.3359 4.03936 47.3359 4.43181C47.3359 4.55675 47.3627 4.66604 47.4113 4.80067L51.5871 16.3226L49.7015 20.9905C49.4566 21.6022 49.7258 22 50.3873 22Z" fill="black"/>
<path d="M67.8956 3.54846C66.4506 3.54846 65.166 4.09303 64.3089 5.11259V4.66879C64.3089 4.11702 63.9904 3.83233 63.4271 3.83233H61.2593C60.696 3.83233 60.3779 4.11702 60.3779 4.66879V15.3682C60.3779 15.92 60.696 16.3227 61.2593 16.3227H63.4271C63.9904 16.3227 64.3089 15.92 64.3089 15.3682V9.51472C64.3089 7.81146 65.4464 6.89984 66.7201 6.89984C67.859 6.89984 68.7651 7.93139 68.7651 9.04694V15.3682C68.7651 15.92 69.0835 16.3227 69.6468 16.3227H71.8142C72.3776 16.3227 72.6949 15.92 72.6949 15.3682V8.43519C72.6949 5.49646 70.6757 3.54846 67.8956 3.54846Z" fill="black"/>
<path d="M93.1 11.7337V7.13971H94.9732C95.5362 7.13971 95.8789 6.82784 95.8789 6.27607V4.66876C95.8789 4.11698 95.5362 3.83229 94.9732 3.83229H93.1V0.798192C93.1 0.312288 92.8105 0.00433113 92.3349 4.53335e-05C92.2744 -0.000500195 92.2106 0.00387438 92.1443 0.0133551L89.9523 0.318395C89.4136 0.402359 89.1441 0.714226 89.1441 1.242V3.83229H88.1265C87.5631 3.83229 87.1846 4.11698 87.1846 4.66876V6.27607C87.1846 6.82784 87.5631 7.13971 88.1265 7.13971H89.1441V12.1296C89.1441 14.9124 90.8094 16.6065 93.5159 16.6065C94.177 16.6065 94.8138 16.5026 95.3525 16.3226C95.818 16.1667 95.8789 15.728 95.8789 15.2483V14.0128C95.8789 13.437 95.6833 13.1611 95.0957 13.1851H94.716C93.5524 13.1851 93.1 12.7293 93.1 11.7337Z" fill="black"/>
<path d="M77.4343 11.0861H86.196C86.7227 11.0861 87.0922 10.8342 87.1411 10.3184C87.1658 10.1505 87.185 9.97055 87.185 9.81463C87.185 6.32412 84.3289 3.54846 80.4469 3.54846C76.4913 3.54846 73.4189 6.37209 73.4189 10.0185C73.4189 13.665 76.4181 16.6065 80.8019 16.6065C83.0552 16.6065 84.7933 15.7161 86.0913 14.5286C86.5075 14.1448 86.4833 13.713 86.1156 13.3051L85.5892 12.7294C85.2219 12.3216 84.8176 12.3096 84.3524 12.6214C83.3725 13.2931 82.2104 13.617 80.8512 13.617C78.9652 13.617 77.7161 12.6574 77.4343 11.0861ZM80.398 6.42007C81.8554 6.42007 82.9197 7.28371 83.2258 8.65111H77.4955C77.8752 7.25972 78.9652 6.42007 80.398 6.42007Z" fill="black"/>
</g>
<defs>
<clipPath id="clip0_929_8285">
<rect width="96" height="22" fill="white"/>
</clipPath>
</defs>
</svg>
