<svg width="246" height="172" viewBox="0 0 246 172" fill="none" xmlns="http://www.w3.org/2000/svg">
<path d="M220.711 42.9923L221.52 43.2565L221.509 43.2896L220.711 42.9923Z" fill="#3E99CC"/>
<path d="M223.144 43.8401L224.743 44.4896L224.671 44.652L223.105 43.9364L223.144 43.8401Z" fill="#3E99CC"/>
<path d="M226.312 45.2161L227.85 46.0087L227.713 46.2564L226.21 45.4225L226.312 45.2161Z" fill="#3E99CC"/>
<path d="M229.353 46.8729L230.82 47.8004L230.605 48.1224L229.179 47.1591L229.353 46.8729Z" fill="#3E99CC"/>
<path d="M232.245 48.7968L233.626 49.8591L233.318 50.2417L231.986 49.1518L232.245 48.7968Z" fill="#3E99CC"/>
<path d="M234.956 50.985L236.23 52.1794L235.823 52.6005L234.595 51.3923L234.956 50.985Z" fill="#3E99CC"/>
<path d="M237.444 53.4398L238.594 54.7609L238.096 55.1792L236.99 53.8609L237.444 53.4398Z" fill="#3E99CC"/>
<path d="M239.676 56.1396L240.689 57.5763L240.097 57.9754L239.134 56.5497L239.676 56.1396Z" fill="#3E99CC"/>
<path d="M241.622 59.0681L242.475 60.6094L241.79 60.9671L240.983 59.4479L241.622 59.0681Z" fill="#3E99CC"/>
<path d="M243.243 62.1974L243.914 63.8322L243.133 64.1295L242.505 62.5277L243.243 62.1974Z" fill="#3E99CC"/>
<path d="M244.492 65.5056L244.968 67.212L244.093 67.4239L243.664 65.7616L244.492 65.5056Z" fill="#3E99CC"/>
<path d="M245.335 68.9485L245.588 70.7099L244.633 70.809L244.416 69.1081L245.335 68.9485Z" fill="#3E99CC"/>
<path d="M245.718 72.4851L245.729 74.2658L244.738 74.23L244.743 72.5209L245.718 72.4851Z" fill="#3E99CC"/>
<path d="M245.618 76.0439L245.382 77.8108L244.374 77.6291L244.614 75.9365L245.618 76.0439Z" fill="#3E99CC"/>
<path d="M245.024 79.5556L244.542 81.2703L243.538 80.9345L244.014 79.2997L245.024 79.5556Z" fill="#3E99CC"/>
<path d="M243.945 82.9463L243.243 84.5757L242.263 84.0995L242.948 82.5363L243.945 82.9463Z" fill="#3E99CC"/>
<path d="M242.448 86.1581L241.57 87.6911L240.637 87.1048L241.49 85.6241L242.448 86.1581Z" fill="#3E99CC"/>
<path d="M240.617 89.1773L239.599 90.6167L238.716 89.9369L239.709 88.5443L240.617 89.1773Z" fill="#3E99CC"/>
<path d="M238.514 92.0068L237.372 93.3444L236.544 92.582L237.658 91.283L238.514 92.0068Z" fill="#3E99CC"/>
<path d="M236.175 94.6322L234.926 95.8679L234.158 95.0258L235.377 93.8313L236.175 94.6322Z" fill="#3E99CC"/>
<path d="M233.621 97.0432L232.262 98.1551L231.574 97.2496L232.889 96.168L233.621 97.0432Z" fill="#3E99CC"/>
<path d="M230.85 99.201L229.38 100.173L228.8 99.2065L230.212 98.2653L230.85 99.201Z" fill="#3E99CC"/>
<path d="M227.852 101.051L226.259 101.818L225.824 100.789L227.335 100.054L227.852 101.051Z" fill="#3E99CC"/>
<path d="M224.591 102.443C224.021 102.622 223.438 102.765 222.841 102.861L222.67 101.766C223.204 101.681 223.738 101.546 224.266 101.381L224.591 102.446V102.443Z" fill="#3E99CC"/>
<path d="M221.005 102.958C220.694 102.936 220.381 102.894 220.072 102.823C219.918 102.787 219.764 102.746 219.61 102.694C219.456 102.644 219.31 102.578 219.161 102.52L219.585 101.516C219.703 101.56 219.822 101.612 219.94 101.648C220.061 101.686 220.182 101.719 220.309 101.747C220.559 101.802 220.815 101.838 221.077 101.854L221.008 102.955L221.005 102.958Z" fill="#3E99CC"/>
<path d="M217.576 101.527C217.1 101.133 216.671 100.693 216.285 100.211L217.094 99.5422C217.436 99.9633 217.821 100.349 218.239 100.687L217.576 101.527Z" fill="#3E99CC"/>
<path d="M215.305 98.6175C215.176 98.323 215.068 98.0148 215 97.6845C214.931 97.3542 214.901 96.9964 214.961 96.6249L215.96 96.7928C215.897 97.2056 216.029 97.7175 216.241 98.1882L215.305 98.6175Z" fill="#3E99CC"/>
<path d="M216.282 94.9624C216.871 94.6597 217.493 94.511 218.115 94.4532L218.206 95.4413C217.688 95.4936 217.174 95.6284 216.742 95.8596L216.282 94.9624Z" fill="#3E99CC"/>
<path d="M219.989 94.5992C220.611 94.7671 221.184 95.0754 221.679 95.4579L221.12 96.2203C220.699 95.9066 220.234 95.6726 219.744 95.546L219.989 94.602V94.5992Z" fill="#3E99CC"/>
<path d="M222.97 96.7871C223.336 97.277 223.647 97.8054 223.911 98.3476L223.132 98.7467C222.879 98.2513 222.59 97.7779 222.254 97.3486L222.97 96.7871Z" fill="#3E99CC"/>
<path d="M224.575 100.029C224.753 100.602 224.897 101.188 224.998 101.78L224.203 101.928C224.096 101.375 223.953 100.827 223.776 100.296L224.575 100.029Z" fill="#3E99CC"/>
<path d="M225.189 103.569C225.211 104.171 225.189 104.774 225.112 105.377L224.374 105.286C224.435 104.73 224.446 104.169 224.415 103.604L225.192 103.569H225.189Z" fill="#3E99CC"/>
<path d="M224.688 107.149C224.484 107.722 224.22 108.267 223.914 108.784L223.331 108.432C223.609 107.947 223.843 107.438 224.019 106.91L224.69 107.149H224.688Z" fill="#3E99CC"/>
<path d="M222.871 110.237C222.489 110.691 222.073 111.115 221.638 111.512L221.223 111.049C221.633 110.661 222.021 110.251 222.376 109.813L222.871 110.237Z" fill="#3E99CC"/>
<path d="M220.268 112.621L218.803 113.584L218.523 113.113L219.924 112.145L220.268 112.621Z" fill="#3E99CC"/>
<path d="M217.27 114.412L215.685 115.131L215.514 114.721L217.047 113.969L217.27 114.412Z" fill="#3E99CC"/>
<path d="M214.064 115.747L212.415 116.273L212.319 115.948L213.932 115.379L214.064 115.747Z" fill="#3E99CC"/>
<path d="M210.742 116.713L209.055 117.077L209.011 116.851L210.676 116.438L210.742 116.713Z" fill="#3E99CC"/>
<path d="M207.357 117.368L205.648 117.583L205.634 117.478L207.329 117.192L207.357 117.368Z" fill="#3E99CC"/>
<path d="M203.941 117.734L203.091 117.784L203.939 117.699L203.941 117.734Z" fill="#3E99CC"/>
<path d="M26.7456 18.6407H8.28373C5.8205 18.6407 3.82239 16.6426 3.82239 14.1794C3.82239 11.7134 5.8205 9.71802 8.28373 9.71802H26.7456C29.2116 9.71802 31.2069 11.7161 31.2069 14.1794C31.2069 16.6426 29.2088 18.6407 26.7456 18.6407Z" fill="#CCE9FF"/>
<path d="M13.5958 14.1904C13.5958 14.8481 13.0674 15.3821 12.4096 15.3848C11.7518 15.3848 11.2179 14.8564 11.2151 14.1986C11.2151 13.5408 11.7435 13.0069 12.4013 13.0042C13.0591 13.0014 13.593 13.5326 13.5958 14.1904Z" fill="#42A5E2"/>
<path d="M18.7039 14.174C18.7039 14.8318 18.1755 15.3657 17.5177 15.3685C16.8599 15.3712 16.326 14.84 16.3232 14.1823C16.3232 13.5245 16.8517 12.9905 17.5094 12.9878C18.1672 12.9878 18.7011 13.5162 18.7039 14.174Z" fill="#42A5E2"/>
<path d="M23.812 14.1575C23.812 14.8153 23.2836 15.3492 22.6258 15.352C21.968 15.352 21.4341 14.8236 21.4314 14.1658C21.4314 13.508 21.9598 12.9741 22.6176 12.9713C23.2753 12.9713 23.8093 13.4997 23.812 14.1575Z" fill="#42A5E2"/>
<path d="M119.22 136.491C119.22 144.032 116.864 151.031 112.848 156.775C106.441 165.951 95.8012 171.953 83.7575 171.953C64.1755 171.953 48.3035 156.081 48.3035 136.491C48.3035 116.901 64.1755 101.037 83.7575 101.037C86.6694 101.037 89.5014 101.386 92.2041 102.052C107.707 105.837 119.22 119.821 119.22 136.491Z" fill="#6FC190"/>
<path d="M83.7578 104.32C66.0253 104.32 51.6505 118.695 51.6505 136.428C51.6505 136.835 51.667 137.237 51.6808 137.639C52.3193 154.81 66.4327 168.535 83.7578 168.535C101.083 168.535 115.196 154.81 115.835 137.639C115.849 137.237 115.865 136.832 115.865 136.428C115.865 118.695 101.49 104.32 83.7578 104.32Z" fill="white"/>
<path d="M81.9442 104.32H85.39V108.823C85.39 109.775 84.6166 110.546 83.6671 110.546C82.7148 110.546 81.9442 109.772 81.9442 108.823V104.32Z" fill="#4A74DD"/>
<path d="M83.6671 162.312C84.6193 162.312 85.39 163.086 85.39 164.035V168.538H81.9442V164.035C81.9442 163.083 82.7176 162.312 83.6671 162.312Z" fill="#4A74DD"/>
<path d="M109.551 137.427C109.551 136.474 110.322 135.704 111.274 135.704L116.647 135.756V139.202L111.274 139.15C110.322 139.15 109.551 138.379 109.551 137.427Z" fill="#4A74DD"/>
<path d="M57.7854 137.427C57.7854 138.379 57.0121 139.15 56.0626 139.15H51.5599V135.704H56.0626C57.0148 135.704 57.7854 136.477 57.7854 137.427Z" fill="#4A74DD"/>
<path d="M83.7579 137.641L89.9806 120.982L94.8576 118.863V123.453L83.7579 137.641Z" fill="#FF8F5C"/>
<path d="M83.7601 137.427L105.547 145.592L109.125 149.977L103.447 150.125L83.7601 137.427Z" fill="#FF8F5C"/>
<path d="M85.2662 137.641C85.2662 138.475 84.5919 139.149 83.758 139.149C82.924 139.149 82.2498 138.475 82.2498 137.641C82.2498 136.807 82.924 136.133 83.758 136.133C84.5919 136.133 85.2662 136.807 85.2662 137.641Z" fill="#4A74DD"/>
<path d="M169.913 0H75.3799C73.0057 0 71.081 1.92472 71.081 4.29897V71.5329C71.081 73.9072 73.0057 75.8319 75.3799 75.8319H169.913C172.287 75.8319 174.212 73.9072 174.212 71.5329V4.29897C174.212 1.92472 172.287 0 169.913 0Z" fill="white"/>
<path d="M157.969 26.8424H80.4171C79.7893 26.8424 79.2804 27.3513 79.2804 27.9791V27.9818C79.2804 28.6096 79.7893 29.1185 80.4171 29.1185H157.969C158.597 29.1185 159.106 28.6096 159.106 27.9818V27.9791C159.106 27.3513 158.597 26.8424 157.969 26.8424Z" fill="#3E99CC"/>
<path d="M118.802 31.9532H80.1888C79.6872 31.9532 79.2806 32.3599 79.2806 32.8615V33.3211C79.2806 33.8227 79.6872 34.2293 80.1888 34.2293H118.802C119.304 34.2293 119.711 33.8227 119.711 33.3211V32.8615C119.711 32.3599 119.304 31.9532 118.802 31.9532Z" fill="#C7EEFF"/>
<path d="M157.969 38.5613H80.4173C79.7895 38.5613 79.2806 39.0702 79.2806 39.6979V39.7007C79.2806 40.3285 79.7895 40.8374 80.4173 40.8374H157.969C158.597 40.8374 159.106 40.3285 159.106 39.7007V39.6979C159.106 39.0702 158.597 38.5613 157.969 38.5613Z" fill="#3E99CC"/>
<path d="M124.819 43.8979H80.2551C79.717 43.8979 79.2808 44.3341 79.2808 44.8722V45.1997C79.2808 45.7378 79.717 46.174 80.2551 46.174H124.819C125.357 46.174 125.793 45.7378 125.793 45.1997V44.8722C125.793 44.3341 125.357 43.8979 124.819 43.8979Z" fill="#C7EEFF"/>
<path d="M157.969 50.5031H80.4173C79.7895 50.5031 79.2806 51.012 79.2806 51.6397V51.6425C79.2806 52.2702 79.7895 52.7791 80.4173 52.7791H157.969C158.597 52.7791 159.106 52.2702 159.106 51.6425V51.6397C159.106 51.012 158.597 50.5031 157.969 50.5031Z" fill="#3E99CC"/>
<path d="M139.039 55.7268H80.4476C79.832 55.7268 79.3329 56.2258 79.3329 56.8415V56.8882C79.3329 57.5038 79.832 58.0029 80.4476 58.0029H139.039C139.655 58.0029 140.154 57.5038 140.154 56.8882V56.8415C140.154 56.2258 139.655 55.7268 139.039 55.7268Z" fill="#C7EEFF"/>
<path d="M169.432 0.118286C172.415 0.118286 174.831 2.53748 174.831 5.51814V9.66848H70.3629V5.51814C70.3629 2.53473 72.782 0.118286 75.7627 0.118286" fill="#D61241"/>
<path d="M189.883 60.1663H209.069C210.191 60.1663 211.1 59.2569 211.1 58.1351V44.9272C211.1 43.8055 210.191 42.8961 209.069 42.8961H189.883C188.762 42.8961 187.852 43.8055 187.852 44.9272V58.1351C187.852 59.2569 188.762 60.1663 189.883 60.1663Z" fill="#CCE9FF"/>
<path d="M198.842 51.6481L198.627 48.4472C198.586 47.8252 198.566 47.3766 198.566 47.1041C198.566 46.7353 198.663 46.4464 198.858 46.24C199.051 46.0335 199.307 45.929 199.623 45.929C200.006 45.929 200.262 46.0611 200.391 46.3253C200.52 46.5895 200.584 46.972 200.584 47.4702C200.584 47.7647 200.567 48.0619 200.537 48.3647L200.251 51.6591C200.22 52.0499 200.152 52.3526 200.05 52.5618C199.948 52.771 199.777 52.8756 199.543 52.8756C199.31 52.8756 199.136 52.7737 199.043 52.5728C198.949 52.3719 198.883 52.0609 198.842 51.6481ZM199.582 56.0434C199.31 56.0434 199.073 55.9553 198.872 55.7791C198.668 55.603 198.569 55.3581 198.569 55.0415C198.569 54.7663 198.666 54.5296 198.861 54.337C199.054 54.1443 199.293 54.0452 199.571 54.0452C199.849 54.0452 200.091 54.1416 200.289 54.337C200.487 54.5296 200.587 54.7663 200.587 55.0415C200.587 55.3525 200.487 55.5975 200.287 55.7764C200.086 55.9553 199.852 56.0434 199.585 56.0434H199.582Z" fill="#42A5E2"/>
<path d="M207.136 113.235C204.301 132.539 195.384 140.933 192.783 143.011V155.286H191.347V142.678C188.33 140.129 180.104 131.639 177.396 113.237C177.396 113.237 187.648 122.278 191.347 137.027V120.621C188.33 118.073 180.104 109.582 177.396 91.181C177.396 91.181 187.648 100.217 191.347 114.971V100.987C189.528 99.6138 181.095 92.4113 178.288 74.8218C178.243 74.5576 178.202 74.2907 178.164 74.0182C178.164 74.0182 178.475 74.2907 179 74.8218C181.648 77.4805 189.761 86.56 191.523 99.7239H192.527C194.644 83.9317 205.889 74.0182 205.889 74.0182C203.256 91.9516 194.784 99.3991 192.783 100.932V116.741C196.064 100.949 207.136 91.1838 207.136 91.1838C204.301 110.488 195.384 118.882 192.783 120.955V138.797C196.064 123.005 207.136 113.24 207.136 113.24V113.235Z" fill="#6FC190"/>
<path d="M206.765 152.602L203.349 166.606C202.584 169.746 199.766 171.956 196.54 171.956H188.063C184.893 171.956 182.121 169.828 181.296 166.771L177.503 152.688C176.876 150.359 178.634 148.067 181.048 148.067H203.201C205.576 148.067 207.329 150.293 206.765 152.605V152.602Z" fill="#FF8F5C"/>
<path d="M17.3301 42.7667C17.0466 42.7667 12.6348 40.2044 13.4165 32.3798L19.5346 29.0359L17.3301 42.7667Z" fill="#3B3D4C"/>
<path d="M18.0236 27.1728C17.5365 27.3957 17.0769 27.6957 16.6503 28.0837C12.8495 31.557 15.0182 38.5394 18.2603 41.7512C20.0548 43.5292 22.7216 44.3989 25.0913 43.5787C28.5563 42.3788 29.7288 38.5174 29.1233 35.0386C28.6692 32.446 27.3041 29.9745 25.2317 28.403C23.162 26.8342 20.3245 26.1214 18.0264 27.17L18.0236 27.1728Z" fill="#FFC0B8"/>
<path d="M17.085 39.632C16.419 40.2595 15.2823 40.4907 14.4209 40.1632C13.5594 39.8357 12.8659 38.9962 12.6677 38.0412C12.4888 37.1825 12.731 36.2193 13.3723 35.7156C14.0136 35.2119 15.1392 35.2725 15.6566 35.9661L17.085 39.6348V39.632Z" fill="#FFC0B8"/>
<path d="M16.1934 37.3448L16.5595 49.6005C16.5925 51.8655 18.3814 53.7123 20.6438 53.8141C23.2556 53.9325 25.3638 51.7032 25.0996 49.1023L24.0125 37.7026L16.1934 37.3448Z" fill="#FFC0B8"/>
<path d="M24.7471 45.4005L24.6178 43.7189C24.6178 43.7189 21.2243 44.6657 18.2601 41.7511C18.2601 41.7511 19.9225 44.985 24.7471 45.4005Z" fill="#F7A39F"/>
<path d="M26.8305 38.699C26.8305 38.699 25.1379 42.8025 23.9214 38.0494L26.8305 38.699Z" fill="#F9F7F7"/>
<path d="M14.9193 35.578C14.9193 35.578 18.5247 37.5513 18.1147 32.8588C18.1147 32.8588 21.9925 35.0358 22.3311 30.1396C22.3311 30.1396 26.0713 33.8799 28.5208 30.1396C30.9703 26.3993 24.1172 24.5746 20.1045 26.5479C20.1045 26.5479 15.5468 24.6462 13.9148 29.6772C12.2827 34.711 14.9193 35.5807 14.9193 35.5807V35.578Z" fill="#3B3D4C"/>
<path d="M26.6553 164.049L27.214 143.696L18.3133 143.357L18.5528 164.472L26.6553 164.049Z" fill="#FFC5B3"/>
<path d="M26.8377 157.421L27.201 163.955L18.5536 164.475L18.4738 157.361C19.8278 157.339 25.2194 157.394 26.8377 157.421Z" fill="#4BA07C"/>
<path d="M18.1131 168.304L38.7244 168.568L29.3394 163.655C29.3394 163.655 27.2339 161.288 25.8303 161.462C25.8303 161.462 25.1285 161.811 24.0771 163.215C24.0771 163.215 19.9543 163.741 18.3773 162.249L18.1131 168.301V168.304Z" fill="#3861E0"/>
<path d="M33.5029 165.829C33.5029 165.829 32.3057 167.561 32.1819 168.562H38.7239L33.5029 165.829Z" fill="#FCFCFC"/>
<path d="M18.1129 168.304C18.1129 168.304 18.1019 170.401 18.1019 171.238H39.6572C39.6572 171.238 39.9159 169.198 38.7215 168.568L18.1101 168.304H18.1129Z" fill="#FCFCFC"/>
<path d="M13.7283 164.767L14.287 144.412L5.38634 144.073L5.62578 165.191L13.7283 164.767Z" fill="#FFC5B3"/>
<path d="M13.9103 157.025L14.2736 164.588L5.62613 165.191L5.54633 156.956C6.90042 156.931 12.292 156.995 13.9103 157.028V157.025Z" fill="#4FBA8E"/>
<path d="M5.18558 169.022L25.7969 169.286L16.4119 164.376C16.4119 164.376 14.3064 162.009 12.9028 162.183C12.9028 162.183 12.201 162.532 11.1496 163.936C11.1496 163.936 7.0268 164.462 5.44978 162.97L5.18558 169.022Z" fill="#4A74DD"/>
<path d="M20.5759 166.548C20.5759 166.548 19.3786 168.279 19.2548 169.281H25.7968L20.5759 166.548Z" fill="#FCFCFC"/>
<path d="M5.18537 169.022C5.18537 169.022 5.17435 171.119 5.17435 171.956H26.7297C26.7297 171.956 26.9884 169.916 25.794 169.286L5.18261 169.022H5.18537Z" fill="#FCFCFC"/>
<path d="M32.7238 86.6122L28.6725 155.608C28.6092 156.675 27.7258 157.509 26.6552 157.509H4.8989C3.73196 157.509 2.80997 156.524 2.88428 155.36L7.34562 85.8471C7.41443 84.7655 8.32541 83.9316 9.40978 83.9563L30.756 84.471C31.8981 84.4985 32.7899 85.4673 32.7238 86.6095V86.6122Z" fill="#3B3D4C"/>
<path d="M28.5243 157.355H16.8549L20.9255 96.3552L25.0097 85.6986L32.749 85.316L28.5243 157.355Z" fill="#2A2C38"/>
<path d="M16.8549 157.355L20.9255 96.3551L25.5767 84.4821" stroke="#212128" stroke-width="1.5" stroke-miterlimit="10" stroke-linecap="round"/>
<path d="M30.5058 55.9691C31.6479 59.1396 32.6855 63.1111 33.0433 67.366C33.7671 75.9337 34.6506 85.2527 34.4331 87.0471C34.4029 87.2976 34.1937 87.4847 33.9433 87.4902L5.92572 87.1435C5.62848 87.149 5.38904 86.8985 5.41106 86.6013L9.52561 56.814C16.5245 56.2388 23.5316 55.6443 30.503 55.9718L30.5058 55.9691Z" fill="#4A74DD"/>
<path d="M49.1188 79.2859C39.7145 82.6574 32.5642 68.0486 32.5642 68.0486L39.3952 61.4241L46.284 70.377L48.0785 53.2637L53.115 52.8784C53.115 52.8784 54.8764 77.2245 49.1215 79.2887L49.1188 79.2859Z" fill="#FFC0B8"/>
<path d="M52.8338 58.3883C51.3862 58.3828 49.9412 58.3608 48.4936 58.3277C48.4936 58.1021 48.4936 57.8846 48.4798 57.692L48.3285 55.9966C48.3285 55.9966 47.1285 52.6279 45.6561 51.9288C45.7221 51.7004 46.0193 51.3866 46.3386 51.4224C47.5936 51.5573 48.3725 52.6774 48.3725 52.6774C48.3725 52.6774 48.956 46.8015 49.4596 47.0409C49.9633 47.2803 49.9935 50.3683 49.9935 50.3683C49.9935 50.3683 50.4532 45.6868 50.866 46.0776C51.0256 46.229 50.866 46.0776 51.1192 50.1647C51.1192 50.1647 52.0357 46.573 52.2944 47.2143C52.6192 48.0207 52.421 50.7646 52.421 50.7646C52.421 50.7646 53.1613 47.9959 53.343 48.5271C53.5246 49.0583 52.7733 56.536 52.7733 56.536C52.7733 56.536 52.7568 57.3204 52.8338 58.3828V58.3883Z" fill="#FFC0B8"/>
<path d="M25.0809 48.2299C25.0809 48.2299 30.3184 46.6969 43.5758 65.5166L33.4614 72.2348L25.0809 48.2272V48.2299Z" fill="#3861E0"/>
<path d="M11.5368 58.2397C11.5368 58.2397 14.2946 48.1914 14.5285 48.1198C14.5285 48.1198 15.489 48.0703 16.7165 48.0951C17.0991 48.7308 18.1917 49.3556 21.0017 49.4189C25.0007 49.5125 24.3622 48.7528 24.8053 48.2299C30.417 48.4501 32.5115 55.6306 32.7729 66.5157L33.4087 72.9861L8.9993 71.3431L11.5341 58.2397H11.5368Z" fill="#4A74DD"/>
<path d="M34.4329 87.2537C34.3256 87.2537 34.2347 87.1711 34.2265 87.0611L32.5807 61.7792C32.5724 61.6663 32.6605 61.5673 32.7733 61.559C32.8862 61.5508 32.9852 61.6388 32.9935 61.7517L34.6393 87.0335C34.6476 87.1464 34.5595 87.2455 34.4467 87.2537C34.4412 87.2537 34.4384 87.2537 34.4329 87.2537Z" fill="#2D55BA"/>
<path d="M1.0074 70.9081C1.0074 70.9081 -1.86042 81.8978 3.83666 83.6977C8.98606 85.3243 26.3085 83.1473 26.3085 83.1473L26.8699 78.3281L9.1567 76.6823L9.27229 71.1091C9.27229 71.1091 5.17425 70.5008 1.0074 70.9081Z" fill="#FFC0B8"/>
<path d="M23.083 83.4942C22.9976 82.0492 22.9261 80.6043 22.8683 79.1594C23.094 79.1456 23.3114 79.1291 23.5041 79.1044L25.1857 78.8457C25.1857 78.8457 28.4718 77.4338 29.0773 75.92C29.3112 75.9723 29.6415 76.2476 29.6277 76.5696C29.5754 77.8301 28.5021 78.6778 28.5021 78.6778C28.5021 78.6778 34.4028 78.8869 34.1964 79.4044C33.99 79.9218 30.9103 80.1474 30.9103 80.1474C30.9103 80.1474 35.6111 80.3098 35.2478 80.7474C35.1074 80.9153 35.2478 80.7474 31.1855 81.2594C31.1855 81.2594 34.8267 81.9446 34.2047 82.2446C33.4203 82.6189 30.6681 82.5969 30.6681 82.5969C30.6681 82.5969 33.4781 83.1611 32.9579 83.3758C32.4377 83.5905 24.927 83.3153 24.927 83.3153C24.927 83.3153 24.1453 83.3483 23.0885 83.4914L23.083 83.4942Z" fill="#FFC0B8"/>
<path d="M14.7849 48.139C14.7849 48.139 5.73286 46.5895 0 71.0953C0 71.0953 4.34575 71.2329 9.8777 71.343L14.7876 48.139H14.7849Z" fill="#4A74DD"/>
<path d="M9.27541 71.5494C9.27541 71.5494 9.2699 71.5494 9.26715 71.5494C9.1543 71.5439 9.06349 71.4476 9.06899 71.3348L9.38275 64.0496C9.38825 63.934 9.48733 63.8432 9.59741 63.8515C9.71026 63.857 9.80109 63.9533 9.79558 64.0661L9.48183 71.3513C9.47632 71.4614 9.3855 71.5494 9.27541 71.5494Z" fill="#2D55BA"/>
<path d="M144.26 91.9076V109.035C144.26 117.696 138.805 125.083 131.143 127.948C130.317 128.259 129.624 128.804 129.139 129.492C128.658 130.183 128.377 131.017 128.377 131.9C128.377 133.667 129.489 135.23 131.143 135.85C138.805 138.717 144.26 146.102 144.26 154.765V171.893H103.88V154.765C103.88 146.102 109.334 138.717 116.994 135.85C117.82 135.539 118.516 134.994 119 134.306C119.485 133.617 119.763 132.784 119.763 131.9C119.763 130.13 118.651 128.57 116.994 127.948C109.334 125.083 103.88 117.696 103.88 109.035V91.9076H144.26Z" fill="white"/>
<path d="M147.293 93.1158V93.7928C147.293 94.5249 146.569 95.1084 145.168 95.1084H102.993C101.59 95.1084 101.284 94.624 101.284 93.8919V93.2149C101.284 92.4828 101.59 91.7727 102.993 91.7727H145.168C146.569 91.7727 147.293 92.3837 147.293 93.1131V93.1158Z" fill="#D61241"/>
<path d="M147.293 169.961V170.638C147.293 171.37 146.569 171.953 145.168 171.953H102.994C101.59 171.953 101.284 171.469 101.284 170.737V170.06C101.284 169.328 101.59 168.617 102.994 168.617H145.168C146.569 168.617 147.293 169.228 147.293 169.958V169.961Z" fill="#D61241"/>
<path d="M108.109 114.773C107.171 112.841 107.969 110.375 109.587 108.966C111.208 107.557 113.46 107.067 115.607 107.13C117.753 107.193 119.848 107.752 121.948 108.206C126.489 109.189 131.135 109.695 135.78 109.712C130.755 113.835 124.573 115.563 118.133 116.455C116.424 116.691 114.69 116.87 112.973 116.68C111.255 116.49 108.861 116.323 108.107 114.77L108.109 114.773Z" fill="#E0C03B"/>
<path d="M130.025 124.962C136.631 122.49 141.07 116.089 141.07 109.035V108.707C139.237 107.158 136.812 106.86 134.39 107.207C129.313 107.934 124.758 110.614 120.214 112.819C116.487 114.627 111.952 116.127 108.09 114.817C109.764 119.413 113.383 123.195 118.111 124.964C120.949 126.027 122.867 128.727 122.941 131.724L123.731 155.412C122.322 155.814 120.467 156.923 119.727 158.057C118.926 159.285 118.249 160.639 117.126 161.583C115.791 162.703 114.013 163.091 112.37 163.669C110.727 164.247 109.128 165.43 108.561 167.076H139.196C138.161 165.15 135.827 163.889 133.777 163.124C131.726 162.359 129.544 161.74 127.903 160.289C126.216 158.797 127.254 156.158 124.411 155.404L125.198 131.724C125.272 128.727 127.191 126.027 130.028 124.964L130.025 124.962Z" fill="#F7D95C"/>
<g style="mix-blend-mode:color-burn">
<path d="M144.26 167.071H103.88V168.686H144.26V167.071Z" fill="#A59F9D"/>
</g>
</svg>
