<svg width="16" height="16" viewBox="0 0 16 16" fill="none" xmlns="http://www.w3.org/2000/svg">
<path d="M7.54428 0.335105C7.61785 -0.111548 8.26008 -0.111548 8.33365 0.335105L9.30656 6.2417C9.33442 6.4109 9.46703 6.54351 9.63623 6.57137L15.5428 7.54428C15.9895 7.61785 15.9895 8.26008 15.5428 8.33365L9.63623 9.30656C9.46703 9.33442 9.33442 9.46703 9.30656 9.63623L8.33365 15.5428C8.26008 15.9895 7.61785 15.9895 7.54428 15.5428L6.57137 9.63623C6.54351 9.46703 6.4109 9.33442 6.2417 9.30656L0.335105 8.33365C-0.111548 8.26008 -0.111548 7.61785 0.335105 7.54428L6.2417 6.57137C6.4109 6.54351 6.54351 6.4109 6.57137 6.2417L7.54428 0.335105Z" fill="url(#paint0_linear_874_1080)"/>
<defs>
<linearGradient id="paint0_linear_874_1080" x1="17.939" y1="17.939" x2="-4.97352" y2="12.5685" gradientUnits="userSpaceOnUse">
<stop stop-color="#3597F9"/>
<stop offset="0.979018" stop-color="#462F8F"/>
</linearGradient>
</defs>
</svg>
