<svg width="216" height="180" viewBox="0 0 216 180" fill="none" xmlns="http://www.w3.org/2000/svg">
<path d="M162.609 94.8996V112.987C162.609 122.134 156.848 129.936 148.756 132.961C147.884 133.29 147.152 133.865 146.64 134.592C146.131 135.321 145.835 136.202 145.835 137.135C145.835 139.001 147.009 140.652 148.756 141.306C156.848 144.335 162.609 152.133 162.609 161.283V179.371H119.963V161.283C119.963 152.133 125.724 144.335 133.813 141.306C134.685 140.978 135.421 140.402 135.932 139.676C136.444 138.949 136.737 138.068 136.737 137.135C136.737 135.266 135.563 133.618 133.813 132.961C125.724 129.936 119.963 122.134 119.963 112.987V94.8996H162.609Z" fill="white"/>
<path d="M165.812 96.1727V96.8877C165.812 97.6609 165.048 98.2771 163.568 98.2771H119.028C117.545 98.2771 117.223 97.7655 117.223 96.9923V96.2773C117.223 95.5042 117.545 94.7543 119.028 94.7543H163.568C165.048 94.7543 165.812 95.3995 165.812 96.1698V96.1727Z" fill="#D61241"/>
<path d="M165.812 177.33V178.045C165.812 178.819 165.048 179.435 163.568 179.435H119.028C117.545 179.435 117.223 178.923 117.223 178.15V177.435C117.223 176.662 117.545 175.912 119.028 175.912H163.568C165.048 175.912 165.812 176.557 165.812 177.327V177.33Z" fill="#D61241"/>
<path d="M124.431 119.048C123.44 117.007 124.283 114.403 125.992 112.915C127.704 111.426 130.081 110.909 132.348 110.976C134.615 111.043 136.827 111.633 139.045 112.112C143.841 113.15 148.747 113.685 153.654 113.702C148.346 118.056 141.818 119.882 135.017 120.823C133.212 121.073 131.38 121.262 129.567 121.062C127.753 120.861 125.224 120.684 124.428 119.045L124.431 119.048Z" fill="#446BAA"/>
<path d="M147.576 129.805C154.552 127.195 159.24 120.434 159.24 112.984V112.638C157.304 111.002 154.744 110.688 152.186 111.054C146.823 111.822 142.013 114.653 137.214 116.981C133.278 118.891 128.488 120.475 124.41 119.091C126.178 123.945 130 127.939 134.993 129.808C137.99 130.93 140.016 133.781 140.094 136.946L140.929 161.963C139.44 162.388 137.481 163.559 136.699 164.756C135.854 166.053 135.139 167.483 133.953 168.48C132.543 169.663 130.665 170.073 128.93 170.683C127.195 171.293 125.506 172.543 124.907 174.281H157.261C156.168 172.247 153.703 170.915 151.538 170.107C149.372 169.299 147.067 168.645 145.335 167.114C143.553 165.538 144.649 162.751 141.646 161.954L142.478 136.946C142.556 133.781 144.582 130.93 147.579 129.808L147.576 129.805Z" fill="#4F71C6"/>
<g style="mix-blend-mode:color-burn">
<path d="M162.609 174.278H119.963V175.985H162.609V174.278Z" fill="#A59F9D"/>
</g>
<path d="M216 117.42C213.006 137.807 203.589 146.672 200.842 148.866V161.83H199.325V148.515C196.139 145.823 187.452 136.856 184.592 117.423C184.592 117.423 195.419 126.971 199.325 142.547V125.221C196.139 122.53 187.452 113.563 184.592 94.1295C184.592 94.1295 195.419 103.672 199.325 119.254V104.486C197.404 103.035 188.498 95.4287 185.533 76.8527C185.487 76.5737 185.443 76.2918 185.403 76.004C185.403 76.004 185.731 76.2918 186.286 76.8527C189.082 79.6605 197.651 89.2493 199.511 103.152H200.572C202.807 86.4736 214.684 76.004 214.684 76.004C211.902 94.9433 202.955 102.809 200.842 104.428V121.123C204.307 104.445 216 94.1324 216 94.1324C213.006 114.519 203.589 123.384 200.842 125.573V144.416C204.307 127.738 216 117.426 216 117.426V117.42Z" fill="#6FC190"/>
<path d="M215.605 158.999L211.998 173.787C211.19 177.104 208.213 179.438 204.807 179.438H195.855C192.506 179.438 189.579 177.191 188.707 173.962L184.702 159.089C184.039 156.63 185.897 154.208 188.446 154.208H211.841C214.349 154.208 216.201 156.56 215.605 159.001V158.999Z" fill="#FF8F5C"/>
<path d="M106.75 79.861C128.577 79.861 146.271 62.1669 146.271 40.3402C146.271 18.5134 128.577 0.819336 106.75 0.819336C84.9236 0.819336 67.2295 18.5134 67.2295 40.3402C67.2295 62.1669 84.9236 79.861 106.75 79.861Z" fill="#D61241"/>
<path d="M106.751 68.8392C122.49 68.8392 135.25 56.0797 135.25 40.3401C135.25 24.6005 122.49 11.8411 106.751 11.8411C91.011 11.8411 78.2515 24.6005 78.2515 40.3401C78.2515 56.0797 91.011 68.8392 106.751 68.8392Z" fill="white"/>
<path d="M106.751 57.8204C116.405 57.8204 124.231 49.9943 124.231 40.3402C124.231 30.6862 116.405 22.86 106.751 22.86C97.0965 22.86 89.2703 30.6862 89.2703 40.3402C89.2703 49.9943 97.0965 57.8204 106.751 57.8204Z" fill="#D61241"/>
<path d="M106.751 46.8016C110.319 46.8016 113.212 43.9087 113.212 40.3402C113.212 36.7717 110.319 33.8789 106.751 33.8789C103.182 33.8789 100.289 36.7717 100.289 40.3402C100.289 43.9087 103.182 46.8016 106.751 46.8016Z" fill="white"/>
<path d="M140.022 6.03096L137.633 0.810737C137.232 -0.0699579 136.075 -0.27633 135.389 0.406718L126.707 9.08868C126.288 9.50723 126.181 10.1438 126.439 10.6757L129.358 16.6952L140.022 6.03096Z" fill="#4FBA8E"/>
<path d="M141.06 7.06561L146.28 9.45483C147.161 9.85593 147.367 11.0128 146.684 11.6987L138.002 20.3807C137.584 20.7992 136.947 20.9068 136.415 20.6481L130.396 17.7299L141.06 7.06561Z" fill="#4FBA8E"/>
<path d="M106.75 42.0783C106.306 42.0783 105.861 41.9098 105.521 41.5697C104.844 40.8925 104.844 39.7909 105.521 39.1136L141.728 2.9063C142.406 2.22907 143.507 2.22907 144.184 2.9063C144.862 3.58354 144.862 4.68513 144.184 5.36237L107.977 41.5697C107.637 41.9098 107.192 42.0783 106.748 42.0783H106.75Z" fill="#3B3D4C"/>
<path d="M48.5835 103.616H79.0852V105.886H48.5835C47.9644 105.886 47.4587 105.384 47.4587 104.762V104.741C47.4587 104.122 47.9615 103.616 48.5835 103.616Z" fill="#3B3D4C"/>
<path d="M78.8382 105.889C78.719 105.889 78.5999 105.86 78.4894 105.796C78.1581 105.605 78.0476 105.18 78.2394 104.849L91.9091 81.3608C92.1009 81.0294 92.5253 80.919 92.8566 81.1108C93.188 81.3026 93.2984 81.727 93.1066 82.0584L79.4369 105.546C79.309 105.767 79.0765 105.889 78.8382 105.889Z" fill="#3B3D4C"/>
<path d="M90.296 105.959H52.2575C50.5513 105.959 49.1678 107.195 49.1678 108.715C49.1678 110.238 50.5513 111.473 52.2575 111.473H90.296C92.0021 111.473 93.3857 110.238 93.3857 108.718C93.3857 107.195 92.0021 105.962 90.296 105.962V105.959Z" fill="#FF8F5C"/>
<path d="M56.8207 111.473L46.4034 178.72H48.1067L61.9246 111.473H56.8207Z" fill="#CCE9FF"/>
<path d="M86.7964 111.473L97.2136 178.72H95.5133L81.6954 111.473H86.7964Z" fill="#CCE9FF"/>
<path d="M74.4666 111.473L75.5304 178.72H73.8301L69.3656 111.473H74.4666Z" fill="#CCE9FF"/>
<path d="M94.2371 150.096H49.3798C48.5572 150.096 47.8916 150.689 47.8916 151.424C47.8916 152.159 48.5572 152.752 49.3798 152.752H94.2371C95.0597 152.752 95.7253 152.159 95.7253 151.424C95.7253 150.689 95.0597 150.096 94.2371 150.096Z" fill="#CCE9FF"/>
<path d="M0.412903 88.7696C2.9707 88.7696 5.13028 90.6705 5.45582 93.208L9.22276 122.567C9.88256 127.7 14.2482 131.543 19.4249 131.543H48.7145C50.7143 131.543 52.3332 133.165 52.3332 135.162V138.071H18.425C12.7107 138.071 7.83922 133.932 6.91202 128.296L0.415812 88.7696H0.412903Z" fill="#FF8F5C"/>
<path d="M54.949 178.65H56.9749L50.6938 139.423H53.8125V136.722H18.3289C12.7919 136.722 8.12391 132.578 7.46702 127.081L2.68277 87.0896L0 87.4093L4.78132 127.401C5.49343 133.348 9.97249 138.022 15.6549 139.155L9.33013 178.653H11.356L26.6185 139.426H46.299L54.9461 178.653L54.949 178.65Z" fill="#CCE9FF"/>
<path d="M26.6213 139.423H19.2386" stroke="#6194A3" stroke-width="1.25" stroke-miterlimit="10"/>
<path d="M46.3018 139.423H49.3363" stroke="#6194A3" stroke-width="1.25" stroke-miterlimit="10"/>
<path d="M62.2355 162.379C62.2355 162.379 63.8603 170.91 63.808 172.055C63.7557 173.2 62.7151 175.912 62.9215 176.848C63.1308 177.787 64.4329 178.516 67.0895 178.464C69.7461 178.412 78.1869 179.095 78.9164 178.464C79.646 177.836 77.5096 176.168 76.7278 175.647C75.9459 175.127 70.2752 172.625 69.8014 171.011C69.3276 169.395 67.8075 160.554 67.8075 160.554L62.2326 162.376L62.2355 162.379Z" fill="#FFC0B8"/>
<path d="M78.9164 178.467C79.646 177.839 77.5096 176.171 76.7278 175.65C76.0128 175.174 71.2169 173.04 70.0426 171.445C68.6097 172.482 68.5486 174.244 68.5486 174.244L63.683 172.863C63.4011 174.174 62.7529 176.089 62.9215 176.848C63.1308 177.787 64.4329 178.516 67.0895 178.464C69.7461 178.412 78.1869 179.095 78.9164 178.464V178.467Z" fill="#4FBA8E"/>
<path d="M47.3538 161.998C47.3538 161.998 46.7318 171.27 46.165 172.755C45.7552 173.828 45.0722 176.612 45.2785 177.548C45.4849 178.484 46.79 179.217 49.4466 179.164C52.1032 179.112 60.5439 179.795 61.2735 179.164C62.003 178.537 59.8667 176.868 59.0848 176.348C58.303 175.828 52.6322 173.325 52.1584 171.712C51.6847 170.096 53.5245 161.562 53.5245 161.562L47.3509 161.998H47.3538Z" fill="#FFC0B8"/>
<path d="M61.2765 179.167C62.006 178.54 60.1051 176.807 58.0472 175.79C57.277 175.409 53.5769 173.741 52.4026 172.145C50.9697 173.183 50.9087 174.944 50.9087 174.944L45.7843 173.482C45.5024 174.793 45.11 176.793 45.2786 177.551C45.4879 178.49 46.79 179.22 49.4466 179.167C52.1033 179.115 60.544 179.798 61.2735 179.167H61.2765Z" fill="#4FBA8E"/>
<path d="M46.348 98.7247C46.348 98.7247 61.16 100.751 63.0173 101.259C64.8717 101.771 71.5423 103.628 71.5423 103.628H45.3656L46.348 98.7247Z" fill="#FFC0B8"/>
<path d="M31.5796 110.211L33.6608 113.42C33.6608 113.42 43.1043 117.76 47.8449 119.242C52.5855 120.728 63.1481 124.227 65.5431 126.59C67.9381 128.953 68.9496 135.118 69.1182 138.789C69.2868 142.46 70.3041 153.098 70.3041 153.098L71.301 169.674C71.301 169.674 66.511 170.985 63.1364 170.706C61.843 168.23 60.1107 158.728 60.0555 158.278C60.0002 157.827 59.2126 153.889 59.2126 153.889L56.2943 169.305L55.62 171.145C55.62 171.145 48.0222 171.668 45.6591 170.43C45.6591 170.43 48.4088 151.973 48.5774 150.453C48.7459 148.933 50.3213 139.815 50.3213 139.815C50.3213 139.815 49.5888 137.51 49.8156 136.336C50.0394 135.162 47.7344 133.793 47.7344 133.793C47.7344 133.793 32.1958 134.237 25.7607 132.868C19.3255 131.499 9.228 133.746 10.4197 121.806C11.1202 114.798 22.575 110.156 22.8017 110.211C23.0285 110.267 31.5825 110.211 31.5825 110.211H31.5796Z" fill="#3B3D4C"/>
<path d="M70.2753 153.668C70.2753 153.668 69.4208 141.69 69.1156 137.943C68.8133 134.234 68.5313 130.866 67.1158 127.811C66.2264 125.89 59.0181 122.663 58.7129 123.32C58.6431 123.471 61.3899 124.73 61.8782 125.236C66.5403 130.066 63.8721 135.909 61.6921 141.977C60.7271 144.663 59.3174 151.619 59.3581 154.47C59.3785 155.926 61.8113 168.797 63.1076 171.273C66.4851 171.555 71.2722 170.241 71.2722 170.241L70.2753 153.665V153.668Z" fill="#2A2C38"/>
<path d="M57.7359 122.803C62.9154 124.64 64.0577 128.537 64.3949 131.142C64.732 133.749 62.68 138.382 62.2062 140.434C61.7324 142.486 60.4681 146.614 60.3286 148.015C60.1425 149.892 59.2124 153.886 59.2124 153.886C58.7299 156.429 56.425 168.613 56.425 168.613" stroke="#212128" stroke-width="1.5" stroke-miterlimit="10"/>
<path d="M20.581 62.7645C20.581 62.7645 13.7563 67.7522 22.5139 70.0048L24.7781 64.4358L20.581 62.7645Z" fill="#3B3D4C"/>
<path d="M21.4617 58.3929C21.4617 58.3929 14.8579 62.0145 15.4625 63.305C16.0671 64.5955 22.4558 62.9184 22.4558 62.9184L21.4617 58.3929Z" fill="#F7D95C"/>
<path d="M22.5253 68.8334C22.5253 68.8334 17.5579 59.6602 26.1033 51.952L29.9342 54.9603L22.5253 68.8334Z" fill="#3B3D4C"/>
<path d="M29.4347 52.0159C28.8505 52.077 28.2633 52.231 27.6849 52.4897C22.5054 54.7888 22.3339 62.8342 24.5981 67.3162C25.8509 69.7955 28.3302 71.6383 31.0885 71.6063C35.1229 71.5627 37.6952 67.944 38.2736 64.0986C38.7038 61.2356 38.1428 58.1779 36.5238 55.8148C34.9107 53.4547 32.1959 51.7195 29.4318 52.0159H29.4347Z" fill="#FFC0B8"/>
<path d="M24.1098 64.6944C23.1972 65.1159 21.927 64.9618 21.1422 64.3194C20.3574 63.6771 19.9273 62.561 20.0523 61.4943C20.1656 60.5351 20.7556 59.6137 21.5986 59.3114C22.4444 59.0091 23.5983 59.4655 23.8977 60.3694L24.1098 64.6973V64.6944Z" fill="#FFC0B8"/>
<path d="M23.9759 61.9941L20.084 74.9139C19.3283 77.2886 20.5519 79.8405 22.8772 80.7387C25.5629 81.7763 28.5421 80.1835 29.17 77.3728L32.0126 65.0925L23.9759 61.9912V61.9941Z" fill="#FFC0B8"/>
<path d="M30.094 73.388L30.5474 71.5888C30.5474 71.5888 26.673 71.394 24.5977 67.3161C24.5977 67.3161 25.2051 71.272 30.094 73.388Z" fill="#EF9F8F"/>
<path d="M34.6052 67.1185C34.6052 67.1185 31.1056 70.7663 31.7945 65.4269L34.6052 67.1185Z" fill="white"/>
<path d="M23.2549 59.5498C23.2549 59.5498 29.7075 62.8546 34.9946 56.0735C34.9946 56.0735 35.4044 60.788 38.2558 61.0496C38.2558 61.0496 38.1831 53.2541 30.6231 51.3299C23.0602 49.4087 23.2549 59.5498 23.2549 59.5498Z" fill="#3B3D4C"/>
<path d="M21.3541 59.2649C21.3541 59.2649 19.9386 54.4051 25.3797 51.3909C28.3939 49.7196 31.6638 50.859 33.9803 52.2048C35.8929 53.3151 37.2241 55.2044 37.631 57.3785L21.3541 59.2649Z" fill="#F7D95C"/>
<path d="M22.18 71.6034C22.18 71.6034 30.1731 73.8822 30.3969 74.5449C30.6207 75.2076 30.4754 76.501 30.7748 77.0067C31.0741 77.5125 31.6351 79.707 32.3123 80.9452C32.9867 82.1834 38.2796 94.1701 41.936 95.5769C45.5954 96.9837 46.7755 96.5681 47.4528 97.3935C48.1271 98.2219 49.6211 103.794 47.0458 103.794H37.4628C34.2278 103.794 31.5828 99.0561 31.5828 99.0561L32.4257 105.314C32.4257 105.314 33.8325 108.409 33.1 110.491C32.3676 112.572 28.2606 114.516 25.5022 115.487C22.7439 116.458 15.428 121.579 13.6259 122.114C11.8238 122.649 8.43475 123.114 7.2663 119.588C6.09785 116.063 7.54823 110.717 7.60346 107.058C7.65868 103.399 8.42021 93.4929 10.9809 86.8688C13.7741 79.6401 19.3664 74.3036 19.4798 73.1206C19.5931 71.9377 20.4012 71.0773 22.18 71.6005V71.6034Z" fill="#4A74DD"/>
<path d="M25.3304 76.1057C23.755 77.062 22.4587 79.8755 22.7407 82.2415C23.0226 84.6046 23.9701 88.1506 24.7607 89.2202C25.5542 90.2898 25.8565 91.528 26.5774 92.8215C27.2982 94.1149 28.8183 96.3123 28.9869 96.4227C29.1555 96.5361 31.0622 98.2452 31.5767 99.0561" stroke="#305CB5" stroke-width="1.5" stroke-miterlimit="10"/>
<path d="M183.603 61.6308H182.926C182.354 61.6308 181.891 62.0941 181.891 62.6655V70.4639C181.891 71.0354 182.354 71.4987 182.926 71.4987H183.603C184.175 71.4987 184.638 71.0354 184.638 70.4639V62.6655C184.638 62.0941 184.175 61.6308 183.603 61.6308Z" fill="#42A5E2"/>
<path d="M196.384 61.7442H191.567C191.556 61.718 191.547 61.6918 191.533 61.6657L191.454 57.2768C190.879 56.2362 189.382 56.2362 188.806 57.2768L186.417 61.593C186.292 61.8197 186.234 62.0552 186.228 62.2877C185.737 62.7063 185.423 63.3254 185.423 64.0171V69.3449C185.423 70.5947 186.446 71.6149 187.693 71.6149H196.384C197.633 71.6149 198.654 70.5918 198.654 69.3449V64.0171C198.654 62.7673 197.631 61.7471 196.384 61.7471V61.7442Z" fill="#CCE9FF"/>
</svg>
