<svg width="24" height="24" viewBox="0 0 24 24" fill="none" xmlns="http://www.w3.org/2000/svg">
<path d="M9.11218 3.0415C9.8432 2.91882 10.5318 3.08453 11.2665 3.3999C11.9856 3.70866 12.8347 4.19952 13.8905 4.80908L15.7635 5.89111H12.7635C11.8727 5.37829 11.2191 5.01157 10.6747 4.77783C10.0721 4.51915 9.6931 4.46442 9.36121 4.52002C9.21982 4.54375 9.08048 4.5812 8.94617 4.63135C8.6309 4.7491 8.32995 4.9859 7.93738 5.51123C7.85066 5.62731 7.76244 5.75365 7.67078 5.89111H6.99988C6.59024 5.89112 6.19256 5.94204 5.81335 6.03955C6.14503 5.4809 6.44373 5.00395 6.73523 4.61377C7.21372 3.97337 7.7274 3.48535 8.42175 3.22607C8.64543 3.14258 8.87672 3.08105 9.11218 3.0415Z" fill="#242220" fill-opacity="0.56"/>
<path d="M17 5.89062C19.5395 5.89062 21.6142 7.88347 21.7441 10.3906H21.75V16.8906H21.7441C21.6142 19.3978 19.5395 21.3906 17 21.3906H7C4.37665 21.3906 2.25 19.264 2.25 16.6406V10.6406C2.25 8.01727 4.37665 5.89062 7 5.89062H17ZM7 7.39062C5.20507 7.39062 3.75 8.8457 3.75 10.6406V16.6406C3.75 18.4356 5.20507 19.8906 7 19.8906H17C18.7108 19.8906 20.1116 18.5687 20.2393 16.8906H16.5205C14.7256 16.8906 13.2705 15.4356 13.2705 13.6406C13.2705 11.8457 14.7256 10.3906 16.5205 10.3906H20.2393C20.1116 8.71256 18.7108 7.39062 17 7.39062H7ZM16.5205 11.8906C15.554 11.8906 14.7705 12.6741 14.7705 13.6406C14.7705 14.6071 15.554 15.3906 16.5205 15.3906H20.25V11.8906H16.5205Z" fill="#242220" fill-opacity="0.56"/>
<circle cx="16.502" cy="13.6406" r="0.75" fill="#242220" fill-opacity="0.56"/>
</svg>
