<svg width="24" height="24" viewBox="0 0 24 24" fill="none" xmlns="http://www.w3.org/2000/svg">
<path d="M9.1123 3.04108C9.84332 2.91839 10.532 3.0841 11.2666 3.39948C11.9858 3.70823 12.8348 4.19905 13.8906 4.80865L15.7637 5.89069H12.7637C11.8728 5.37787 11.2192 5.01113 10.6748 4.7774C10.0722 4.51872 9.69322 4.464 9.36133 4.51959C9.21992 4.54333 9.08062 4.58077 8.94629 4.63092C8.63097 4.74866 8.33013 4.9854 7.9375 5.5108C7.85087 5.62674 7.76343 5.7534 7.67188 5.89069H7C6.5904 5.8907 6.19265 5.94163 5.81348 6.03912C6.14515 5.48048 6.44385 5.0035 6.73535 4.61334C7.21387 3.9729 7.72745 3.48491 8.42188 3.22565C8.64558 3.14214 8.87682 3.08063 9.1123 3.04108Z" fill="white" fill-opacity="0.56"/>
<path d="M17 5.89062C19.5395 5.89062 21.6142 7.88347 21.7441 10.3906H21.75V16.8906H21.7441C21.6142 19.3978 19.5395 21.3906 17 21.3906H7C4.37665 21.3906 2.25 19.264 2.25 16.6406V10.6406C2.25 8.01727 4.37665 5.89062 7 5.89062H17ZM7 7.39062C5.20507 7.39062 3.75 8.8457 3.75 10.6406V16.6406C3.75 18.4356 5.20507 19.8906 7 19.8906H17C18.7108 19.8906 20.1116 18.5687 20.2393 16.8906H16.5205C14.7256 16.8906 13.2705 15.4356 13.2705 13.6406C13.2705 11.8457 14.7256 10.3906 16.5205 10.3906H20.2393C20.1116 8.71256 18.7108 7.39062 17 7.39062H7ZM16.5205 11.8906C15.554 11.8906 14.7705 12.6741 14.7705 13.6406C14.7705 14.6071 15.554 15.3906 16.5205 15.3906H20.25V11.8906H16.5205Z" fill="white" fill-opacity="0.56"/>
<circle cx="16.502" cy="13.6406" r="0.75" fill="white" fill-opacity="0.56"/>
</svg>
